<svg width="196" height="74" viewBox="0 0 196 74" fill="none" xmlns="http://www.w3.org/2000/svg">
<path d="M8.202 49.976C7.09267 49.72 6.23933 49.2293 5.642 48.504C5.08733 47.736 4.70333 46.8613 4.49 45.88C4.27667 44.8987 4.19133 43.896 4.234 42.872C4.27667 41.8053 4.38333 40.824 4.554 39.928C4.76733 38.8613 4.938 37.88 5.066 36.984C5.194 36.088 5.15133 35.384 4.938 34.872C5.62067 33.08 6.794 31.416 8.458 29.88C10.122 28.344 11.9993 27.0853 14.09 26.104C16.2233 25.1227 18.4207 24.4613 20.682 24.12C22.986 23.7787 25.098 23.9067 27.018 24.504C28.5113 24.9733 29.642 25.592 30.41 26.36C31.2207 27.128 31.6687 27.832 31.754 28.472C31.7967 28.856 31.7327 29.176 31.562 29.432C31.3913 29.6453 31.178 29.816 30.922 29.944C30.666 30.0293 30.41 30.0293 30.154 29.944C29.9407 29.8587 29.7913 29.688 29.706 29.432C29.6207 29.0053 29.7273 28.664 30.026 28.408C30.3247 28.1093 30.6233 28.0453 30.922 28.216C30.026 27.0213 28.874 26.232 27.466 25.848C26.1007 25.464 24.65 25.336 23.114 25.464C21.6207 25.592 20.1487 25.9333 18.698 26.488C17.2473 27.0427 15.9887 27.64 14.922 28.28C12.618 29.688 10.634 31.3947 8.97 33.4C7.34867 35.4053 6.13267 37.688 5.322 40.248C5.02333 41.272 4.85267 42.3173 4.81 43.384C4.76733 44.408 4.85267 45.368 5.066 46.264C5.322 47.16 5.706 47.9493 6.218 48.632C6.73 49.272 7.39133 49.72 8.202 49.976ZM55.626 39.608C56.5647 39.608 57.2047 39.992 57.546 40.76C56.7353 40.4187 56.01 40.3973 55.37 40.696C54.73 40.9947 54.1967 41.464 53.77 42.104C53.3433 42.7013 53.0233 43.4267 52.81 44.28C52.6393 45.0907 52.618 45.9013 52.746 46.712C52.874 47.48 53.1513 48.1627 53.578 48.76C54.0473 49.3147 54.6873 49.6347 55.498 49.72C54.3887 49.7627 53.514 49.272 52.874 48.248C52.2767 47.224 51.9567 46.0933 51.914 44.856C51.914 43.6187 52.2127 42.4667 52.81 41.4C53.4073 40.2907 54.346 39.6933 55.626 39.608ZM44.938 13.304C46.7727 13.3893 48.5647 13.176 50.314 12.664C52.106 12.1093 53.8767 11.4267 55.626 10.616C57.3753 9.76266 59.082 8.888 60.746 7.992C62.4527 7.096 64.0953 6.328 65.674 5.688C67.2953 5.048 68.874 4.664 70.41 4.536C71.9887 4.36533 73.5033 4.62133 74.954 5.304C74.5273 5.38933 73.9513 5.432 73.226 5.432C72.5433 5.432 71.7327 5.53867 70.794 5.752C69.002 6.136 67.274 7.11733 65.61 8.696C63.946 10.232 62.3887 12.1307 60.938 14.392C59.4873 16.6107 58.1647 19.064 56.97 21.752C55.7753 24.3973 54.7513 27.0213 53.898 29.624C54.8367 29.8373 55.6687 30.1573 56.394 30.584C57.162 30.968 57.738 31.4373 58.122 31.992C58.506 32.5467 58.698 33.1227 58.698 33.72C58.698 34.3173 58.442 34.9147 57.93 35.512C57.6313 35.896 57.226 36.1947 56.714 36.408C56.2447 36.5787 55.69 36.5573 55.05 36.344C55.562 35.8747 55.8393 35.3627 55.882 34.808C55.9673 34.2107 55.8607 33.6773 55.562 33.208C55.1353 32.3547 54.3887 31.7573 53.322 31.416C52.7247 33.4213 52.234 35.2987 51.85 37.048C51.466 38.7973 51.21 40.312 51.082 41.592C51.0393 42.104 51.018 42.7227 51.018 43.448C51.018 44.1733 51.0607 44.92 51.146 45.688C51.274 46.456 51.4447 47.1813 51.658 47.864C51.914 48.5467 52.234 49.1013 52.618 49.528C53.002 49.9547 53.4713 50.2107 54.026 50.296C54.6233 50.3813 55.3273 50.1893 56.138 49.72C56.1807 50.4027 55.946 51.128 55.434 51.896C54.9647 52.664 53.9407 53.0907 52.362 53.176C51.1247 53.2187 50.186 52.984 49.546 52.472C48.906 52.0027 48.394 51.4267 48.01 50.744C47.626 50.0187 47.2847 49.272 46.986 48.504C46.73 47.736 46.3673 47.1173 45.898 46.648C46.2393 44.7707 46.8153 42.488 47.626 39.8C48.4793 37.0693 49.5247 34.168 50.762 31.096C49.2687 31.1387 47.6473 31.5013 45.898 32.184C44.1913 32.8667 42.634 33.8053 41.226 35C39.818 36.1947 38.7087 37.6027 37.898 39.224C37.13 40.8027 36.938 42.5093 37.322 44.344C36.5967 43.1067 36.362 41.7413 36.618 40.248C35.4233 41.912 34.2073 43.448 32.97 44.856C31.7327 46.264 30.4313 47.3947 29.066 48.248C28.298 48.0773 27.5087 48.056 26.698 48.184C25.8873 48.2693 25.034 48.44 24.138 48.696C23.2847 48.952 22.41 49.2507 21.514 49.592C20.618 49.8907 19.7007 50.168 18.762 50.424C18.0367 50.7653 17.1833 51.0213 16.202 51.192C15.2633 51.4053 14.2607 51.5973 13.194 51.768C11.146 52.1093 9.354 52.088 7.818 51.704C6.282 51.3627 5.002 50.808 3.978 50.04C2.954 49.272 2.16467 48.3973 1.61 47.416C1.098 46.392 0.799334 45.4107 0.714 44.472C0.628667 43.4907 0.778 42.6373 1.162 41.912C1.546 41.144 2.122 40.632 2.89 40.376C2.20733 41.656 1.994 43 2.25 44.408C2.506 45.816 3.12467 47.096 4.106 48.248C5.13 49.3573 6.474 50.2107 8.138 50.808C9.802 51.4053 11.722 51.512 13.898 51.128C11.85 51.0853 10.2073 50.68 8.97 49.912C7.77533 49.1013 6.922 48.0773 6.41 46.84C5.898 45.56 5.72733 44.152 5.898 42.616C6.11133 41.08 6.602 39.5653 7.37 38.072C8.18067 36.536 9.26867 35.128 10.634 33.848C12.042 32.5253 13.6847 31.4587 15.562 30.648C16.458 30.264 17.482 29.944 18.634 29.688C19.8287 29.3893 21.002 29.2613 22.154 29.304C22.7087 29.304 23.3273 29.4107 24.01 29.624C24.6927 29.7947 25.3113 30.072 25.866 30.456C26.4207 30.7973 26.8473 31.2453 27.146 31.8C27.4873 32.312 27.5727 32.9093 27.402 33.592C27.274 34.1893 26.9967 34.6587 26.57 35C26.7407 34.6587 26.698 34.2107 26.442 33.656C26.2287 33.1013 25.7807 32.696 25.098 32.44C24.202 32.1413 23.1353 32.0773 21.898 32.248C20.7033 32.376 19.4447 32.696 18.122 33.208C16.842 33.72 15.562 34.4027 14.282 35.256C13.0447 36.0667 11.914 37.0053 10.89 38.072C9.90867 39.096 9.098 40.2053 8.458 41.4C7.818 42.552 7.498 43.7467 7.498 44.984C7.498 46.0507 7.73267 47.0107 8.202 47.864C8.714 48.7173 9.56733 49.3787 10.762 49.848C11.658 50.1893 12.874 50.4027 14.41 50.488C15.9033 50.488 17.5033 50.0613 19.21 49.208C20.9167 48.3547 22.666 47.2027 24.458 45.752C23.7327 46.0507 22.9647 46.2213 22.154 46.264C21.386 46.3067 20.6393 46.2213 19.914 46.008C19.2313 45.752 18.634 45.368 18.122 44.856C17.6527 44.3013 17.3327 43.576 17.162 42.68C16.906 41.4 16.9913 40.3547 17.418 39.544C17.8873 38.6907 18.4633 38.072 19.146 37.688C19.8713 37.2613 20.5753 37.0693 21.258 37.112C21.9833 37.1547 22.4953 37.3893 22.794 37.816C21.8127 37.688 21.0233 37.8373 20.426 38.264C19.8713 38.648 19.4873 39.16 19.274 39.8C19.1033 40.44 19.1033 41.144 19.274 41.912C19.4447 42.6373 19.7433 43.2987 20.17 43.896C20.6393 44.4507 21.2367 44.856 21.962 45.112C22.6873 45.368 23.5193 45.3467 24.458 45.048C25.9513 44.3653 27.3167 43.384 28.554 42.104C29.7913 40.7813 30.8153 39.3307 31.626 37.752C32.4367 36.1307 32.9913 34.4667 33.29 32.76C33.5887 31.0107 33.546 29.368 33.162 27.832C33.802 26.68 34.0793 25.5707 33.994 24.504C33.9513 23.3947 33.7167 22.456 33.29 21.688C32.906 20.8773 32.394 20.2587 31.754 19.832C31.114 19.3627 30.5167 19.1707 29.962 19.256C29.962 19.2987 29.962 19.3413 29.962 19.384C30.0047 19.4267 30.026 19.4693 30.026 19.512C30.026 19.768 29.9407 19.96 29.77 20.088C29.5993 20.1733 29.4287 20.216 29.258 20.216C29.0873 20.216 28.9167 20.1733 28.746 20.088C28.618 19.96 28.554 19.768 28.554 19.512C28.554 19.2133 28.6607 18.9787 28.874 18.808C29.13 18.5947 29.4073 18.4667 29.706 18.424C30.0473 18.3387 30.41 18.3173 30.794 18.36C31.178 18.4027 31.498 18.488 31.754 18.616C32.8207 19.1707 33.6527 19.9387 34.25 20.92C34.89 21.9013 35.3167 23.032 35.53 24.312C35.786 25.592 35.8287 26.9573 35.658 28.408C35.53 29.8587 35.21 31.3307 34.698 32.824C34.2287 34.4027 33.6527 35.896 32.97 37.304C34.6767 35.2987 36.2767 33.272 37.77 31.224C39.306 29.1333 40.842 27.064 42.378 25.016C43.9567 22.968 45.578 20.984 47.242 19.064C48.9487 17.144 50.826 15.3093 52.874 13.56C51.2953 14.4133 49.5673 15.2027 47.69 15.928C45.8127 16.6533 43.978 17.1867 42.186 17.528C39.6687 17.9973 37.4927 17.9333 35.658 17.336C33.866 16.696 32.4367 15.7573 31.37 14.52C30.346 13.2827 29.706 11.8747 29.45 10.296C29.2367 8.67466 29.45 7.11733 30.09 5.624C30.73 4.13066 31.69 2.95733 32.97 2.104C34.2927 1.208 35.722 0.653332 37.258 0.439999C38.538 0.269332 39.6047 0.375998 40.458 0.759998C41.354 1.144 42.0367 1.67733 42.506 2.36C43.018 3 43.338 3.72533 43.466 4.536C43.594 5.304 43.5513 6.02933 43.338 6.712C43.1247 7.39466 42.7193 7.94933 42.122 8.376C41.5673 8.76 40.842 8.888 39.946 8.76C40.7567 8.12 41.1833 7.37333 41.226 6.52C41.2687 5.624 41.0553 4.792 40.586 4.024C40.074 3.21333 39.4553 2.63733 38.73 2.296C38.0473 1.912 37.3433 1.72 36.618 1.72C35.8927 1.67733 35.1673 1.784 34.442 2.04C33.7593 2.296 33.162 2.63733 32.65 3.064C32.1807 3.448 31.8393 3.896 31.626 4.408C31.4127 4.92 31.2847 5.45333 31.242 6.008C31.1993 6.52 31.2633 7.01066 31.434 7.48C31.6473 7.90667 31.946 8.22667 32.33 8.44C32.2873 9.80533 32.522 10.9573 33.034 11.896C33.546 12.8347 34.2287 13.6027 35.082 14.2C35.9353 14.7547 36.9167 15.1813 38.026 15.48C39.1353 15.7787 40.266 15.9493 41.418 15.992C42.7833 16.0773 44.0847 16.0133 45.322 15.8C46.5593 15.544 47.7327 15.224 48.842 14.84C49.994 14.4133 51.082 13.944 52.106 13.432C53.1727 12.8773 54.1967 12.3227 55.178 11.768C55.2633 11.6827 55.434 11.5547 55.69 11.384C54.282 12.0667 52.81 12.6853 51.274 13.24C49.738 13.7947 48.2233 14.1787 46.73 14.392C45.706 14.52 44.5327 14.5413 43.21 14.456C41.93 14.328 40.6713 14.072 39.434 13.688C38.2393 13.2613 37.1513 12.6853 36.17 11.96C35.2313 11.2347 34.57 10.3173 34.186 9.208C33.9727 8.568 33.93 7.94933 34.058 7.352C34.2287 6.712 34.5913 6.22133 35.146 5.88C35.018 6.776 35.1887 7.672 35.658 8.568C36.1273 9.42133 36.81 10.1893 37.706 10.872C38.602 11.5547 39.6687 12.1307 40.906 12.6C42.1433 13.0267 43.4873 13.2613 44.938 13.304ZM51.466 29.368C52.362 27.2773 53.3433 25.1867 54.41 23.096C55.4767 20.9627 56.586 18.9573 57.738 17.08C58.89 15.2027 60.0633 13.496 61.258 11.96C62.4527 10.3813 63.6687 9.08 64.906 8.056C62.5167 9.336 60.2127 10.9573 57.994 12.92C55.7753 14.8827 53.642 17.016 51.594 19.32C49.5887 21.624 47.69 24.0133 45.898 26.488C44.1487 28.92 42.5487 31.224 41.098 33.4C42.89 31.9067 44.682 30.8613 46.474 30.264C48.266 29.6667 49.93 29.368 51.466 29.368ZM79.721 13.56C80.4037 13.0053 81.065 12.6213 81.705 12.408C82.3877 12.152 82.9423 12.1307 83.369 12.344C83.7957 12.5147 84.073 12.92 84.201 13.56C84.329 14.2 84.2223 15.0747 83.881 16.184C83.4117 17.592 82.665 19.2347 81.641 21.112C80.617 22.9467 79.4437 24.7813 78.121 26.616C76.7983 28.4507 75.3903 30.1787 73.897 31.8C72.4037 33.4213 70.9743 34.68 69.609 35.576C69.3957 35.8747 69.161 36.216 68.905 36.6C68.6917 36.984 68.4357 37.4107 68.137 37.88C68.777 37.9653 69.3957 38.008 69.993 38.008C70.633 37.9653 71.2517 37.88 71.849 37.752C71.6357 38.2213 71.145 38.4987 70.377 38.584C69.6517 38.6267 68.777 38.6053 67.753 38.52C66.8997 40.0987 66.0037 41.8053 65.065 43.64C64.169 45.4747 63.2517 47.3307 62.313 49.208C61.417 51.0853 60.521 52.9413 59.625 54.776C58.7717 56.6533 57.961 58.4027 57.193 60.024C56.7237 60.92 56.297 61.7947 55.913 62.648C55.4863 63.5013 55.1023 64.3547 54.761 65.208C54.4623 65.848 54.2063 66.4453 53.993 67C53.7797 67.4693 53.5877 67.9173 53.417 68.344C53.2463 68.8133 53.1397 69.0907 53.097 69.176C52.6703 69.0053 52.1157 68.9627 51.433 69.048C50.7503 69.176 50.1103 69.368 49.513 69.624C48.8303 69.88 48.297 70.1573 47.913 70.456C47.529 70.7973 47.1663 71.1173 46.825 71.416C46.4837 71.7573 46.1423 72.0773 45.801 72.376C45.417 72.7173 44.905 73.0373 44.265 73.336C43.7957 73.592 43.2837 73.72 42.729 73.72C42.1743 73.7627 41.6837 73.6987 41.257 73.528C40.7877 73.4 40.4463 73.144 40.233 72.76C39.977 72.4187 39.9557 71.9493 40.169 71.352C40.937 71.9493 41.769 72.184 42.665 72.056C43.5183 71.9707 44.3717 71.6507 45.225 71.096C46.633 70.2 47.9343 68.984 49.129 67.448C50.3237 65.912 51.2837 64.3973 52.009 62.904C52.8623 61.112 53.801 59.2133 54.825 57.208C55.849 55.2453 56.873 53.2187 57.897 51.128C58.921 49.0373 59.945 46.9253 60.969 44.792C61.993 42.616 62.9317 40.504 63.785 38.456C63.017 38.2853 62.5477 38.4347 62.377 38.904C62.2063 39.3307 62.2917 39.7787 62.633 40.248C62.2063 40.1627 61.9077 39.9493 61.737 39.608C61.609 39.2667 61.609 38.9253 61.737 38.584C61.865 38.2 62.121 37.9013 62.505 37.688C62.889 37.432 63.401 37.368 64.041 37.496C64.2543 36.5147 64.169 35.9173 63.785 35.704C63.913 35.704 64.0197 35.7253 64.105 35.768C64.745 35.768 65.449 35.3413 66.217 34.488C66.985 33.592 67.7743 32.4613 68.585 31.096C69.3957 29.688 70.249 28.152 71.145 26.488C72.041 24.7813 72.9583 23.1173 73.897 21.496C74.8357 19.832 75.7743 18.296 76.713 16.888C77.6943 15.48 78.697 14.3707 79.721 13.56ZM70.377 33.72C71.145 33.208 72.0197 32.44 73.001 31.416C74.025 30.3493 75.049 29.1547 76.073 27.832C77.1397 26.4667 78.1637 25.0587 79.145 23.608C80.1263 22.1573 80.9583 20.7707 81.641 19.448C82.3663 18.0827 82.8997 16.888 83.241 15.864C83.625 14.7973 83.7317 14.008 83.561 13.496C83.433 13.1973 83.0277 13.304 82.345 13.816C81.705 14.328 80.8303 15.3733 79.721 16.952C78.6117 18.488 77.289 20.6 75.753 23.288C74.217 25.9333 72.5317 29.2187 70.697 33.144C70.6117 33.272 70.5477 33.3573 70.505 33.4C70.505 33.4427 70.4623 33.5493 70.377 33.72ZM92.839 14.136C93.3083 13.88 93.8203 13.7307 94.375 13.688C94.9723 13.6453 95.4843 13.7093 95.911 13.88C96.3803 14.0507 96.7217 14.328 96.935 14.712C97.1483 15.0533 97.1697 15.5227 96.999 16.12C96.1883 15.5227 95.335 15.288 94.439 15.416C93.5857 15.5013 92.7323 15.8213 91.879 16.376C91.1537 16.8453 90.3857 17.5493 89.575 18.488C88.7643 19.4267 87.9323 20.536 87.079 21.816C86.2257 23.096 85.351 24.504 84.455 26.04C83.559 27.576 82.7057 29.1333 81.895 30.712C82.4923 30.7547 82.919 30.776 83.175 30.776C83.4737 30.776 83.9217 30.712 84.519 30.584C84.3057 31.0533 84.007 31.3093 83.623 31.352C83.239 31.3947 82.5563 31.3947 81.575 31.352C80.8497 32.7173 80.167 34.0613 79.527 35.384C78.887 36.664 78.2897 37.9013 77.735 39.096C77.1803 40.248 76.6897 41.3147 76.263 42.296C75.8363 43.2347 75.4737 44.024 75.175 44.664C74.919 45.3467 74.6843 46.1147 74.471 46.968C74.2577 47.7787 74.151 48.4827 74.151 49.08C74.1937 49.6347 74.343 49.976 74.599 50.104C74.8977 50.1893 75.4097 49.8693 76.135 49.144C76.7323 48.504 77.415 47.672 78.183 46.648C78.9937 45.624 79.7617 44.536 80.487 43.384C81.255 42.232 81.9377 41.1227 82.535 40.056C83.175 38.9467 83.6657 38.008 84.007 37.24C84.135 37.496 84.0923 37.944 83.879 38.584C83.6657 39.1813 83.3457 39.8853 82.919 40.696C82.535 41.464 82.0443 42.296 81.447 43.192C80.8923 44.088 80.3377 44.9413 79.783 45.752C79.2283 46.5627 78.695 47.3093 78.183 47.992C77.7137 48.632 77.3297 49.1227 77.031 49.464C76.5617 49.9333 76.135 50.3173 75.751 50.616C75.367 50.9147 75.0043 51.0427 74.663 51C74.0657 50.9573 73.6177 50.744 73.319 50.36C73.063 49.9333 72.807 49.4853 72.551 49.016C72.3377 48.5467 72.0817 48.1413 71.783 47.8C71.4843 47.416 71.015 47.224 70.375 47.224C70.4177 46.328 70.6737 45.2827 71.143 44.088C71.655 42.8933 72.2737 41.6133 72.999 40.248C73.7243 38.84 74.5137 37.368 75.367 35.832C76.263 34.296 77.159 32.76 78.055 31.224C76.9457 31.096 76.1563 31.352 75.687 31.992C75.2177 32.632 75.2603 33.3787 75.815 34.232C75.303 34.232 74.919 33.9973 74.663 33.528C74.407 33.0587 74.3643 32.568 74.535 32.056C74.7057 31.5013 75.0897 31.032 75.687 30.648C76.327 30.264 77.2657 30.1573 78.503 30.328C79.6977 28.2373 80.743 26.232 81.639 24.312C82.5777 22.3493 83.1963 20.5787 83.495 19C83.9643 19.1707 84.5403 19.2133 85.223 19.128C85.9057 19 86.5457 18.8293 87.143 18.616C87.783 18.36 88.3163 18.04 88.743 17.656C89.2123 17.272 89.639 16.8667 90.023 16.44C90.4497 16.0133 90.8763 15.608 91.303 15.224C91.7297 14.7973 92.2417 14.4347 92.839 14.136ZM94.8675 40.312C95.2088 39.7147 95.5928 39.0747 96.0195 38.392C96.4888 37.6667 96.8302 37.0907 97.0435 36.664C97.0435 37.0053 96.8088 37.6667 96.3395 38.648C95.9128 39.6293 95.4008 40.6533 94.8035 41.72C94.3768 42.4453 93.9075 43.2133 93.3955 44.024C92.8835 44.792 92.3928 45.5387 91.9235 46.264C91.4115 46.9467 90.8355 47.6507 90.1955 48.376C89.5555 49.0587 88.8515 49.656 88.0835 50.168C87.3155 50.6373 86.4835 50.9573 85.5875 51.128C84.7342 51.3413 83.8382 51.2773 82.8995 50.936C82.4728 50.808 82.1315 50.552 81.8755 50.168C81.6622 49.7413 81.4488 49.3147 81.2355 48.888C81.0222 48.4613 80.7662 48.0987 80.4675 47.8C80.1688 47.4587 79.7422 47.288 79.1875 47.288C79.3155 45.752 79.7635 44.0667 80.5315 42.232C81.3422 40.3547 82.3448 38.6053 83.5395 36.984C84.7768 35.3627 86.1422 33.9973 87.6355 32.888C89.1288 31.7787 90.6222 31.2027 92.1155 31.16C92.7128 31.16 93.2035 31.2453 93.5875 31.416C93.9715 31.544 94.3128 31.7147 94.6115 31.928C95.2515 32.44 95.4862 33.3147 95.3155 34.552C95.1875 35.7893 94.7822 37.048 94.0995 38.328C93.4595 39.608 92.6062 40.76 91.5395 41.784C90.4728 42.7653 89.3422 43.2987 88.1475 43.384C87.4222 43.4267 86.8035 43.2987 86.2915 43C85.7795 42.6587 85.5022 42.1253 85.4595 41.4C86.0568 41.784 86.7395 41.8907 87.5075 41.72C88.2755 41.5067 89.0222 41.144 89.7475 40.632C90.5155 40.0773 91.2195 39.416 91.8595 38.648C92.5422 37.8373 93.0968 37.048 93.5235 36.28C93.9928 35.512 94.3128 34.808 94.4835 34.168C94.6542 33.528 94.6115 33.0587 94.3555 32.76C94.0995 32.4613 93.6302 32.3973 92.9475 32.568C92.2648 32.7387 91.3262 33.336 90.1315 34.36C89.4488 34.9573 88.7662 35.704 88.0835 36.6C87.4008 37.4533 86.7395 38.392 86.0995 39.416C85.5022 40.3973 84.9688 41.4 84.4995 42.424C84.0728 43.448 83.7315 44.408 83.4755 45.304C83.2622 46.1147 83.1555 46.9467 83.1555 47.8C83.1555 48.6107 83.4542 49.1227 84.0515 49.336C84.7768 49.592 85.4808 49.656 86.1635 49.528C86.8888 49.4 87.5502 49.144 88.1475 48.76C88.7875 48.376 89.3635 47.928 89.8755 47.416C90.4302 46.8613 90.8995 46.3067 91.2835 45.752C91.9235 44.8987 92.5422 44.0027 93.1395 43.064C93.7795 42.0827 94.3555 41.1653 94.8675 40.312ZM109.478 37.432C109.478 37.7733 109.286 38.3493 108.902 39.16C108.561 39.9707 108.091 40.888 107.494 41.912C106.897 42.8933 106.214 43.9387 105.446 45.048C104.721 46.1147 103.974 47.1173 103.206 48.056C102.481 48.952 101.777 49.6987 101.094 50.296C100.454 50.8507 99.942 51.1067 99.558 51.064C98.9607 51.0213 98.5127 50.808 98.214 50.424C97.958 50.04 97.702 49.6133 97.446 49.144C97.2327 48.6747 96.9767 48.2693 96.678 47.928C96.3793 47.544 95.91 47.352 95.27 47.352C95.3127 46.4987 95.5687 45.56 96.038 44.536C96.55 43.512 97.126 42.488 97.766 41.464C98.406 40.3973 99.046 39.3733 99.686 38.392C100.369 37.4107 100.923 36.5573 101.35 35.832C101.862 34.9787 102.118 34.3173 102.118 33.848C102.161 33.3787 102.054 33.0373 101.798 32.824C101.542 32.568 101.201 32.4187 100.774 32.376C100.347 32.3333 99.942 32.312 99.558 32.312C99.43 32.696 99.2167 33.208 98.918 33.848C98.662 34.4453 98.3633 35.1067 98.022 35.832C97.7233 36.5147 97.4033 37.1973 97.062 37.88C96.7633 38.5627 96.4647 39.1387 96.166 39.608C95.4833 40.76 94.7793 41.912 94.054 43.064C93.3287 44.216 92.6673 45.048 92.07 45.56C92.4113 45.0907 92.7313 44.5573 93.03 43.96C93.3713 43.32 93.7127 42.6587 94.054 41.976C94.5233 41.08 94.9287 40.248 95.27 39.48C95.654 38.712 96.0167 37.9653 96.358 37.24C96.6993 36.472 97.0193 35.704 97.318 34.936C97.6593 34.1253 98.0007 33.2507 98.342 32.312C97.7873 32.1413 97.51 31.8213 97.51 31.352C97.51 30.8827 97.574 30.3707 97.702 29.816C97.8727 29.2187 98.0007 28.664 98.086 28.152C98.1713 27.5973 98.0007 27.192 97.574 26.936C98.47 26.6373 99.238 26.8507 99.878 27.576C100.518 28.3013 100.582 29.4533 100.07 31.032C100.027 30.9893 99.9847 30.9893 99.942 31.032C99.942 31.032 99.9847 31.032 100.07 31.032L99.878 31.416C101.414 31.3733 102.523 31.6293 103.206 32.184C103.889 32.696 104.273 33.4 104.358 34.296C104.486 35.1493 104.358 36.1093 103.974 37.176C103.59 38.2427 103.099 39.288 102.502 40.312C102.118 40.9093 101.734 41.5493 101.35 42.232C100.966 42.9147 100.603 43.6187 100.262 44.344C100.006 44.9413 99.75 45.624 99.494 46.392C99.2807 47.1173 99.1313 47.8 99.046 48.44C99.0033 49.08 99.046 49.5707 99.174 49.912C99.3447 50.2533 99.6647 50.2747 100.134 49.976C100.689 49.6773 101.414 48.9947 102.31 47.928C103.249 46.8187 104.187 45.624 105.126 44.344C106.107 43.0213 106.982 41.72 107.75 40.44C108.561 39.16 109.137 38.1573 109.478 37.432ZM126.902 14.136C127.371 13.88 127.883 13.7307 128.438 13.688C129.035 13.6453 129.547 13.7093 129.974 13.88C130.443 14.0507 130.784 14.328 130.998 14.712C131.211 15.0533 131.232 15.5227 131.062 16.12C130.251 15.5227 129.398 15.288 128.502 15.416C127.648 15.5013 126.795 15.8213 125.942 16.376C124.534 17.272 123.232 18.488 122.038 20.024C120.843 21.56 119.883 23.0747 119.158 24.568C118.262 26.488 117.216 28.5787 116.022 30.84C114.87 33.0587 113.718 35.32 112.566 37.624C113.419 36.856 114.358 36.1947 115.382 35.64C116.448 35.0427 117.472 34.424 118.454 33.784C119.222 33.3147 119.99 32.696 120.758 31.928C121.568 31.16 122.016 30.2853 122.102 29.304C122.102 28.7493 121.846 28.408 121.333 28.28C121.675 27.9813 122.038 27.832 122.422 27.832C122.848 27.832 123.211 27.9387 123.51 28.152C123.851 28.3227 124.107 28.6 124.278 28.984C124.491 29.368 124.555 29.7947 124.47 30.264C124.384 30.8613 124.128 31.3947 123.702 31.864C123.318 32.2907 122.827 32.696 122.23 33.08C121.675 33.464 121.035 33.8267 120.31 34.168C119.627 34.5093 118.902 34.8507 118.134 35.192C118.646 35.192 119.072 35.2773 119.414 35.448C120.48 35.8747 121.035 36.5573 121.078 37.496C121.12 38.4347 120.95 39.4373 120.566 40.504C120.31 41.1867 120.011 41.848 119.67 42.488C119.328 43.0853 118.987 43.704 118.646 44.344C118.347 44.984 118.091 45.6453 117.878 46.328C117.707 47.0107 117.622 47.7573 117.622 48.568C117.664 49.2933 117.856 49.784 118.198 50.04C118.582 50.2533 119.158 49.976 119.926 49.208C120.523 48.568 121.206 47.736 121.974 46.712C122.784 45.6453 123.552 44.536 124.278 43.384C125.046 42.232 125.728 41.1227 126.326 40.056C126.966 38.9467 127.456 38.008 127.798 37.24C127.926 37.496 127.883 37.944 127.67 38.584C127.456 39.1813 127.136 39.8853 126.71 40.696C126.326 41.464 125.835 42.296 125.238 43.192C124.683 44.088 124.128 44.9413 123.574 45.752C123.019 46.5627 122.486 47.3093 121.974 47.992C121.504 48.632 121.12 49.1227 120.822 49.464C120.352 49.9333 119.926 50.3173 119.542 50.616C119.158 50.9147 118.795 51.0427 118.454 51C117.856 50.9573 117.408 50.744 117.11 50.36C116.854 49.9333 116.598 49.4853 116.342 49.016C116.128 48.5467 115.872 48.1413 115.574 47.8C115.275 47.416 114.806 47.224 114.166 47.224C114.251 46.4987 114.464 45.752 114.806 44.984C114.934 44.6427 115.19 44.0667 115.574 43.256C116 42.4027 116.384 41.528 116.726 40.632C117.067 39.6933 117.302 38.8613 117.43 38.136C117.6 37.368 117.494 36.8987 117.11 36.728C116.854 36.6 116.448 36.6427 115.894 36.856C115.339 37.0267 114.742 37.3253 114.102 37.752C113.462 38.136 112.822 38.6693 112.182 39.352C111.584 39.992 111.094 40.7173 110.71 41.528C110.411 42.1253 110.07 42.8507 109.686 43.704C109.302 44.5147 108.982 45.368 108.726 46.264C108.47 47.1173 108.299 47.9707 108.214 48.824C108.171 49.6347 108.342 50.36 108.726 51C108.128 50.9573 107.68 50.744 107.382 50.36C107.083 49.9333 106.806 49.4853 106.549 49.016C106.336 48.5467 106.08 48.1413 105.782 47.8C105.483 47.416 105.035 47.224 104.438 47.224C104.48 46.328 104.8 45.176 105.398 43.768C106.038 42.36 106.806 40.824 107.702 39.16C108.598 37.496 109.558 35.7467 110.582 33.912C111.648 32.0347 112.651 30.2213 113.59 28.472C114.571 26.68 115.403 24.9733 116.086 23.352C116.811 21.688 117.302 20.2373 117.558 19C118.454 19.384 119.328 19.4053 120.182 19.064C121.078 18.68 121.91 18.1893 122.678 17.592C123.488 16.952 124.235 16.2907 124.918 15.608C125.643 14.9253 126.304 14.4347 126.902 14.136ZM146.74 37.432C146.74 37.7733 146.548 38.3493 146.164 39.16C145.822 39.928 145.353 40.824 144.756 41.848C144.158 42.872 143.476 43.9387 142.708 45.048C141.982 46.1147 141.236 47.096 140.468 47.992C139.742 48.888 139.038 49.6347 138.356 50.232C137.716 50.7867 137.204 51.0427 136.82 51C136.222 50.9573 135.774 50.744 135.476 50.36C135.177 49.976 134.9 49.5493 134.644 49.08C134.43 48.6107 134.174 48.2053 133.876 47.864C133.577 47.48 133.129 47.288 132.532 47.288C132.532 47.0747 132.553 46.8613 132.595 46.648C132.638 46.392 132.702 46.1573 132.788 45.944C132.574 46.2853 132.361 46.584 132.148 46.84C131.977 47.096 131.828 47.3093 131.7 47.48C130.974 48.504 130.27 49.3573 129.588 50.04C128.905 50.7227 128.308 51.0427 127.796 51C127.198 50.9573 126.729 50.744 126.388 50.36C126.089 49.9333 125.79 49.4853 125.492 49.016C125.236 48.5467 124.937 48.1413 124.596 47.8C124.254 47.416 123.785 47.224 123.188 47.224C123.316 45.7733 123.636 44.2587 124.148 42.68C124.702 41.1013 125.428 39.608 126.324 38.2C127.22 36.792 128.265 35.5333 129.46 34.424C130.654 33.272 131.934 32.3973 133.3 31.8C133.982 31.5013 134.686 31.3093 135.412 31.224C136.137 31.1387 136.777 31.2027 137.332 31.416C137.886 31.5867 138.313 31.928 138.612 32.44C138.953 32.952 139.081 33.656 138.996 34.552C139.081 34.3813 139.166 34.1467 139.252 33.848C139.38 33.5067 139.465 33.1867 139.508 32.888C139.593 32.5893 139.614 32.312 139.572 32.056C139.572 31.8 139.508 31.608 139.38 31.48C139.806 31.3947 140.169 31.5013 140.468 31.8C140.766 32.0987 141.065 32.4827 141.364 32.952C141.705 33.3787 142.046 33.8267 142.388 34.296C142.729 34.7653 143.134 35.128 143.604 35.384C143.348 35.3413 143.092 35.4053 142.836 35.576C142.58 35.704 142.324 35.896 142.068 36.152C141.812 36.408 141.577 36.6853 141.364 36.984C141.15 37.2827 140.98 37.56 140.852 37.816C139.998 39.3093 139.252 40.696 138.612 41.976C138.014 43.256 137.417 44.664 136.82 46.2C136.649 46.7547 136.521 47.3093 136.436 47.864C136.35 48.376 136.308 48.824 136.308 49.208C136.35 49.592 136.457 49.8693 136.628 50.04C136.798 50.2107 137.054 50.1893 137.396 49.976C137.95 49.6347 138.676 48.9307 139.572 47.864C140.51 46.7973 141.449 45.6027 142.388 44.28C143.369 42.9573 144.244 41.6773 145.012 40.44C145.822 39.16 146.398 38.1573 146.74 37.432ZM130.74 47.352C131.124 46.84 131.55 46.2213 132.02 45.496C132.489 44.728 132.98 43.9387 133.492 43.128C134.004 42.2747 134.516 41.4427 135.028 40.632C135.54 39.8213 136.03 39.0533 136.5 38.328C136.03 38.4987 135.646 38.52 135.348 38.392C135.049 38.2213 134.793 38.008 134.58 37.752C134.409 37.496 134.302 37.24 134.26 36.984C134.217 36.6853 134.238 36.472 134.324 36.344C134.836 36.7707 135.348 36.8773 135.86 36.664C136.372 36.4507 136.82 36.1093 137.204 35.64C137.588 35.128 137.844 34.5947 137.972 34.04C138.142 33.4427 138.121 33.016 137.908 32.76C137.694 32.4613 137.246 32.4187 136.564 32.632C135.924 32.8027 134.964 33.4 133.684 34.424C132.062 35.7467 130.782 37.2613 129.844 38.968C128.905 40.6747 128.158 42.5307 127.604 44.536C127.39 45.304 127.22 46.1787 127.092 47.16C127.006 48.1413 127.049 48.9093 127.22 49.464C127.39 50.0187 127.732 50.1893 128.244 49.976C128.798 49.7627 129.63 48.888 130.74 47.352ZM152.952 31.352C151.8 29.944 151.245 28.8347 151.288 28.024C151.33 27.1707 151.586 26.4453 152.056 25.848C152.568 25.2507 153.08 24.696 153.592 24.184C154.146 23.672 154.338 22.9893 154.168 22.136C155.192 23.544 155.725 24.696 155.768 25.592C155.853 26.4453 155.704 27.192 155.32 27.832C154.978 28.4293 154.53 29.0053 153.976 29.56C153.464 30.072 153.122 30.6693 152.952 31.352ZM155.896 37.368C155.896 37.7093 155.704 38.2853 155.32 39.096C154.978 39.9067 154.509 40.824 153.912 41.848C153.314 42.8293 152.632 43.8747 151.864 44.984C151.138 46.0507 150.392 47.0533 149.624 47.992C148.898 48.888 148.194 49.6347 147.512 50.232C146.872 50.7867 146.36 51.0427 145.976 51C145.378 50.9573 144.93 50.744 144.632 50.36C144.333 49.9333 144.056 49.4853 143.799 49.016C143.586 48.5467 143.33 48.1413 143.032 47.8C142.733 47.416 142.285 47.224 141.688 47.224C141.73 46.584 141.965 45.7733 142.392 44.792C142.861 43.8107 143.394 42.7653 143.992 41.656C144.589 40.504 145.208 39.352 145.848 38.2C146.488 37.0053 147.042 35.9173 147.512 34.936C148.024 33.9547 148.386 33.1227 148.6 32.44C148.856 31.7147 148.856 31.2453 148.6 31.032C149.026 30.9467 149.389 31.096 149.688 31.48C149.986 31.8213 150.285 32.248 150.584 32.76C150.882 33.2293 151.202 33.72 151.544 34.232C151.885 34.744 152.29 35.1067 152.76 35.32C152.504 35.2773 152.248 35.3413 151.992 35.512C151.736 35.6827 151.48 35.896 151.224 36.152C150.968 36.408 150.733 36.6853 150.52 36.984C150.306 37.2827 150.136 37.56 150.008 37.816C149.624 38.4987 149.176 39.288 148.664 40.184C148.194 41.0373 147.725 41.9547 147.256 42.936C146.829 43.8747 146.445 44.8347 146.104 45.816C145.805 46.7547 145.613 47.608 145.528 48.376C145.442 49.016 145.464 49.5067 145.592 49.848C145.762 50.1893 146.082 50.2107 146.552 49.912C147.106 49.6133 147.832 48.9307 148.728 47.864C149.666 46.7547 150.605 45.56 151.544 44.28C152.525 42.9573 153.4 41.656 154.168 40.376C154.978 39.096 155.554 38.0933 155.896 37.368ZM168.541 37.432C168.541 37.7733 168.349 38.3493 167.965 39.16C167.623 39.9707 167.154 40.888 166.557 41.912C165.959 42.8933 165.277 43.9387 164.509 45.048C163.783 46.1147 163.037 47.1173 162.269 48.056C161.543 48.952 160.839 49.6987 160.157 50.296C159.517 50.8507 159.005 51.1067 158.621 51.064C158.023 51.0213 157.575 50.808 157.277 50.424C157.021 50.04 156.765 49.6133 156.509 49.144C156.295 48.6747 156.039 48.2693 155.741 47.928C155.442 47.544 154.973 47.352 154.333 47.352C154.375 46.4987 154.631 45.56 155.101 44.536C155.613 43.512 156.189 42.488 156.829 41.464C157.469 40.3973 158.109 39.3733 158.749 38.392C159.431 37.4107 159.986 36.5573 160.413 35.832C160.925 34.9787 161.181 34.3173 161.181 33.848C161.223 33.3787 161.117 33.0373 160.861 32.824C160.605 32.568 160.263 32.4187 159.837 32.376C159.41 32.3333 159.005 32.312 158.621 32.312C158.493 32.696 158.279 33.208 157.981 33.848C157.725 34.4453 157.426 35.1067 157.085 35.832C156.786 36.5147 156.466 37.1973 156.125 37.88C155.826 38.5627 155.527 39.1387 155.229 39.608C154.546 40.76 153.842 41.912 153.117 43.064C152.391 44.216 151.73 45.048 151.133 45.56C151.474 45.0907 151.794 44.5573 152.093 43.96C152.434 43.32 152.775 42.6587 153.117 41.976C153.586 41.08 153.991 40.248 154.333 39.48C154.717 38.712 155.079 37.9653 155.421 37.24C155.762 36.472 156.082 35.704 156.381 34.936C156.722 34.1253 157.063 33.2507 157.405 32.312C156.85 32.1413 156.573 31.8213 156.573 31.352C156.573 30.8827 156.637 30.3707 156.765 29.816C156.935 29.2187 157.063 28.664 157.149 28.152C157.234 27.5973 157.063 27.192 156.637 26.936C157.533 26.6373 158.301 26.8507 158.941 27.576C159.581 28.3013 159.645 29.4533 159.133 31.032C159.09 30.9893 159.047 30.9893 159.005 31.032C159.005 31.032 159.047 31.032 159.133 31.032L158.941 31.416C160.477 31.3733 161.586 31.6293 162.269 32.184C162.951 32.696 163.335 33.4 163.421 34.296C163.549 35.1493 163.421 36.1093 163.037 37.176C162.653 38.2427 162.162 39.288 161.565 40.312C161.181 40.9093 160.797 41.5493 160.413 42.232C160.029 42.9147 159.666 43.6187 159.325 44.344C159.069 44.9413 158.813 45.624 158.557 46.392C158.343 47.1173 158.194 47.8 158.109 48.44C158.066 49.08 158.109 49.5707 158.237 49.912C158.407 50.2533 158.727 50.2747 159.197 49.976C159.751 49.6773 160.477 48.9947 161.373 47.928C162.311 46.8187 163.25 45.624 164.189 44.344C165.17 43.0213 166.045 41.72 166.812 40.44C167.623 39.16 168.199 38.1573 168.541 37.432ZM181.164 39.992C181.505 39.3947 181.889 38.7547 182.316 38.072C182.785 37.3467 183.127 36.7707 183.34 36.344C183.34 36.6427 183.105 37.304 182.636 38.328C182.209 39.3093 181.697 40.312 181.1 41.336C180.759 41.976 180.332 42.6587 179.82 43.384C179.351 44.0667 178.817 44.7067 178.22 45.304C177.623 45.8587 176.94 46.3067 176.172 46.648C175.447 46.9467 174.657 47.0107 173.804 46.84C172.695 48.376 171.735 49.4213 170.924 49.976C170.156 50.5307 169.409 50.7867 168.684 50.744C168.087 50.7013 167.553 50.488 167.084 50.104C166.657 49.72 166.252 49.2933 165.868 48.824C165.484 48.3547 165.1 47.9493 164.716 47.608C164.332 47.224 163.927 47.0533 163.5 47.096C163.457 46.584 163.479 45.944 163.564 45.176C163.649 44.408 163.799 43.6613 164.012 42.936C164.268 41.9973 164.695 40.952 165.292 39.8C165.889 38.6053 166.572 37.432 167.34 36.28C168.151 35.128 169.025 34.0827 169.964 33.144C170.903 32.2053 171.841 31.5013 172.78 31.032C173.847 30.52 174.828 30.4133 175.724 30.712C176.705 31.0533 177.345 31.736 177.644 32.76C177.943 33.7413 178.028 34.808 177.9 35.96C177.815 37.112 177.559 38.2427 177.132 39.352C176.705 40.4187 176.236 41.1653 175.724 41.592C175.425 41.8907 175.105 42.0613 174.764 42.104C174.465 42.1467 174.188 42.104 173.932 41.976C173.676 41.848 173.484 41.656 173.356 41.4C173.271 41.144 173.292 40.888 173.42 40.632C173.932 40.8453 174.444 40.632 174.956 39.992C175.468 39.3093 175.895 38.52 176.236 37.624C176.62 36.6853 176.833 35.7467 176.876 34.808C176.961 33.8693 176.812 33.208 176.428 32.824C176.215 32.6107 175.959 32.504 175.66 32.504C174.892 32.504 174.081 32.888 173.228 33.656C172.417 34.3813 171.628 35.32 170.86 36.472C170.092 37.624 169.409 38.8827 168.812 40.248C168.215 41.6133 167.788 42.9147 167.532 44.152C167.276 45.3467 167.212 46.4133 167.34 47.352C167.511 48.2907 167.98 48.9093 168.748 49.208C169.26 49.4213 169.857 49.336 170.54 48.952C171.265 48.5253 172.055 47.7147 172.908 46.52C172.524 46.264 172.353 45.9653 172.396 45.624C172.439 45.24 172.524 44.8773 172.652 44.536C172.78 44.152 172.908 43.8107 173.036 43.512C173.164 43.1707 173.143 42.8933 172.972 42.68C173.527 42.5947 173.996 42.744 174.38 43.128C174.807 43.512 174.913 44.0667 174.7 44.792C174.657 45.2187 174.487 45.688 174.188 46.2C174.913 46.3707 175.617 46.2427 176.3 45.816C177.025 45.3893 177.687 44.856 178.284 44.216C178.881 43.5333 179.415 42.808 179.884 42.04C180.396 41.2293 180.823 40.5467 181.164 39.992ZM186.849 33.528C186.721 34.04 186.87 34.7013 187.297 35.512C187.723 36.3227 188.214 37.2613 188.769 38.328C189.323 39.352 189.814 40.504 190.241 41.784C190.667 43.0213 190.795 44.3653 190.625 45.816C190.198 45.7307 189.793 45.8373 189.409 46.136C189.025 46.4347 188.641 46.776 188.257 47.16C187.403 48.3973 186.315 49.3787 184.993 50.104C183.67 50.7867 182.39 51.128 181.153 51.128C179.745 51.128 178.678 50.7227 177.953 49.912C177.27 49.1013 176.886 48.1627 176.8 47.096C176.672 45.9867 176.843 44.856 177.312 43.704C177.782 42.5093 178.486 41.5493 179.424 40.824C180.534 39.416 181.707 37.8373 182.945 36.088C184.225 34.3387 185.419 32.8027 186.529 31.48C186.998 30.968 187.51 30.6907 188.065 30.648C188.619 30.5627 189.089 30.8613 189.473 31.544C188.875 31.5867 188.342 31.7787 187.873 32.12C187.403 32.4187 187.062 32.888 186.849 33.528ZM181.217 49.848C181.857 49.8907 182.475 49.7627 183.073 49.464C183.713 49.1653 184.267 48.7387 184.737 48.184C185.249 47.6293 185.654 46.9893 185.953 46.264C186.294 45.496 186.507 44.7067 186.593 43.896C186.593 43.128 186.507 42.36 186.337 41.592C186.209 40.7813 186.059 39.9707 185.889 39.16C185.761 38.3493 185.633 37.56 185.505 36.792C185.377 36.024 185.334 35.2773 185.377 34.552C184.609 35.576 183.905 36.4933 183.265 37.304C182.625 38.072 182.049 38.9253 181.536 39.864C182.475 39.864 183.222 39.864 183.777 39.864C184.331 39.8213 184.715 39.9493 184.929 40.248C184.843 40.5467 184.886 40.8667 185.057 41.208C185.27 41.5493 185.441 41.9333 185.569 42.36C185.739 42.744 185.825 43.1707 185.825 43.64C185.825 44.1093 185.611 44.6213 185.185 45.176C185.227 44.6213 185.057 44.1947 184.673 43.896C184.331 43.5547 183.883 43.3627 183.329 43.32C182.817 43.2347 182.262 43.2773 181.665 43.448C181.11 43.6187 180.619 43.9387 180.193 44.408C179.766 44.9627 179.446 45.56 179.233 46.2C179.019 46.7973 178.934 47.3733 178.977 47.928C179.062 48.44 179.275 48.888 179.617 49.272C179.958 49.6133 180.491 49.8053 181.217 49.848ZM191.392 47.16C192.458 46.776 193.29 46.776 193.888 47.16C194.485 47.544 194.848 48.056 194.976 48.696C195.146 49.2933 195.082 49.8693 194.784 50.424C194.485 50.9787 193.973 51.2347 193.248 51.192C192.778 51.1493 192.373 51.0427 192.032 50.872C191.733 50.6587 191.285 50.7227 190.688 51.064C190.688 50.7227 190.73 50.424 190.816 50.168C190.944 49.912 191.05 49.656 191.136 49.4C191.264 49.1013 191.349 48.7813 191.392 48.44C191.434 48.0987 191.434 47.672 191.392 47.16Z" fill="url(#paint0_linear_784_21)"/>
<defs>
<linearGradient id="paint0_linear_784_21" x1="95" y1="2" x2="95" y2="67" gradientUnits="userSpaceOnUse">
<stop stop-color="#FFF600"/>
<stop offset="1" stop-color="#FFA100"/>
</linearGradient>
</defs>
</svg>
