<svg width="600" height="226" viewBox="0 0 600 226" fill="none" xmlns="http://www.w3.org/2000/svg">
<g clip-path="url(#clip0_956_2031)">
<mask id="mask0_956_2031" style="mask-type:luminance" maskUnits="userSpaceOnUse" x="0" y="0" width="600" height="226">
<path d="M600 0H0V226H600V0Z" fill="white"/>
</mask>
<g mask="url(#mask0_956_2031)">
<path d="M352.382 152.104C347.36 148.639 345.636 143.673 345.463 138.052C345.302 132.811 345.329 127.562 345.407 122.319C345.417 121.673 346.137 120.877 346.736 120.428C350.686 117.467 354.693 114.581 359.119 111.351C356.459 108.985 354.23 106.896 351.882 104.949C350.227 103.578 348.488 102.269 346.642 101.176C345.023 100.218 344.482 98.8832 344.325 96.4382C347.308 98.0624 349.96 99.38 352.47 100.929C353.617 101.637 354.534 101.822 355.844 101.425C361.244 99.7859 365.143 96.147 368.751 92.0777C369.276 91.4864 369.8 90.8951 370.32 90.2999C372.621 87.6669 372.607 87.6958 375.757 89.1682C380.339 91.3105 382.954 95.0239 383.355 99.8959C383.891 106.398 383.908 112.944 384.111 119.472C384.272 124.641 384.291 129.815 384.544 134.978C384.669 137.544 386.045 139.574 388.139 141.089C391.903 143.814 395.714 143.032 397.789 138.882C398.571 137.317 399.17 135.465 399.177 133.741C399.213 124.77 399.015 115.798 398.934 106.826C398.911 104.166 397.54 102.389 395.418 101.036C394.278 100.309 393.133 99.5875 392.232 99.0165C395.325 95.1965 398.355 91.4528 401.494 87.5771C403.058 88.4242 404.914 89.3472 406.688 90.4073C409.883 92.318 412.082 95.0408 412.338 98.8379C412.733 104.704 412.949 110.584 413.132 116.462C413.32 122.488 413.281 128.523 413.539 134.545C413.646 137.024 414.653 139.232 416.756 140.869C420.535 143.81 424.437 143.053 426.447 138.666C427.205 137.014 427.689 135.088 427.717 133.279C427.842 125.236 427.705 117.19 427.768 109.146C427.802 104.822 426.123 101.681 422.106 99.8756C421.536 99.619 421.051 99.1752 420.758 98.9764C423.86 95.1758 426.912 91.4364 429.916 87.757C436.459 89.6444 440.077 94.688 442.313 100.976C442.58 101.726 442.403 102.643 442.39 103.482C442.196 113.169 441.993 122.857 441.799 132.544C441.7 137.542 444.169 140.784 448.705 142.623C449.297 142.863 449.849 143.212 450.41 143.519C450.466 143.548 450.484 143.637 450.622 143.873C444.877 146.426 440.349 150.464 436.412 156.084C434.008 153.482 431.802 151.034 429.518 148.66C428.832 147.945 427.957 147.396 427.12 146.844C422.541 143.826 419.696 143.989 415.492 147.608C414.136 148.775 412.895 150.088 411.684 151.411C410.474 152.733 409.368 154.151 408.136 155.623C406.289 153.765 404.512 151.916 402.662 150.142C401.63 149.151 400.536 148.201 399.369 147.375C393.015 142.882 387.992 143.529 382.998 149.53C381.212 151.677 379.606 153.972 377.828 156.32C373.862 152.717 371.57 148.15 369.61 142.713C366.192 147.321 362.975 151.657 359.574 156.241C357.313 154.947 354.91 153.571 352.382 152.104ZM363.549 122.169C362.172 119.082 360.795 115.994 359.418 112.907C359.124 112.962 358.831 113.019 358.537 113.074C358.802 120.262 359.023 127.452 359.359 134.636C359.457 136.733 360.742 138.341 362.557 139.204C364.983 140.356 367.564 141.182 370.31 142.238C370.31 132.918 370.337 124.022 370.294 115.126C370.282 112.545 370.12 109.962 369.94 107.386C369.734 104.445 366.072 99.9282 363.929 100.367C360.403 101.09 356.981 102.32 353.326 103.392C360.133 110.698 365.215 118.565 367.055 128.135C366.852 128.239 366.649 128.343 366.445 128.447C365.525 126.453 364.606 124.46 363.549 122.169Z" fill="url(#paint0_linear_956_2031)"/>
<path d="M322.391 128.342C321.019 122.239 321.019 122.239 315.088 123.38C314.417 123.509 313.745 123.633 312.748 123.317C315.108 121.042 317.588 118.874 319.798 116.461C322.025 114.029 323.298 111.025 322.334 107.738C321.824 106 320.672 104.242 319.332 103.011C317.921 101.713 316.12 101.948 314.161 102.83C310.61 104.427 309.102 106.515 309.379 110.656C309.885 118.244 309.761 125.879 309.749 133.494C309.742 137.795 311.789 140.509 315.59 142.16C316.495 142.554 317.355 143.05 318.627 143.698C312.669 146.426 308.203 150.437 304.539 155.645C300.033 150.663 295.132 146.416 288.675 143.74C289.895 142.741 290.878 141.849 291.949 141.077C294.082 139.541 295.196 137.481 295.345 134.882C295.468 132.732 295.665 130.581 295.668 128.431C295.693 109.958 295.697 91.4851 295.652 73.0122C295.648 71.632 296.072 70.9575 297.263 70.1592C301.51 67.3091 305.589 64.2085 309.535 61.3447C309.535 74.8926 309.535 89.0181 309.535 103.589C314.962 97.9296 320.169 92.4982 325.589 86.8452C329.963 90.9701 334.23 94.9946 338.645 99.1583C334.346 103.235 330.208 107.158 325.877 111.264C327.297 112.151 328.503 113.031 329.816 113.7C334.1 115.884 336.016 119.466 336.276 124.13C336.465 127.499 336.824 130.859 336.96 134.229C337.1 137.696 338.854 139.984 341.789 141.573C342.831 142.137 343.821 142.798 345.195 143.634C338.101 145.662 333.953 150.605 330.358 156.536C326.945 152.889 323.664 149.352 323.259 144.228C322.846 139.007 322.684 133.765 322.391 128.342Z" fill="url(#paint1_linear_956_2031)"/>
<path d="M470.703 98.5927C474.933 95.4878 478.986 92.4105 483.152 89.4962C484.235 88.7363 485.681 88.0604 486.954 88.0664C494.798 88.1018 501.354 94.5355 501.484 102.439C501.661 113.424 501.622 124.412 501.622 135.399C501.622 135.976 501.242 136.825 500.776 137.09C491.75 142.255 483.661 148.663 475.969 155.606C475.874 155.694 475.71 155.707 475.434 155.807C470.836 150.471 465.583 145.901 458.677 143.756C458.733 143.415 458.707 143.251 458.78 143.175C462.29 139.405 462.704 134.766 462.661 129.931C462.588 121.314 462.674 112.696 462.613 104.078C462.6 102.611 462.885 101.798 464.457 101.307C466.563 100.65 468.54 99.5761 470.703 98.5927ZM485.659 103.701C483.139 101.07 479.837 99.843 476.357 98.2106C476.357 109.367 476.431 120.123 476.327 130.876C476.275 136.425 478.74 140.136 483.765 142.284C485.064 142.839 486.35 143.426 487.727 144.036C487.783 143.595 487.852 143.318 487.852 143.041C487.831 131.712 487.887 120.381 487.701 109.053C487.671 107.336 486.51 105.637 485.659 103.701Z" fill="url(#paint2_linear_956_2031)"/>
<path d="M150.274 83.1777C150.28 80.6719 150.203 78.3679 150.331 76.0755C150.366 75.4527 150.888 74.4983 151.405 74.315C159.088 71.5991 165.522 67.0135 171.009 61.4912C175.63 65.1969 180.178 68.8435 184.734 72.4971C182.174 75.6667 179.309 79.215 176.366 82.8594C171.619 80.2811 167.605 76.8187 164.062 72.3819C164.062 77.6161 164.062 82.5204 164.062 87.5834C168.79 87.5834 173.353 87.5834 178.421 87.5834C176.824 89.7701 175.222 91.5013 174.161 93.5168C172.165 97.3088 169.384 99.1629 165.04 98.2412C164.788 98.1873 164.501 98.2977 164.459 98.3029C164.459 110.609 164.419 122.798 164.49 134.986C164.505 137.604 165.918 139.616 168.172 140.955C169.697 141.861 171.277 142.676 173.192 143.73C167.253 146.483 162.773 150.478 159.08 155.647C154.615 150.603 149.728 146.258 142.722 143.729C143.401 143.387 143.736 143.237 144.053 143.055C148.736 140.364 150.343 136.256 150.249 130.967C150.056 120.136 150.191 109.3 150.191 98.2671C147.06 98.2671 143.952 98.2671 140.203 98.2671C143.023 94.8206 145.379 91.7015 148.004 88.8273C149.481 87.2099 150.665 85.6827 150.274 83.1777Z" fill="url(#paint3_linear_956_2031)"/>
<path d="M532.615 149.145C529.982 151.246 527.478 153.264 525.367 154.968C521.78 152.877 518.435 150.481 514.744 148.892C510.751 147.176 507.018 150.27 502.96 150.615C510.432 140.012 518.301 133.222 535.559 143.528C535.196 137.398 535.071 131.639 534.432 125.937C534.112 123.084 530.59 121.101 527.517 122.081C523.8 123.266 520.166 124.888 516.751 126.784C513.579 128.546 510.747 130.917 507.618 133.125C507.574 132.582 507.501 132.12 507.501 131.658C507.492 122.386 507.505 113.114 507.488 103.842C507.484 102.78 507.501 101.978 508.826 101.573C516.95 99.0878 523.8 94.4074 530.184 88.9588C530.456 88.7285 530.746 88.5236 531.151 88.2109C537.156 91.971 542.659 97.4674 550.969 94.2741C546.937 98.6742 543.488 103.381 537.268 104.467C531.078 105.549 526.265 102.21 521.081 99.4221C521.081 107 521.081 114.285 521.081 121.911C521.888 121.509 522.514 121.242 523.092 120.902C528.225 117.898 532.705 114.102 536.582 109.614C537.285 108.802 537.816 108.54 538.934 108.902C547.472 111.673 548.599 112.851 548.961 121.812C549.238 128.621 549.018 135.45 549.018 141.694C543.397 144.24 538.071 146.651 532.615 149.145Z" fill="url(#paint4_linear_956_2031)"/>
<path d="M183.658 139.908C183.544 135.337 183.403 130.957 183.39 126.577C183.364 117.738 183.408 108.898 183.423 100.059C183.424 99.4986 183.423 98.938 183.423 98.2414C180.223 98.2414 177.176 98.2414 173.723 98.2414C176.141 94.9398 178.394 91.8517 180.672 88.7818C180.824 88.5765 181.148 88.4643 181.414 88.3824C188.004 86.3523 192.939 82.11 197.042 76.746C197.15 76.6045 197.335 76.5213 197.591 76.3311C197.591 80.1019 197.591 83.7265 197.591 87.5595C202.314 87.5595 207.151 87.5595 212.55 87.5595C211.012 89.6383 209.487 91.1862 208.574 93.0352C206.43 97.3775 203.203 99.2041 198.428 98.2319C198.232 98.1918 198.012 98.2746 197.571 98.3285C197.571 99.8579 197.564 101.398 197.572 102.937C197.626 113.136 197.632 123.335 197.764 133.532C197.823 138.159 199.5 140.346 204.039 141.576C206.925 142.358 209.935 142.685 212.85 143.21C208.337 147.464 203.821 151.722 199.166 156.109C191.894 153.084 184.859 149.467 183.658 139.908Z" fill="url(#paint5_linear_956_2031)"/>
<path d="M214.213 117.313C214.189 112.644 214.111 108.189 214.198 103.738C214.212 103.035 214.812 101.954 215.41 101.711C223.017 98.6327 230.038 94.7044 235.613 88.21C239.982 93.0172 244.314 97.5937 248.366 102.406C249.142 103.328 249.363 105.406 248.885 106.553C247.882 108.958 246.567 111.399 244.806 113.289C239.719 118.75 234.382 123.981 229.054 129.21C228.105 130.141 227.698 130.901 228.129 132.169C228.449 133.114 228.582 134.124 228.783 135.108C229.511 138.683 231.625 141.134 235.139 141.951C238.471 142.726 241.912 143.036 244.826 143.478C240.194 147.328 235.141 151.528 229.783 155.982C226.07 154.277 221.612 152.66 218.304 149.025C215.992 146.485 214.506 143.617 214.456 140.145C214.346 132.607 214.291 125.068 214.213 117.313ZM234.783 120.936C239.104 115.954 239.206 114.352 235.549 108.895C235.43 108.716 235.314 108.534 235.187 108.361C233.015 105.427 230.842 102.495 228.487 99.3163C228.487 108.88 228.487 117.978 228.487 126.951C230.538 125.002 232.558 123.082 234.783 120.936Z" fill="url(#paint6_linear_956_2031)"/>
<path d="M269.551 97.3056C271.205 100.084 271.076 102.853 270.95 105.869C270.566 115.043 270.64 124.239 270.668 133.426C270.681 137.54 272.654 140.511 276.569 142.1C277.537 142.494 278.422 143.094 279.631 143.756C273.61 146.451 269.152 150.506 265.47 155.694C261.013 150.557 256.109 146.334 249.632 143.865C250.76 142.933 251.684 142.037 252.733 141.325C255.29 139.592 256.415 137.062 256.436 134.155C256.502 125.186 256.413 116.215 256.361 107.245C256.344 104.309 254.881 102.244 252.373 100.811C251.329 100.215 250.356 99.4961 249.507 98.9355C252.382 95.3807 255.132 91.9191 257.983 88.5425C258.291 88.1763 259.251 88.0724 259.793 88.2341C264.458 89.6285 267.365 92.9749 269.551 97.3056Z" fill="url(#paint7_linear_956_2031)"/>
<path d="M458.875 102.243C457.157 103.88 455.551 105.409 453.782 107.088C451.425 103.023 448.537 99.6429 443.607 98.2217C446.629 94.7502 449.361 91.5375 452.215 88.4334C452.577 88.0358 453.764 87.8745 454.218 88.1609C456.501 89.6057 458.698 91.189 460.856 92.8159C462.337 93.9308 463.705 95.1962 465.229 96.4853C462.803 98.6802 460.891 100.408 458.875 102.243Z" fill="url(#paint8_linear_956_2031)"/>
<path d="M288.046 91.2995C289.953 93.1506 291.748 94.8973 293.632 96.7304C289.917 100.187 286.331 103.524 282.585 107.009C280.135 103.17 277.512 99.5092 272.224 98.3602C275.476 94.6761 278.363 91.365 281.326 88.1229C281.566 87.8603 282.43 87.8754 282.82 88.0923C284.561 89.061 286.236 90.1496 288.046 91.2995Z" fill="url(#paint9_linear_956_2031)"/>
<path d="M406.358 76.5153C404.906 78.1073 403.561 79.5909 402.169 81.1255C398.592 78.3695 395.097 75.6756 391.464 72.8761C394.999 69.5499 398.38 66.3691 401.928 63.0312C405.248 65.0605 408.962 67.3313 412.951 69.7698C410.732 72.0406 408.598 74.2239 406.358 76.5153Z" fill="url(#paint10_linear_956_2031)"/>
<path d="M556.386 148.333C558.38 146.59 562.549 142.713 564.5 141C563 146.5 566.573 147.13 568.541 148.889C566.37 151.153 562.952 155.446 560.5 158C561 153 558.004 151.973 556.166 149.881C555.941 149.624 556.222 148.924 556.386 148.333Z" fill="url(#paint11_linear_956_2031)"/>
<path d="M140.683 140.45L133.5 148.5L127.333 155C126.333 155.5 125.333 155.75 124.333 155.75C122.333 155.75 120.333 155 118.333 153.5C116.433 151.9 114.833 149.75 113.533 147.05C112.233 144.25 111.483 141.1 111.283 137.6L109.933 116.6H81.8832L87.2832 106.1H109.333L107.083 69.4998L106.933 66.9498C106.933 65.4498 107.483 63.8998 108.583 62.2998C109.783 60.6998 112.233 58.1998 115.933 54.7998C114.733 55.0998 113.283 55.2498 111.583 55.2498C108.483 55.2498 102.433 54.5498 93.4332 53.1498C89.6332 52.4498 85.4832 51.8498 80.9832 51.3498C78.1832 51.1498 76.1832 51.0498 74.9832 51.0498C67.6832 51.0498 61.9832 52.4998 57.8832 55.3998C53.7832 58.2998 51.7332 62.6998 51.7332 68.5998C51.7332 70.7998 52.3332 73.3498 53.5332 76.2498C54.8332 79.0498 56.6332 81.4998 58.9332 83.5998C61.3332 85.6998 64.0332 86.9498 67.0332 87.3498L65.6832 89.4498C60.1832 87.9498 55.9332 85.0498 52.9332 80.7498C49.9332 76.3498 48.5332 71.8498 48.7332 67.2498C49.1332 59.0498 51.7332 52.0498 56.5332 46.2498C61.4332 40.4498 68.8332 37.5498 78.7332 37.5498C80.9332 37.5498 83.6332 37.7998 86.8332 38.2998C90.1332 38.6998 92.2332 38.9498 93.1332 39.0498C100.033 40.1498 106.133 40.8998 111.433 41.2998C112.033 41.2998 113.033 41.3998 114.433 41.5998C115.533 41.6998 116.883 41.7998 118.483 41.8998C120.183 41.9998 122.033 42.0498 124.033 42.0498C128.133 42.0498 130.933 41.5498 132.433 40.5498L132.733 41.2998C129.733 44.0998 127.633 46.8998 126.433 49.6998C125.333 52.4998 124.783 56.3998 124.783 61.3998C124.783 64.0998 124.933 67.3498 125.233 71.1498L128.983 131.3C129.083 134.4 129.833 136.95 131.233 138.95C132.633 140.85 134.333 141.8 136.333 141.8C137.733 141.8 139.183 141.35 140.683 140.45ZM88.0332 138.65C90.7332 139.45 92.8832 139.85 94.4832 139.85C96.4832 139.85 98 139.4 99.5 138.95C101 138.5 102.695 137.305 104 136C105 135 106.5 133.5 107 133L86.6832 158.75C83.3832 155.65 79.5332 153.4 75.1332 152C70.8332 150.5 66.3332 149.75 61.6332 149.75C57.6332 149.75 53.8332 150.25 50.2332 151.25C46.7332 152.15 43.8332 153.4 41.5332 155L40.0332 153.2C44.4332 150 48.4832 146.25 52.1832 141.95C55.9832 137.65 59.7332 132.35 63.4332 126.05L70.3332 114.35C69.0332 112.85 67.6332 112.1 66.1332 112.1C64.2332 112.1 62.2832 113.25 60.2832 115.55L60.1332 115.25C61.3332 111.35 63.3332 108.45 66.1332 106.55C69.0332 104.65 71.6332 103.3 73.9332 102.5C76.3332 101.6 77.8332 101 78.4332 100.7L79.3332 99.1998C78.3332 97.0998 76.2332 96.0498 73.0332 96.0498C71.5332 96.0498 69.9832 96.3498 68.3832 96.9498C66.8832 97.5498 65.6332 98.3498 64.6332 99.3498L64.4832 99.0498C65.4832 96.9498 67.1332 94.8498 69.4332 92.7498C71.8332 90.6498 74.5832 88.9998 77.6832 87.7998C80.7832 86.5998 83.8332 86.0998 86.8332 86.2998L98.2332 67.0998L101.983 60.4998V66.9498L61.3332 136.4C64.4332 135.7 67.4832 135.35 70.4832 135.35C74.7832 135.35 80.6332 136.45 88.0332 138.65Z" fill="url(#paint12_linear_956_2031)"/>
</g>
</g>
<defs>
<linearGradient id="paint0_linear_956_2031" x1="397.474" y1="87.5771" x2="397.474" y2="156.32" gradientUnits="userSpaceOnUse">
<stop offset="0.26" stop-color="#FFF700"/>
<stop offset="1" stop-color="#FFA100"/>
</linearGradient>
<linearGradient id="paint1_linear_956_2031" x1="316.935" y1="61.3447" x2="316.935" y2="156.536" gradientUnits="userSpaceOnUse">
<stop offset="0.26" stop-color="#FFF700"/>
<stop offset="1" stop-color="#FFA100"/>
</linearGradient>
<linearGradient id="paint2_linear_956_2031" x1="480.151" y1="88.0664" x2="480.151" y2="155.807" gradientUnits="userSpaceOnUse">
<stop offset="0.26" stop-color="#FFF700"/>
<stop offset="1" stop-color="#FFA100"/>
</linearGradient>
<linearGradient id="paint3_linear_956_2031" x1="162.469" y1="61.4912" x2="162.469" y2="155.647" gradientUnits="userSpaceOnUse">
<stop offset="0.26" stop-color="#FFF700"/>
<stop offset="1" stop-color="#FFA100"/>
</linearGradient>
<linearGradient id="paint4_linear_956_2031" x1="526.964" y1="88.2109" x2="526.964" y2="154.968" gradientUnits="userSpaceOnUse">
<stop offset="0.26" stop-color="#FFF700"/>
<stop offset="1" stop-color="#FFA100"/>
</linearGradient>
<linearGradient id="paint5_linear_956_2031" x1="193.286" y1="76.3311" x2="193.286" y2="156.109" gradientUnits="userSpaceOnUse">
<stop offset="0.26" stop-color="#FFF700"/>
<stop offset="1" stop-color="#FFA100"/>
</linearGradient>
<linearGradient id="paint6_linear_956_2031" x1="231.647" y1="88.21" x2="231.647" y2="155.982" gradientUnits="userSpaceOnUse">
<stop offset="0.26" stop-color="#FFF700"/>
<stop offset="1" stop-color="#FFA100"/>
</linearGradient>
<linearGradient id="paint7_linear_956_2031" x1="264.569" y1="88.1602" x2="264.569" y2="155.694" gradientUnits="userSpaceOnUse">
<stop offset="0.26" stop-color="#FFF700"/>
<stop offset="1" stop-color="#FFA100"/>
</linearGradient>
<linearGradient id="paint8_linear_956_2031" x1="454.418" y1="88.0156" x2="454.418" y2="107.088" gradientUnits="userSpaceOnUse">
<stop offset="0.26" stop-color="#FFF700"/>
<stop offset="1" stop-color="#FFA100"/>
</linearGradient>
<linearGradient id="paint9_linear_956_2031" x1="282.928" y1="87.9277" x2="282.928" y2="107.009" gradientUnits="userSpaceOnUse">
<stop offset="0.26" stop-color="#FFF700"/>
<stop offset="1" stop-color="#FFA100"/>
</linearGradient>
<linearGradient id="paint10_linear_956_2031" x1="402.207" y1="63.0312" x2="402.207" y2="81.1255" gradientUnits="userSpaceOnUse">
<stop offset="0.26" stop-color="#FFF700"/>
<stop offset="1" stop-color="#FFA100"/>
</linearGradient>
<linearGradient id="paint11_linear_956_2031" x1="562.312" y1="143.229" x2="562.312" y2="155.941" gradientUnits="userSpaceOnUse">
<stop offset="0.26" stop-color="#FFF700"/>
<stop offset="1" stop-color="#FFA100"/>
</linearGradient>
<linearGradient id="paint12_linear_956_2031" x1="91" y1="39.4998" x2="91" y2="155" gradientUnits="userSpaceOnUse">
<stop offset="0.510809" stop-color="#FFF700"/>
<stop offset="1" stop-color="#FFA100"/>
</linearGradient>
<clipPath id="clip0_956_2031">
<rect width="600" height="226" fill="white"/>
</clipPath>
</defs>
</svg>
