<svg width="472" height="56" viewBox="0 0 472 56" fill="none" xmlns="http://www.w3.org/2000/svg">
<path d="M0.672 54V4.968H18.168C23.352 4.968 27.792 5.952 31.488 7.92C35.184 9.84 38.016 12.624 39.984 16.272C41.952 19.92 42.936 24.312 42.936 29.448C42.936 34.632 41.928 39.048 39.912 42.696C37.944 46.344 35.112 49.152 31.416 51.12C27.72 53.04 23.28 54 18.096 54H0.672ZM12.336 47.52L7.512 42.696H17.304C20.088 42.696 22.488 42.264 24.504 41.4C26.568 40.488 28.152 39.048 29.256 37.08C30.408 35.112 30.984 32.568 30.984 29.448C30.984 26.376 30.432 23.88 29.328 21.96C28.224 19.992 26.64 18.552 24.576 17.64C22.56 16.728 20.16 16.272 17.376 16.272H7.008L12.336 13.032V47.52ZM59.4437 54H47.7077V18.72H59.4437V54ZM46.8437 7.56C46.8437 5.496 47.4677 3.864 48.7157 2.664C49.9637 1.416 51.5957 0.791998 53.6117 0.791998C55.6757 0.791998 57.3077 1.416 58.5077 2.664C59.7077 3.864 60.3077 5.496 60.3077 7.56C60.3077 9.528 59.7077 11.136 58.5077 12.384C57.3077 13.584 55.6757 14.184 53.6117 14.184C51.5957 14.184 49.9637 13.584 48.7157 12.384C47.4677 11.136 46.8437 9.528 46.8437 7.56ZM75.0491 18.72L78.0731 28.584V54H66.4091V18.72H75.0491ZM75.3371 35.424L73.4651 34.632V25.416L74.1851 24.624C74.7611 23.76 75.6011 22.8 76.7051 21.744C77.8571 20.688 79.1531 19.776 80.5931 19.008C82.0811 18.192 83.6171 17.784 85.2011 17.784C85.9691 17.784 86.6651 17.856 87.2891 18C87.9131 18.096 88.3931 18.264 88.7291 18.504V29.16H86.3531C83.3771 29.16 80.9531 29.664 79.0811 30.672C77.2571 31.632 76.0091 33.216 75.3371 35.424ZM107.98 54.648C104.428 54.648 101.308 53.904 98.6201 52.416C95.9801 50.928 93.9161 48.816 92.4281 46.08C90.9401 43.344 90.1961 40.104 90.1961 36.36C90.1961 32.76 90.9401 29.568 92.4281 26.784C93.9161 24 95.9801 21.816 98.6201 20.232C101.308 18.6 104.428 17.784 107.98 17.784C111.676 17.784 114.844 18.624 117.484 20.304C120.124 21.984 122.164 24.216 123.604 27C125.044 29.736 125.764 32.808 125.764 36.216C125.764 36.984 125.74 37.68 125.692 38.304C125.644 38.928 125.572 39.432 125.476 39.816H98.9081V31.896H116.476L115.468 34.488C115.468 32.232 114.868 30.384 113.668 28.944C112.468 27.504 110.62 26.784 108.124 26.784C105.82 26.784 103.996 27.456 102.652 28.8C101.308 30.144 100.636 31.944 100.636 34.2V38.16C100.636 40.608 101.356 42.504 102.796 43.848C104.236 45.144 106.252 45.792 108.844 45.792C110.908 45.792 112.54 45.408 113.74 44.64C114.988 43.824 116.02 42.792 116.836 41.544L124.612 45.72C123.124 48.456 120.94 50.64 118.06 52.272C115.18 53.856 111.82 54.648 107.98 54.648ZM146.66 54.936C143.06 54.936 139.892 54.144 137.156 52.56C134.468 50.976 132.356 48.768 130.82 45.936C129.284 43.104 128.516 39.888 128.516 36.288C128.516 32.736 129.284 29.568 130.82 26.784C132.356 24 134.468 21.816 137.156 20.232C139.892 18.6 143.06 17.784 146.66 17.784C150.74 17.784 154.244 18.768 157.172 20.736C160.1 22.704 162.188 25.344 163.436 28.656L152.996 33.408C152.372 32.064 151.58 31.032 150.62 30.312C149.66 29.544 148.388 29.16 146.804 29.16C144.932 29.16 143.348 29.808 142.052 31.104C140.804 32.4 140.18 34.128 140.18 36.288C140.18 38.544 140.804 40.32 142.052 41.616C143.348 42.864 144.932 43.488 146.804 43.488C148.388 43.488 149.66 43.128 150.62 42.408C151.58 41.688 152.372 40.68 152.996 39.384L163.436 43.992C162.188 47.304 160.076 49.968 157.1 51.984C154.172 53.952 150.692 54.936 146.66 54.936ZM184.082 54.576C179.906 54.576 176.618 53.592 174.218 51.624C171.866 49.656 170.69 46.392 170.69 41.832V19.152L170.546 18.72L172.994 10.152H182.354V38.664C182.354 40.392 182.738 41.616 183.506 42.336C184.322 43.056 185.378 43.416 186.674 43.416C187.394 43.416 188.066 43.344 188.69 43.2C189.362 43.056 189.914 42.912 190.346 42.768V53.712C189.434 54 188.474 54.216 187.466 54.36C186.458 54.504 185.33 54.576 184.082 54.576ZM165.218 29.52V18.72H190.346V29.52H165.218ZM213.119 54.936C209.423 54.936 206.183 54.144 203.399 52.56C200.615 50.976 198.431 48.792 196.847 46.008C195.263 43.224 194.471 40.032 194.471 36.432C194.471 32.784 195.263 29.568 196.847 26.784C198.431 24 200.615 21.816 203.399 20.232C206.183 18.6 209.423 17.784 213.119 17.784C216.863 17.784 220.127 18.6 222.911 20.232C225.743 21.816 227.927 24 229.463 26.784C231.047 29.568 231.839 32.784 231.839 36.432C231.839 40.032 231.047 43.224 229.463 46.008C227.927 48.792 225.743 50.976 222.911 52.56C220.127 54.144 216.863 54.936 213.119 54.936ZM213.119 43.56C215.135 43.56 216.791 42.912 218.087 41.616C219.383 40.272 220.031 38.52 220.031 36.36C220.031 34.2 219.383 32.472 218.087 31.176C216.791 29.832 215.135 29.16 213.119 29.16C211.151 29.16 209.519 29.832 208.223 31.176C206.927 32.472 206.279 34.2 206.279 36.36C206.279 38.472 206.927 40.2 208.223 41.544C209.519 42.888 211.151 43.56 213.119 43.56ZM245.065 18.72L248.089 28.584V54H236.425V18.72H245.065ZM245.353 35.424L243.481 34.632V25.416L244.201 24.624C244.777 23.76 245.617 22.8 246.721 21.744C247.873 20.688 249.169 19.776 250.609 19.008C252.097 18.192 253.633 17.784 255.217 17.784C255.985 17.784 256.681 17.856 257.305 18C257.929 18.096 258.409 18.264 258.745 18.504V29.16H256.369C253.393 29.16 250.969 29.664 249.097 30.672C247.273 31.632 246.025 33.216 245.353 35.424Z" fill="url(#paint0_linear_759_2221)"/>
<path d="M295.448 54L279.032 4.968H291.056L304.448 46.008H299.408L312.944 4.968H324.608L308.192 54H295.448ZM340.272 54H328.536V18.72H340.272V54ZM327.672 7.56C327.672 5.496 328.296 3.864 329.544 2.664C330.792 1.416 332.424 0.791998 334.44 0.791998C336.504 0.791998 338.136 1.416 339.336 2.664C340.536 3.864 341.136 5.496 341.136 7.56C341.136 9.528 340.536 11.136 339.336 12.384C338.136 13.584 336.504 14.184 334.44 14.184C332.424 14.184 330.792 13.584 329.544 12.384C328.296 11.136 327.672 9.528 327.672 7.56ZM360.701 55.152C357.773 55.152 355.037 54.624 352.493 53.568C349.997 52.464 347.645 50.568 345.437 47.88L351.629 41.472C353.309 43.104 354.941 44.28 356.525 45C358.157 45.72 359.837 46.08 361.565 46.08C362.429 46.08 363.149 45.912 363.725 45.576C364.301 45.192 364.589 44.736 364.589 44.208C364.589 43.728 364.397 43.32 364.013 42.984C363.677 42.648 362.957 42.312 361.853 41.976C360.797 41.64 359.237 41.208 357.173 40.68C353.381 39.72 350.597 38.352 348.821 36.576C347.045 34.752 346.157 32.376 346.157 29.448C346.157 27.288 346.733 25.32 347.885 23.544C349.037 21.72 350.693 20.28 352.853 19.224C355.013 18.12 357.557 17.568 360.485 17.568C363.989 17.568 366.965 18.216 369.413 19.512C371.861 20.808 373.901 22.368 375.533 24.192L368.693 30.312C367.541 29.304 366.173 28.488 364.589 27.864C363.053 27.24 361.373 26.928 359.549 26.928C358.589 26.928 357.797 27.096 357.173 27.432C356.549 27.72 356.237 28.152 356.237 28.728C356.237 29.256 356.645 29.736 357.461 30.168C358.325 30.552 360.077 31.056 362.717 31.68C367.085 32.736 370.253 34.2 372.221 36.072C374.189 37.896 375.173 40.368 375.173 43.488C375.173 45.792 374.549 47.832 373.301 49.608C372.101 51.336 370.397 52.704 368.189 53.712C366.029 54.672 363.533 55.152 360.701 55.152ZM392.171 54.936C389.579 54.936 387.443 54.552 385.763 53.784C384.131 53.016 382.859 51.984 381.947 50.688C381.035 49.344 380.387 47.808 380.003 46.08C379.667 44.304 379.499 42.408 379.499 40.392V18.72H391.163V39.096C391.163 40.872 391.499 42.072 392.171 42.696C392.891 43.272 393.803 43.56 394.907 43.56C395.771 43.56 396.611 43.416 397.427 43.128C398.291 42.84 399.131 42.408 399.947 41.832C400.811 41.256 401.651 40.512 402.467 39.6L404.915 45.36H401.315V18.72H413.051V54H404.411L402.035 46.728L406.283 47.232C405.131 48.528 403.811 49.776 402.323 50.976C400.835 52.128 399.227 53.088 397.499 53.856C395.819 54.576 394.043 54.936 392.171 54.936ZM430.456 54.936C427.96 54.936 425.752 54.456 423.832 53.496C421.912 52.488 420.4 51.096 419.296 49.32C418.24 47.496 417.712 45.432 417.712 43.128C417.712 40.632 418.288 38.52 419.44 36.792C420.64 35.016 422.2 33.672 424.12 32.76C426.088 31.8 428.248 31.32 430.6 31.32C434.104 31.32 436.96 32.136 439.168 33.768C441.376 35.352 442.816 37.704 443.488 40.824L438.736 39.744V31.752C438.736 30.552 438.304 29.52 437.44 28.656C436.576 27.792 435.232 27.36 433.408 27.36C432.112 27.36 430.624 27.528 428.944 27.864C427.264 28.2 425.488 28.824 423.616 29.736L420.304 21.456C422.416 20.4 424.744 19.536 427.288 18.864C429.832 18.144 432.472 17.784 435.208 17.784C438.52 17.784 441.304 18.384 443.56 19.584C445.864 20.784 447.592 22.488 448.744 24.696C449.896 26.856 450.472 29.424 450.472 32.4V54H440.68L438.448 47.016L443.488 45.432C442.768 48.36 441.328 50.688 439.168 52.416C437.056 54.096 434.152 54.936 430.456 54.936ZM434.416 47.016C435.76 47.016 436.84 46.656 437.656 45.936C438.472 45.216 438.88 44.28 438.88 43.128C438.88 42.024 438.472 41.112 437.656 40.392C436.84 39.672 435.76 39.312 434.416 39.312C432.976 39.312 431.848 39.672 431.032 40.392C430.264 41.112 429.88 42.024 429.88 43.128C429.88 44.28 430.264 45.216 431.032 45.936C431.848 46.656 432.976 47.016 434.416 47.016ZM467.519 54.36C465.599 54.36 463.799 54 462.119 53.28C460.439 52.512 459.071 51.288 458.015 49.608C457.007 47.928 456.503 45.696 456.503 42.912V4.968H468.095V38.808C468.095 40.632 468.383 41.808 468.959 42.336C469.583 42.816 470.423 43.056 471.479 43.056V54.072C471.047 54.168 470.423 54.24 469.607 54.288C468.839 54.336 468.143 54.36 467.519 54.36Z" fill="url(#paint1_linear_759_2221)"/>
<defs>
<linearGradient id="paint0_linear_759_2221" x1="-3" y1="30" x2="512" y2="30" gradientUnits="userSpaceOnUse">
<stop stop-color="#FFF600"/>
<stop offset="0.405" stop-color="#FFA100"/>
<stop offset="0.465" stop-color="#FFF600"/>
<stop offset="1" stop-color="#FFA100"/>
</linearGradient>
<linearGradient id="paint1_linear_759_2221" x1="-3" y1="30" x2="512" y2="30" gradientUnits="userSpaceOnUse">
<stop offset="0.45537" stop-color="#FFF600"/>
<stop offset="1" stop-color="#FFA100"/>
</linearGradient>
</defs>
</svg>
