<svg width="213" height="260" viewBox="0 0 213 260" fill="none" xmlns="http://www.w3.org/2000/svg">
<path d="M0.5 100C0.5 45.0477 45.0477 0.5 100 0.5H113C167.952 0.5 212.5 45.0477 212.5 100V245C212.5 253.008 206.008 259.5 198 259.5H15C6.99187 259.5 0.5 253.008 0.5 245V100Z" fill="black"/>
<path d="M0.5 100C0.5 45.0477 45.0477 0.5 100 0.5H113C167.952 0.5 212.5 45.0477 212.5 100V245C212.5 253.008 206.008 259.5 198 259.5H15C6.99187 259.5 0.5 253.008 0.5 245V100Z" stroke="black"/>
<path d="M0.5 100C0.5 45.0477 45.0477 0.5 100 0.5H113C167.952 0.5 212.5 45.0477 212.5 100V245C212.5 253.008 206.008 259.5 198 259.5H15C6.99187 259.5 0.5 253.008 0.5 245V100Z" stroke="#FFEEDA"/>
<g filter="url(#filter0_d_829_285)">
<circle cx="107" cy="112" r="68" fill="url(#paint0_linear_829_285)" fill-opacity="0.25" shape-rendering="crispEdges"/>
<circle cx="107" cy="112" r="67.5" stroke="#FFEEDA" shape-rendering="crispEdges"/>
</g>
<path d="M144.662 76.5393V80.0296H130.318V76.5361H83.6976V80.0296H69.3539V76.5361H66.1664V144.271H69.3539V140.783H83.6976V144.274H130.315V140.783H144.659V144.274H148.643V76.5393H144.662ZM83.6976 136.608H69.3539V126.644H83.6976V136.608ZM83.6976 122.455H69.3539V112.498H83.6976V122.455ZM83.6976 108.316H69.3539V98.3578H83.6976V108.316ZM83.6976 94.1694H69.3539V84.2053H83.6976V94.1694ZM93.8498 126.631V92.0911L123.755 109.361L93.8498 126.631ZM144.659 136.608H130.315V126.644H144.659V136.608ZM144.659 122.455H130.315V112.498H144.659V122.455ZM144.659 108.316H130.315V98.3578H144.659V108.316ZM144.659 94.1694H130.315V84.2053H144.659V94.1694Z" fill="#FFEEDA"/>
<path d="M17.2456 237V226.785H21.0106C21.7306 226.785 22.3706 226.93 22.9306 227.22C23.4906 227.51 23.9256 227.915 24.2356 228.435C24.5556 228.955 24.7156 229.565 24.7156 230.265C24.7156 230.965 24.5556 231.575 24.2356 232.095C23.9256 232.615 23.4906 233.02 22.9306 233.31C22.3706 233.59 21.7306 233.73 21.0106 233.73H18.8056V231.855H20.8156C21.3956 231.855 21.8556 231.72 22.1956 231.45C22.5356 231.17 22.7056 230.775 22.7056 230.265C22.7056 229.735 22.5356 229.335 22.1956 229.065C21.8556 228.795 21.3956 228.66 20.8156 228.66H18.7906L19.2106 228.225V237H17.2456ZM22.6756 237L20.4256 232.815H22.5856L24.8206 237H22.6756ZM29.05 237.15C28.32 237.15 27.68 236.995 27.13 236.685C26.58 236.365 26.155 235.92 25.855 235.35C25.555 234.78 25.405 234.11 25.405 233.34C25.405 232.58 25.555 231.915 25.855 231.345C26.155 230.765 26.58 230.315 27.13 229.995C27.68 229.665 28.32 229.5 29.05 229.5C29.79 229.5 30.43 229.665 30.97 229.995C31.52 230.325 31.945 230.78 32.245 231.36C32.545 231.93 32.695 232.585 32.695 233.325C32.695 233.435 32.69 233.545 32.68 233.655C32.68 233.755 32.67 233.84 32.65 233.91H27.01V232.44H31.165L30.865 233.145C30.865 232.525 30.715 232.02 30.415 231.63C30.125 231.24 29.67 231.045 29.05 231.045C28.51 231.045 28.075 231.215 27.745 231.555C27.415 231.885 27.25 232.33 27.25 232.89V233.685C27.25 234.275 27.415 234.74 27.745 235.08C28.085 235.41 28.545 235.575 29.125 235.575C29.635 235.575 30.035 235.47 30.325 235.26C30.615 235.05 30.865 234.79 31.075 234.48L32.44 235.26C32.11 235.87 31.66 236.34 31.09 236.67C30.53 236.99 29.85 237.15 29.05 237.15ZM36.8366 237.18C36.1666 237.18 35.5766 237.015 35.0666 236.685C34.5566 236.355 34.1616 235.9 33.8816 235.32C33.6016 234.74 33.4616 234.075 33.4616 233.325C33.4616 232.565 33.6016 231.9 33.8816 231.33C34.1716 230.75 34.5716 230.3 35.0816 229.98C35.5916 229.66 36.1766 229.5 36.8366 229.5C37.4866 229.5 38.0516 229.65 38.5316 229.95C39.0116 230.25 39.3866 230.685 39.6566 231.255C39.9266 231.825 40.0616 232.515 40.0616 233.325C40.0616 234.105 39.9266 234.785 39.6566 235.365C39.3866 235.935 39.0066 236.38 38.5166 236.7C38.0366 237.02 37.4766 237.18 36.8366 237.18ZM37.1816 235.365C37.6916 235.365 38.1066 235.18 38.4266 234.81C38.7466 234.43 38.9066 233.94 38.9066 233.34C38.9066 232.73 38.7466 232.24 38.4266 231.87C38.1066 231.49 37.6916 231.3 37.1816 231.3C36.6816 231.3 36.2666 231.49 35.9366 231.87C35.6166 232.24 35.4566 232.725 35.4566 233.325C35.4566 233.925 35.6166 234.415 35.9366 234.795C36.2666 235.175 36.6816 235.365 37.1816 235.365ZM39.3116 237L38.8166 235.26H38.9516V231.585H38.8166V226.785H40.7816V237H39.3116ZM45.5734 237.15C44.8434 237.15 44.2034 236.995 43.6534 236.685C43.1034 236.365 42.6784 235.92 42.3784 235.35C42.0784 234.78 41.9284 234.11 41.9284 233.34C41.9284 232.58 42.0784 231.915 42.3784 231.345C42.6784 230.765 43.1034 230.315 43.6534 229.995C44.2034 229.665 44.8434 229.5 45.5734 229.5C46.3134 229.5 46.9534 229.665 47.4934 229.995C48.0434 230.325 48.4684 230.78 48.7684 231.36C49.0684 231.93 49.2184 232.585 49.2184 233.325C49.2184 233.435 49.2134 233.545 49.2034 233.655C49.2034 233.755 49.1934 233.84 49.1734 233.91H43.5334V232.44H47.6884L47.3884 233.145C47.3884 232.525 47.2384 232.02 46.9384 231.63C46.6484 231.24 46.1934 231.045 45.5734 231.045C45.0334 231.045 44.5984 231.215 44.2684 231.555C43.9384 231.885 43.7734 232.33 43.7734 232.89V233.685C43.7734 234.275 43.9384 234.74 44.2684 235.08C44.6084 235.41 45.0684 235.575 45.6484 235.575C46.1584 235.575 46.5584 235.47 46.8484 235.26C47.1384 235.05 47.3884 234.79 47.5984 234.48L48.9634 235.26C48.6334 235.87 48.1834 236.34 47.6134 236.67C47.0534 236.99 46.3734 237.15 45.5734 237.15ZM52.8972 237.195C52.3372 237.195 51.8022 237.08 51.2922 236.85C50.7922 236.62 50.3472 236.22 49.9572 235.65L51.1572 234.6C51.4772 234.96 51.7822 235.22 52.0722 235.38C52.3722 235.53 52.7072 235.605 53.0772 235.605C53.3272 235.605 53.5272 235.545 53.6772 235.425C53.8272 235.305 53.9022 235.155 53.9022 234.975C53.9022 234.855 53.8622 234.75 53.7822 234.66C53.7022 234.56 53.5522 234.465 53.3322 234.375C53.1222 234.285 52.8122 234.19 52.4022 234.09C51.6422 233.89 51.0722 233.62 50.6922 233.28C50.3122 232.93 50.1222 232.44 50.1222 231.81C50.1222 231.38 50.2322 230.99 50.4522 230.64C50.6722 230.28 50.9872 229.995 51.3972 229.785C51.8172 229.575 52.3122 229.47 52.8822 229.47C53.5522 229.47 54.1222 229.6 54.5922 229.86C55.0722 230.12 55.4572 230.435 55.7472 230.805L54.4722 231.87C54.2822 231.67 54.0372 231.495 53.7372 231.345C53.4372 231.195 53.0872 231.12 52.6872 231.12C52.4672 231.12 52.2722 231.17 52.1022 231.27C51.9322 231.37 51.8472 231.515 51.8472 231.705C51.8472 231.885 51.9372 232.035 52.1172 232.155C52.3072 232.275 52.6672 232.4 53.1972 232.53C54.0972 232.74 54.7422 233.025 55.1322 233.385C55.5222 233.745 55.7172 234.225 55.7172 234.825C55.7172 235.305 55.5922 235.725 55.3422 236.085C55.0922 236.435 54.7522 236.71 54.3222 236.91C53.9022 237.1 53.4272 237.195 52.8972 237.195ZM64.4934 237.24C63.9234 237.24 63.3834 237.155 62.8734 236.985C62.3634 236.815 61.9034 236.55 61.4934 236.19C61.0934 235.83 60.7534 235.36 60.4734 234.78L62.0334 233.835C62.3434 234.365 62.7084 234.76 63.1284 235.02C63.5484 235.28 64.0334 235.41 64.5834 235.41C65.0834 235.41 65.4634 235.305 65.7234 235.095C65.9834 234.875 66.1134 234.585 66.1134 234.225C66.1134 233.995 66.0534 233.8 65.9334 233.64C65.8234 233.47 65.6234 233.31 65.3334 233.16C65.0434 233.01 64.6234 232.875 64.0734 232.755C63.2534 232.555 62.6084 232.305 62.1384 232.005C61.6784 231.705 61.3534 231.355 61.1634 230.955C60.9734 230.545 60.8784 230.095 60.8784 229.605C60.8784 229.015 61.0184 228.5 61.2984 228.06C61.5884 227.61 61.9984 227.255 62.5284 226.995C63.0584 226.735 63.6884 226.605 64.4184 226.605C65.2584 226.605 65.9634 226.77 66.5334 227.1C67.1034 227.42 67.5684 227.855 67.9284 228.405L66.3684 229.47C66.0884 229.11 65.7684 228.855 65.4084 228.705C65.0584 228.545 64.6984 228.465 64.3284 228.465C63.8484 228.465 63.4784 228.56 63.2184 228.75C62.9684 228.94 62.8434 229.205 62.8434 229.545C62.8434 229.845 62.9684 230.105 63.2184 230.325C63.4784 230.535 63.9784 230.73 64.7184 230.91C65.5584 231.11 66.2284 231.355 66.7284 231.645C67.2284 231.935 67.5834 232.285 67.7934 232.695C68.0134 233.105 68.1234 233.6 68.1234 234.18C68.1234 234.76 67.9734 235.28 67.6734 235.74C67.3834 236.2 66.9634 236.565 66.4134 236.835C65.8734 237.105 65.2334 237.24 64.4934 237.24ZM72.604 237.18C71.844 237.18 71.174 237.02 70.594 236.7C70.024 236.37 69.579 235.92 69.259 235.35C68.939 234.77 68.779 234.1 68.779 233.34C68.779 232.58 68.939 231.915 69.259 231.345C69.579 230.765 70.024 230.315 70.594 229.995C71.174 229.665 71.844 229.5 72.604 229.5C73.364 229.5 74.029 229.665 74.599 229.995C75.179 230.315 75.629 230.765 75.949 231.345C76.269 231.915 76.429 232.58 76.429 233.34C76.429 234.1 76.269 234.77 75.949 235.35C75.629 235.92 75.179 236.37 74.599 236.7C74.029 237.02 73.364 237.18 72.604 237.18ZM72.604 235.275C73.144 235.275 73.584 235.095 73.924 234.735C74.264 234.375 74.434 233.91 74.434 233.34C74.434 232.76 74.264 232.29 73.924 231.93C73.584 231.57 73.144 231.39 72.604 231.39C72.064 231.39 71.624 231.57 71.284 231.93C70.954 232.28 70.789 232.745 70.789 233.325C70.789 233.905 70.954 234.375 71.284 234.735C71.624 235.095 72.064 235.275 72.604 235.275ZM80.79 237.18C80.04 237.18 79.385 237.015 78.825 236.685C78.265 236.355 77.83 235.9 77.52 235.32C77.22 234.74 77.07 234.075 77.07 233.325C77.07 232.585 77.22 231.925 77.52 231.345C77.83 230.765 78.265 230.315 78.825 229.995C79.385 229.665 80.04 229.5 80.79 229.5C81.57 229.5 82.255 229.7 82.845 230.1C83.445 230.49 83.875 231.02 84.135 231.69L82.335 232.47C82.185 232.13 81.98 231.865 81.72 231.675C81.47 231.485 81.155 231.39 80.775 231.39C80.285 231.39 79.875 231.565 79.545 231.915C79.215 232.255 79.05 232.725 79.05 233.325C79.05 233.935 79.215 234.41 79.545 234.75C79.875 235.09 80.285 235.26 80.775 235.26C81.155 235.26 81.47 235.17 81.72 234.99C81.98 234.8 82.185 234.535 82.335 234.195L84.135 234.975C83.875 235.635 83.445 236.17 82.845 236.58C82.245 236.98 81.56 237.18 80.79 237.18ZM87.1465 237H85.1815V229.665H87.1465V237ZM84.9715 227.385C84.9715 227.025 85.0765 226.735 85.2865 226.515C85.5065 226.285 85.7965 226.17 86.1565 226.17C86.5165 226.17 86.8015 226.285 87.0115 226.515C87.2315 226.735 87.3415 227.025 87.3415 227.385C87.3415 227.725 87.2315 228.005 87.0115 228.225C86.8015 228.445 86.5165 228.555 86.1565 228.555C85.7965 228.555 85.5065 228.445 85.2865 228.225C85.0765 228.005 84.9715 227.725 84.9715 227.385ZM91.0636 237.21C90.5236 237.21 90.0486 237.11 89.6386 236.91C89.2286 236.7 88.9136 236.41 88.6936 236.04C88.4736 235.66 88.3636 235.22 88.3636 234.72C88.3636 234.22 88.4786 233.785 88.7086 233.415C88.9486 233.045 89.2736 232.76 89.6836 232.56C90.0936 232.35 90.5586 232.245 91.0786 232.245C91.7886 232.245 92.3636 232.41 92.8036 232.74C93.2536 233.06 93.5586 233.52 93.7186 234.12L92.8036 234V232.23C92.8036 231.95 92.7036 231.7 92.5036 231.48C92.3036 231.26 91.9786 231.15 91.5286 231.15C91.2486 231.15 90.9386 231.185 90.5986 231.255C90.2586 231.315 89.9036 231.435 89.5336 231.615L88.9486 230.175C89.3786 229.965 89.8336 229.8 90.3136 229.68C90.8036 229.56 91.2936 229.5 91.7836 229.5C92.4536 229.5 93.0086 229.62 93.4486 229.86C93.8886 230.1 94.2186 230.43 94.4386 230.85C94.6586 231.27 94.7686 231.75 94.7686 232.29V237H93.2086L92.7886 235.605L93.7186 235.335C93.5486 235.925 93.2336 236.385 92.7736 236.715C92.3236 237.045 91.7536 237.21 91.0636 237.21ZM91.6036 235.71C91.9636 235.71 92.2536 235.62 92.4736 235.44C92.6936 235.26 92.8036 235.02 92.8036 234.72C92.8036 234.41 92.6936 234.17 92.4736 234C92.2536 233.82 91.9636 233.73 91.6036 233.73C91.2436 233.73 90.9536 233.82 90.7336 234C90.5136 234.17 90.4036 234.41 90.4036 234.72C90.4036 235.02 90.5136 235.26 90.7336 235.44C90.9536 235.62 91.2436 235.71 91.6036 235.71ZM98.0407 237.075C97.7107 237.075 97.4057 237.005 97.1257 236.865C96.8557 236.725 96.6357 236.51 96.4657 236.22C96.3057 235.92 96.2257 235.535 96.2257 235.065V226.785H98.1757V234.375C98.1757 234.725 98.2457 234.955 98.3857 235.065C98.5257 235.165 98.6957 235.215 98.8957 235.215V236.97C98.7857 237.01 98.6507 237.035 98.4907 237.045C98.3407 237.065 98.1907 237.075 98.0407 237.075ZM103.376 237.15C102.646 237.15 102.006 236.995 101.456 236.685C100.906 236.365 100.481 235.92 100.181 235.35C99.8812 234.78 99.7312 234.11 99.7312 233.34C99.7312 232.58 99.8812 231.915 100.181 231.345C100.481 230.765 100.906 230.315 101.456 229.995C102.006 229.665 102.646 229.5 103.376 229.5C104.116 229.5 104.756 229.665 105.296 229.995C105.846 230.325 106.271 230.78 106.571 231.36C106.871 231.93 107.021 232.585 107.021 233.325C107.021 233.435 107.016 233.545 107.006 233.655C107.006 233.755 106.996 233.84 106.976 233.91H101.336V232.44H105.491L105.191 233.145C105.191 232.525 105.041 232.02 104.741 231.63C104.451 231.24 103.996 231.045 103.376 231.045C102.836 231.045 102.401 231.215 102.071 231.555C101.741 231.885 101.576 232.33 101.576 232.89V233.685C101.576 234.275 101.741 234.74 102.071 235.08C102.411 235.41 102.871 235.575 103.451 235.575C103.961 235.575 104.361 235.47 104.651 235.26C104.941 235.05 105.191 234.79 105.401 234.48L106.766 235.26C106.436 235.87 105.986 236.34 105.416 236.67C104.856 236.99 104.176 237.15 103.376 237.15ZM110.7 237.195C110.14 237.195 109.605 237.08 109.095 236.85C108.595 236.62 108.15 236.22 107.76 235.65L108.96 234.6C109.28 234.96 109.585 235.22 109.875 235.38C110.175 235.53 110.51 235.605 110.88 235.605C111.13 235.605 111.33 235.545 111.48 235.425C111.63 235.305 111.705 235.155 111.705 234.975C111.705 234.855 111.665 234.75 111.585 234.66C111.505 234.56 111.355 234.465 111.135 234.375C110.925 234.285 110.615 234.19 110.205 234.09C109.445 233.89 108.875 233.62 108.495 233.28C108.115 232.93 107.925 232.44 107.925 231.81C107.925 231.38 108.035 230.99 108.255 230.64C108.475 230.28 108.79 229.995 109.2 229.785C109.62 229.575 110.115 229.47 110.685 229.47C111.355 229.47 111.925 229.6 112.395 229.86C112.875 230.12 113.26 230.435 113.55 230.805L112.275 231.87C112.085 231.67 111.84 231.495 111.54 231.345C111.24 231.195 110.89 231.12 110.49 231.12C110.27 231.12 110.075 231.17 109.905 231.27C109.735 231.37 109.65 231.515 109.65 231.705C109.65 231.885 109.74 232.035 109.92 232.155C110.11 232.275 110.47 232.4 111 232.53C111.9 232.74 112.545 233.025 112.935 233.385C113.325 233.745 113.52 234.225 113.52 234.825C113.52 235.305 113.395 235.725 113.145 236.085C112.895 236.435 112.555 236.71 112.125 236.91C111.705 237.1 111.23 237.195 110.7 237.195ZM127.261 232.38H122.266C121.756 232.38 121.351 232.51 121.051 232.77C120.751 233.02 120.601 233.37 120.601 233.82C120.601 234.26 120.751 234.61 121.051 234.87C121.351 235.12 121.756 235.245 122.266 235.245C122.866 235.245 123.291 235.06 123.541 234.69C123.801 234.32 123.931 233.78 123.931 233.07V231.72H125.896V233.22C125.896 234.03 125.776 234.695 125.536 235.215C125.306 235.725 125.001 236.125 124.621 236.415C124.251 236.705 123.856 236.905 123.436 237.015C123.026 237.125 122.646 237.18 122.296 237.18C121.506 237.18 120.836 237.035 120.286 236.745C119.736 236.445 119.316 236.045 119.026 235.545C118.746 235.045 118.606 234.495 118.606 233.895C118.606 233.355 118.766 232.86 119.086 232.41C119.406 231.95 119.856 231.58 120.436 231.3C121.016 231.02 121.686 230.88 122.446 230.88L122.206 231.9C121.266 231.9 120.516 231.65 119.956 231.15C119.396 230.65 119.116 229.99 119.116 229.17C119.116 228.71 119.231 228.265 119.461 227.835C119.691 227.395 120.036 227.03 120.496 226.74C120.956 226.44 121.531 226.29 122.221 226.29C122.501 226.29 122.801 226.325 123.121 226.395C123.441 226.455 123.771 226.585 124.111 226.785C124.461 226.975 124.801 227.26 125.131 227.64L123.766 228.87C123.516 228.62 123.276 228.45 123.046 228.36C122.816 228.26 122.571 228.21 122.311 228.21C121.921 228.21 121.616 228.325 121.396 228.555C121.186 228.775 121.081 229.04 121.081 229.35C121.081 229.71 121.221 230.01 121.501 230.25C121.791 230.49 122.211 230.61 122.761 230.61H127.261V232.38ZM131.826 237L133.656 226.785H135.411L137.976 233.925H137.916L140.481 226.785H142.236L144.066 237H142.071L141.336 232.335C141.226 231.705 141.131 231.075 141.051 230.445C140.981 229.805 140.926 229.17 140.886 228.54H141.426C141.256 229.25 141.086 229.905 140.916 230.505C140.756 231.095 140.566 231.7 140.346 232.32L138.711 236.865H137.181L135.546 232.32C135.326 231.7 135.131 231.095 134.961 230.505C134.791 229.905 134.626 229.25 134.466 228.54H134.991C134.961 229.17 134.906 229.805 134.826 230.445C134.756 231.075 134.666 231.705 134.556 232.335L133.821 237H131.826ZM147.548 237.21C147.008 237.21 146.533 237.11 146.123 236.91C145.713 236.7 145.398 236.41 145.178 236.04C144.958 235.66 144.848 235.22 144.848 234.72C144.848 234.22 144.963 233.785 145.193 233.415C145.433 233.045 145.758 232.76 146.168 232.56C146.578 232.35 147.043 232.245 147.563 232.245C148.273 232.245 148.848 232.41 149.288 232.74C149.738 233.06 150.043 233.52 150.203 234.12L149.288 234V232.23C149.288 231.95 149.188 231.7 148.988 231.48C148.788 231.26 148.463 231.15 148.013 231.15C147.733 231.15 147.423 231.185 147.083 231.255C146.743 231.315 146.388 231.435 146.018 231.615L145.433 230.175C145.863 229.965 146.318 229.8 146.798 229.68C147.288 229.56 147.778 229.5 148.268 229.5C148.938 229.5 149.493 229.62 149.933 229.86C150.373 230.1 150.703 230.43 150.923 230.85C151.143 231.27 151.253 231.75 151.253 232.29V237H149.693L149.273 235.605L150.203 235.335C150.033 235.925 149.718 236.385 149.258 236.715C148.808 237.045 148.238 237.21 147.548 237.21ZM148.088 235.71C148.448 235.71 148.738 235.62 148.958 235.44C149.178 235.26 149.288 235.02 149.288 234.72C149.288 234.41 149.178 234.17 148.958 234C148.738 233.82 148.448 233.73 148.088 233.73C147.728 233.73 147.438 233.82 147.218 234C146.998 234.17 146.888 234.41 146.888 234.72C146.888 235.02 146.998 235.26 147.218 235.44C147.438 235.62 147.728 235.71 148.088 235.71ZM154.312 229.665L154.807 231.69V237H152.842V229.665H154.312ZM154.402 232.695L154.042 232.53V231.03L154.177 230.865C154.287 230.685 154.452 230.49 154.672 230.28C154.902 230.07 155.162 229.89 155.452 229.74C155.752 229.58 156.062 229.5 156.382 229.5C156.542 229.5 156.687 229.51 156.817 229.53C156.947 229.55 157.047 229.585 157.117 229.635V231.42H156.637C155.987 231.42 155.487 231.525 155.137 231.735C154.787 231.935 154.542 232.255 154.402 232.695ZM159.627 233.31V233.055L162.687 229.665H164.922L161.517 233.475L161.427 232.68L164.982 237H162.672L159.627 233.31ZM158.247 226.785H160.197V237H158.247V226.785ZM168.488 237.15C167.758 237.15 167.118 236.995 166.568 236.685C166.018 236.365 165.593 235.92 165.293 235.35C164.993 234.78 164.843 234.11 164.843 233.34C164.843 232.58 164.993 231.915 165.293 231.345C165.593 230.765 166.018 230.315 166.568 229.995C167.118 229.665 167.758 229.5 168.488 229.5C169.228 229.5 169.868 229.665 170.408 229.995C170.958 230.325 171.383 230.78 171.683 231.36C171.983 231.93 172.133 232.585 172.133 233.325C172.133 233.435 172.128 233.545 172.118 233.655C172.118 233.755 172.108 233.84 172.088 233.91H166.448V232.44H170.603L170.303 233.145C170.303 232.525 170.153 232.02 169.853 231.63C169.563 231.24 169.108 231.045 168.488 231.045C167.948 231.045 167.513 231.215 167.183 231.555C166.853 231.885 166.688 232.33 166.688 232.89V233.685C166.688 234.275 166.853 234.74 167.183 235.08C167.523 235.41 167.983 235.575 168.563 235.575C169.073 235.575 169.473 235.47 169.763 235.26C170.053 235.05 170.303 234.79 170.513 234.48L171.878 235.26C171.548 235.87 171.098 236.34 170.528 236.67C169.968 236.99 169.288 237.15 168.488 237.15ZM176.381 237.135C175.631 237.135 175.036 236.94 174.596 236.55C174.166 236.15 173.951 235.515 173.951 234.645V229.755L173.921 229.665L174.326 227.94H175.916V234.33C175.916 234.65 175.991 234.885 176.141 235.035C176.301 235.175 176.501 235.245 176.741 235.245C176.901 235.245 177.046 235.235 177.176 235.215C177.306 235.185 177.421 235.155 177.521 235.125V236.955C177.361 237.015 177.191 237.06 177.011 237.09C176.831 237.12 176.621 237.135 176.381 237.135ZM172.811 231.48V229.665H177.521V231.48H172.811ZM181.058 237H179.093V229.665H181.058V237ZM178.883 227.385C178.883 227.025 178.988 226.735 179.198 226.515C179.418 226.285 179.708 226.17 180.068 226.17C180.428 226.17 180.713 226.285 180.923 226.515C181.143 226.735 181.253 227.025 181.253 227.385C181.253 227.725 181.143 228.005 180.923 228.225C180.713 228.445 180.428 228.555 180.068 228.555C179.708 228.555 179.418 228.445 179.198 228.225C178.988 228.005 178.883 227.725 178.883 227.385ZM187.179 229.5C187.679 229.5 188.079 229.585 188.379 229.755C188.689 229.925 188.919 230.155 189.069 230.445C189.229 230.735 189.334 231.065 189.384 231.435C189.434 231.795 189.459 232.17 189.459 232.56V237H187.494V232.545C187.494 232.095 187.404 231.795 187.224 231.645C187.054 231.495 186.834 231.42 186.564 231.42C186.314 231.42 186.059 231.47 185.799 231.57C185.539 231.66 185.294 231.795 185.064 231.975C184.844 232.145 184.654 232.34 184.494 232.56L184.239 231.54H184.734V237H182.769V229.665H184.239L184.644 231.075L184.014 231.045C184.274 230.745 184.569 230.48 184.899 230.25C185.239 230.02 185.599 229.84 185.979 229.71C186.359 229.57 186.759 229.5 187.179 229.5ZM194.241 240C193.841 240 193.441 239.94 193.041 239.82C192.651 239.7 192.291 239.505 191.961 239.235C191.631 238.975 191.351 238.62 191.121 238.17L191.001 237.93L192.456 237.18C192.706 237.58 192.966 237.87 193.236 238.05C193.506 238.24 193.846 238.335 194.256 238.335C194.766 238.335 195.176 238.175 195.486 237.855C195.806 237.535 195.966 237.045 195.966 236.385V234.54H196.101V231.39H195.966L196.446 229.665H197.931V235.995C197.931 236.855 197.776 237.585 197.466 238.185C197.166 238.785 196.741 239.235 196.191 239.535C195.641 239.845 194.991 240 194.241 240ZM193.986 236.595C193.326 236.595 192.741 236.445 192.231 236.145C191.721 235.845 191.321 235.43 191.031 234.9C190.741 234.37 190.596 233.755 190.596 233.055C190.596 232.355 190.736 231.74 191.016 231.21C191.306 230.67 191.706 230.25 192.216 229.95C192.726 229.65 193.311 229.5 193.971 229.5C194.591 229.5 195.136 229.65 195.606 229.95C196.076 230.24 196.441 230.655 196.701 231.195C196.961 231.725 197.091 232.345 197.091 233.055C197.091 233.785 196.961 234.415 196.701 234.945C196.451 235.465 196.091 235.87 195.621 236.16C195.161 236.45 194.616 236.595 193.986 236.595ZM194.331 234.87C194.841 234.87 195.256 234.7 195.576 234.36C195.896 234.02 196.056 233.58 196.056 233.04C196.056 232.5 195.896 232.06 195.576 231.72C195.256 231.38 194.841 231.21 194.331 231.21C193.821 231.21 193.401 231.38 193.071 231.72C192.751 232.06 192.591 232.505 192.591 233.055C192.591 233.585 192.751 234.02 193.071 234.36C193.401 234.7 193.821 234.87 194.331 234.87Z" fill="white"/>
<defs>
<filter id="filter0_d_829_285" x="16.6" y="21.6" width="180.8" height="180.8" filterUnits="userSpaceOnUse" color-interpolation-filters="sRGB">
<feFlood flood-opacity="0" result="BackgroundImageFix"/>
<feColorMatrix in="SourceAlpha" type="matrix" values="0 0 0 0 0 0 0 0 0 0 0 0 0 0 0 0 0 0 127 0" result="hardAlpha"/>
<feOffset/>
<feGaussianBlur stdDeviation="11.2"/>
<feComposite in2="hardAlpha" operator="out"/>
<feColorMatrix type="matrix" values="0 0 0 0 1 0 0 0 0 0.933333 0 0 0 0 0.854902 0 0 0 0.19 0"/>
<feBlend mode="normal" in2="BackgroundImageFix" result="effect1_dropShadow_829_285"/>
<feBlend mode="normal" in="SourceGraphic" in2="effect1_dropShadow_829_285" result="shape"/>
</filter>
<linearGradient id="paint0_linear_829_285" x1="39" y1="112" x2="175" y2="112" gradientUnits="userSpaceOnUse">
<stop/>
<stop offset="1" stop-color="#444444"/>
</linearGradient>
</defs>
</svg>
