<svg width="213" height="260" viewBox="0 0 213 260" fill="none" xmlns="http://www.w3.org/2000/svg">
<path d="M0.5 100C0.5 45.0477 45.0477 0.5 100 0.5H113C167.952 0.5 212.5 45.0477 212.5 100V245C212.5 253.008 206.008 259.5 198 259.5H15C6.99187 259.5 0.5 253.008 0.5 245V100Z" fill="black" stroke="#FFEEDA"/>
<g filter="url(#filter0_d_829_287)">
<circle cx="107" cy="112" r="68" fill="url(#paint0_linear_829_287)" fill-opacity="0.25" shape-rendering="crispEdges"/>
<circle cx="107" cy="112" r="67.5" stroke="#FFEEDA" shape-rendering="crispEdges"/>
</g>
<path d="M94.629 155.564H120.629M114.129 93.8145L104.379 103.564L110.879 110.064L101.129 119.814M140.129 103.564V110.064C140.129 115.264 135.794 120.9 133.629 123.064L123.879 132.814L120.629 142.564H94.629L91.379 132.814L81.629 123.064C79.4645 120.9 75.129 115.264 75.129 110.064V103.564C75.129 94.9449 78.5531 86.6784 84.6481 80.5835C90.743 74.4886 99.0095 71.0645 107.629 71.0645C116.249 71.0645 124.515 74.4886 130.61 80.5835C136.705 86.6784 140.129 94.9449 140.129 103.564Z" stroke="#FFEEDA" stroke-width="5"/>
<path d="M40.8322 237.24C40.2622 237.24 39.7222 237.155 39.2122 236.985C38.7022 236.815 38.2422 236.55 37.8322 236.19C37.4322 235.83 37.0922 235.36 36.8122 234.78L38.3722 233.835C38.6822 234.365 39.0472 234.76 39.4672 235.02C39.8872 235.28 40.3722 235.41 40.9222 235.41C41.4222 235.41 41.8022 235.305 42.0622 235.095C42.3222 234.875 42.4522 234.585 42.4522 234.225C42.4522 233.995 42.3922 233.8 42.2722 233.64C42.1622 233.47 41.9622 233.31 41.6722 233.16C41.3822 233.01 40.9622 232.875 40.4122 232.755C39.5922 232.555 38.9472 232.305 38.4772 232.005C38.0172 231.705 37.6922 231.355 37.5022 230.955C37.3122 230.545 37.2172 230.095 37.2172 229.605C37.2172 229.015 37.3572 228.5 37.6372 228.06C37.9272 227.61 38.3372 227.255 38.8672 226.995C39.3972 226.735 40.0272 226.605 40.7572 226.605C41.5972 226.605 42.3022 226.77 42.8722 227.1C43.4422 227.42 43.9072 227.855 44.2672 228.405L42.7072 229.47C42.4272 229.11 42.1072 228.855 41.7472 228.705C41.3972 228.545 41.0372 228.465 40.6672 228.465C40.1872 228.465 39.8172 228.56 39.5572 228.75C39.3072 228.94 39.1822 229.205 39.1822 229.545C39.1822 229.845 39.3072 230.105 39.5572 230.325C39.8172 230.535 40.3172 230.73 41.0572 230.91C41.8972 231.11 42.5672 231.355 43.0672 231.645C43.5672 231.935 43.9222 232.285 44.1322 232.695C44.3522 233.105 44.4622 233.6 44.4622 234.18C44.4622 234.76 44.3122 235.28 44.0122 235.74C43.7222 236.2 43.3022 236.565 42.7522 236.835C42.2122 237.105 41.5722 237.24 40.8322 237.24ZM47.2887 232.815V230.94H51.4587V232.815H47.2887ZM47.2437 228.645L47.8737 227.895V235.815L47.1687 235.125H52.3137V237H45.9087V226.785H52.3137V228.645H47.2437ZM53.3639 231.9C53.3639 231.13 53.4939 230.425 53.7539 229.785C54.0139 229.135 54.3789 228.575 54.8489 228.105C55.3189 227.635 55.8739 227.27 56.5139 227.01C57.1639 226.75 57.8739 226.62 58.6439 226.62C59.4039 226.62 60.1039 226.75 60.7439 227.01C61.3839 227.27 61.9389 227.635 62.4089 228.105C62.8789 228.575 63.2439 229.135 63.5039 229.785C63.7639 230.425 63.8939 231.13 63.8939 231.9C63.8939 232.66 63.7639 233.365 63.5039 234.015C63.2439 234.655 62.8789 235.215 62.4089 235.695C61.9389 236.165 61.3839 236.53 60.7439 236.79C60.1039 237.05 59.4039 237.18 58.6439 237.18C57.8739 237.18 57.1639 237.05 56.5139 236.79C55.8739 236.53 55.3189 236.165 54.8489 235.695C54.3789 235.215 54.0139 234.655 53.7539 234.015C53.4939 233.365 53.3639 232.66 53.3639 231.9ZM55.3739 231.9C55.3739 232.56 55.5139 233.145 55.7939 233.655C56.0739 234.155 56.4589 234.545 56.9489 234.825C57.4489 235.105 58.0139 235.245 58.6439 235.245C59.2739 235.245 59.8289 235.105 60.3089 234.825C60.7989 234.545 61.1839 234.155 61.4639 233.655C61.7439 233.145 61.8839 232.56 61.8839 231.9C61.8839 231.23 61.7439 230.645 61.4639 230.145C61.1839 229.635 60.7989 229.24 60.3089 228.96C59.8289 228.68 59.2739 228.54 58.6439 228.54C58.0139 228.54 57.4489 228.685 56.9489 228.975C56.4589 229.255 56.0739 229.645 55.7939 230.145C55.5139 230.645 55.3739 231.23 55.3739 231.9ZM77.5404 232.38H72.5454C72.0354 232.38 71.6304 232.51 71.3304 232.77C71.0304 233.02 70.8804 233.37 70.8804 233.82C70.8804 234.26 71.0304 234.61 71.3304 234.87C71.6304 235.12 72.0354 235.245 72.5454 235.245C73.1454 235.245 73.5704 235.06 73.8204 234.69C74.0804 234.32 74.2104 233.78 74.2104 233.07V231.72H76.1754V233.22C76.1754 234.03 76.0554 234.695 75.8154 235.215C75.5854 235.725 75.2804 236.125 74.9004 236.415C74.5304 236.705 74.1354 236.905 73.7154 237.015C73.3054 237.125 72.9254 237.18 72.5754 237.18C71.7854 237.18 71.1154 237.035 70.5654 236.745C70.0154 236.445 69.5954 236.045 69.3054 235.545C69.0254 235.045 68.8854 234.495 68.8854 233.895C68.8854 233.355 69.0454 232.86 69.3654 232.41C69.6854 231.95 70.1354 231.58 70.7154 231.3C71.2954 231.02 71.9654 230.88 72.7254 230.88L72.4854 231.9C71.5454 231.9 70.7954 231.65 70.2354 231.15C69.6754 230.65 69.3954 229.99 69.3954 229.17C69.3954 228.71 69.5104 228.265 69.7404 227.835C69.9704 227.395 70.3154 227.03 70.7754 226.74C71.2354 226.44 71.8104 226.29 72.5004 226.29C72.7804 226.29 73.0804 226.325 73.4004 226.395C73.7204 226.455 74.0504 226.585 74.3904 226.785C74.7404 226.975 75.0804 227.26 75.4104 227.64L74.0454 228.87C73.7954 228.62 73.5554 228.45 73.3254 228.36C73.0954 228.26 72.8504 228.21 72.5904 228.21C72.2004 228.21 71.8954 228.325 71.6754 228.555C71.4654 228.775 71.3604 229.04 71.3604 229.35C71.3604 229.71 71.5004 230.01 71.7804 230.25C72.0704 230.49 72.4904 230.61 73.0404 230.61H77.5404V232.38ZM87.2498 237.18C86.1998 237.18 85.2848 236.955 84.5048 236.505C83.7348 236.045 83.1348 235.42 82.7048 234.63C82.2848 233.83 82.0748 232.92 82.0748 231.9C82.0748 231.13 82.1998 230.425 82.4498 229.785C82.7098 229.135 83.0698 228.575 83.5298 228.105C83.9998 227.635 84.5498 227.27 85.1798 227.01C85.8098 226.75 86.4998 226.62 87.2498 226.62C88.4398 226.62 89.4148 226.875 90.1748 227.385C90.9348 227.895 91.5298 228.605 91.9598 229.515L90.1298 230.175C89.7598 229.575 89.3398 229.15 88.8698 228.9C88.3998 228.65 87.8598 228.525 87.2498 228.525C86.6398 228.525 86.0948 228.67 85.6148 228.96C85.1448 229.24 84.7698 229.635 84.4898 230.145C84.2198 230.645 84.0848 231.23 84.0848 231.9C84.0848 232.56 84.2198 233.145 84.4898 233.655C84.7698 234.165 85.1448 234.565 85.6148 234.855C86.0948 235.135 86.6398 235.275 87.2498 235.275C87.8598 235.275 88.3998 235.15 88.8698 234.9C89.3398 234.65 89.7598 234.225 90.1298 233.625L91.9598 234.285C91.5298 235.195 90.9348 235.905 90.1748 236.415C89.4148 236.925 88.4398 237.18 87.2498 237.18ZM96.3599 237.18C95.5999 237.18 94.9299 237.02 94.3499 236.7C93.7799 236.37 93.3349 235.92 93.0149 235.35C92.6949 234.77 92.5349 234.1 92.5349 233.34C92.5349 232.58 92.6949 231.915 93.0149 231.345C93.3349 230.765 93.7799 230.315 94.3499 229.995C94.9299 229.665 95.5999 229.5 96.3599 229.5C97.1199 229.5 97.7849 229.665 98.3549 229.995C98.9349 230.315 99.3849 230.765 99.7049 231.345C100.025 231.915 100.185 232.58 100.185 233.34C100.185 234.1 100.025 234.77 99.7049 235.35C99.3849 235.92 98.9349 236.37 98.3549 236.7C97.7849 237.02 97.1199 237.18 96.3599 237.18ZM96.3599 235.275C96.8999 235.275 97.3399 235.095 97.6799 234.735C98.0199 234.375 98.1899 233.91 98.1899 233.34C98.1899 232.76 98.0199 232.29 97.6799 231.93C97.3399 231.57 96.8999 231.39 96.3599 231.39C95.8199 231.39 95.3799 231.57 95.0399 231.93C94.7099 232.28 94.5449 232.745 94.5449 233.325C94.5449 233.905 94.7099 234.375 95.0399 234.735C95.3799 235.095 95.8199 235.275 96.3599 235.275ZM101.363 237V229.665H102.833L103.238 231.075L102.608 231.045C102.868 230.745 103.153 230.48 103.463 230.25C103.773 230.02 104.108 229.84 104.468 229.71C104.838 229.57 105.223 229.5 105.623 229.5C106.123 229.5 106.523 229.585 106.823 229.755C107.123 229.925 107.343 230.155 107.483 230.445C107.633 230.735 107.733 231.065 107.783 231.435C107.843 231.795 107.873 232.17 107.873 232.56V237H105.908V232.545C105.908 232.095 105.818 231.795 105.638 231.645C105.458 231.495 105.243 231.42 104.993 231.42C104.633 231.42 104.283 231.53 103.943 231.75C103.603 231.96 103.318 232.23 103.088 232.56L102.833 231.54H103.328V237H101.363ZM110.438 237V232.545C110.438 232.095 110.348 231.795 110.168 231.645C109.998 231.495 109.788 231.42 109.538 231.42C109.178 231.42 108.828 231.53 108.488 231.75C108.148 231.96 107.863 232.23 107.633 232.56L107.138 231.045C107.398 230.745 107.683 230.48 107.993 230.25C108.313 230.02 108.653 229.84 109.013 229.71C109.383 229.57 109.768 229.5 110.168 229.5C110.658 229.5 111.053 229.585 111.353 229.755C111.653 229.925 111.878 230.155 112.028 230.445C112.178 230.735 112.278 231.065 112.328 231.435C112.388 231.795 112.418 232.17 112.418 232.56V237H110.438ZM116.435 237.18C115.885 237.18 115.445 237.095 115.115 236.925C114.785 236.755 114.53 236.53 114.35 236.25C114.18 235.96 114.065 235.63 114.005 235.26C113.945 234.89 113.915 234.505 113.915 234.105V229.665H115.88V234.12C115.88 234.57 115.975 234.87 116.165 235.02C116.365 235.17 116.6 235.245 116.87 235.245C117.12 235.245 117.37 235.2 117.62 235.11C117.87 235.02 118.105 234.89 118.325 234.72C118.555 234.54 118.745 234.335 118.895 234.105L119.135 235.14H118.655V229.665H120.62V237H119.15L118.745 235.605L119.375 235.62C119.125 235.91 118.84 236.175 118.52 236.415C118.21 236.655 117.875 236.845 117.515 236.985C117.165 237.115 116.805 237.18 116.435 237.18ZM126.706 229.5C127.206 229.5 127.606 229.585 127.906 229.755C128.216 229.925 128.446 230.155 128.596 230.445C128.756 230.735 128.861 231.065 128.911 231.435C128.961 231.795 128.986 232.17 128.986 232.56V237H127.021V232.545C127.021 232.095 126.931 231.795 126.751 231.645C126.581 231.495 126.361 231.42 126.091 231.42C125.841 231.42 125.586 231.47 125.326 231.57C125.066 231.66 124.821 231.795 124.591 231.975C124.371 232.145 124.181 232.34 124.021 232.56L123.766 231.54H124.261V237H122.296V229.665H123.766L124.171 231.075L123.541 231.045C123.801 230.745 124.096 230.48 124.426 230.25C124.766 230.02 125.126 229.84 125.506 229.71C125.886 229.57 126.286 229.5 126.706 229.5ZM132.582 237H130.617V229.665H132.582V237ZM130.407 227.385C130.407 227.025 130.512 226.735 130.722 226.515C130.942 226.285 131.232 226.17 131.592 226.17C131.952 226.17 132.237 226.285 132.447 226.515C132.667 226.735 132.777 227.025 132.777 227.385C132.777 227.725 132.667 228.005 132.447 228.225C132.237 228.445 131.952 228.555 131.592 228.555C131.232 228.555 130.942 228.445 130.722 228.225C130.512 228.005 130.407 227.725 130.407 227.385ZM137.578 237.18C136.828 237.18 136.173 237.015 135.613 236.685C135.053 236.355 134.618 235.9 134.308 235.32C134.008 234.74 133.858 234.075 133.858 233.325C133.858 232.585 134.008 231.925 134.308 231.345C134.618 230.765 135.053 230.315 135.613 229.995C136.173 229.665 136.828 229.5 137.578 229.5C138.358 229.5 139.043 229.7 139.633 230.1C140.233 230.49 140.663 231.02 140.923 231.69L139.123 232.47C138.973 232.13 138.768 231.865 138.508 231.675C138.258 231.485 137.943 231.39 137.563 231.39C137.073 231.39 136.663 231.565 136.333 231.915C136.003 232.255 135.838 232.725 135.838 233.325C135.838 233.935 136.003 234.41 136.333 234.75C136.663 235.09 137.073 235.26 137.563 235.26C137.943 235.26 138.258 235.17 138.508 234.99C138.768 234.8 138.973 234.535 139.123 234.195L140.923 234.975C140.663 235.635 140.233 236.17 139.633 236.58C139.033 236.98 138.348 237.18 137.578 237.18ZM144.102 237.21C143.562 237.21 143.087 237.11 142.677 236.91C142.267 236.7 141.952 236.41 141.732 236.04C141.512 235.66 141.402 235.22 141.402 234.72C141.402 234.22 141.517 233.785 141.747 233.415C141.987 233.045 142.312 232.76 142.722 232.56C143.132 232.35 143.597 232.245 144.117 232.245C144.827 232.245 145.402 232.41 145.842 232.74C146.292 233.06 146.597 233.52 146.757 234.12L145.842 234V232.23C145.842 231.95 145.742 231.7 145.542 231.48C145.342 231.26 145.017 231.15 144.567 231.15C144.287 231.15 143.977 231.185 143.637 231.255C143.297 231.315 142.942 231.435 142.572 231.615L141.987 230.175C142.417 229.965 142.872 229.8 143.352 229.68C143.842 229.56 144.332 229.5 144.822 229.5C145.492 229.5 146.047 229.62 146.487 229.86C146.927 230.1 147.257 230.43 147.477 230.85C147.697 231.27 147.807 231.75 147.807 232.29V237H146.247L145.827 235.605L146.757 235.335C146.587 235.925 146.272 236.385 145.812 236.715C145.362 237.045 144.792 237.21 144.102 237.21ZM144.642 235.71C145.002 235.71 145.292 235.62 145.512 235.44C145.732 235.26 145.842 235.02 145.842 234.72C145.842 234.41 145.732 234.17 145.512 234C145.292 233.82 145.002 233.73 144.642 233.73C144.282 233.73 143.992 233.82 143.772 234C143.552 234.17 143.442 234.41 143.442 234.72C143.442 235.02 143.552 235.26 143.772 235.44C143.992 235.62 144.282 235.71 144.642 235.71ZM152.681 237.18C151.931 237.18 151.276 237.015 150.716 236.685C150.156 236.355 149.721 235.9 149.411 235.32C149.111 234.74 148.961 234.075 148.961 233.325C148.961 232.585 149.111 231.925 149.411 231.345C149.721 230.765 150.156 230.315 150.716 229.995C151.276 229.665 151.931 229.5 152.681 229.5C153.461 229.5 154.146 229.7 154.736 230.1C155.336 230.49 155.766 231.02 156.026 231.69L154.226 232.47C154.076 232.13 153.871 231.865 153.611 231.675C153.361 231.485 153.046 231.39 152.666 231.39C152.176 231.39 151.766 231.565 151.436 231.915C151.106 232.255 150.941 232.725 150.941 233.325C150.941 233.935 151.106 234.41 151.436 234.75C151.766 235.09 152.176 235.26 152.666 235.26C153.046 235.26 153.361 235.17 153.611 234.99C153.871 234.8 154.076 234.535 154.226 234.195L156.026 234.975C155.766 235.635 155.336 236.17 154.736 236.58C154.136 236.98 153.451 237.18 152.681 237.18ZM159.037 237H157.072V229.665H159.037V237ZM156.862 227.385C156.862 227.025 156.967 226.735 157.177 226.515C157.397 226.285 157.687 226.17 158.047 226.17C158.407 226.17 158.692 226.285 158.902 226.515C159.122 226.735 159.232 227.025 159.232 227.385C159.232 227.725 159.122 228.005 158.902 228.225C158.692 228.445 158.407 228.555 158.047 228.555C157.687 228.555 157.397 228.445 157.177 228.225C156.967 228.005 156.862 227.725 156.862 227.385ZM164.138 237.18C163.378 237.18 162.708 237.02 162.128 236.7C161.558 236.37 161.113 235.92 160.793 235.35C160.473 234.77 160.313 234.1 160.313 233.34C160.313 232.58 160.473 231.915 160.793 231.345C161.113 230.765 161.558 230.315 162.128 229.995C162.708 229.665 163.378 229.5 164.138 229.5C164.898 229.5 165.563 229.665 166.133 229.995C166.713 230.315 167.163 230.765 167.483 231.345C167.803 231.915 167.963 232.58 167.963 233.34C167.963 234.1 167.803 234.77 167.483 235.35C167.163 235.92 166.713 236.37 166.133 236.7C165.563 237.02 164.898 237.18 164.138 237.18ZM164.138 235.275C164.678 235.275 165.118 235.095 165.458 234.735C165.798 234.375 165.968 233.91 165.968 233.34C165.968 232.76 165.798 232.29 165.458 231.93C165.118 231.57 164.678 231.39 164.138 231.39C163.598 231.39 163.158 231.57 162.818 231.93C162.488 232.28 162.323 232.745 162.323 233.325C162.323 233.905 162.488 234.375 162.818 234.735C163.158 235.095 163.598 235.275 164.138 235.275ZM164.033 228.735L163.088 227.76L165.443 225.585L166.403 226.545L164.033 228.735ZM173.552 229.5C174.052 229.5 174.452 229.585 174.752 229.755C175.062 229.925 175.292 230.155 175.442 230.445C175.602 230.735 175.707 231.065 175.757 231.435C175.807 231.795 175.832 232.17 175.832 232.56V237H173.867V232.545C173.867 232.095 173.777 231.795 173.597 231.645C173.427 231.495 173.207 231.42 172.937 231.42C172.687 231.42 172.432 231.47 172.172 231.57C171.912 231.66 171.667 231.795 171.437 231.975C171.217 232.145 171.027 232.34 170.867 232.56L170.612 231.54H171.107V237H169.142V229.665H170.612L171.017 231.075L170.387 231.045C170.647 230.745 170.942 230.48 171.272 230.25C171.612 230.02 171.972 229.84 172.352 229.71C172.732 229.57 173.132 229.5 173.552 229.5Z" fill="white"/>
<defs>
<filter id="filter0_d_829_287" x="16.6" y="21.6" width="180.8" height="180.8" filterUnits="userSpaceOnUse" color-interpolation-filters="sRGB">
<feFlood flood-opacity="0" result="BackgroundImageFix"/>
<feColorMatrix in="SourceAlpha" type="matrix" values="0 0 0 0 0 0 0 0 0 0 0 0 0 0 0 0 0 0 127 0" result="hardAlpha"/>
<feOffset/>
<feGaussianBlur stdDeviation="11.2"/>
<feComposite in2="hardAlpha" operator="out"/>
<feColorMatrix type="matrix" values="0 0 0 0 1 0 0 0 0 0.933333 0 0 0 0 0.854902 0 0 0 0.19 0"/>
<feBlend mode="normal" in2="BackgroundImageFix" result="effect1_dropShadow_829_287"/>
<feBlend mode="normal" in="SourceGraphic" in2="effect1_dropShadow_829_287" result="shape"/>
</filter>
<linearGradient id="paint0_linear_829_287" x1="39" y1="112" x2="175" y2="112" gradientUnits="userSpaceOnUse">
<stop/>
<stop offset="1" stop-color="#444444"/>
</linearGradient>
</defs>
</svg>
