<svg width="213" height="260" viewBox="0 0 213 260" fill="none" xmlns="http://www.w3.org/2000/svg">
<path d="M0.5 100C0.5 45.0477 45.0477 0.5 100 0.5H113C167.952 0.5 212.5 45.0477 212.5 100V245C212.5 253.008 206.008 259.5 198 259.5H15C6.99187 259.5 0.5 253.008 0.5 245V100Z" fill="black" stroke="#FFEEDA"/>
<g filter="url(#filter0_d_829_286)">
<circle cx="107" cy="112" r="68" fill="url(#paint0_linear_829_286)" fill-opacity="0.25" shape-rendering="crispEdges"/>
<circle cx="107" cy="112" r="67.5" stroke="#FFEEDA" shape-rendering="crispEdges"/>
</g>
<path d="M66.9688 75.5625V124.305L58.7714 132.62C57.1285 134.255 56.1996 136.473 56.1875 138.791C56.2007 141.08 57.1159 143.272 58.7346 144.89C60.3533 146.509 62.5449 147.424 64.8341 147.438H148.166C150.455 147.424 152.647 146.509 154.265 144.89C155.884 143.272 156.799 141.08 156.812 138.791C156.798 136.472 155.87 134.252 154.229 132.613L146.031 124.301V75.5625H66.9688ZM74.1562 82.75H138.844V122.281H74.1562V82.75ZM106.5 86.3438L101.109 118.688H106.5L111.891 86.3438H106.5ZM92.4341 93.5312L86.2564 100.963L84.9375 102.516L86.2564 104.068L92.4341 111.5L96.3369 108.399L91.4422 102.516L96.3297 96.6327L92.4341 93.5312ZM120.566 93.5312L116.663 96.6327L121.558 102.516L116.67 108.399L120.57 111.5L126.747 104.068L128.062 102.516L126.744 100.963L120.566 93.5312ZM72.133 129.469H140.863L149.176 137.666C149.462 137.971 149.623 138.373 149.625 138.791C149.635 138.985 149.605 139.18 149.535 139.361C149.465 139.543 149.358 139.708 149.221 139.846C149.083 139.983 148.918 140.09 148.736 140.16C148.555 140.23 148.36 140.26 148.166 140.25H64.8341C64.6397 140.26 64.4454 140.23 64.2637 140.16C64.082 140.09 63.9169 139.983 63.7793 139.846C63.6417 139.708 63.5346 139.543 63.4649 139.361C63.3953 139.18 63.3646 138.985 63.375 138.791C63.375 138.396 63.5439 137.95 63.8242 137.666L72.133 129.469Z" fill="#FFEEDA"/>
<path d="M25.3569 237V226.785H28.8669C29.8969 226.785 30.7919 226.99 31.5519 227.4C32.3219 227.81 32.9169 228.395 33.3369 229.155C33.7669 229.915 33.9819 230.83 33.9819 231.9C33.9819 232.98 33.7669 233.9 33.3369 234.66C32.9169 235.42 32.3219 236 31.5519 236.4C30.7819 236.8 29.8819 237 28.8519 237H25.3569ZM27.3219 235.785L26.5869 235.125H28.7169C29.3469 235.125 29.9019 235.01 30.3819 234.78C30.8719 234.55 31.2569 234.2 31.5369 233.73C31.8169 233.26 31.9569 232.65 31.9569 231.9C31.9569 231.18 31.8169 230.58 31.5369 230.1C31.2669 229.62 30.8869 229.26 30.3969 229.02C29.9169 228.78 29.3619 228.66 28.7319 228.66H26.4819L27.3219 228.06V235.785ZM37.1768 237H35.2118V229.665H37.1768V237ZM35.0018 227.385C35.0018 227.025 35.1068 226.735 35.3168 226.515C35.5368 226.285 35.8268 226.17 36.1868 226.17C36.5468 226.17 36.8318 226.285 37.0418 226.515C37.2618 226.735 37.3718 227.025 37.3718 227.385C37.3718 227.725 37.2618 228.005 37.0418 228.225C36.8318 228.445 36.5468 228.555 36.1868 228.555C35.8268 228.555 35.5368 228.445 35.3168 228.225C35.1068 228.005 35.0018 227.725 35.0018 227.385ZM41.4529 237.195C40.8929 237.195 40.3579 237.08 39.8479 236.85C39.3479 236.62 38.9029 236.22 38.5129 235.65L39.7129 234.6C40.0329 234.96 40.3379 235.22 40.6279 235.38C40.9279 235.53 41.2629 235.605 41.6329 235.605C41.8829 235.605 42.0829 235.545 42.2329 235.425C42.3829 235.305 42.4579 235.155 42.4579 234.975C42.4579 234.855 42.4179 234.75 42.3379 234.66C42.2579 234.56 42.1079 234.465 41.8879 234.375C41.6779 234.285 41.3679 234.19 40.9579 234.09C40.1979 233.89 39.6279 233.62 39.2479 233.28C38.8679 232.93 38.6779 232.44 38.6779 231.81C38.6779 231.38 38.7879 230.99 39.0079 230.64C39.2279 230.28 39.5429 229.995 39.9529 229.785C40.3729 229.575 40.8679 229.47 41.4379 229.47C42.1079 229.47 42.6779 229.6 43.1479 229.86C43.6279 230.12 44.0129 230.435 44.3029 230.805L43.0279 231.87C42.8379 231.67 42.5929 231.495 42.2929 231.345C41.9929 231.195 41.6429 231.12 41.2429 231.12C41.0229 231.12 40.8279 231.17 40.6579 231.27C40.4879 231.37 40.4029 231.515 40.4029 231.705C40.4029 231.885 40.4929 232.035 40.6729 232.155C40.8629 232.275 41.2229 232.4 41.7529 232.53C42.6529 232.74 43.2979 233.025 43.6879 233.385C44.0779 233.745 44.2729 234.225 44.2729 234.825C44.2729 235.305 44.1479 235.725 43.8979 236.085C43.6479 236.435 43.3079 236.71 42.8779 236.91C42.4579 237.1 41.9829 237.195 41.4529 237.195ZM48.7336 237.15C48.0036 237.15 47.3636 236.995 46.8136 236.685C46.2636 236.365 45.8386 235.92 45.5386 235.35C45.2386 234.78 45.0886 234.11 45.0886 233.34C45.0886 232.58 45.2386 231.915 45.5386 231.345C45.8386 230.765 46.2636 230.315 46.8136 229.995C47.3636 229.665 48.0036 229.5 48.7336 229.5C49.4736 229.5 50.1136 229.665 50.6536 229.995C51.2036 230.325 51.6286 230.78 51.9286 231.36C52.2286 231.93 52.3786 232.585 52.3786 233.325C52.3786 233.435 52.3736 233.545 52.3636 233.655C52.3636 233.755 52.3536 233.84 52.3336 233.91H46.6936V232.44H50.8486L50.5486 233.145C50.5486 232.525 50.3986 232.02 50.0986 231.63C49.8086 231.24 49.3536 231.045 48.7336 231.045C48.1936 231.045 47.7586 231.215 47.4286 231.555C47.0986 231.885 46.9336 232.33 46.9336 232.89V233.685C46.9336 234.275 47.0986 234.74 47.4286 235.08C47.7686 235.41 48.2286 235.575 48.8086 235.575C49.3186 235.575 49.7186 235.47 50.0086 235.26C50.2986 235.05 50.5486 234.79 50.7586 234.48L52.1236 235.26C51.7936 235.87 51.3436 236.34 50.7736 236.67C50.2136 236.99 49.5336 237.15 48.7336 237.15ZM57.9902 229.5C58.4902 229.5 58.8902 229.585 59.1902 229.755C59.5002 229.925 59.7302 230.155 59.8802 230.445C60.0402 230.735 60.1452 231.065 60.1952 231.435C60.2452 231.795 60.2702 232.17 60.2702 232.56V237H58.3052V232.545C58.3052 232.095 58.2152 231.795 58.0352 231.645C57.8652 231.495 57.6452 231.42 57.3752 231.42C57.1252 231.42 56.8702 231.47 56.6102 231.57C56.3502 231.66 56.1052 231.795 55.8752 231.975C55.6552 232.145 55.4652 232.34 55.3052 232.56L55.0502 231.54H55.5452V237H53.5802V229.665H55.0502L55.4552 231.075L54.8252 231.045C55.0852 230.745 55.3802 230.48 55.7102 230.25C56.0502 230.02 56.4102 229.84 56.7902 229.71C57.1702 229.57 57.5702 229.5 57.9902 229.5ZM57.9002 228.42C57.5502 228.42 57.1752 228.295 56.7752 228.045C56.6152 227.945 56.4852 227.875 56.3852 227.835C56.2852 227.785 56.1802 227.76 56.0702 227.76C55.7902 227.76 55.5402 227.965 55.3202 228.375L54.1052 227.76C54.3152 227.29 54.5652 226.925 54.8552 226.665C55.1552 226.405 55.5102 226.275 55.9202 226.275C56.1302 226.275 56.3302 226.31 56.5202 226.38C56.7202 226.45 56.9252 226.555 57.1352 226.695C57.2552 226.765 57.3652 226.825 57.4652 226.875C57.5752 226.925 57.6802 226.95 57.7802 226.95C57.9402 226.95 58.0702 226.905 58.1702 226.815C58.2802 226.715 58.3952 226.535 58.5152 226.275L59.7452 226.89C59.5452 227.39 59.2952 227.77 58.9952 228.03C58.6952 228.29 58.3302 228.42 57.9002 228.42ZM65.188 237.18C64.428 237.18 63.758 237.02 63.178 236.7C62.608 236.37 62.163 235.92 61.843 235.35C61.523 234.77 61.363 234.1 61.363 233.34C61.363 232.58 61.523 231.915 61.843 231.345C62.163 230.765 62.608 230.315 63.178 229.995C63.758 229.665 64.428 229.5 65.188 229.5C65.948 229.5 66.613 229.665 67.183 229.995C67.763 230.315 68.213 230.765 68.533 231.345C68.853 231.915 69.013 232.58 69.013 233.34C69.013 234.1 68.853 234.77 68.533 235.35C68.213 235.92 67.763 236.37 67.183 236.7C66.613 237.02 65.948 237.18 65.188 237.18ZM65.188 235.275C65.728 235.275 66.168 235.095 66.508 234.735C66.848 234.375 67.018 233.91 67.018 233.34C67.018 232.76 66.848 232.29 66.508 231.93C66.168 231.57 65.728 231.39 65.188 231.39C64.648 231.39 64.208 231.57 63.868 231.93C63.538 232.28 63.373 232.745 63.373 233.325C63.373 233.905 63.538 234.375 63.868 234.735C64.208 235.095 64.648 235.275 65.188 235.275ZM82.8313 237L80.1313 228.09L79.7263 226.785H81.6313L84.3913 235.935L83.4613 235.845L85.8463 226.785H87.8263L85.0363 237H82.8313ZM76.3213 237L73.5313 226.785H75.5113L77.8963 235.845L76.9663 235.935L79.7263 226.785H81.6313L81.2413 228.09L78.5263 237H76.3213ZM91.4631 237.15C90.7331 237.15 90.0931 236.995 89.5431 236.685C88.9931 236.365 88.5681 235.92 88.2681 235.35C87.9681 234.78 87.8181 234.11 87.8181 233.34C87.8181 232.58 87.9681 231.915 88.2681 231.345C88.5681 230.765 88.9931 230.315 89.5431 229.995C90.0931 229.665 90.7331 229.5 91.4631 229.5C92.2031 229.5 92.8431 229.665 93.3831 229.995C93.9331 230.325 94.3581 230.78 94.6581 231.36C94.9581 231.93 95.1081 232.585 95.1081 233.325C95.1081 233.435 95.1031 233.545 95.0931 233.655C95.0931 233.755 95.0831 233.84 95.0631 233.91H89.4231V232.44H93.5781L93.2781 233.145C93.2781 232.525 93.1281 232.02 92.8281 231.63C92.5381 231.24 92.0831 231.045 91.4631 231.045C90.9231 231.045 90.4881 231.215 90.1581 231.555C89.8281 231.885 89.6631 232.33 89.6631 232.89V233.685C89.6631 234.275 89.8281 234.74 90.1581 235.08C90.4981 235.41 90.9581 235.575 91.5381 235.575C92.0481 235.575 92.4481 235.47 92.7381 235.26C93.0281 235.05 93.2781 234.79 93.4881 234.48L94.8531 235.26C94.5231 235.87 94.0731 236.34 93.5031 236.67C92.9431 236.99 92.2631 237.15 91.4631 237.15ZM100.255 237.18C99.6147 237.18 99.0497 237.02 98.5597 236.7C98.0797 236.38 97.7047 235.935 97.4347 235.365C97.1647 234.785 97.0297 234.105 97.0297 233.325C97.0297 232.515 97.1597 231.825 97.4197 231.255C97.6897 230.685 98.0647 230.25 98.5447 229.95C99.0247 229.65 99.5897 229.5 100.24 229.5C100.91 229.5 101.5 229.66 102.01 229.98C102.52 230.3 102.915 230.75 103.195 231.33C103.485 231.9 103.63 232.565 103.63 233.325C103.63 234.075 103.485 234.74 103.195 235.32C102.915 235.9 102.52 236.355 102.01 236.685C101.51 237.015 100.925 237.18 100.255 237.18ZM96.3097 237V226.785H98.2747V231.585H98.1247V235.26H98.2747L97.7797 237H96.3097ZM99.9097 235.365C100.41 235.365 100.82 235.175 101.14 234.795C101.47 234.415 101.635 233.925 101.635 233.325C101.635 232.725 101.47 232.24 101.14 231.87C100.82 231.49 100.41 231.3 99.9097 231.3C99.4097 231.3 98.9947 231.49 98.6647 231.87C98.3347 232.24 98.1697 232.73 98.1697 233.34C98.1697 233.94 98.3347 234.43 98.6647 234.81C98.9947 235.18 99.4097 235.365 99.9097 235.365ZM117.326 232.38H112.331C111.821 232.38 111.416 232.51 111.116 232.77C110.816 233.02 110.666 233.37 110.666 233.82C110.666 234.26 110.816 234.61 111.116 234.87C111.416 235.12 111.821 235.245 112.331 235.245C112.931 235.245 113.356 235.06 113.606 234.69C113.866 234.32 113.996 233.78 113.996 233.07V231.72H115.961V233.22C115.961 234.03 115.841 234.695 115.601 235.215C115.371 235.725 115.066 236.125 114.686 236.415C114.316 236.705 113.921 236.905 113.501 237.015C113.091 237.125 112.711 237.18 112.361 237.18C111.571 237.18 110.901 237.035 110.351 236.745C109.801 236.445 109.381 236.045 109.091 235.545C108.811 235.045 108.671 234.495 108.671 233.895C108.671 233.355 108.831 232.86 109.151 232.41C109.471 231.95 109.921 231.58 110.501 231.3C111.081 231.02 111.751 230.88 112.511 230.88L112.271 231.9C111.331 231.9 110.581 231.65 110.021 231.15C109.461 230.65 109.181 229.99 109.181 229.17C109.181 228.71 109.296 228.265 109.526 227.835C109.756 227.395 110.101 227.03 110.561 226.74C111.021 226.44 111.596 226.29 112.286 226.29C112.566 226.29 112.866 226.325 113.186 226.395C113.506 226.455 113.836 226.585 114.176 226.785C114.526 226.975 114.866 227.26 115.196 227.64L113.831 228.87C113.581 228.62 113.341 228.45 113.111 228.36C112.881 228.26 112.636 228.21 112.376 228.21C111.986 228.21 111.681 228.325 111.461 228.555C111.251 228.775 111.146 229.04 111.146 229.35C111.146 229.71 111.286 230.01 111.566 230.25C111.856 230.49 112.276 230.61 112.826 230.61H117.326V232.38ZM122.52 237V226.785H126.03C127.06 226.785 127.955 226.99 128.715 227.4C129.485 227.81 130.08 228.395 130.5 229.155C130.93 229.915 131.145 230.83 131.145 231.9C131.145 232.98 130.93 233.9 130.5 234.66C130.08 235.42 129.485 236 128.715 236.4C127.945 236.8 127.045 237 126.015 237H122.52ZM124.485 235.785L123.75 235.125H125.88C126.51 235.125 127.065 235.01 127.545 234.78C128.035 234.55 128.42 234.2 128.7 233.73C128.98 233.26 129.12 232.65 129.12 231.9C129.12 231.18 128.98 230.58 128.7 230.1C128.43 229.62 128.05 229.26 127.56 229.02C127.08 228.78 126.525 228.66 125.895 228.66H123.645L124.485 228.06V235.785ZM135.613 237.15C134.883 237.15 134.243 236.995 133.693 236.685C133.143 236.365 132.718 235.92 132.418 235.35C132.118 234.78 131.968 234.11 131.968 233.34C131.968 232.58 132.118 231.915 132.418 231.345C132.718 230.765 133.143 230.315 133.693 229.995C134.243 229.665 134.883 229.5 135.613 229.5C136.353 229.5 136.993 229.665 137.533 229.995C138.083 230.325 138.508 230.78 138.808 231.36C139.108 231.93 139.258 232.585 139.258 233.325C139.258 233.435 139.253 233.545 139.243 233.655C139.243 233.755 139.233 233.84 139.213 233.91H133.573V232.44H137.728L137.428 233.145C137.428 232.525 137.278 232.02 136.978 231.63C136.688 231.24 136.233 231.045 135.613 231.045C135.073 231.045 134.638 231.215 134.308 231.555C133.978 231.885 133.813 232.33 133.813 232.89V233.685C133.813 234.275 133.978 234.74 134.308 235.08C134.648 235.41 135.108 235.575 135.688 235.575C136.198 235.575 136.598 235.47 136.888 235.26C137.178 235.05 137.428 234.79 137.638 234.48L139.003 235.26C138.673 235.87 138.223 236.34 137.653 236.67C137.093 236.99 136.413 237.15 135.613 237.15ZM142.937 237.195C142.377 237.195 141.842 237.08 141.332 236.85C140.832 236.62 140.387 236.22 139.997 235.65L141.197 234.6C141.517 234.96 141.822 235.22 142.112 235.38C142.412 235.53 142.747 235.605 143.117 235.605C143.367 235.605 143.567 235.545 143.717 235.425C143.867 235.305 143.942 235.155 143.942 234.975C143.942 234.855 143.902 234.75 143.822 234.66C143.742 234.56 143.592 234.465 143.372 234.375C143.162 234.285 142.852 234.19 142.442 234.09C141.682 233.89 141.112 233.62 140.732 233.28C140.352 232.93 140.162 232.44 140.162 231.81C140.162 231.38 140.272 230.99 140.492 230.64C140.712 230.28 141.027 229.995 141.437 229.785C141.857 229.575 142.352 229.47 142.922 229.47C143.592 229.47 144.162 229.6 144.632 229.86C145.112 230.12 145.497 230.435 145.787 230.805L144.512 231.87C144.322 231.67 144.077 231.495 143.777 231.345C143.477 231.195 143.127 231.12 142.727 231.12C142.507 231.12 142.312 231.17 142.142 231.27C141.972 231.37 141.887 231.515 141.887 231.705C141.887 231.885 141.977 232.035 142.157 232.155C142.347 232.275 142.707 232.4 143.237 232.53C144.137 232.74 144.782 233.025 145.172 233.385C145.562 233.745 145.757 234.225 145.757 234.825C145.757 235.305 145.632 235.725 145.382 236.085C145.132 236.435 144.792 236.71 144.362 236.91C143.942 237.1 143.467 237.195 142.937 237.195ZM149.068 237.21C148.528 237.21 148.053 237.11 147.643 236.91C147.233 236.7 146.918 236.41 146.698 236.04C146.478 235.66 146.368 235.22 146.368 234.72C146.368 234.22 146.483 233.785 146.713 233.415C146.953 233.045 147.278 232.76 147.688 232.56C148.098 232.35 148.563 232.245 149.083 232.245C149.793 232.245 150.368 232.41 150.808 232.74C151.258 233.06 151.563 233.52 151.723 234.12L150.808 234V232.23C150.808 231.95 150.708 231.7 150.508 231.48C150.308 231.26 149.983 231.15 149.533 231.15C149.253 231.15 148.943 231.185 148.603 231.255C148.263 231.315 147.908 231.435 147.538 231.615L146.953 230.175C147.383 229.965 147.838 229.8 148.318 229.68C148.808 229.56 149.298 229.5 149.788 229.5C150.458 229.5 151.013 229.62 151.453 229.86C151.893 230.1 152.223 230.43 152.443 230.85C152.663 231.27 152.773 231.75 152.773 232.29V237H151.213L150.793 235.605L151.723 235.335C151.553 235.925 151.238 236.385 150.778 236.715C150.328 237.045 149.758 237.21 149.068 237.21ZM149.608 235.71C149.968 235.71 150.258 235.62 150.478 235.44C150.698 235.26 150.808 235.02 150.808 234.72C150.808 234.41 150.698 234.17 150.478 234C150.258 233.82 149.968 233.73 149.608 233.73C149.248 233.73 148.958 233.82 148.738 234C148.518 234.17 148.408 234.41 148.408 234.72C148.408 235.02 148.518 235.26 148.738 235.44C148.958 235.62 149.248 235.71 149.608 235.71ZM155.831 229.665L156.326 231.69V237H154.361V229.665H155.831ZM155.921 232.695L155.561 232.53V231.03L155.696 230.865C155.806 230.685 155.971 230.49 156.191 230.28C156.421 230.07 156.681 229.89 156.971 229.74C157.271 229.58 157.581 229.5 157.901 229.5C158.061 229.5 158.206 229.51 158.336 229.53C158.466 229.55 158.566 229.585 158.636 229.635V231.42H158.156C157.506 231.42 157.006 231.525 156.656 231.735C156.306 231.935 156.061 232.255 155.921 232.695ZM161.237 229.665L161.732 231.69V237H159.767V229.665H161.237ZM161.327 232.695L160.967 232.53V231.03L161.102 230.865C161.212 230.685 161.377 230.49 161.597 230.28C161.827 230.07 162.087 229.89 162.377 229.74C162.677 229.58 162.987 229.5 163.307 229.5C163.467 229.5 163.612 229.51 163.742 229.53C163.872 229.55 163.972 229.585 164.042 229.635V231.42H163.562C162.912 231.42 162.412 231.525 162.062 231.735C161.712 231.935 161.467 232.255 161.327 232.695ZM168.181 237.18C167.421 237.18 166.751 237.02 166.171 236.7C165.601 236.37 165.156 235.92 164.836 235.35C164.516 234.77 164.356 234.1 164.356 233.34C164.356 232.58 164.516 231.915 164.836 231.345C165.156 230.765 165.601 230.315 166.171 229.995C166.751 229.665 167.421 229.5 168.181 229.5C168.941 229.5 169.606 229.665 170.176 229.995C170.756 230.315 171.206 230.765 171.526 231.345C171.846 231.915 172.006 232.58 172.006 233.34C172.006 234.1 171.846 234.77 171.526 235.35C171.206 235.92 170.756 236.37 170.176 236.7C169.606 237.02 168.941 237.18 168.181 237.18ZM168.181 235.275C168.721 235.275 169.161 235.095 169.501 234.735C169.841 234.375 170.011 233.91 170.011 233.34C170.011 232.76 169.841 232.29 169.501 231.93C169.161 231.57 168.721 231.39 168.181 231.39C167.641 231.39 167.201 231.57 166.861 231.93C166.531 232.28 166.366 232.745 166.366 233.325C166.366 233.905 166.531 234.375 166.861 234.735C167.201 235.095 167.641 235.275 168.181 235.275ZM174.97 237.075C174.64 237.075 174.335 237.005 174.055 236.865C173.785 236.725 173.565 236.51 173.395 236.22C173.235 235.92 173.155 235.535 173.155 235.065V226.785H175.105V234.375C175.105 234.725 175.175 234.955 175.315 235.065C175.455 235.165 175.625 235.215 175.825 235.215V236.97C175.715 237.01 175.58 237.035 175.42 237.045C175.27 237.065 175.12 237.075 174.97 237.075ZM178.911 237.075C178.581 237.075 178.276 237.005 177.996 236.865C177.726 236.725 177.506 236.51 177.336 236.22C177.176 235.92 177.096 235.535 177.096 235.065V226.785H179.046V234.375C179.046 234.725 179.116 234.955 179.256 235.065C179.396 235.165 179.566 235.215 179.766 235.215V236.97C179.656 237.01 179.521 237.035 179.361 237.045C179.211 237.065 179.061 237.075 178.911 237.075ZM184.426 237.18C183.666 237.18 182.996 237.02 182.416 236.7C181.846 236.37 181.401 235.92 181.081 235.35C180.761 234.77 180.601 234.1 180.601 233.34C180.601 232.58 180.761 231.915 181.081 231.345C181.401 230.765 181.846 230.315 182.416 229.995C182.996 229.665 183.666 229.5 184.426 229.5C185.186 229.5 185.851 229.665 186.421 229.995C187.001 230.315 187.451 230.765 187.771 231.345C188.091 231.915 188.251 232.58 188.251 233.34C188.251 234.1 188.091 234.77 187.771 235.35C187.451 235.92 187.001 236.37 186.421 236.7C185.851 237.02 185.186 237.18 184.426 237.18ZM184.426 235.275C184.966 235.275 185.406 235.095 185.746 234.735C186.086 234.375 186.256 233.91 186.256 233.34C186.256 232.76 186.086 232.29 185.746 231.93C185.406 231.57 184.966 231.39 184.426 231.39C183.886 231.39 183.446 231.57 183.106 231.93C182.776 232.28 182.611 232.745 182.611 233.325C182.611 233.905 182.776 234.375 183.106 234.735C183.446 235.095 183.886 235.275 184.426 235.275Z" fill="white"/>
<defs>
<filter id="filter0_d_829_286" x="16.6" y="21.6" width="180.8" height="180.8" filterUnits="userSpaceOnUse" color-interpolation-filters="sRGB">
<feFlood flood-opacity="0" result="BackgroundImageFix"/>
<feColorMatrix in="SourceAlpha" type="matrix" values="0 0 0 0 0 0 0 0 0 0 0 0 0 0 0 0 0 0 127 0" result="hardAlpha"/>
<feOffset/>
<feGaussianBlur stdDeviation="11.2"/>
<feComposite in2="hardAlpha" operator="out"/>
<feColorMatrix type="matrix" values="0 0 0 0 1 0 0 0 0 0.933333 0 0 0 0 0.854902 0 0 0 0.19 0"/>
<feBlend mode="normal" in2="BackgroundImageFix" result="effect1_dropShadow_829_286"/>
<feBlend mode="normal" in="SourceGraphic" in2="effect1_dropShadow_829_286" result="shape"/>
</filter>
<linearGradient id="paint0_linear_829_286" x1="39" y1="112" x2="175" y2="112" gradientUnits="userSpaceOnUse">
<stop/>
<stop offset="1" stop-color="#444444"/>
</linearGradient>
</defs>
</svg>
