<svg width="249" height="296" viewBox="0 0 249 296" fill="none" xmlns="http://www.w3.org/2000/svg">
<g filter="url(#filter0_d_829_313)">
<path d="M118 18.5H131C185.952 18.5 230.5 63.0477 230.5 118V263C230.5 271.008 224.008 277.5 216 277.5H33C24.9919 277.5 18.5 271.008 18.5 263V118C18.5 63.0477 63.0477 18.5 118 18.5Z" fill="black" stroke="url(#paint0_linear_829_313)"/>
<g filter="url(#filter1_d_829_313)">
<circle cx="125" cy="130" r="68" fill="url(#paint1_linear_829_313)" fill-opacity="0.25" shape-rendering="crispEdges"/>
<circle cx="125" cy="130" r="67.5" stroke="url(#paint2_linear_829_313)" shape-rendering="crispEdges"/>
</g>
<path d="M112.629 173.564H138.629M132.129 111.814L122.379 121.564L128.879 128.064L119.129 137.814M158.129 121.564V128.064C158.129 133.264 153.794 138.9 151.629 141.064L141.879 150.814L138.629 160.564H112.629L109.379 150.814L99.629 141.064C97.4645 138.9 93.129 133.264 93.129 128.064V121.564C93.129 112.945 96.5531 104.678 102.648 98.5835C108.743 92.4886 117.009 89.0645 125.629 89.0645C134.249 89.0645 142.515 92.4886 148.61 98.5835C154.705 104.678 158.129 112.945 158.129 121.564Z" stroke="url(#paint3_linear_829_313)" stroke-width="5"/>
<path d="M58.8322 255.24C58.2622 255.24 57.7222 255.155 57.2122 254.985C56.7022 254.815 56.2422 254.55 55.8322 254.19C55.4322 253.83 55.0922 253.36 54.8122 252.78L56.3722 251.835C56.6822 252.365 57.0472 252.76 57.4672 253.02C57.8872 253.28 58.3722 253.41 58.9222 253.41C59.4222 253.41 59.8022 253.305 60.0622 253.095C60.3222 252.875 60.4522 252.585 60.4522 252.225C60.4522 251.995 60.3922 251.8 60.2722 251.64C60.1622 251.47 59.9622 251.31 59.6722 251.16C59.3822 251.01 58.9622 250.875 58.4122 250.755C57.5922 250.555 56.9472 250.305 56.4772 250.005C56.0172 249.705 55.6922 249.355 55.5022 248.955C55.3122 248.545 55.2172 248.095 55.2172 247.605C55.2172 247.015 55.3572 246.5 55.6372 246.06C55.9272 245.61 56.3372 245.255 56.8672 244.995C57.3972 244.735 58.0272 244.605 58.7572 244.605C59.5972 244.605 60.3022 244.77 60.8722 245.1C61.4422 245.42 61.9072 245.855 62.2672 246.405L60.7072 247.47C60.4272 247.11 60.1072 246.855 59.7472 246.705C59.3972 246.545 59.0372 246.465 58.6672 246.465C58.1872 246.465 57.8172 246.56 57.5572 246.75C57.3072 246.94 57.1822 247.205 57.1822 247.545C57.1822 247.845 57.3072 248.105 57.5572 248.325C57.8172 248.535 58.3172 248.73 59.0572 248.91C59.8972 249.11 60.5672 249.355 61.0672 249.645C61.5672 249.935 61.9222 250.285 62.1322 250.695C62.3522 251.105 62.4622 251.6 62.4622 252.18C62.4622 252.76 62.3122 253.28 62.0122 253.74C61.7222 254.2 61.3022 254.565 60.7522 254.835C60.2122 255.105 59.5722 255.24 58.8322 255.24ZM65.2887 250.815V248.94H69.4587V250.815H65.2887ZM65.2437 246.645L65.8737 245.895V253.815L65.1687 253.125H70.3137V255H63.9087V244.785H70.3137V246.645H65.2437ZM71.3639 249.9C71.3639 249.13 71.4939 248.425 71.7539 247.785C72.0139 247.135 72.3789 246.575 72.8489 246.105C73.3189 245.635 73.8739 245.27 74.5139 245.01C75.1639 244.75 75.8739 244.62 76.6439 244.62C77.4039 244.62 78.1039 244.75 78.7439 245.01C79.3839 245.27 79.9389 245.635 80.4089 246.105C80.8789 246.575 81.2439 247.135 81.5039 247.785C81.7639 248.425 81.8939 249.13 81.8939 249.9C81.8939 250.66 81.7639 251.365 81.5039 252.015C81.2439 252.655 80.8789 253.215 80.4089 253.695C79.9389 254.165 79.3839 254.53 78.7439 254.79C78.1039 255.05 77.4039 255.18 76.6439 255.18C75.8739 255.18 75.1639 255.05 74.5139 254.79C73.8739 254.53 73.3189 254.165 72.8489 253.695C72.3789 253.215 72.0139 252.655 71.7539 252.015C71.4939 251.365 71.3639 250.66 71.3639 249.9ZM73.3739 249.9C73.3739 250.56 73.5139 251.145 73.7939 251.655C74.0739 252.155 74.4589 252.545 74.9489 252.825C75.4489 253.105 76.0139 253.245 76.6439 253.245C77.2739 253.245 77.8289 253.105 78.3089 252.825C78.7989 252.545 79.1839 252.155 79.4639 251.655C79.7439 251.145 79.8839 250.56 79.8839 249.9C79.8839 249.23 79.7439 248.645 79.4639 248.145C79.1839 247.635 78.7989 247.24 78.3089 246.96C77.8289 246.68 77.2739 246.54 76.6439 246.54C76.0139 246.54 75.4489 246.685 74.9489 246.975C74.4589 247.255 74.0739 247.645 73.7939 248.145C73.5139 248.645 73.3739 249.23 73.3739 249.9ZM95.5404 250.38H90.5454C90.0354 250.38 89.6304 250.51 89.3304 250.77C89.0304 251.02 88.8804 251.37 88.8804 251.82C88.8804 252.26 89.0304 252.61 89.3304 252.87C89.6304 253.12 90.0354 253.245 90.5454 253.245C91.1454 253.245 91.5704 253.06 91.8204 252.69C92.0804 252.32 92.2104 251.78 92.2104 251.07V249.72H94.1754V251.22C94.1754 252.03 94.0554 252.695 93.8154 253.215C93.5854 253.725 93.2804 254.125 92.9004 254.415C92.5304 254.705 92.1354 254.905 91.7154 255.015C91.3054 255.125 90.9254 255.18 90.5754 255.18C89.7854 255.18 89.1154 255.035 88.5654 254.745C88.0154 254.445 87.5954 254.045 87.3054 253.545C87.0254 253.045 86.8854 252.495 86.8854 251.895C86.8854 251.355 87.0454 250.86 87.3654 250.41C87.6854 249.95 88.1354 249.58 88.7154 249.3C89.2954 249.02 89.9654 248.88 90.7254 248.88L90.4854 249.9C89.5454 249.9 88.7954 249.65 88.2354 249.15C87.6754 248.65 87.3954 247.99 87.3954 247.17C87.3954 246.71 87.5104 246.265 87.7404 245.835C87.9704 245.395 88.3154 245.03 88.7754 244.74C89.2354 244.44 89.8104 244.29 90.5004 244.29C90.7804 244.29 91.0804 244.325 91.4004 244.395C91.7204 244.455 92.0504 244.585 92.3904 244.785C92.7404 244.975 93.0804 245.26 93.4104 245.64L92.0454 246.87C91.7954 246.62 91.5554 246.45 91.3254 246.36C91.0954 246.26 90.8504 246.21 90.5904 246.21C90.2004 246.21 89.8954 246.325 89.6754 246.555C89.4654 246.775 89.3604 247.04 89.3604 247.35C89.3604 247.71 89.5004 248.01 89.7804 248.25C90.0704 248.49 90.4904 248.61 91.0404 248.61H95.5404V250.38ZM105.25 255.18C104.2 255.18 103.285 254.955 102.505 254.505C101.735 254.045 101.135 253.42 100.705 252.63C100.285 251.83 100.075 250.92 100.075 249.9C100.075 249.13 100.2 248.425 100.45 247.785C100.71 247.135 101.07 246.575 101.53 246.105C102 245.635 102.55 245.27 103.18 245.01C103.81 244.75 104.5 244.62 105.25 244.62C106.44 244.62 107.415 244.875 108.175 245.385C108.935 245.895 109.53 246.605 109.96 247.515L108.13 248.175C107.76 247.575 107.34 247.15 106.87 246.9C106.4 246.65 105.86 246.525 105.25 246.525C104.64 246.525 104.095 246.67 103.615 246.96C103.145 247.24 102.77 247.635 102.49 248.145C102.22 248.645 102.085 249.23 102.085 249.9C102.085 250.56 102.22 251.145 102.49 251.655C102.77 252.165 103.145 252.565 103.615 252.855C104.095 253.135 104.64 253.275 105.25 253.275C105.86 253.275 106.4 253.15 106.87 252.9C107.34 252.65 107.76 252.225 108.13 251.625L109.96 252.285C109.53 253.195 108.935 253.905 108.175 254.415C107.415 254.925 106.44 255.18 105.25 255.18ZM114.36 255.18C113.6 255.18 112.93 255.02 112.35 254.7C111.78 254.37 111.335 253.92 111.015 253.35C110.695 252.77 110.535 252.1 110.535 251.34C110.535 250.58 110.695 249.915 111.015 249.345C111.335 248.765 111.78 248.315 112.35 247.995C112.93 247.665 113.6 247.5 114.36 247.5C115.12 247.5 115.785 247.665 116.355 247.995C116.935 248.315 117.385 248.765 117.705 249.345C118.025 249.915 118.185 250.58 118.185 251.34C118.185 252.1 118.025 252.77 117.705 253.35C117.385 253.92 116.935 254.37 116.355 254.7C115.785 255.02 115.12 255.18 114.36 255.18ZM114.36 253.275C114.9 253.275 115.34 253.095 115.68 252.735C116.02 252.375 116.19 251.91 116.19 251.34C116.19 250.76 116.02 250.29 115.68 249.93C115.34 249.57 114.9 249.39 114.36 249.39C113.82 249.39 113.38 249.57 113.04 249.93C112.71 250.28 112.545 250.745 112.545 251.325C112.545 251.905 112.71 252.375 113.04 252.735C113.38 253.095 113.82 253.275 114.36 253.275ZM119.363 255V247.665H120.833L121.238 249.075L120.608 249.045C120.868 248.745 121.153 248.48 121.463 248.25C121.773 248.02 122.108 247.84 122.468 247.71C122.838 247.57 123.223 247.5 123.623 247.5C124.123 247.5 124.523 247.585 124.823 247.755C125.123 247.925 125.343 248.155 125.483 248.445C125.633 248.735 125.733 249.065 125.783 249.435C125.843 249.795 125.873 250.17 125.873 250.56V255H123.908V250.545C123.908 250.095 123.818 249.795 123.638 249.645C123.458 249.495 123.243 249.42 122.993 249.42C122.633 249.42 122.283 249.53 121.943 249.75C121.603 249.96 121.318 250.23 121.088 250.56L120.833 249.54H121.328V255H119.363ZM128.438 255V250.545C128.438 250.095 128.348 249.795 128.168 249.645C127.998 249.495 127.788 249.42 127.538 249.42C127.178 249.42 126.828 249.53 126.488 249.75C126.148 249.96 125.863 250.23 125.633 250.56L125.138 249.045C125.398 248.745 125.683 248.48 125.993 248.25C126.313 248.02 126.653 247.84 127.013 247.71C127.383 247.57 127.768 247.5 128.168 247.5C128.658 247.5 129.053 247.585 129.353 247.755C129.653 247.925 129.878 248.155 130.028 248.445C130.178 248.735 130.278 249.065 130.328 249.435C130.388 249.795 130.418 250.17 130.418 250.56V255H128.438ZM134.435 255.18C133.885 255.18 133.445 255.095 133.115 254.925C132.785 254.755 132.53 254.53 132.35 254.25C132.18 253.96 132.065 253.63 132.005 253.26C131.945 252.89 131.915 252.505 131.915 252.105V247.665H133.88V252.12C133.88 252.57 133.975 252.87 134.165 253.02C134.365 253.17 134.6 253.245 134.87 253.245C135.12 253.245 135.37 253.2 135.62 253.11C135.87 253.02 136.105 252.89 136.325 252.72C136.555 252.54 136.745 252.335 136.895 252.105L137.135 253.14H136.655V247.665H138.62V255H137.15L136.745 253.605L137.375 253.62C137.125 253.91 136.84 254.175 136.52 254.415C136.21 254.655 135.875 254.845 135.515 254.985C135.165 255.115 134.805 255.18 134.435 255.18ZM144.706 247.5C145.206 247.5 145.606 247.585 145.906 247.755C146.216 247.925 146.446 248.155 146.596 248.445C146.756 248.735 146.861 249.065 146.911 249.435C146.961 249.795 146.986 250.17 146.986 250.56V255H145.021V250.545C145.021 250.095 144.931 249.795 144.751 249.645C144.581 249.495 144.361 249.42 144.091 249.42C143.841 249.42 143.586 249.47 143.326 249.57C143.066 249.66 142.821 249.795 142.591 249.975C142.371 250.145 142.181 250.34 142.021 250.56L141.766 249.54H142.261V255H140.296V247.665H141.766L142.171 249.075L141.541 249.045C141.801 248.745 142.096 248.48 142.426 248.25C142.766 248.02 143.126 247.84 143.506 247.71C143.886 247.57 144.286 247.5 144.706 247.5ZM150.582 255H148.617V247.665H150.582V255ZM148.407 245.385C148.407 245.025 148.512 244.735 148.722 244.515C148.942 244.285 149.232 244.17 149.592 244.17C149.952 244.17 150.237 244.285 150.447 244.515C150.667 244.735 150.777 245.025 150.777 245.385C150.777 245.725 150.667 246.005 150.447 246.225C150.237 246.445 149.952 246.555 149.592 246.555C149.232 246.555 148.942 246.445 148.722 246.225C148.512 246.005 148.407 245.725 148.407 245.385ZM155.578 255.18C154.828 255.18 154.173 255.015 153.613 254.685C153.053 254.355 152.618 253.9 152.308 253.32C152.008 252.74 151.858 252.075 151.858 251.325C151.858 250.585 152.008 249.925 152.308 249.345C152.618 248.765 153.053 248.315 153.613 247.995C154.173 247.665 154.828 247.5 155.578 247.5C156.358 247.5 157.043 247.7 157.633 248.1C158.233 248.49 158.663 249.02 158.923 249.69L157.123 250.47C156.973 250.13 156.768 249.865 156.508 249.675C156.258 249.485 155.943 249.39 155.563 249.39C155.073 249.39 154.663 249.565 154.333 249.915C154.003 250.255 153.838 250.725 153.838 251.325C153.838 251.935 154.003 252.41 154.333 252.75C154.663 253.09 155.073 253.26 155.563 253.26C155.943 253.26 156.258 253.17 156.508 252.99C156.768 252.8 156.973 252.535 157.123 252.195L158.923 252.975C158.663 253.635 158.233 254.17 157.633 254.58C157.033 254.98 156.348 255.18 155.578 255.18ZM162.102 255.21C161.562 255.21 161.087 255.11 160.677 254.91C160.267 254.7 159.952 254.41 159.732 254.04C159.512 253.66 159.402 253.22 159.402 252.72C159.402 252.22 159.517 251.785 159.747 251.415C159.987 251.045 160.312 250.76 160.722 250.56C161.132 250.35 161.597 250.245 162.117 250.245C162.827 250.245 163.402 250.41 163.842 250.74C164.292 251.06 164.597 251.52 164.757 252.12L163.842 252V250.23C163.842 249.95 163.742 249.7 163.542 249.48C163.342 249.26 163.017 249.15 162.567 249.15C162.287 249.15 161.977 249.185 161.637 249.255C161.297 249.315 160.942 249.435 160.572 249.615L159.987 248.175C160.417 247.965 160.872 247.8 161.352 247.68C161.842 247.56 162.332 247.5 162.822 247.5C163.492 247.5 164.047 247.62 164.487 247.86C164.927 248.1 165.257 248.43 165.477 248.85C165.697 249.27 165.807 249.75 165.807 250.29V255H164.247L163.827 253.605L164.757 253.335C164.587 253.925 164.272 254.385 163.812 254.715C163.362 255.045 162.792 255.21 162.102 255.21ZM162.642 253.71C163.002 253.71 163.292 253.62 163.512 253.44C163.732 253.26 163.842 253.02 163.842 252.72C163.842 252.41 163.732 252.17 163.512 252C163.292 251.82 163.002 251.73 162.642 251.73C162.282 251.73 161.992 251.82 161.772 252C161.552 252.17 161.442 252.41 161.442 252.72C161.442 253.02 161.552 253.26 161.772 253.44C161.992 253.62 162.282 253.71 162.642 253.71ZM170.681 255.18C169.931 255.18 169.276 255.015 168.716 254.685C168.156 254.355 167.721 253.9 167.411 253.32C167.111 252.74 166.961 252.075 166.961 251.325C166.961 250.585 167.111 249.925 167.411 249.345C167.721 248.765 168.156 248.315 168.716 247.995C169.276 247.665 169.931 247.5 170.681 247.5C171.461 247.5 172.146 247.7 172.736 248.1C173.336 248.49 173.766 249.02 174.026 249.69L172.226 250.47C172.076 250.13 171.871 249.865 171.611 249.675C171.361 249.485 171.046 249.39 170.666 249.39C170.176 249.39 169.766 249.565 169.436 249.915C169.106 250.255 168.941 250.725 168.941 251.325C168.941 251.935 169.106 252.41 169.436 252.75C169.766 253.09 170.176 253.26 170.666 253.26C171.046 253.26 171.361 253.17 171.611 252.99C171.871 252.8 172.076 252.535 172.226 252.195L174.026 252.975C173.766 253.635 173.336 254.17 172.736 254.58C172.136 254.98 171.451 255.18 170.681 255.18ZM177.037 255H175.072V247.665H177.037V255ZM174.862 245.385C174.862 245.025 174.967 244.735 175.177 244.515C175.397 244.285 175.687 244.17 176.047 244.17C176.407 244.17 176.692 244.285 176.902 244.515C177.122 244.735 177.232 245.025 177.232 245.385C177.232 245.725 177.122 246.005 176.902 246.225C176.692 246.445 176.407 246.555 176.047 246.555C175.687 246.555 175.397 246.445 175.177 246.225C174.967 246.005 174.862 245.725 174.862 245.385ZM182.138 255.18C181.378 255.18 180.708 255.02 180.128 254.7C179.558 254.37 179.113 253.92 178.793 253.35C178.473 252.77 178.313 252.1 178.313 251.34C178.313 250.58 178.473 249.915 178.793 249.345C179.113 248.765 179.558 248.315 180.128 247.995C180.708 247.665 181.378 247.5 182.138 247.5C182.898 247.5 183.563 247.665 184.133 247.995C184.713 248.315 185.163 248.765 185.483 249.345C185.803 249.915 185.963 250.58 185.963 251.34C185.963 252.1 185.803 252.77 185.483 253.35C185.163 253.92 184.713 254.37 184.133 254.7C183.563 255.02 182.898 255.18 182.138 255.18ZM182.138 253.275C182.678 253.275 183.118 253.095 183.458 252.735C183.798 252.375 183.968 251.91 183.968 251.34C183.968 250.76 183.798 250.29 183.458 249.93C183.118 249.57 182.678 249.39 182.138 249.39C181.598 249.39 181.158 249.57 180.818 249.93C180.488 250.28 180.323 250.745 180.323 251.325C180.323 251.905 180.488 252.375 180.818 252.735C181.158 253.095 181.598 253.275 182.138 253.275ZM182.033 246.735L181.088 245.76L183.443 243.585L184.403 244.545L182.033 246.735ZM191.552 247.5C192.052 247.5 192.452 247.585 192.752 247.755C193.062 247.925 193.292 248.155 193.442 248.445C193.602 248.735 193.707 249.065 193.757 249.435C193.807 249.795 193.832 250.17 193.832 250.56V255H191.867V250.545C191.867 250.095 191.777 249.795 191.597 249.645C191.427 249.495 191.207 249.42 190.937 249.42C190.687 249.42 190.432 249.47 190.172 249.57C189.912 249.66 189.667 249.795 189.437 249.975C189.217 250.145 189.027 250.34 188.867 250.56L188.612 249.54H189.107V255H187.142V247.665H188.612L189.017 249.075L188.387 249.045C188.647 248.745 188.942 248.48 189.272 248.25C189.612 248.02 189.972 247.84 190.352 247.71C190.732 247.57 191.132 247.5 191.552 247.5Z" fill="url(#paint4_linear_829_313)"/>
</g>
<defs>
<filter id="filter0_d_829_313" x="0.200001" y="0.200001" width="248.6" height="295.6" filterUnits="userSpaceOnUse" color-interpolation-filters="sRGB">
<feFlood flood-opacity="0" result="BackgroundImageFix"/>
<feColorMatrix in="SourceAlpha" type="matrix" values="0 0 0 0 0 0 0 0 0 0 0 0 0 0 0 0 0 0 127 0" result="hardAlpha"/>
<feOffset/>
<feGaussianBlur stdDeviation="8.9"/>
<feComposite in2="hardAlpha" operator="out"/>
<feColorMatrix type="matrix" values="0 0 0 0 1 0 0 0 0 0.631373 0 0 0 0 0 0 0 0 0.4 0"/>
<feBlend mode="normal" in2="BackgroundImageFix" result="effect1_dropShadow_829_313"/>
<feBlend mode="normal" in="SourceGraphic" in2="effect1_dropShadow_829_313" result="shape"/>
</filter>
<filter id="filter1_d_829_313" x="34.6" y="39.6" width="180.8" height="180.8" filterUnits="userSpaceOnUse" color-interpolation-filters="sRGB">
<feFlood flood-opacity="0" result="BackgroundImageFix"/>
<feColorMatrix in="SourceAlpha" type="matrix" values="0 0 0 0 0 0 0 0 0 0 0 0 0 0 0 0 0 0 127 0" result="hardAlpha"/>
<feOffset/>
<feGaussianBlur stdDeviation="11.2"/>
<feComposite in2="hardAlpha" operator="out"/>
<feColorMatrix type="matrix" values="0 0 0 0 1 0 0 0 0 0.933333 0 0 0 0 0.854902 0 0 0 0.19 0"/>
<feBlend mode="normal" in2="BackgroundImageFix" result="effect1_dropShadow_829_313"/>
<feBlend mode="normal" in="SourceGraphic" in2="effect1_dropShadow_829_313" result="shape"/>
</filter>
<linearGradient id="paint0_linear_829_313" x1="124.5" y1="18" x2="124.5" y2="278" gradientUnits="userSpaceOnUse">
<stop stop-color="#FFA100"/>
<stop offset="1" stop-color="#FFF700"/>
</linearGradient>
<linearGradient id="paint1_linear_829_313" x1="57" y1="130" x2="193" y2="130" gradientUnits="userSpaceOnUse">
<stop/>
<stop offset="1" stop-color="#444444"/>
</linearGradient>
<linearGradient id="paint2_linear_829_313" x1="125" y1="62" x2="125" y2="198" gradientUnits="userSpaceOnUse">
<stop stop-color="#FFA100"/>
<stop offset="1" stop-color="#FFF700"/>
</linearGradient>
<linearGradient id="paint3_linear_829_313" x1="125.629" y1="89.0645" x2="125.629" y2="173.564" gradientUnits="userSpaceOnUse">
<stop stop-color="#FFF700"/>
<stop offset="1" stop-color="#FFA100"/>
</linearGradient>
<linearGradient id="paint4_linear_829_313" x1="54" y1="250" x2="195" y2="250" gradientUnits="userSpaceOnUse">
<stop stop-color="#FFF700"/>
<stop offset="1" stop-color="#FFA100"/>
</linearGradient>
</defs>
</svg>
