<svg width="213" height="260" viewBox="0 0 213 260" fill="none" xmlns="http://www.w3.org/2000/svg">
<path d="M0.5 100C0.5 45.0477 45.0477 0.5 100 0.5H113C167.952 0.5 212.5 45.0477 212.5 100V245C212.5 253.008 206.008 259.5 198 259.5H15C6.99187 259.5 0.5 253.008 0.5 245V100Z" fill="black" stroke="#FFEEDA"/>
<g filter="url(#filter0_d_829_284)">
<circle cx="107" cy="112" r="68" fill="url(#paint0_linear_829_284)" fill-opacity="0.25" shape-rendering="crispEdges"/>
<circle cx="107" cy="112" r="67.5" stroke="#FFEEDA" shape-rendering="crispEdges"/>
</g>
<path d="M103.187 97.2267H147.08C144.751 90.9582 141.034 85.4187 135.928 80.608C130.826 75.8009 125.005 72.576 118.467 70.9333L103.187 97.2267ZM92.1467 107.893L114.307 69.8667C113.329 69.6889 112.113 69.5556 110.659 69.4667C109.204 69.3778 107.985 69.3333 107 69.3333C101.133 69.3333 95.6667 70.4444 90.6 72.6667C85.5333 74.8889 81.0444 77.8667 77.1333 81.6L92.1467 107.893ZM65.6667 122.667H95.96L74.2267 84.8427C71.1049 88.6898 68.6764 92.8818 66.9413 97.4187C65.2062 101.956 64.3369 106.816 64.3333 112C64.3333 113.867 64.4453 115.668 64.6693 117.403C64.8933 119.138 65.2258 120.892 65.6667 122.667ZM95.7413 153.067L110.957 126.773H66.9147C69.2471 133.042 73 138.581 78.1733 143.392C83.3467 148.203 89.2044 151.428 95.7467 153.067M107 154.667C112.867 154.667 118.333 153.556 123.4 151.333C128.467 149.111 132.956 146.133 136.867 142.4L121.853 116.107L99.9013 153.931C100.879 154.176 102.04 154.361 103.384 154.485C104.728 154.61 105.933 154.67 107 154.667ZM139.779 139.157C142.623 135.513 144.982 131.321 146.856 126.581C148.73 121.842 149.667 116.981 149.667 112C149.667 110.133 149.556 108.334 149.336 106.603C149.116 104.871 148.781 103.115 148.333 101.333H118.04L139.779 139.157ZM107 160C100.394 160 94.1716 158.738 88.3333 156.213C82.4951 153.685 77.4107 150.254 73.08 145.92C68.7493 141.586 65.3182 136.501 62.7867 130.667C60.2551 124.832 58.9929 118.61 59 112C59 105.372 60.2622 99.1449 62.7867 93.3173C65.3147 87.4862 68.7458 82.4071 73.08 78.08C77.4142 73.7529 82.4987 70.3218 88.3333 67.7867C94.1716 65.2622 100.394 64 107 64C113.628 64 119.855 65.2622 125.683 67.7867C131.514 70.3147 136.595 73.7458 140.925 78.08C145.256 82.4142 148.685 87.4933 151.213 93.3173C153.738 99.1484 155 105.376 155 112C155 118.606 153.738 124.828 151.213 130.667C148.685 136.505 145.254 141.589 140.92 145.92C136.586 150.251 131.507 153.682 125.683 156.213C119.859 158.745 113.631 160.007 107 160Z" fill="#FFEEDA"/>
<path d="M28.6476 232.95V231.075H32.7426V232.95H28.6476ZM29.1876 237H27.2226V226.785H33.5376V228.66H28.5576L29.1876 227.895V237ZM37.7276 237.18C36.9676 237.18 36.2976 237.02 35.7176 236.7C35.1476 236.37 34.7026 235.92 34.3826 235.35C34.0626 234.77 33.9026 234.1 33.9026 233.34C33.9026 232.58 34.0626 231.915 34.3826 231.345C34.7026 230.765 35.1476 230.315 35.7176 229.995C36.2976 229.665 36.9676 229.5 37.7276 229.5C38.4876 229.5 39.1526 229.665 39.7226 229.995C40.3026 230.315 40.7526 230.765 41.0726 231.345C41.3926 231.915 41.5526 232.58 41.5526 233.34C41.5526 234.1 41.3926 234.77 41.0726 235.35C40.7526 235.92 40.3026 236.37 39.7226 236.7C39.1526 237.02 38.4876 237.18 37.7276 237.18ZM37.7276 235.275C38.2676 235.275 38.7076 235.095 39.0476 234.735C39.3876 234.375 39.5576 233.91 39.5576 233.34C39.5576 232.76 39.3876 232.29 39.0476 231.93C38.7076 231.57 38.2676 231.39 37.7276 231.39C37.1876 231.39 36.7476 231.57 36.4076 231.93C36.0776 232.28 35.9126 232.745 35.9126 233.325C35.9126 233.905 36.0776 234.375 36.4076 234.735C36.7476 235.095 37.1876 235.275 37.7276 235.275ZM45.66 237.135C44.91 237.135 44.315 236.94 43.875 236.55C43.445 236.15 43.23 235.515 43.23 234.645V229.755L43.2 229.665L43.605 227.94H45.195V234.33C45.195 234.65 45.27 234.885 45.42 235.035C45.58 235.175 45.78 235.245 46.02 235.245C46.18 235.245 46.325 235.235 46.455 235.215C46.585 235.185 46.7 235.155 46.8 235.125V236.955C46.64 237.015 46.47 237.06 46.29 237.09C46.11 237.12 45.9 237.135 45.66 237.135ZM42.09 231.48V229.665H46.8V231.48H42.09ZM51.6143 237.18C50.8543 237.18 50.1843 237.02 49.6043 236.7C49.0343 236.37 48.5893 235.92 48.2693 235.35C47.9493 234.77 47.7893 234.1 47.7893 233.34C47.7893 232.58 47.9493 231.915 48.2693 231.345C48.5893 230.765 49.0343 230.315 49.6043 229.995C50.1843 229.665 50.8543 229.5 51.6143 229.5C52.3743 229.5 53.0393 229.665 53.6093 229.995C54.1893 230.315 54.6393 230.765 54.9593 231.345C55.2793 231.915 55.4393 232.58 55.4393 233.34C55.4393 234.1 55.2793 234.77 54.9593 235.35C54.6393 235.92 54.1893 236.37 53.6093 236.7C53.0393 237.02 52.3743 237.18 51.6143 237.18ZM51.6143 235.275C52.1543 235.275 52.5943 235.095 52.9343 234.735C53.2743 234.375 53.4443 233.91 53.4443 233.34C53.4443 232.76 53.2743 232.29 52.9343 231.93C52.5943 231.57 52.1543 231.39 51.6143 231.39C51.0743 231.39 50.6343 231.57 50.2943 231.93C49.9643 232.28 49.7993 232.745 49.7993 233.325C49.7993 233.905 49.9643 234.375 50.2943 234.735C50.6343 235.095 51.0743 235.275 51.6143 235.275ZM59.7703 240C59.3703 240 58.9703 239.94 58.5703 239.82C58.1803 239.7 57.8203 239.505 57.4903 239.235C57.1603 238.975 56.8803 238.62 56.6503 238.17L56.5303 237.93L57.9853 237.18C58.2353 237.58 58.4953 237.87 58.7653 238.05C59.0353 238.24 59.3753 238.335 59.7853 238.335C60.2953 238.335 60.7053 238.175 61.0153 237.855C61.3353 237.535 61.4953 237.045 61.4953 236.385V234.54H61.6303V231.39H61.4953L61.9753 229.665H63.4603V235.995C63.4603 236.855 63.3053 237.585 62.9953 238.185C62.6953 238.785 62.2703 239.235 61.7203 239.535C61.1703 239.845 60.5203 240 59.7703 240ZM59.5153 236.595C58.8553 236.595 58.2703 236.445 57.7603 236.145C57.2503 235.845 56.8503 235.43 56.5603 234.9C56.2703 234.37 56.1253 233.755 56.1253 233.055C56.1253 232.355 56.2653 231.74 56.5453 231.21C56.8353 230.67 57.2353 230.25 57.7453 229.95C58.2553 229.65 58.8403 229.5 59.5003 229.5C60.1203 229.5 60.6653 229.65 61.1353 229.95C61.6053 230.24 61.9703 230.655 62.2303 231.195C62.4903 231.725 62.6203 232.345 62.6203 233.055C62.6203 233.785 62.4903 234.415 62.2303 234.945C61.9803 235.465 61.6203 235.87 61.1503 236.16C60.6903 236.45 60.1453 236.595 59.5153 236.595ZM59.8603 234.87C60.3703 234.87 60.7853 234.7 61.1053 234.36C61.4253 234.02 61.5853 233.58 61.5853 233.04C61.5853 232.5 61.4253 232.06 61.1053 231.72C60.7853 231.38 60.3703 231.21 59.8603 231.21C59.3503 231.21 58.9303 231.38 58.6003 231.72C58.2803 232.06 58.1203 232.505 58.1203 233.055C58.1203 233.585 58.2803 234.02 58.6003 234.36C58.9303 234.7 59.3503 234.87 59.8603 234.87ZM66.6132 229.665L67.1082 231.69V237H65.1432V229.665H66.6132ZM66.7032 232.695L66.3432 232.53V231.03L66.4782 230.865C66.5882 230.685 66.7532 230.49 66.9732 230.28C67.2032 230.07 67.4632 229.89 67.7532 229.74C68.0532 229.58 68.3632 229.5 68.6832 229.5C68.8432 229.5 68.9882 229.51 69.1182 229.53C69.2482 229.55 69.3482 229.585 69.4182 229.635V231.42H68.9382C68.2882 231.42 67.7882 231.525 67.4382 231.735C67.0882 231.935 66.8432 232.255 66.7032 232.695ZM72.403 237.21C71.863 237.21 71.388 237.11 70.978 236.91C70.568 236.7 70.253 236.41 70.033 236.04C69.813 235.66 69.703 235.22 69.703 234.72C69.703 234.22 69.818 233.785 70.048 233.415C70.288 233.045 70.613 232.76 71.023 232.56C71.433 232.35 71.898 232.245 72.418 232.245C73.128 232.245 73.703 232.41 74.143 232.74C74.593 233.06 74.898 233.52 75.058 234.12L74.143 234V232.23C74.143 231.95 74.043 231.7 73.843 231.48C73.643 231.26 73.318 231.15 72.868 231.15C72.588 231.15 72.278 231.185 71.938 231.255C71.598 231.315 71.243 231.435 70.873 231.615L70.288 230.175C70.718 229.965 71.173 229.8 71.653 229.68C72.143 229.56 72.633 229.5 73.123 229.5C73.793 229.5 74.348 229.62 74.788 229.86C75.228 230.1 75.558 230.43 75.778 230.85C75.998 231.27 76.108 231.75 76.108 232.29V237H74.548L74.128 235.605L75.058 235.335C74.888 235.925 74.573 236.385 74.113 236.715C73.663 237.045 73.093 237.21 72.403 237.21ZM72.943 235.71C73.303 235.71 73.593 235.62 73.813 235.44C74.033 235.26 74.143 235.02 74.143 234.72C74.143 234.41 74.033 234.17 73.813 234C73.593 233.82 73.303 233.73 72.943 233.73C72.583 233.73 72.293 233.82 72.073 234C71.853 234.17 71.743 234.41 71.743 234.72C71.743 235.02 71.853 235.26 72.073 235.44C72.293 235.62 72.583 235.71 72.943 235.71ZM78.0901 237V229.11C78.0901 228.57 78.1851 228.115 78.3751 227.745C78.5751 227.365 78.8501 227.08 79.2001 226.89C79.5501 226.7 79.9651 226.605 80.4451 226.605C80.6851 226.605 80.9001 226.62 81.0901 226.65C81.2801 226.68 81.4351 226.71 81.5551 226.74V228.54C81.4551 228.52 81.3501 228.5 81.2401 228.48C81.1401 228.46 81.0201 228.45 80.8801 228.45C80.6301 228.45 80.4301 228.525 80.2801 228.675C80.1301 228.815 80.0551 229.05 80.0551 229.38V237H78.0901ZM81.3901 231.63H77.0551V229.83H81.3901V231.63ZM84.5113 237H82.5463V229.665H84.5113V237ZM83.4313 228.735L82.4863 227.76L84.8413 225.585L85.8013 226.545L83.4313 228.735ZM88.4723 237.21C87.9323 237.21 87.4573 237.11 87.0473 236.91C86.6373 236.7 86.3223 236.41 86.1023 236.04C85.8823 235.66 85.7723 235.22 85.7723 234.72C85.7723 234.22 85.8873 233.785 86.1173 233.415C86.3573 233.045 86.6823 232.76 87.0923 232.56C87.5023 232.35 87.9673 232.245 88.4873 232.245C89.1973 232.245 89.7723 232.41 90.2123 232.74C90.6623 233.06 90.9673 233.52 91.1273 234.12L90.2123 234V232.23C90.2123 231.95 90.1123 231.7 89.9123 231.48C89.7123 231.26 89.3873 231.15 88.9373 231.15C88.6573 231.15 88.3473 231.185 88.0073 231.255C87.6673 231.315 87.3123 231.435 86.9423 231.615L86.3573 230.175C86.7873 229.965 87.2423 229.8 87.7223 229.68C88.2123 229.56 88.7023 229.5 89.1923 229.5C89.8623 229.5 90.4173 229.62 90.8573 229.86C91.2973 230.1 91.6273 230.43 91.8473 230.85C92.0673 231.27 92.1773 231.75 92.1773 232.29V237H90.6173L90.1973 235.605L91.1273 235.335C90.9573 235.925 90.6423 236.385 90.1823 236.715C89.7323 237.045 89.1623 237.21 88.4723 237.21ZM89.0123 235.71C89.3723 235.71 89.6623 235.62 89.8823 235.44C90.1023 235.26 90.2123 235.02 90.2123 234.72C90.2123 234.41 90.1023 234.17 89.8823 234C89.6623 233.82 89.3723 233.73 89.0123 233.73C88.6523 233.73 88.3623 233.82 88.1423 234C87.9223 234.17 87.8123 234.41 87.8123 234.72C87.8123 235.02 87.9223 235.26 88.1423 235.44C88.3623 235.62 88.6523 235.71 89.0123 235.71ZM106.213 232.38H101.218C100.708 232.38 100.303 232.51 100.003 232.77C99.7028 233.02 99.5528 233.37 99.5528 233.82C99.5528 234.26 99.7028 234.61 100.003 234.87C100.303 235.12 100.708 235.245 101.218 235.245C101.818 235.245 102.243 235.06 102.493 234.69C102.753 234.32 102.883 233.78 102.883 233.07V231.72H104.848V233.22C104.848 234.03 104.728 234.695 104.488 235.215C104.258 235.725 103.953 236.125 103.573 236.415C103.203 236.705 102.808 236.905 102.388 237.015C101.978 237.125 101.598 237.18 101.248 237.18C100.458 237.18 99.7878 237.035 99.2378 236.745C98.6878 236.445 98.2678 236.045 97.9778 235.545C97.6978 235.045 97.5578 234.495 97.5578 233.895C97.5578 233.355 97.7178 232.86 98.0378 232.41C98.3578 231.95 98.8078 231.58 99.3878 231.3C99.9678 231.02 100.638 230.88 101.398 230.88L101.158 231.9C100.218 231.9 99.4678 231.65 98.9078 231.15C98.3478 230.65 98.0678 229.99 98.0678 229.17C98.0678 228.71 98.1828 228.265 98.4128 227.835C98.6428 227.395 98.9878 227.03 99.4478 226.74C99.9078 226.44 100.483 226.29 101.173 226.29C101.453 226.29 101.753 226.325 102.073 226.395C102.393 226.455 102.723 226.585 103.063 226.785C103.413 226.975 103.753 227.26 104.083 227.64L102.718 228.87C102.468 228.62 102.228 228.45 101.998 228.36C101.768 228.26 101.523 228.21 101.263 228.21C100.873 228.21 100.568 228.325 100.348 228.555C100.138 228.775 100.033 229.04 100.033 229.35C100.033 229.71 100.173 230.01 100.453 230.25C100.743 230.49 101.163 230.61 101.713 230.61H106.213V232.38ZM114.032 237L110.507 226.785H112.517L115.547 235.65H114.887L117.932 226.785H119.912L116.387 237H114.032ZM122.861 237H120.896V229.665H122.861V237ZM120.686 227.385C120.686 227.025 120.791 226.735 121.001 226.515C121.221 226.285 121.511 226.17 121.871 226.17C122.231 226.17 122.516 226.285 122.726 226.515C122.946 226.735 123.056 227.025 123.056 227.385C123.056 227.725 122.946 228.005 122.726 228.225C122.516 228.445 122.231 228.555 121.871 228.555C121.511 228.555 121.221 228.445 121.001 228.225C120.791 228.005 120.686 227.725 120.686 227.385ZM127.512 237.18C126.842 237.18 126.252 237.015 125.742 236.685C125.232 236.355 124.837 235.9 124.557 235.32C124.277 234.74 124.137 234.075 124.137 233.325C124.137 232.565 124.277 231.9 124.557 231.33C124.847 230.75 125.247 230.3 125.757 229.98C126.267 229.66 126.852 229.5 127.512 229.5C128.162 229.5 128.727 229.65 129.207 229.95C129.687 230.25 130.062 230.685 130.332 231.255C130.602 231.825 130.737 232.515 130.737 233.325C130.737 234.105 130.602 234.785 130.332 235.365C130.062 235.935 129.682 236.38 129.192 236.7C128.712 237.02 128.152 237.18 127.512 237.18ZM127.857 235.365C128.367 235.365 128.782 235.18 129.102 234.81C129.422 234.43 129.582 233.94 129.582 233.34C129.582 232.73 129.422 232.24 129.102 231.87C128.782 231.49 128.367 231.3 127.857 231.3C127.357 231.3 126.942 231.49 126.612 231.87C126.292 232.24 126.132 232.725 126.132 233.325C126.132 233.925 126.292 234.415 126.612 234.795C126.942 235.175 127.357 235.365 127.857 235.365ZM129.987 237L129.492 235.26H129.627V231.585H129.492V226.785H131.457V237H129.987ZM136.249 237.15C135.519 237.15 134.879 236.995 134.329 236.685C133.779 236.365 133.354 235.92 133.054 235.35C132.754 234.78 132.604 234.11 132.604 233.34C132.604 232.58 132.754 231.915 133.054 231.345C133.354 230.765 133.779 230.315 134.329 229.995C134.879 229.665 135.519 229.5 136.249 229.5C136.989 229.5 137.629 229.665 138.169 229.995C138.719 230.325 139.144 230.78 139.444 231.36C139.744 231.93 139.894 232.585 139.894 233.325C139.894 233.435 139.889 233.545 139.879 233.655C139.879 233.755 139.869 233.84 139.849 233.91H134.209V232.44H138.364L138.064 233.145C138.064 232.525 137.914 232.02 137.614 231.63C137.324 231.24 136.869 231.045 136.249 231.045C135.709 231.045 135.274 231.215 134.944 231.555C134.614 231.885 134.449 232.33 134.449 232.89V233.685C134.449 234.275 134.614 234.74 134.944 235.08C135.284 235.41 135.744 235.575 136.324 235.575C136.834 235.575 137.234 235.47 137.524 235.26C137.814 235.05 138.064 234.79 138.274 234.48L139.639 235.26C139.309 235.87 138.859 236.34 138.289 236.67C137.729 236.99 137.049 237.15 136.249 237.15ZM144.485 237.18C143.725 237.18 143.055 237.02 142.475 236.7C141.905 236.37 141.46 235.92 141.14 235.35C140.82 234.77 140.66 234.1 140.66 233.34C140.66 232.58 140.82 231.915 141.14 231.345C141.46 230.765 141.905 230.315 142.475 229.995C143.055 229.665 143.725 229.5 144.485 229.5C145.245 229.5 145.91 229.665 146.48 229.995C147.06 230.315 147.51 230.765 147.83 231.345C148.15 231.915 148.31 232.58 148.31 233.34C148.31 234.1 148.15 234.77 147.83 235.35C147.51 235.92 147.06 236.37 146.48 236.7C145.91 237.02 145.245 237.18 144.485 237.18ZM144.485 235.275C145.025 235.275 145.465 235.095 145.805 234.735C146.145 234.375 146.315 233.91 146.315 233.34C146.315 232.76 146.145 232.29 145.805 231.93C145.465 231.57 145.025 231.39 144.485 231.39C143.945 231.39 143.505 231.57 143.165 231.93C142.835 232.28 142.67 232.745 142.67 233.325C142.67 233.905 142.835 234.375 143.165 234.735C143.505 235.095 143.945 235.275 144.485 235.275ZM152.641 240C152.241 240 151.841 239.94 151.441 239.82C151.051 239.7 150.691 239.505 150.361 239.235C150.031 238.975 149.751 238.62 149.521 238.17L149.401 237.93L150.856 237.18C151.106 237.58 151.366 237.87 151.636 238.05C151.906 238.24 152.246 238.335 152.656 238.335C153.166 238.335 153.576 238.175 153.886 237.855C154.206 237.535 154.366 237.045 154.366 236.385V234.54H154.501V231.39H154.366L154.846 229.665H156.331V235.995C156.331 236.855 156.176 237.585 155.866 238.185C155.566 238.785 155.141 239.235 154.591 239.535C154.041 239.845 153.391 240 152.641 240ZM152.386 236.595C151.726 236.595 151.141 236.445 150.631 236.145C150.121 235.845 149.721 235.43 149.431 234.9C149.141 234.37 148.996 233.755 148.996 233.055C148.996 232.355 149.136 231.74 149.416 231.21C149.706 230.67 150.106 230.25 150.616 229.95C151.126 229.65 151.711 229.5 152.371 229.5C152.991 229.5 153.536 229.65 154.006 229.95C154.476 230.24 154.841 230.655 155.101 231.195C155.361 231.725 155.491 232.345 155.491 233.055C155.491 233.785 155.361 234.415 155.101 234.945C154.851 235.465 154.491 235.87 154.021 236.16C153.561 236.45 153.016 236.595 152.386 236.595ZM152.731 234.87C153.241 234.87 153.656 234.7 153.976 234.36C154.296 234.02 154.456 233.58 154.456 233.04C154.456 232.5 154.296 232.06 153.976 231.72C153.656 231.38 153.241 231.21 152.731 231.21C152.221 231.21 151.801 231.38 151.471 231.72C151.151 232.06 150.991 232.505 150.991 233.055C150.991 233.585 151.151 234.02 151.471 234.36C151.801 234.7 152.221 234.87 152.731 234.87ZM159.484 229.665L159.979 231.69V237H158.014V229.665H159.484ZM159.574 232.695L159.214 232.53V231.03L159.349 230.865C159.459 230.685 159.624 230.49 159.844 230.28C160.074 230.07 160.334 229.89 160.624 229.74C160.924 229.58 161.234 229.5 161.554 229.5C161.714 229.5 161.859 229.51 161.989 229.53C162.119 229.55 162.219 229.585 162.289 229.635V231.42H161.809C161.159 231.42 160.659 231.525 160.309 231.735C159.959 231.935 159.714 232.255 159.574 232.695ZM165.274 237.21C164.734 237.21 164.259 237.11 163.849 236.91C163.439 236.7 163.124 236.41 162.904 236.04C162.684 235.66 162.574 235.22 162.574 234.72C162.574 234.22 162.689 233.785 162.919 233.415C163.159 233.045 163.484 232.76 163.894 232.56C164.304 232.35 164.769 232.245 165.289 232.245C165.999 232.245 166.574 232.41 167.014 232.74C167.464 233.06 167.769 233.52 167.929 234.12L167.014 234V232.23C167.014 231.95 166.914 231.7 166.714 231.48C166.514 231.26 166.189 231.15 165.739 231.15C165.459 231.15 165.149 231.185 164.809 231.255C164.469 231.315 164.114 231.435 163.744 231.615L163.159 230.175C163.589 229.965 164.044 229.8 164.524 229.68C165.014 229.56 165.504 229.5 165.994 229.5C166.664 229.5 167.219 229.62 167.659 229.86C168.099 230.1 168.429 230.43 168.649 230.85C168.869 231.27 168.979 231.75 168.979 232.29V237H167.419L166.999 235.605L167.929 235.335C167.759 235.925 167.444 236.385 166.984 236.715C166.534 237.045 165.964 237.21 165.274 237.21ZM165.814 235.71C166.174 235.71 166.464 235.62 166.684 235.44C166.904 235.26 167.014 235.02 167.014 234.72C167.014 234.41 166.904 234.17 166.684 234C166.464 233.82 166.174 233.73 165.814 233.73C165.454 233.73 165.164 233.82 164.944 234C164.724 234.17 164.614 234.41 164.614 234.72C164.614 235.02 164.724 235.26 164.944 235.44C165.164 235.62 165.454 235.71 165.814 235.71ZM170.961 237V229.11C170.961 228.57 171.056 228.115 171.246 227.745C171.446 227.365 171.721 227.08 172.071 226.89C172.421 226.7 172.836 226.605 173.316 226.605C173.556 226.605 173.771 226.62 173.961 226.65C174.151 226.68 174.306 226.71 174.426 226.74V228.54C174.326 228.52 174.221 228.5 174.111 228.48C174.011 228.46 173.891 228.45 173.751 228.45C173.501 228.45 173.301 228.525 173.151 228.675C173.001 228.815 172.926 229.05 172.926 229.38V237H170.961ZM174.261 231.63H169.926V229.83H174.261V231.63ZM177.382 237H175.417V229.665H177.382V237ZM176.302 228.735L175.357 227.76L177.712 225.585L178.672 226.545L176.302 228.735ZM181.343 237.21C180.803 237.21 180.328 237.11 179.918 236.91C179.508 236.7 179.193 236.41 178.973 236.04C178.753 235.66 178.643 235.22 178.643 234.72C178.643 234.22 178.758 233.785 178.988 233.415C179.228 233.045 179.553 232.76 179.963 232.56C180.373 232.35 180.838 232.245 181.358 232.245C182.068 232.245 182.643 232.41 183.083 232.74C183.533 233.06 183.838 233.52 183.998 234.12L183.083 234V232.23C183.083 231.95 182.983 231.7 182.783 231.48C182.583 231.26 182.258 231.15 181.808 231.15C181.528 231.15 181.218 231.185 180.878 231.255C180.538 231.315 180.183 231.435 179.813 231.615L179.228 230.175C179.658 229.965 180.113 229.8 180.593 229.68C181.083 229.56 181.573 229.5 182.063 229.5C182.733 229.5 183.288 229.62 183.728 229.86C184.168 230.1 184.498 230.43 184.718 230.85C184.938 231.27 185.048 231.75 185.048 232.29V237H183.488L183.068 235.605L183.998 235.335C183.828 235.925 183.513 236.385 183.053 236.715C182.603 237.045 182.033 237.21 181.343 237.21ZM181.883 235.71C182.243 235.71 182.533 235.62 182.753 235.44C182.973 235.26 183.083 235.02 183.083 234.72C183.083 234.41 182.973 234.17 182.753 234C182.533 233.82 182.243 233.73 181.883 233.73C181.523 233.73 181.233 233.82 181.013 234C180.793 234.17 180.683 234.41 180.683 234.72C180.683 235.02 180.793 235.26 181.013 235.44C181.233 235.62 181.523 235.71 181.883 235.71Z" fill="white"/>
<defs>
<filter id="filter0_d_829_284" x="16.6" y="21.6" width="180.8" height="180.8" filterUnits="userSpaceOnUse" color-interpolation-filters="sRGB">
<feFlood flood-opacity="0" result="BackgroundImageFix"/>
<feColorMatrix in="SourceAlpha" type="matrix" values="0 0 0 0 0 0 0 0 0 0 0 0 0 0 0 0 0 0 127 0" result="hardAlpha"/>
<feOffset/>
<feGaussianBlur stdDeviation="11.2"/>
<feComposite in2="hardAlpha" operator="out"/>
<feColorMatrix type="matrix" values="0 0 0 0 1 0 0 0 0 0.933333 0 0 0 0 0.854902 0 0 0 0.19 0"/>
<feBlend mode="normal" in2="BackgroundImageFix" result="effect1_dropShadow_829_284"/>
<feBlend mode="normal" in="SourceGraphic" in2="effect1_dropShadow_829_284" result="shape"/>
</filter>
<linearGradient id="paint0_linear_829_284" x1="39" y1="112" x2="175" y2="112" gradientUnits="userSpaceOnUse">
<stop/>
<stop offset="1" stop-color="#444444"/>
</linearGradient>
</defs>
</svg>
