<svg width="195" height="19" viewBox="0 0 195 19" fill="none" xmlns="http://www.w3.org/2000/svg">
<path d="M8.7 15V1.38H11.32V15H8.7ZM0.36 15V1.38H2.98V15H0.36ZM2.06 9.58V7.08H9.56V9.58H2.06ZM18.3314 15.24C17.3181 15.24 16.4247 15.0267 15.6514 14.6C14.8914 14.16 14.2981 13.56 13.8714 12.8C13.4447 12.0267 13.2314 11.1333 13.2314 10.12C13.2314 9.10667 13.4447 8.22 13.8714 7.46C14.2981 6.68667 14.8914 6.08667 15.6514 5.66C16.4247 5.22 17.3181 5 18.3314 5C19.3447 5 20.2314 5.22 20.9914 5.66C21.7647 6.08667 22.3647 6.68667 22.7914 7.46C23.2181 8.22 23.4314 9.10667 23.4314 10.12C23.4314 11.1333 23.2181 12.0267 22.7914 12.8C22.3647 13.56 21.7647 14.16 20.9914 14.6C20.2314 15.0267 19.3447 15.24 18.3314 15.24ZM18.3314 12.7C19.0514 12.7 19.6381 12.46 20.0914 11.98C20.5447 11.5 20.7714 10.88 20.7714 10.12C20.7714 9.34667 20.5447 8.72 20.0914 8.24C19.6381 7.76 19.0514 7.52 18.3314 7.52C17.6114 7.52 17.0247 7.76 16.5714 8.24C16.1314 8.70667 15.9114 9.32667 15.9114 10.1C15.9114 10.8733 16.1314 11.5 16.5714 11.98C17.0247 12.46 17.6114 12.7 18.3314 12.7ZM27.3838 15.1C26.9438 15.1 26.5371 15.0067 26.1638 14.82C25.8038 14.6333 25.5104 14.3467 25.2838 13.96C25.0704 13.56 24.9638 13.0467 24.9638 12.42V1.38H27.5638V11.5C27.5638 11.9667 27.6571 12.2733 27.8438 12.42C28.0304 12.5533 28.2571 12.62 28.5238 12.62V14.96C28.3771 15.0133 28.1971 15.0467 27.9838 15.06C27.7838 15.0867 27.5838 15.1 27.3838 15.1ZM33.1005 15.28C32.3805 15.28 31.7471 15.1467 31.2005 14.88C30.6538 14.6 30.2338 14.2133 29.9405 13.72C29.6471 13.2133 29.5005 12.6267 29.5005 11.96C29.5005 11.2933 29.6538 10.7133 29.9605 10.22C30.2805 9.72667 30.7138 9.34667 31.2605 9.08C31.8071 8.8 32.4271 8.66 33.1205 8.66C34.0671 8.66 34.8338 8.88 35.4205 9.32C36.0205 9.74667 36.4271 10.36 36.6405 11.16L35.4205 11V8.64C35.4205 8.26667 35.2871 7.93333 35.0205 7.64C34.7538 7.34667 34.3205 7.2 33.7205 7.2C33.3471 7.2 32.9338 7.24667 32.4805 7.34C32.0271 7.42 31.5538 7.58 31.0605 7.82L30.2805 5.9C30.8538 5.62 31.4605 5.4 32.1005 5.24C32.7538 5.08 33.4071 5 34.0605 5C34.9538 5 35.6938 5.16 36.2805 5.48C36.8671 5.8 37.3071 6.24 37.6005 6.8C37.8938 7.36 38.0405 8 38.0405 8.72V15H35.9605L35.4005 13.14L36.6405 12.78C36.4138 13.5667 35.9938 14.18 35.3805 14.62C34.7805 15.06 34.0205 15.28 33.1005 15.28ZM33.8205 13.28C34.3005 13.28 34.6871 13.16 34.9805 12.92C35.2738 12.68 35.4205 12.36 35.4205 11.96C35.4205 11.5467 35.2738 11.2267 34.9805 11C34.6871 10.76 34.3005 10.64 33.8205 10.64C33.3405 10.64 32.9538 10.76 32.6605 11C32.3671 11.2267 32.2205 11.5467 32.2205 11.96C32.2205 12.36 32.3671 12.68 32.6605 12.92C32.9538 13.16 33.3405 13.28 33.8205 13.28ZM43.7419 13.6C43.7419 14.36 43.5019 15.1267 43.0219 15.9C42.5552 16.6867 41.8152 17.44 40.8019 18.16L39.6819 17.12C40.1485 16.6933 40.4952 16.2467 40.7219 15.78C40.9485 15.3267 41.0619 14.9267 41.0619 14.58C41.0619 14.0867 40.9352 13.6933 40.6819 13.4C40.4285 13.1067 40.1219 12.8667 39.7619 12.68C39.8952 12.32 40.0619 12.04 40.2619 11.84C40.4752 11.64 40.7085 11.5 40.9619 11.42C41.2152 11.3267 41.4819 11.28 41.7619 11.28C42.0952 11.28 42.4152 11.3733 42.7219 11.56C43.0285 11.7467 43.2752 12.0133 43.4619 12.36C43.6485 12.7067 43.7419 13.12 43.7419 13.6ZM54.3017 15.26C53.5551 15.26 52.8417 15.1067 52.1617 14.8C51.4951 14.4933 50.9017 13.96 50.3817 13.2L51.9817 11.8C52.4084 12.28 52.8151 12.6267 53.2017 12.84C53.6017 13.04 54.0484 13.14 54.5417 13.14C54.8751 13.14 55.1417 13.06 55.3417 12.9C55.5417 12.74 55.6417 12.54 55.6417 12.3C55.6417 12.14 55.5884 12 55.4817 11.88C55.3751 11.7467 55.1751 11.62 54.8817 11.5C54.6017 11.38 54.1884 11.2533 53.6417 11.12C52.6284 10.8533 51.8684 10.4933 51.3617 10.04C50.8551 9.57333 50.6017 8.92 50.6017 8.08C50.6017 7.50667 50.7484 6.98667 51.0417 6.52C51.3351 6.04 51.7551 5.66 52.3017 5.38C52.8617 5.1 53.5217 4.96 54.2817 4.96C55.1751 4.96 55.9351 5.13333 56.5617 5.48C57.2017 5.82667 57.7151 6.24667 58.1017 6.74L56.4017 8.16C56.1484 7.89333 55.8217 7.66 55.4217 7.46C55.0217 7.26 54.5551 7.16 54.0217 7.16C53.7284 7.16 53.4684 7.22667 53.2417 7.36C53.0151 7.49333 52.9017 7.68667 52.9017 7.94C52.9017 8.18 53.0217 8.38 53.2617 8.54C53.5151 8.7 53.9951 8.86667 54.7017 9.04C55.9017 9.32 56.7617 9.7 57.2817 10.18C57.8017 10.66 58.0617 11.3 58.0617 12.1C58.0617 12.74 57.8951 13.3 57.5617 13.78C57.2284 14.2467 56.7751 14.6133 56.2017 14.88C55.6417 15.1333 55.0084 15.26 54.3017 15.26ZM64.2494 15.24C63.236 15.24 62.3427 15.0267 61.5694 14.6C60.8094 14.16 60.216 13.56 59.7894 12.8C59.3627 12.0267 59.1494 11.1333 59.1494 10.12C59.1494 9.10667 59.3627 8.22 59.7894 7.46C60.216 6.68667 60.8094 6.08667 61.5694 5.66C62.3427 5.22 63.236 5 64.2494 5C65.2627 5 66.1494 5.22 66.9094 5.66C67.6827 6.08667 68.2827 6.68667 68.7094 7.46C69.136 8.22 69.3494 9.10667 69.3494 10.12C69.3494 11.1333 69.136 12.0267 68.7094 12.8C68.2827 13.56 67.6827 14.16 66.9094 14.6C66.1494 15.0267 65.2627 15.24 64.2494 15.24ZM64.2494 12.7C64.9694 12.7 65.556 12.46 66.0094 11.98C66.4627 11.5 66.6894 10.88 66.6894 10.12C66.6894 9.34667 66.4627 8.72 66.0094 8.24C65.556 7.76 64.9694 7.52 64.2494 7.52C63.5294 7.52 62.9427 7.76 62.4894 8.24C62.0494 8.70667 61.8294 9.32667 61.8294 10.1C61.8294 10.8733 62.0494 11.5 62.4894 11.98C62.9427 12.46 63.5294 12.7 64.2494 12.7ZM73.5106 14.1L69.6106 5.22H72.2906L75.9106 13.48L73.5106 14.1ZM71.2706 18.8L77.2506 5.22H79.9306L73.9506 18.8H71.2706ZM88.3895 9.82H95.1095V12.26H88.3895V9.82ZM85.5495 15L90.3895 1.38H93.4495L98.1295 15H95.4895L91.5495 3.18H92.3095L88.1895 15H85.5495ZM103.088 15.18C102.088 15.18 101.294 14.92 100.708 14.4C100.134 13.8667 99.8477 13.02 99.8477 11.86V5.34L99.8077 5.22L100.348 2.92H102.468V11.44C102.468 11.8667 102.568 12.18 102.768 12.38C102.981 12.5667 103.248 12.66 103.568 12.66C103.781 12.66 103.974 12.6467 104.148 12.62C104.321 12.58 104.474 12.54 104.608 12.5V14.94C104.394 15.02 104.168 15.08 103.928 15.12C103.688 15.16 103.408 15.18 103.088 15.18ZM98.3277 7.64V5.22H104.608V7.64H98.3277ZM109.083 15.1C108.643 15.1 108.236 15.0067 107.863 14.82C107.503 14.6333 107.21 14.3467 106.983 13.96C106.77 13.56 106.663 13.0467 106.663 12.42V1.38H109.263V11.5C109.263 11.9667 109.356 12.2733 109.543 12.42C109.73 12.5533 109.956 12.62 110.223 12.62V14.96C110.076 15.0133 109.896 15.0467 109.683 15.06C109.483 15.0867 109.283 15.1 109.083 15.1ZM114.8 15.28C114.08 15.28 113.446 15.1467 112.9 14.88C112.353 14.6 111.933 14.2133 111.64 13.72C111.346 13.2133 111.2 12.6267 111.2 11.96C111.2 11.2933 111.353 10.7133 111.66 10.22C111.98 9.72667 112.413 9.34667 112.96 9.08C113.506 8.8 114.126 8.66 114.82 8.66C115.766 8.66 116.533 8.88 117.12 9.32C117.72 9.74667 118.126 10.36 118.34 11.16L117.12 11V8.64C117.12 8.26667 116.986 7.93333 116.72 7.64C116.453 7.34667 116.02 7.2 115.42 7.2C115.046 7.2 114.633 7.24667 114.18 7.34C113.726 7.42 113.253 7.58 112.76 7.82L111.98 5.9C112.553 5.62 113.16 5.4 113.8 5.24C114.453 5.08 115.106 5 115.76 5C116.653 5 117.393 5.16 117.98 5.48C118.566 5.8 119.006 6.24 119.3 6.8C119.593 7.36 119.74 8 119.74 8.72V15H117.66L117.1 13.14L118.34 12.78C118.113 13.5667 117.693 14.18 117.08 14.62C116.48 15.06 115.72 15.28 114.8 15.28ZM115.52 13.28C116 13.28 116.386 13.16 116.68 12.92C116.973 12.68 117.12 12.36 117.12 11.96C117.12 11.5467 116.973 11.2267 116.68 11C116.386 10.76 116 10.64 115.52 10.64C115.04 10.64 114.653 10.76 114.36 11C114.066 11.2267 113.92 11.5467 113.92 11.96C113.92 12.36 114.066 12.68 114.36 12.92C114.653 13.16 115.04 13.28 115.52 13.28ZM125.22 15.26C124.473 15.26 123.76 15.1067 123.08 14.8C122.413 14.4933 121.82 13.96 121.3 13.2L122.9 11.8C123.326 12.28 123.733 12.6267 124.12 12.84C124.52 13.04 124.966 13.14 125.46 13.14C125.793 13.14 126.06 13.06 126.26 12.9C126.46 12.74 126.56 12.54 126.56 12.3C126.56 12.14 126.506 12 126.4 11.88C126.293 11.7467 126.093 11.62 125.8 11.5C125.52 11.38 125.106 11.2533 124.56 11.12C123.546 10.8533 122.786 10.4933 122.28 10.04C121.773 9.57333 121.52 8.92 121.52 8.08C121.52 7.50667 121.666 6.98667 121.96 6.52C122.253 6.04 122.673 5.66 123.22 5.38C123.78 5.1 124.44 4.96 125.2 4.96C126.093 4.96 126.853 5.13333 127.48 5.48C128.12 5.82667 128.633 6.24667 129.02 6.74L127.32 8.16C127.066 7.89333 126.74 7.66 126.34 7.46C125.94 7.26 125.473 7.16 124.94 7.16C124.646 7.16 124.386 7.22667 124.16 7.36C123.933 7.49333 123.82 7.68667 123.82 7.94C123.82 8.18 123.94 8.38 124.18 8.54C124.433 8.7 124.913 8.86667 125.62 9.04C126.82 9.32 127.68 9.7 128.2 10.18C128.72 10.66 128.98 11.3 128.98 12.1C128.98 12.74 128.813 13.3 128.48 13.78C128.146 14.2467 127.693 14.6133 127.12 14.88C126.56 15.1333 125.926 15.26 125.22 15.26ZM137.901 9.82H144.621V12.26H137.901V9.82ZM135.061 15L139.901 1.38H142.961L147.641 15H145.001L141.061 3.18H141.821L137.701 15H135.061ZM152.153 15.26C151.407 15.26 150.693 15.1067 150.013 14.8C149.347 14.4933 148.753 13.96 148.233 13.2L149.833 11.8C150.26 12.28 150.667 12.6267 151.053 12.84C151.453 13.04 151.9 13.14 152.393 13.14C152.727 13.14 152.993 13.06 153.193 12.9C153.393 12.74 153.493 12.54 153.493 12.3C153.493 12.14 153.44 12 153.333 11.88C153.227 11.7467 153.027 11.62 152.733 11.5C152.453 11.38 152.04 11.2533 151.493 11.12C150.48 10.8533 149.72 10.4933 149.213 10.04C148.707 9.57333 148.453 8.92 148.453 8.08C148.453 7.50667 148.6 6.98667 148.893 6.52C149.187 6.04 149.607 5.66 150.153 5.38C150.713 5.1 151.373 4.96 152.133 4.96C153.027 4.96 153.787 5.13333 154.413 5.48C155.053 5.82667 155.567 6.24667 155.953 6.74L154.253 8.16C154 7.89333 153.673 7.66 153.273 7.46C152.873 7.26 152.407 7.16 151.873 7.16C151.58 7.16 151.32 7.22667 151.093 7.36C150.867 7.49333 150.753 7.68667 150.753 7.94C150.753 8.18 150.873 8.38 151.113 8.54C151.367 8.7 151.847 8.86667 152.553 9.04C153.753 9.32 154.613 9.7 155.133 10.18C155.653 10.66 155.913 11.3 155.913 12.1C155.913 12.74 155.747 13.3 155.413 13.78C155.08 14.2467 154.627 14.6133 154.053 14.88C153.493 15.1333 152.86 15.26 152.153 15.26ZM161.861 15.2C160.888 15.2 160.034 14.9933 159.301 14.58C158.568 14.1533 158.001 13.56 157.601 12.8C157.201 12.04 157.001 11.1467 157.001 10.12C157.001 9.10667 157.201 8.22 157.601 7.46C158.001 6.68667 158.568 6.08667 159.301 5.66C160.034 5.22 160.888 5 161.861 5C162.848 5 163.701 5.22 164.421 5.66C165.154 6.1 165.721 6.70667 166.121 7.48C166.521 8.24 166.721 9.11333 166.721 10.1C166.721 10.2467 166.714 10.3933 166.701 10.54C166.701 10.6733 166.688 10.7867 166.661 10.88H159.141V8.92H164.681L164.281 9.86C164.281 9.03333 164.081 8.36 163.681 7.84C163.294 7.32 162.688 7.06 161.861 7.06C161.141 7.06 160.561 7.28667 160.121 7.74C159.681 8.18 159.461 8.77333 159.461 9.52V10.58C159.461 11.3667 159.681 11.9867 160.121 12.44C160.574 12.88 161.188 13.1 161.961 13.1C162.641 13.1 163.174 12.96 163.561 12.68C163.948 12.4 164.281 12.0533 164.561 11.64L166.381 12.68C165.941 13.4933 165.341 14.12 164.581 14.56C163.834 14.9867 162.928 15.2 161.861 15.2ZM174.203 5C174.87 5 175.403 5.11333 175.803 5.34C176.216 5.56667 176.523 5.87333 176.723 6.26C176.936 6.64667 177.076 7.08667 177.143 7.58C177.21 8.06 177.243 8.56 177.243 9.08V15H174.623V9.06C174.623 8.46 174.503 8.06 174.263 7.86C174.036 7.66 173.743 7.56 173.383 7.56C173.05 7.56 172.71 7.62667 172.363 7.76C172.016 7.88 171.69 8.06 171.383 8.3C171.09 8.52667 170.836 8.78667 170.623 9.08L170.283 7.72H170.943V15H168.323V5.22H170.283L170.823 7.1L169.983 7.06C170.33 6.66 170.723 6.30667 171.163 6C171.616 5.69333 172.096 5.45333 172.603 5.28C173.11 5.09333 173.643 5 174.203 5ZM179.398 18.9C179.051 18.9 178.771 18.8667 178.558 18.8C178.344 18.7467 178.204 18.7067 178.138 18.68V16.48C178.204 16.4933 178.284 16.5067 178.378 16.52C178.484 16.5467 178.611 16.56 178.758 16.56C179.011 16.56 179.204 16.4667 179.338 16.28C179.471 16.1067 179.538 15.8667 179.538 15.56V5.22H182.158V15.9C182.158 16.42 182.064 16.9067 181.878 17.36C181.691 17.8267 181.391 18.2 180.978 18.48C180.578 18.76 180.051 18.9 179.398 18.9ZM179.278 2.18C179.278 1.7 179.418 1.31333 179.698 1.02C179.991 0.713332 180.378 0.559999 180.858 0.559999C181.338 0.559999 181.718 0.713332 181.998 1.02C182.291 1.31333 182.438 1.7 182.438 2.18C182.438 2.63333 182.291 3.00667 181.998 3.3C181.718 3.59333 181.338 3.74 180.858 3.74C180.378 3.74 179.991 3.59333 179.698 3.3C179.418 3.00667 179.278 2.63333 179.278 2.18ZM188.937 15.24C187.924 15.24 187.03 15.0267 186.257 14.6C185.497 14.16 184.904 13.56 184.477 12.8C184.05 12.0267 183.837 11.1333 183.837 10.12C183.837 9.10667 184.05 8.22 184.477 7.46C184.904 6.68667 185.497 6.08667 186.257 5.66C187.03 5.22 187.924 5 188.937 5C189.95 5 190.837 5.22 191.597 5.66C192.37 6.08667 192.97 6.68667 193.397 7.46C193.824 8.22 194.037 9.10667 194.037 10.12C194.037 11.1333 193.824 12.0267 193.397 12.8C192.97 13.56 192.37 14.16 191.597 14.6C190.837 15.0267 189.95 15.24 188.937 15.24ZM188.937 12.7C189.657 12.7 190.244 12.46 190.697 11.98C191.15 11.5 191.377 10.88 191.377 10.12C191.377 9.34667 191.15 8.72 190.697 8.24C190.244 7.76 189.657 7.52 188.937 7.52C188.217 7.52 187.63 7.76 187.177 8.24C186.737 8.70667 186.517 9.32667 186.517 10.1C186.517 10.8733 186.737 11.5 187.177 11.98C187.63 12.46 188.217 12.7 188.937 12.7Z" fill="#FFF8DA"/>
</svg>
