<svg width="318" height="92" viewBox="0 0 318 92" fill="none" xmlns="http://www.w3.org/2000/svg">
<path d="M7.76 15V4.104H9.856V15H7.76ZM1.088 15V4.104H3.184V15H1.088ZM2.448 10.664V8.664H8.448V10.664H2.448ZM15.2731 15.16C14.4945 15.16 13.8118 14.9947 13.2251 14.664C12.6385 14.3227 12.1851 13.848 11.8651 13.24C11.5451 12.632 11.3851 11.9173 11.3851 11.096C11.3851 10.2853 11.5451 9.576 11.8651 8.968C12.1851 8.34933 12.6385 7.86933 13.2251 7.528C13.8118 7.176 14.4945 7 15.2731 7C16.0625 7 16.7451 7.176 17.3211 7.528C17.9078 7.88 18.3611 8.36533 18.6811 8.984C19.0011 9.592 19.1611 10.2907 19.1611 11.08C19.1611 11.1973 19.1558 11.3147 19.1451 11.432C19.1451 11.5387 19.1345 11.6293 19.1131 11.704H13.0971V10.136H17.5291L17.2091 10.888C17.2091 10.2267 17.0491 9.688 16.7291 9.272C16.4198 8.856 15.9345 8.648 15.2731 8.648C14.6971 8.648 14.2331 8.82933 13.8811 9.192C13.5291 9.544 13.3531 10.0187 13.3531 10.616V11.464C13.3531 12.0933 13.5291 12.5893 13.8811 12.952C14.2438 13.304 14.7345 13.48 15.3531 13.48C15.8971 13.48 16.3238 13.368 16.6331 13.144C16.9425 12.92 17.2091 12.6427 17.4331 12.312L18.8891 13.144C18.5371 13.7947 18.0571 14.296 17.4491 14.648C16.8518 14.9893 16.1265 15.16 15.2731 15.16ZM22.332 15.08C21.98 15.08 21.6547 15.0053 21.356 14.856C21.068 14.7067 20.8333 14.4773 20.652 14.168C20.4813 13.848 20.396 13.4373 20.396 12.936V4.104H22.476V12.2C22.476 12.5733 22.5507 12.8187 22.7 12.936C22.8493 13.0427 23.0307 13.096 23.244 13.096V14.968C23.1267 15.0107 22.9827 15.0373 22.812 15.048C22.652 15.0693 22.492 15.08 22.332 15.08ZM26.5351 15.08C26.1831 15.08 25.8578 15.0053 25.5591 14.856C25.2711 14.7067 25.0365 14.4773 24.8551 14.168C24.6845 13.848 24.5991 13.4373 24.5991 12.936V4.104H26.6791V12.2C26.6791 12.5733 26.7538 12.8187 26.9031 12.936C27.0525 13.0427 27.2338 13.096 27.4471 13.096V14.968C27.3298 15.0107 27.1858 15.0373 27.0151 15.048C26.8551 15.0693 26.6951 15.08 26.5351 15.08ZM32.4183 15.192C31.6076 15.192 30.8929 15.0213 30.2743 14.68C29.6663 14.328 29.1916 13.848 28.8503 13.24C28.5089 12.6213 28.3383 11.9067 28.3383 11.096C28.3383 10.2853 28.5089 9.576 28.8503 8.968C29.1916 8.34933 29.6663 7.86933 30.2743 7.528C30.8929 7.176 31.6076 7 32.4183 7C33.2289 7 33.9383 7.176 34.5463 7.528C35.1649 7.86933 35.6449 8.34933 35.9862 8.968C36.3276 9.576 36.4983 10.2853 36.4983 11.096C36.4983 11.9067 36.3276 12.6213 35.9862 13.24C35.6449 13.848 35.1649 14.328 34.5463 14.68C33.9383 15.0213 33.2289 15.192 32.4183 15.192ZM32.4183 13.16C32.9943 13.16 33.4636 12.968 33.8263 12.584C34.1889 12.2 34.3703 11.704 34.3703 11.096C34.3703 10.4773 34.1889 9.976 33.8263 9.592C33.4636 9.208 32.9943 9.016 32.4183 9.016C31.8423 9.016 31.3729 9.208 31.0103 9.592C30.6583 9.96533 30.4823 10.4613 30.4823 11.08C30.4823 11.6987 30.6583 12.2 31.0103 12.584C31.3729 12.968 31.8423 13.16 32.4183 13.16ZM40.481 13.88C40.481 14.488 40.289 15.1013 39.905 15.72C39.5317 16.3493 38.9397 16.952 38.129 17.528L37.233 16.696C37.6063 16.3547 37.8837 15.9973 38.065 15.624C38.2463 15.2613 38.337 14.9413 38.337 14.664C38.337 14.2693 38.2357 13.9547 38.033 13.72C37.8303 13.4853 37.585 13.2933 37.297 13.144C37.4037 12.856 37.537 12.632 37.697 12.472C37.8677 12.312 38.0543 12.2 38.257 12.136C38.4597 12.0613 38.673 12.024 38.897 12.024C39.1637 12.024 39.4197 12.0987 39.665 12.248C39.9103 12.3973 40.1077 12.6107 40.257 12.888C40.4063 13.1653 40.481 13.496 40.481 13.88ZM48.4809 15H46.3849V4.104H48.4809V15ZM50.5545 8.984L49.8025 8.184C50.1545 7.82133 50.4105 7.464 50.5705 7.112C50.7412 6.76 50.8265 6.44 50.8265 6.152C50.8265 5.82133 50.7412 5.56 50.5705 5.368C50.3998 5.176 50.1652 4.98933 49.8665 4.808C49.9625 4.50933 50.1438 4.27467 50.4105 4.104C50.6878 3.92267 50.9812 3.832 51.2905 3.832C51.5572 3.832 51.8078 3.90667 52.0425 4.056C52.2878 4.19467 52.4852 4.39733 52.6345 4.664C52.7838 4.92 52.8585 5.22933 52.8585 5.592C52.8585 6.136 52.6718 6.712 52.2985 7.32C51.9358 7.91733 51.3545 8.472 50.5545 8.984ZM53.4585 15V7.176H55.0265L55.4585 8.68L54.7865 8.648C55.0638 8.328 55.3678 8.04533 55.6985 7.8C56.0292 7.55467 56.3865 7.36267 56.7705 7.224C57.1652 7.07467 57.5758 7 58.0025 7C58.5358 7 58.9625 7.09067 59.2825 7.272C59.6025 7.45333 59.8372 7.69867 59.9865 8.008C60.1465 8.31733 60.2532 8.66933 60.3065 9.064C60.3705 9.448 60.4025 9.848 60.4025 10.264V15H58.3065V10.248C58.3065 9.768 58.2105 9.448 58.0185 9.288C57.8265 9.128 57.5972 9.048 57.3305 9.048C56.9465 9.048 56.5732 9.16533 56.2105 9.4C55.8478 9.624 55.5438 9.912 55.2985 10.264L55.0265 9.176H55.5545V15H53.4585ZM63.1385 15V10.248C63.1385 9.768 63.0425 9.448 62.8505 9.288C62.6692 9.128 62.4452 9.048 62.1785 9.048C61.7945 9.048 61.4212 9.16533 61.0585 9.4C60.6958 9.624 60.3918 9.912 60.1465 10.264L59.6185 8.648C59.8958 8.328 60.1998 8.04533 60.5305 7.8C60.8718 7.55467 61.2345 7.36267 61.6185 7.224C62.0132 7.07467 62.4238 7 62.8505 7C63.3732 7 63.7945 7.09067 64.1145 7.272C64.4345 7.45333 64.6745 7.69867 64.8345 8.008C64.9945 8.31733 65.1012 8.66933 65.1545 9.064C65.2185 9.448 65.2505 9.848 65.2505 10.264V15H63.1385ZM72.6991 10.856H78.0751V12.808H72.6991V10.856ZM70.4271 15L74.2991 4.104H76.7471L80.4911 15H78.3791L75.2271 5.544H75.8351L72.5391 15H70.4271ZM84.4576 15.144C83.6576 15.144 83.023 14.936 82.5536 14.52C82.095 14.0933 81.8656 13.416 81.8656 12.488V7.272L81.8336 7.176L82.2656 5.336H83.9616V12.152C83.9616 12.4933 84.0416 12.744 84.2016 12.904C84.3723 13.0533 84.5856 13.128 84.8416 13.128C85.0123 13.128 85.167 13.1173 85.3056 13.096C85.4443 13.064 85.567 13.032 85.6736 13V14.952C85.503 15.016 85.3216 15.064 85.1296 15.096C84.9376 15.128 84.7136 15.144 84.4576 15.144ZM80.6496 9.112V7.176H85.6736V9.112H80.6496ZM89.2539 15.08C88.9019 15.08 88.5765 15.0053 88.2779 14.856C87.9899 14.7067 87.7552 14.4773 87.5739 14.168C87.4032 13.848 87.3179 13.4373 87.3179 12.936V4.104H89.3979V12.2C89.3979 12.5733 89.4725 12.8187 89.6219 12.936C89.7712 13.0427 89.9525 13.096 90.1659 13.096V14.968C90.0485 15.0107 89.9045 15.0373 89.7339 15.048C89.5739 15.0693 89.4139 15.08 89.2539 15.08ZM93.8273 15.224C93.2513 15.224 92.7446 15.1173 92.3073 14.904C91.8699 14.68 91.5339 14.3707 91.2993 13.976C91.0646 13.5707 90.9473 13.1013 90.9473 12.568C90.9473 12.0347 91.0699 11.5707 91.3153 11.176C91.5713 10.7813 91.9179 10.4773 92.3553 10.264C92.7926 10.04 93.2886 9.928 93.8433 9.928C94.6006 9.928 95.2139 10.104 95.6833 10.456C96.1633 10.7973 96.4886 11.288 96.6593 11.928L95.6833 11.8V9.912C95.6833 9.61333 95.5766 9.34667 95.3633 9.112C95.1499 8.87733 94.8033 8.76 94.3233 8.76C94.0246 8.76 93.6939 8.79733 93.3313 8.872C92.9686 8.936 92.5899 9.064 92.1953 9.256L91.5713 7.72C92.0299 7.496 92.5153 7.32 93.0273 7.192C93.5499 7.064 94.0726 7 94.5953 7C95.3099 7 95.9019 7.128 96.3713 7.384C96.8406 7.64 97.1926 7.992 97.4273 8.44C97.6619 8.888 97.7793 9.4 97.7793 9.976V15H96.1153L95.6673 13.512L96.6593 13.224C96.4779 13.8533 96.1419 14.344 95.6513 14.696C95.1713 15.048 94.5633 15.224 93.8273 15.224ZM94.4033 13.624C94.7873 13.624 95.0966 13.528 95.3313 13.336C95.5659 13.144 95.6833 12.888 95.6833 12.568C95.6833 12.2373 95.5659 11.9813 95.3313 11.8C95.0966 11.608 94.7873 11.512 94.4033 11.512C94.0193 11.512 93.7099 11.608 93.4753 11.8C93.2406 11.9813 93.1233 12.2373 93.1233 12.568C93.1233 12.888 93.2406 13.144 93.4753 13.336C93.7099 13.528 94.0193 13.624 94.4033 13.624ZM102.163 15.208C101.566 15.208 100.995 15.0853 100.451 14.84C99.9179 14.5947 99.4433 14.168 99.0273 13.56L100.307 12.44C100.649 12.824 100.974 13.1013 101.283 13.272C101.603 13.432 101.961 13.512 102.355 13.512C102.622 13.512 102.835 13.448 102.995 13.32C103.155 13.192 103.235 13.032 103.235 12.84C103.235 12.712 103.193 12.6 103.107 12.504C103.022 12.3973 102.862 12.296 102.627 12.2C102.403 12.104 102.073 12.0027 101.635 11.896C100.825 11.6827 100.217 11.3947 99.8113 11.032C99.4059 10.6587 99.2033 10.136 99.2033 9.464C99.2033 9.00533 99.3206 8.58933 99.5553 8.216C99.7899 7.832 100.126 7.528 100.563 7.304C101.011 7.08 101.539 6.968 102.147 6.968C102.862 6.968 103.47 7.10667 103.971 7.384C104.483 7.66133 104.894 7.99733 105.203 8.392L103.843 9.528C103.641 9.31467 103.379 9.128 103.059 8.968C102.739 8.808 102.366 8.728 101.939 8.728C101.705 8.728 101.497 8.78133 101.315 8.888C101.134 8.99467 101.043 9.14933 101.043 9.352C101.043 9.544 101.139 9.704 101.331 9.832C101.534 9.96 101.918 10.0933 102.483 10.232C103.443 10.456 104.131 10.76 104.547 11.144C104.963 11.528 105.171 12.04 105.171 12.68C105.171 13.192 105.038 13.64 104.771 14.024C104.505 14.3973 104.142 14.6907 103.683 14.904C103.235 15.1067 102.729 15.208 102.163 15.208ZM112.309 10.856H117.685V12.808H112.309V10.856ZM110.037 15L113.909 4.104H116.357L120.101 15H117.989L114.837 5.544H115.445L112.149 15H110.037ZM123.71 15.208C123.113 15.208 122.542 15.0853 121.998 14.84C121.465 14.5947 120.99 14.168 120.574 13.56L121.854 12.44C122.195 12.824 122.521 13.1013 122.83 13.272C123.15 13.432 123.507 13.512 123.902 13.512C124.169 13.512 124.382 13.448 124.542 13.32C124.702 13.192 124.782 13.032 124.782 12.84C124.782 12.712 124.739 12.6 124.654 12.504C124.569 12.3973 124.409 12.296 124.174 12.2C123.95 12.104 123.619 12.0027 123.182 11.896C122.371 11.6827 121.763 11.3947 121.358 11.032C120.953 10.6587 120.75 10.136 120.75 9.464C120.75 9.00533 120.867 8.58933 121.102 8.216C121.337 7.832 121.673 7.528 122.11 7.304C122.558 7.08 123.086 6.968 123.694 6.968C124.409 6.968 125.017 7.10667 125.518 7.384C126.03 7.66133 126.441 7.99733 126.75 8.392L125.39 9.528C125.187 9.31467 124.926 9.128 124.606 8.968C124.286 8.808 123.913 8.728 123.486 8.728C123.251 8.728 123.043 8.78133 122.862 8.888C122.681 8.99467 122.59 9.14933 122.59 9.352C122.59 9.544 122.686 9.704 122.878 9.832C123.081 9.96 123.465 10.0933 124.03 10.232C124.99 10.456 125.678 10.76 126.094 11.144C126.51 11.528 126.718 12.04 126.718 12.68C126.718 13.192 126.585 13.64 126.318 14.024C126.051 14.3973 125.689 14.6907 125.23 14.904C124.782 15.1067 124.275 15.208 123.71 15.208ZM131.476 15.16C130.698 15.16 130.015 14.9947 129.428 14.664C128.842 14.3227 128.388 13.848 128.068 13.24C127.748 12.632 127.588 11.9173 127.588 11.096C127.588 10.2853 127.748 9.576 128.068 8.968C128.388 8.34933 128.842 7.86933 129.428 7.528C130.015 7.176 130.698 7 131.476 7C132.266 7 132.948 7.176 133.524 7.528C134.111 7.88 134.564 8.36533 134.884 8.984C135.204 9.592 135.364 10.2907 135.364 11.08C135.364 11.1973 135.359 11.3147 135.348 11.432C135.348 11.5387 135.338 11.6293 135.316 11.704H129.3V10.136H133.732L133.412 10.888C133.412 10.2267 133.252 9.688 132.932 9.272C132.623 8.856 132.138 8.648 131.476 8.648C130.9 8.648 130.436 8.82933 130.084 9.192C129.732 9.544 129.556 10.0187 129.556 10.616V11.464C129.556 12.0933 129.732 12.5893 130.084 12.952C130.447 13.304 130.938 13.48 131.556 13.48C132.1 13.48 132.527 13.368 132.836 13.144C133.146 12.92 133.412 12.6427 133.636 12.312L135.092 13.144C134.74 13.7947 134.26 14.296 133.652 14.648C133.055 14.9893 132.33 15.16 131.476 15.16ZM141.35 7C141.883 7 142.31 7.09067 142.63 7.272C142.961 7.45333 143.206 7.69867 143.366 8.008C143.537 8.31733 143.649 8.66933 143.702 9.064C143.755 9.448 143.782 9.848 143.782 10.264V15H141.686V10.248C141.686 9.768 141.59 9.448 141.398 9.288C141.217 9.128 140.982 9.048 140.694 9.048C140.427 9.048 140.155 9.10133 139.878 9.208C139.601 9.304 139.339 9.448 139.094 9.64C138.859 9.82133 138.657 10.0293 138.486 10.264L138.214 9.176H138.742V15H136.646V7.176H138.214L138.646 8.68L137.974 8.648C138.251 8.328 138.566 8.04533 138.918 7.8C139.281 7.55467 139.665 7.36267 140.07 7.224C140.475 7.07467 140.902 7 141.35 7ZM145.506 18.12C145.228 18.12 145.004 18.0933 144.834 18.04C144.663 17.9973 144.551 17.9653 144.498 17.944V16.184C144.551 16.1947 144.615 16.2053 144.69 16.216C144.775 16.2373 144.876 16.248 144.994 16.248C145.196 16.248 145.351 16.1733 145.458 16.024C145.564 15.8853 145.618 15.6933 145.618 15.448V7.176H147.714V15.72C147.714 16.136 147.639 16.5253 147.49 16.888C147.34 17.2613 147.1 17.56 146.77 17.784C146.45 18.008 146.028 18.12 145.506 18.12ZM145.41 4.744C145.41 4.36 145.522 4.05067 145.746 3.816C145.98 3.57067 146.29 3.448 146.674 3.448C147.058 3.448 147.362 3.57067 147.586 3.816C147.82 4.05067 147.938 4.36 147.938 4.744C147.938 5.10667 147.82 5.40533 147.586 5.64C147.362 5.87467 147.058 5.992 146.674 5.992C146.29 5.992 145.98 5.87467 145.746 5.64C145.522 5.40533 145.41 5.10667 145.41 4.744ZM153.137 15.192C152.326 15.192 151.612 15.0213 150.993 14.68C150.385 14.328 149.91 13.848 149.569 13.24C149.228 12.6213 149.057 11.9067 149.057 11.096C149.057 10.2853 149.228 9.576 149.569 8.968C149.91 8.34933 150.385 7.86933 150.993 7.528C151.612 7.176 152.326 7 153.137 7C153.948 7 154.657 7.176 155.265 7.528C155.884 7.86933 156.364 8.34933 156.705 8.968C157.046 9.576 157.217 10.2853 157.217 11.096C157.217 11.9067 157.046 12.6213 156.705 13.24C156.364 13.848 155.884 14.328 155.265 14.68C154.657 15.0213 153.948 15.192 153.137 15.192ZM153.137 13.16C153.713 13.16 154.182 12.968 154.545 12.584C154.908 12.2 155.089 11.704 155.089 11.096C155.089 10.4773 154.908 9.976 154.545 9.592C154.182 9.208 153.713 9.016 153.137 9.016C152.561 9.016 152.092 9.208 151.729 9.592C151.377 9.96533 151.201 10.4613 151.201 11.08C151.201 11.6987 151.377 12.2 151.729 12.584C152.092 12.968 152.561 13.16 153.137 13.16Z" fill="#FFEEDA"/>
<path d="M196.872 85.892H200.904V87.356H196.872V85.892ZM195.168 89L198.072 80.828H199.908L202.716 89H201.132L198.768 81.908H199.224L196.752 89H195.168ZM207.087 83C207.487 83 207.807 83.068 208.047 83.204C208.295 83.34 208.479 83.524 208.599 83.756C208.727 83.988 208.811 84.252 208.851 84.548C208.891 84.836 208.911 85.136 208.911 85.448V89H207.339V85.436C207.339 85.076 207.267 84.836 207.123 84.716C206.987 84.596 206.811 84.536 206.595 84.536C206.395 84.536 206.191 84.576 205.983 84.656C205.775 84.728 205.579 84.836 205.395 84.98C205.219 85.116 205.067 85.272 204.939 85.448L204.735 84.632H205.131V89H203.559V83.132H204.735L205.059 84.26L204.555 84.236C204.763 83.996 204.999 83.784 205.263 83.6C205.535 83.416 205.823 83.272 206.127 83.168C206.431 83.056 206.751 83 207.087 83ZM212.485 89.144C211.949 89.144 211.477 89.012 211.069 88.748C210.661 88.484 210.345 88.12 210.121 87.656C209.897 87.192 209.785 86.66 209.785 86.06C209.785 85.452 209.897 84.92 210.121 84.464C210.353 84 210.673 83.64 211.081 83.384C211.489 83.128 211.957 83 212.485 83C213.005 83 213.457 83.12 213.841 83.36C214.225 83.6 214.525 83.948 214.741 84.404C214.957 84.86 215.065 85.412 215.065 86.06C215.065 86.684 214.957 87.228 214.741 87.692C214.525 88.148 214.221 88.504 213.829 88.76C213.445 89.016 212.997 89.144 212.485 89.144ZM212.761 87.692C213.169 87.692 213.501 87.544 213.757 87.248C214.013 86.944 214.141 86.552 214.141 86.072C214.141 85.584 214.013 85.192 213.757 84.896C213.501 84.592 213.169 84.44 212.761 84.44C212.361 84.44 212.029 84.592 211.765 84.896C211.509 85.192 211.381 85.58 211.381 86.06C211.381 86.54 211.509 86.932 211.765 87.236C212.029 87.54 212.361 87.692 212.761 87.692ZM214.465 89L214.069 87.608H214.177V84.668H214.069V80.828H215.641V89H214.465ZM223.862 89.144C223.022 89.144 222.29 88.964 221.666 88.604C221.05 88.236 220.57 87.736 220.226 87.104C219.89 86.464 219.722 85.736 219.722 84.92C219.722 84.304 219.822 83.74 220.022 83.228C220.23 82.708 220.518 82.26 220.886 81.884C221.262 81.508 221.702 81.216 222.206 81.008C222.71 80.8 223.262 80.696 223.862 80.696C224.814 80.696 225.594 80.9 226.202 81.308C226.81 81.716 227.286 82.284 227.63 83.012L226.166 83.54C225.87 83.06 225.534 82.72 225.158 82.52C224.782 82.32 224.35 82.22 223.862 82.22C223.374 82.22 222.938 82.336 222.554 82.568C222.178 82.792 221.878 83.108 221.654 83.516C221.438 83.916 221.33 84.384 221.33 84.92C221.33 85.448 221.438 85.916 221.654 86.324C221.878 86.732 222.178 87.052 222.554 87.284C222.938 87.508 223.374 87.62 223.862 87.62C224.35 87.62 224.782 87.52 225.158 87.32C225.534 87.12 225.87 86.78 226.166 86.3L227.63 86.828C227.286 87.556 226.81 88.124 226.202 88.532C225.594 88.94 224.814 89.144 223.862 89.144ZM229.756 85.652V84.152H233.092V85.652H229.756ZM229.72 82.316L230.224 81.716V88.052L229.66 87.5H233.776V89H228.652V80.828H233.776V82.316H229.72ZM234.616 84.92C234.616 84.304 234.72 83.74 234.928 83.228C235.136 82.708 235.428 82.26 235.804 81.884C236.18 81.508 236.624 81.216 237.136 81.008C237.656 80.8 238.224 80.696 238.84 80.696C239.448 80.696 240.008 80.8 240.52 81.008C241.032 81.216 241.476 81.508 241.852 81.884C242.228 82.26 242.52 82.708 242.728 83.228C242.936 83.74 243.04 84.304 243.04 84.92C243.04 85.528 242.936 86.092 242.728 86.612C242.52 87.124 242.228 87.572 241.852 87.956C241.476 88.332 241.032 88.624 240.52 88.832C240.008 89.04 239.448 89.144 238.84 89.144C238.224 89.144 237.656 89.04 237.136 88.832C236.624 88.624 236.18 88.332 235.804 87.956C235.428 87.572 235.136 87.124 234.928 86.612C234.72 86.092 234.616 85.528 234.616 84.92ZM236.224 84.92C236.224 85.448 236.336 85.916 236.56 86.324C236.784 86.724 237.092 87.036 237.484 87.26C237.884 87.484 238.336 87.596 238.84 87.596C239.344 87.596 239.788 87.484 240.172 87.26C240.564 87.036 240.872 86.724 241.096 86.324C241.32 85.916 241.432 85.448 241.432 84.92C241.432 84.384 241.32 83.916 241.096 83.516C240.872 83.108 240.564 82.792 240.172 82.568C239.788 82.344 239.344 82.232 238.84 82.232C238.336 82.232 237.884 82.348 237.484 82.58C237.092 82.804 236.784 83.116 236.56 83.516C236.336 83.916 236.224 84.384 236.224 84.92ZM249.829 89.144C249.221 89.144 248.685 89.016 248.221 88.76C247.765 88.496 247.409 88.136 247.153 87.68C246.897 87.216 246.769 86.68 246.769 86.072C246.769 85.464 246.897 84.932 247.153 84.476C247.409 84.012 247.765 83.652 248.221 83.396C248.685 83.132 249.221 83 249.829 83C250.437 83 250.969 83.132 251.425 83.396C251.889 83.652 252.249 84.012 252.505 84.476C252.761 84.932 252.889 85.464 252.889 86.072C252.889 86.68 252.761 87.216 252.505 87.68C252.249 88.136 251.889 88.496 251.425 88.76C250.969 89.016 250.437 89.144 249.829 89.144ZM249.829 87.62C250.261 87.62 250.613 87.476 250.885 87.188C251.157 86.9 251.293 86.528 251.293 86.072C251.293 85.608 251.157 85.232 250.885 84.944C250.613 84.656 250.261 84.512 249.829 84.512C249.397 84.512 249.045 84.656 248.773 84.944C248.509 85.224 248.377 85.596 248.377 86.06C248.377 86.524 248.509 86.9 248.773 87.188C249.045 87.476 249.397 87.62 249.829 87.62ZM254.123 89V82.688C254.123 82.256 254.199 81.892 254.351 81.596C254.511 81.292 254.731 81.064 255.011 80.912C255.291 80.76 255.623 80.684 256.007 80.684C256.199 80.684 256.371 80.696 256.523 80.72C256.675 80.744 256.799 80.768 256.895 80.792V82.232C256.815 82.216 256.731 82.2 256.643 82.184C256.563 82.168 256.467 82.16 256.355 82.16C256.155 82.16 255.995 82.22 255.875 82.34C255.755 82.452 255.695 82.64 255.695 82.904V89H254.123ZM256.763 84.704H253.295V83.264H256.763V84.704ZM261.981 85.892H266.013V87.356H261.981V85.892ZM260.277 89L263.181 80.828H265.017L267.825 89H266.241L263.877 81.908H264.333L261.861 89H260.277ZM268.748 89V82.688C268.748 82.256 268.824 81.892 268.976 81.596C269.136 81.292 269.356 81.064 269.636 80.912C269.916 80.76 270.248 80.684 270.632 80.684C270.824 80.684 270.996 80.696 271.148 80.72C271.3 80.744 271.424 80.768 271.52 80.792V82.232C271.44 82.216 271.356 82.2 271.268 82.184C271.188 82.168 271.092 82.16 270.98 82.16C270.78 82.16 270.62 82.22 270.5 82.34C270.38 82.452 270.32 82.64 270.32 82.904V89H268.748ZM271.388 84.704H267.92V83.264H271.388V84.704ZM274.761 89.108C274.161 89.108 273.685 88.952 273.333 88.64C272.989 88.32 272.817 87.812 272.817 87.116V83.204L272.793 83.132L273.117 81.752H274.389V86.864C274.389 87.12 274.449 87.308 274.569 87.428C274.697 87.54 274.857 87.596 275.049 87.596C275.177 87.596 275.293 87.588 275.397 87.572C275.501 87.548 275.593 87.524 275.673 87.5V88.964C275.545 89.012 275.409 89.048 275.265 89.072C275.121 89.096 274.953 89.108 274.761 89.108ZM271.905 84.584V83.132H275.673V84.584H271.905ZM279.381 89.12C278.797 89.12 278.285 88.996 277.845 88.748C277.405 88.492 277.065 88.136 276.825 87.68C276.585 87.224 276.465 86.688 276.465 86.072C276.465 85.464 276.585 84.932 276.825 84.476C277.065 84.012 277.405 83.652 277.845 83.396C278.285 83.132 278.797 83 279.381 83C279.973 83 280.485 83.132 280.917 83.396C281.357 83.66 281.697 84.024 281.937 84.488C282.177 84.944 282.297 85.468 282.297 86.06C282.297 86.148 282.293 86.236 282.285 86.324C282.285 86.404 282.277 86.472 282.261 86.528H277.749V85.352H281.073L280.833 85.916C280.833 85.42 280.713 85.016 280.473 84.704C280.241 84.392 279.877 84.236 279.381 84.236C278.949 84.236 278.601 84.372 278.337 84.644C278.073 84.908 277.941 85.264 277.941 85.712V86.348C277.941 86.82 278.073 87.192 278.337 87.464C278.609 87.728 278.977 87.86 279.441 87.86C279.849 87.86 280.169 87.776 280.401 87.608C280.633 87.44 280.833 87.232 281.001 86.984L282.093 87.608C281.829 88.096 281.469 88.472 281.013 88.736C280.565 88.992 280.021 89.12 279.381 89.12ZM284.434 83.132L284.83 84.752V89H283.258V83.132H284.434ZM284.506 85.556L284.218 85.424V84.224L284.326 84.092C284.414 83.948 284.546 83.792 284.722 83.624C284.906 83.456 285.114 83.312 285.346 83.192C285.586 83.064 285.834 83 286.09 83C286.218 83 286.334 83.008 286.438 83.024C286.542 83.04 286.622 83.068 286.678 83.108V84.536H286.294C285.774 84.536 285.374 84.62 285.094 84.788C284.814 84.948 284.618 85.204 284.506 85.556ZM288.686 86.048V85.844L291.134 83.132H292.922L290.198 86.18L290.126 85.544L292.97 89H291.122L288.686 86.048ZM287.582 80.828H289.142V89H287.582V80.828ZM295.171 89.168C294.739 89.168 294.359 89.088 294.031 88.928C293.703 88.76 293.451 88.528 293.275 88.232C293.099 87.928 293.011 87.576 293.011 87.176C293.011 86.776 293.103 86.428 293.287 86.132C293.479 85.836 293.739 85.608 294.067 85.448C294.395 85.28 294.767 85.196 295.183 85.196C295.751 85.196 296.211 85.328 296.563 85.592C296.923 85.848 297.167 86.216 297.295 86.696L296.563 86.6V85.184C296.563 84.96 296.483 84.76 296.323 84.584C296.163 84.408 295.903 84.32 295.543 84.32C295.319 84.32 295.071 84.348 294.799 84.404C294.527 84.452 294.243 84.548 293.947 84.692L293.479 83.54C293.823 83.372 294.187 83.24 294.571 83.144C294.963 83.048 295.355 83 295.747 83C296.283 83 296.727 83.096 297.079 83.288C297.431 83.48 297.695 83.744 297.871 84.08C298.047 84.416 298.135 84.8 298.135 85.232V89H296.887L296.551 87.884L297.295 87.668C297.159 88.14 296.907 88.508 296.539 88.772C296.179 89.036 295.723 89.168 295.171 89.168ZM295.603 87.968C295.891 87.968 296.123 87.896 296.299 87.752C296.475 87.608 296.563 87.416 296.563 87.176C296.563 86.928 296.475 86.736 296.299 86.6C296.123 86.456 295.891 86.384 295.603 86.384C295.315 86.384 295.083 86.456 294.907 86.6C294.731 86.736 294.643 86.928 294.643 87.176C294.643 87.416 294.731 87.608 294.907 87.752C295.083 87.896 295.315 87.968 295.603 87.968ZM301.002 89H299.43V83.132H301.002V89ZM299.262 81.308C299.262 81.02 299.346 80.788 299.514 80.612C299.69 80.428 299.922 80.336 300.21 80.336C300.498 80.336 300.726 80.428 300.894 80.612C301.07 80.788 301.158 81.02 301.158 81.308C301.158 81.58 301.07 81.804 300.894 81.98C300.726 82.156 300.498 82.244 300.21 82.244C299.922 82.244 299.69 82.156 299.514 81.98C299.346 81.804 299.262 81.58 299.262 81.308ZM303.547 83.132L303.943 84.752V89H302.371V83.132H303.547ZM303.619 85.556L303.331 85.424V84.224L303.439 84.092C303.527 83.948 303.659 83.792 303.835 83.624C304.019 83.456 304.227 83.312 304.459 83.192C304.699 83.064 304.947 83 305.203 83C305.331 83 305.447 83.008 305.551 83.024C305.655 83.04 305.735 83.068 305.791 83.108V84.536H305.407C304.887 84.536 304.487 84.62 304.207 84.788C303.927 84.948 303.731 85.204 303.619 85.556ZM309.103 89.144C308.495 89.144 307.959 89.016 307.495 88.76C307.039 88.496 306.683 88.136 306.427 87.68C306.171 87.216 306.043 86.68 306.043 86.072C306.043 85.464 306.171 84.932 306.427 84.476C306.683 84.012 307.039 83.652 307.495 83.396C307.959 83.132 308.495 83 309.103 83C309.711 83 310.243 83.132 310.699 83.396C311.163 83.652 311.523 84.012 311.779 84.476C312.035 84.932 312.163 85.464 312.163 86.072C312.163 86.68 312.035 87.216 311.779 87.68C311.523 88.136 311.163 88.496 310.699 88.76C310.243 89.016 309.711 89.144 309.103 89.144ZM309.103 87.62C309.535 87.62 309.887 87.476 310.159 87.188C310.431 86.9 310.567 86.528 310.567 86.072C310.567 85.608 310.431 85.232 310.159 84.944C309.887 84.656 309.535 84.512 309.103 84.512C308.671 84.512 308.319 84.656 308.047 84.944C307.783 85.224 307.651 85.596 307.651 86.06C307.651 86.524 307.783 86.9 308.047 87.188C308.319 87.476 308.671 87.62 309.103 87.62ZM315.146 89.156C314.698 89.156 314.27 89.064 313.862 88.88C313.462 88.696 313.106 88.376 312.794 87.92L313.754 87.08C314.01 87.368 314.254 87.576 314.486 87.704C314.726 87.824 314.994 87.884 315.29 87.884C315.49 87.884 315.65 87.836 315.77 87.74C315.89 87.644 315.95 87.524 315.95 87.38C315.95 87.284 315.918 87.2 315.854 87.128C315.79 87.048 315.67 86.972 315.494 86.9C315.326 86.828 315.078 86.752 314.75 86.672C314.142 86.512 313.686 86.296 313.382 86.024C313.078 85.744 312.926 85.352 312.926 84.848C312.926 84.504 313.014 84.192 313.19 83.912C313.366 83.624 313.618 83.396 313.946 83.228C314.282 83.06 314.678 82.976 315.134 82.976C315.67 82.976 316.126 83.08 316.502 83.288C316.886 83.496 317.194 83.748 317.426 84.044L316.406 84.896C316.254 84.736 316.058 84.596 315.818 84.476C315.578 84.356 315.298 84.296 314.978 84.296C314.802 84.296 314.646 84.336 314.51 84.416C314.374 84.496 314.306 84.612 314.306 84.764C314.306 84.908 314.378 85.028 314.522 85.124C314.674 85.22 314.962 85.32 315.386 85.424C316.106 85.592 316.622 85.82 316.934 86.108C317.246 86.396 317.402 86.78 317.402 87.26C317.402 87.644 317.302 87.98 317.102 88.268C316.902 88.548 316.63 88.768 316.286 88.928C315.95 89.08 315.57 89.156 315.146 89.156Z" fill="#FFEEDA"/>
<path d="M11.184 65L0.24 32.312H8.256L17.184 59.672H13.824L22.848 32.312H30.624L19.68 65H11.184ZM41.0666 65H33.2426V41.48H41.0666V65ZM32.6666 34.04C32.6666 32.664 33.0826 31.576 33.9146 30.776C34.7466 29.944 35.8346 29.528 37.1786 29.528C38.5546 29.528 39.6426 29.944 40.4426 30.776C41.2426 31.576 41.6426 32.664 41.6426 34.04C41.6426 35.352 41.2426 36.424 40.4426 37.256C39.6426 38.056 38.5546 38.456 37.1786 38.456C35.8346 38.456 34.7466 38.056 33.9146 37.256C33.0826 36.424 32.6666 35.352 32.6666 34.04ZM54.6863 65.768C52.7343 65.768 50.9103 65.416 49.2143 64.712C47.5503 63.976 45.9823 62.712 44.5103 60.92L48.6383 56.648C49.7583 57.736 50.8463 58.52 51.9023 59C52.9903 59.48 54.1103 59.72 55.2623 59.72C55.8383 59.72 56.3183 59.608 56.7023 59.384C57.0863 59.128 57.2783 58.824 57.2783 58.472C57.2783 58.152 57.1503 57.88 56.8943 57.656C56.6703 57.432 56.1903 57.208 55.4543 56.984C54.7503 56.76 53.7103 56.472 52.3343 56.12C49.8063 55.48 47.9503 54.568 46.7663 53.384C45.5822 52.168 44.9902 50.584 44.9902 48.632C44.9902 47.192 45.3743 45.88 46.1423 44.696C46.9103 43.48 48.0143 42.52 49.4543 41.816C50.8943 41.08 52.5903 40.712 54.5423 40.712C56.8783 40.712 58.8623 41.144 60.4943 42.008C62.1263 42.872 63.4863 43.912 64.5743 45.128L60.0143 49.208C59.2463 48.536 58.3343 47.992 57.2783 47.576C56.2543 47.16 55.1343 46.952 53.9183 46.952C53.2783 46.952 52.7503 47.064 52.3343 47.288C51.9183 47.48 51.7103 47.768 51.7103 48.152C51.7103 48.504 51.9823 48.824 52.5263 49.112C53.1023 49.368 54.2703 49.704 56.0303 50.12C58.9423 50.824 61.0543 51.8 62.3663 53.048C63.6783 54.264 64.3343 55.912 64.3343 57.992C64.3343 59.528 63.9183 60.888 63.0863 62.072C62.2863 63.224 61.1503 64.136 59.6783 64.808C58.2383 65.448 56.5743 65.768 54.6863 65.768ZM75.666 65.624C73.938 65.624 72.514 65.368 71.394 64.856C70.306 64.344 69.458 63.656 68.85 62.792C68.242 61.896 67.81 60.872 67.554 59.72C67.33 58.536 67.218 57.272 67.218 55.928V41.48H74.994V55.064C74.994 56.248 75.218 57.048 75.666 57.464C76.146 57.848 76.754 58.04 77.49 58.04C78.066 58.04 78.626 57.944 79.17 57.752C79.746 57.56 80.306 57.272 80.85 56.888C81.426 56.504 81.986 56.008 82.53 55.4L84.162 59.24H81.762V41.48H89.586V65H83.826L82.242 60.152L85.074 60.488C84.306 61.352 83.426 62.184 82.434 62.984C81.442 63.752 80.37 64.392 79.218 64.904C78.098 65.384 76.914 65.624 75.666 65.624ZM101.189 65.624C99.5253 65.624 98.0533 65.304 96.7733 64.664C95.4933 63.992 94.4853 63.064 93.7493 61.88C93.0453 60.664 92.6933 59.288 92.6933 57.752C92.6933 56.088 93.0773 54.68 93.8453 53.528C94.6453 52.344 95.6853 51.448 96.9653 50.84C98.2773 50.2 99.7173 49.88 101.285 49.88C103.621 49.88 105.525 50.424 106.997 51.512C108.469 52.568 109.429 54.136 109.877 56.216L106.709 55.496V50.168C106.709 49.368 106.421 48.68 105.845 48.104C105.269 47.528 104.373 47.24 103.157 47.24C102.293 47.24 101.301 47.352 100.181 47.576C99.0613 47.8 97.8773 48.216 96.6293 48.824L94.4213 43.304C95.8293 42.6 97.3813 42.024 99.0773 41.576C100.773 41.096 102.533 40.856 104.357 40.856C106.565 40.856 108.421 41.256 109.925 42.056C111.461 42.856 112.613 43.992 113.381 45.464C114.149 46.904 114.533 48.616 114.533 50.6V65H108.005L106.517 60.344L109.877 59.288C109.397 61.24 108.437 62.792 106.997 63.944C105.589 65.064 103.653 65.624 101.189 65.624ZM103.829 60.344C104.725 60.344 105.445 60.104 105.989 59.624C106.533 59.144 106.805 58.52 106.805 57.752C106.805 57.016 106.533 56.408 105.989 55.928C105.445 55.448 104.725 55.208 103.829 55.208C102.869 55.208 102.117 55.448 101.573 55.928C101.061 56.408 100.805 57.016 100.805 57.752C100.805 58.52 101.061 59.144 101.573 59.624C102.117 60.104 102.869 60.344 103.829 60.344ZM125.898 65.24C124.618 65.24 123.418 65 122.298 64.52C121.178 64.008 120.266 63.192 119.562 62.072C118.89 60.952 118.554 59.464 118.554 57.608V32.312H126.282V54.872C126.282 56.088 126.474 56.872 126.858 57.224C127.274 57.544 127.834 57.704 128.538 57.704V65.048C128.25 65.112 127.834 65.16 127.29 65.192C126.778 65.224 126.314 65.24 125.898 65.24ZM144.526 65V32.312H156.19C159.646 32.312 162.606 32.968 165.07 34.28C167.534 35.56 169.422 37.416 170.734 39.848C172.046 42.28 172.702 45.208 172.702 48.632C172.702 52.088 172.03 55.032 170.686 57.464C169.374 59.896 167.486 61.768 165.022 63.08C162.558 64.36 159.598 65 156.142 65H144.526ZM152.302 60.68L149.086 57.464H155.614C157.47 57.464 159.07 57.176 160.414 56.6C161.79 55.992 162.846 55.032 163.582 53.72C164.35 52.408 164.734 50.712 164.734 48.632C164.734 46.584 164.366 44.92 163.63 43.64C162.894 42.328 161.838 41.368 160.462 40.76C159.118 40.152 157.518 39.848 155.662 39.848H148.75L152.302 37.688V60.68ZM183.707 65H175.883V41.48H183.707V65ZM175.307 34.04C175.307 32.664 175.723 31.576 176.555 30.776C177.387 29.944 178.475 29.528 179.819 29.528C181.195 29.528 182.283 29.944 183.083 30.776C183.883 31.576 184.283 32.664 184.283 34.04C184.283 35.352 183.883 36.424 183.083 37.256C182.283 38.056 181.195 38.456 179.819 38.456C178.475 38.456 177.387 38.056 176.555 37.256C175.723 36.424 175.307 35.352 175.307 34.04ZM194.111 41.48L196.127 48.056V65H188.351V41.48H194.111ZM194.303 52.616L193.055 52.088V45.944L193.535 45.416C193.919 44.84 194.479 44.2 195.215 43.496C195.983 42.792 196.847 42.184 197.807 41.672C198.799 41.128 199.823 40.856 200.879 40.856C201.391 40.856 201.855 40.904 202.271 41C202.687 41.064 203.007 41.176 203.231 41.336V48.44H201.647C199.663 48.44 198.047 48.776 196.799 49.448C195.583 50.088 194.751 51.144 194.303 52.616ZM216.065 65.432C213.697 65.432 211.617 64.936 209.825 63.944C208.065 62.952 206.689 61.544 205.697 59.72C204.705 57.896 204.209 55.736 204.209 53.24C204.209 50.84 204.705 48.712 205.697 46.856C206.689 45 208.065 43.544 209.825 42.488C211.617 41.4 213.697 40.856 216.065 40.856C218.529 40.856 220.641 41.416 222.401 42.536C224.161 43.656 225.521 45.144 226.481 47C227.441 48.824 227.921 50.872 227.921 53.144C227.921 53.656 227.905 54.12 227.873 54.536C227.841 54.952 227.793 55.288 227.729 55.544H210.017V50.264H221.729L221.057 51.992C221.057 50.488 220.657 49.256 219.857 48.296C219.057 47.336 217.825 46.856 216.161 46.856C214.625 46.856 213.409 47.304 212.513 48.2C211.617 49.096 211.169 50.296 211.169 51.8V54.44C211.169 56.072 211.649 57.336 212.609 58.232C213.569 59.096 214.913 59.528 216.641 59.528C218.017 59.528 219.105 59.272 219.905 58.76C220.737 58.216 221.425 57.528 221.969 56.696L227.153 59.48C226.161 61.304 224.705 62.76 222.785 63.848C220.865 64.904 218.625 65.432 216.065 65.432ZM241.852 65.624C239.452 65.624 237.34 65.096 235.516 64.04C233.724 62.984 232.316 61.512 231.292 59.624C230.268 57.736 229.756 55.592 229.756 53.192C229.756 50.824 230.268 48.712 231.292 46.856C232.316 45 233.724 43.544 235.516 42.488C237.34 41.4 239.452 40.856 241.852 40.856C244.572 40.856 246.908 41.512 248.86 42.824C250.812 44.136 252.204 45.896 253.036 48.104L246.076 51.272C245.66 50.376 245.132 49.688 244.492 49.208C243.852 48.696 243.004 48.44 241.948 48.44C240.7 48.44 239.644 48.872 238.78 49.736C237.948 50.6 237.532 51.752 237.532 53.192C237.532 54.696 237.948 55.88 238.78 56.744C239.644 57.576 240.7 57.992 241.948 57.992C243.004 57.992 243.852 57.752 244.492 57.272C245.132 56.792 245.66 56.12 246.076 55.256L253.036 58.328C252.204 60.536 250.796 62.312 248.812 63.656C246.86 64.968 244.54 65.624 241.852 65.624ZM266.799 65.384C264.015 65.384 261.823 64.728 260.223 63.416C258.655 62.104 257.871 59.928 257.871 56.888V41.768L257.775 41.48L259.407 35.768H265.647V54.776C265.647 55.928 265.903 56.744 266.415 57.224C266.959 57.704 267.663 57.944 268.527 57.944C269.007 57.944 269.455 57.896 269.871 57.8C270.319 57.704 270.687 57.608 270.975 57.512V64.808C270.367 65 269.727 65.144 269.055 65.24C268.383 65.336 267.631 65.384 266.799 65.384ZM254.223 48.68V41.48H270.975V48.68H254.223ZM286.158 65.624C283.694 65.624 281.534 65.096 279.678 64.04C277.822 62.984 276.366 61.528 275.31 59.672C274.254 57.816 273.726 55.688 273.726 53.288C273.726 50.856 274.254 48.712 275.31 46.856C276.366 45 277.822 43.544 279.678 42.488C281.534 41.4 283.694 40.856 286.158 40.856C288.654 40.856 290.83 41.4 292.686 42.488C294.574 43.544 296.03 45 297.054 46.856C298.11 48.712 298.638 50.856 298.638 53.288C298.638 55.688 298.11 57.816 297.054 59.672C296.03 61.528 294.574 62.984 292.686 64.04C290.83 65.096 288.654 65.624 286.158 65.624ZM286.158 58.04C287.502 58.04 288.606 57.608 289.47 56.744C290.334 55.848 290.766 54.68 290.766 53.24C290.766 51.8 290.334 50.648 289.47 49.784C288.606 48.888 287.502 48.44 286.158 48.44C284.846 48.44 283.758 48.888 282.894 49.784C282.03 50.648 281.598 51.8 281.598 53.24C281.598 54.648 282.03 55.8 282.894 56.696C283.758 57.592 284.846 58.04 286.158 58.04ZM307.455 41.48L309.471 48.056V65H301.695V41.48H307.455ZM307.647 52.616L306.399 52.088V45.944L306.879 45.416C307.263 44.84 307.823 44.2 308.559 43.496C309.327 42.792 310.191 42.184 311.151 41.672C312.143 41.128 313.167 40.856 314.223 40.856C314.735 40.856 315.199 40.904 315.615 41C316.031 41.064 316.351 41.176 316.575 41.336V48.44H314.991C313.007 48.44 311.391 48.776 310.143 49.448C308.927 50.088 308.095 51.144 307.647 52.616Z" fill="url(#paint0_linear_810_279)"/>
<defs>
<linearGradient id="paint0_linear_810_279" x1="2.33117e-08" y1="32" x2="124.334" y2="62.2565" gradientUnits="userSpaceOnUse">
<stop stop-color="#FFF600"/>
<stop offset="1" stop-color="#FFA100"/>
</linearGradient>
</defs>
</svg>
