<svg width="477" height="106" viewBox="0 0 477 106" fill="none" xmlns="http://www.w3.org/2000/svg">
<path d="M9.7 19V5.38H12.32V19H9.7ZM1.36 19V5.38H3.98V19H1.36ZM3.06 13.58V11.08H10.56V13.58H3.06ZM19.0914 19.2C18.1181 19.2 17.2647 18.9933 16.5314 18.58C15.7981 18.1533 15.2314 17.56 14.8314 16.8C14.4314 16.04 14.2314 15.1467 14.2314 14.12C14.2314 13.1067 14.4314 12.22 14.8314 11.46C15.2314 10.6867 15.7981 10.0867 16.5314 9.66C17.2647 9.22 18.1181 9 19.0914 9C20.0781 9 20.9314 9.22 21.6514 9.66C22.3847 10.1 22.9514 10.7067 23.3514 11.48C23.7514 12.24 23.9514 13.1133 23.9514 14.1C23.9514 14.2467 23.9447 14.3933 23.9314 14.54C23.9314 14.6733 23.9181 14.7867 23.8914 14.88H16.3714V12.92H21.9114L21.5114 13.86C21.5114 13.0333 21.3114 12.36 20.9114 11.84C20.5247 11.32 19.9181 11.06 19.0914 11.06C18.3714 11.06 17.7914 11.2867 17.3514 11.74C16.9114 12.18 16.6914 12.7733 16.6914 13.52V14.58C16.6914 15.3667 16.9114 15.9867 17.3514 16.44C17.8047 16.88 18.4181 17.1 19.1914 17.1C19.8714 17.1 20.4047 16.96 20.7914 16.68C21.1781 16.4 21.5114 16.0533 21.7914 15.64L23.6114 16.68C23.1714 17.4933 22.5714 18.12 21.8114 18.56C21.0647 18.9867 20.1581 19.2 19.0914 19.2ZM27.915 19.1C27.475 19.1 27.0683 19.0067 26.695 18.82C26.335 18.6333 26.0417 18.3467 25.815 17.96C25.6017 17.56 25.495 17.0467 25.495 16.42V5.38H28.095V15.5C28.095 15.9667 28.1883 16.2733 28.375 16.42C28.5617 16.5533 28.7883 16.62 29.055 16.62V18.96C28.9083 19.0133 28.7283 19.0467 28.515 19.06C28.315 19.0867 28.115 19.1 27.915 19.1ZM33.1689 19.1C32.7289 19.1 32.3222 19.0067 31.9489 18.82C31.5889 18.6333 31.2956 18.3467 31.0689 17.96C30.8556 17.56 30.7489 17.0467 30.7489 16.42V5.38H33.3489V15.5C33.3489 15.9667 33.4422 16.2733 33.6289 16.42C33.8156 16.5533 34.0422 16.62 34.3089 16.62V18.96C34.1622 19.0133 33.9822 19.0467 33.7689 19.06C33.5689 19.0867 33.3689 19.1 33.1689 19.1ZM40.5228 19.24C39.5095 19.24 38.6161 19.0267 37.8428 18.6C37.0828 18.16 36.4895 17.56 36.0628 16.8C35.6361 16.0267 35.4228 15.1333 35.4228 14.12C35.4228 13.1067 35.6361 12.22 36.0628 11.46C36.4895 10.6867 37.0828 10.0867 37.8428 9.66C38.6161 9.22 39.5095 9 40.5228 9C41.5361 9 42.4228 9.22 43.1828 9.66C43.9561 10.0867 44.5561 10.6867 44.9828 11.46C45.4095 12.22 45.6228 13.1067 45.6228 14.12C45.6228 15.1333 45.4095 16.0267 44.9828 16.8C44.5561 17.56 43.9561 18.16 43.1828 18.6C42.4228 19.0267 41.5361 19.24 40.5228 19.24ZM40.5228 16.7C41.2428 16.7 41.8295 16.46 42.2828 15.98C42.7361 15.5 42.9628 14.88 42.9628 14.12C42.9628 13.3467 42.7361 12.72 42.2828 12.24C41.8295 11.76 41.2428 11.52 40.5228 11.52C39.8028 11.52 39.2161 11.76 38.7628 12.24C38.3228 12.7067 38.1028 13.3267 38.1028 14.1C38.1028 14.8733 38.3228 15.5 38.7628 15.98C39.2161 16.46 39.8028 16.7 40.5228 16.7ZM50.6013 17.6C50.6013 18.36 50.3613 19.1267 49.8813 19.9C49.4146 20.6867 48.6746 21.44 47.6613 22.16L46.5413 21.12C47.0079 20.6933 47.3546 20.2467 47.5813 19.78C47.8079 19.3267 47.9213 18.9267 47.9213 18.58C47.9213 18.0867 47.7946 17.6933 47.5413 17.4C47.2879 17.1067 46.9813 16.8667 46.6213 16.68C46.7546 16.32 46.9213 16.04 47.1213 15.84C47.3346 15.64 47.5679 15.5 47.8213 15.42C48.0746 15.3267 48.3413 15.28 48.6213 15.28C48.9546 15.28 49.2746 15.3733 49.5813 15.56C49.8879 15.7467 50.1346 16.0133 50.3213 16.36C50.5079 16.7067 50.6013 17.12 50.6013 17.6ZM60.6011 19H57.9811V5.38H60.6011V19ZM63.1931 11.48L62.2531 10.48C62.6931 10.0267 63.0131 9.58 63.2131 9.14C63.4265 8.7 63.5331 8.3 63.5331 7.94C63.5331 7.52667 63.4265 7.2 63.2131 6.96C62.9998 6.72 62.7065 6.48667 62.3331 6.26C62.4531 5.88667 62.6798 5.59333 63.0131 5.38C63.3598 5.15333 63.7265 5.04 64.1131 5.04C64.4465 5.04 64.7598 5.13333 65.0531 5.32C65.3598 5.49333 65.6065 5.74667 65.7931 6.08C65.9798 6.4 66.0731 6.78667 66.0731 7.24C66.0731 7.92 65.8398 8.64 65.3731 9.4C64.9198 10.1467 64.1931 10.84 63.1931 11.48ZM66.8231 19V9.22H68.7831L69.3231 11.1L68.4831 11.06C68.8298 10.66 69.2098 10.3067 69.6231 10C70.0365 9.69333 70.4831 9.45333 70.9631 9.28C71.4565 9.09333 71.9698 9 72.5031 9C73.1698 9 73.7031 9.11333 74.1031 9.34C74.5031 9.56667 74.7965 9.87333 74.9831 10.26C75.1831 10.6467 75.3165 11.0867 75.3831 11.58C75.4631 12.06 75.5031 12.56 75.5031 13.08V19H72.8831V13.06C72.8831 12.46 72.7631 12.06 72.5231 11.86C72.2831 11.66 71.9965 11.56 71.6631 11.56C71.1831 11.56 70.7165 11.7067 70.2631 12C69.8098 12.28 69.4298 12.64 69.1231 13.08L68.7831 11.72H69.4431V19H66.8231ZM78.9231 19V13.06C78.9231 12.46 78.8031 12.06 78.5631 11.86C78.3365 11.66 78.0565 11.56 77.7231 11.56C77.2431 11.56 76.7765 11.7067 76.3231 12C75.8698 12.28 75.4898 12.64 75.1831 13.08L74.5231 11.06C74.8698 10.66 75.2498 10.3067 75.6631 10C76.0898 9.69333 76.5431 9.45333 77.0231 9.28C77.5165 9.09333 78.0298 9 78.5631 9C79.2165 9 79.7431 9.11333 80.1431 9.34C80.5431 9.56667 80.8431 9.87333 81.0431 10.26C81.2431 10.6467 81.3765 11.0867 81.4431 11.58C81.5231 12.06 81.5631 12.56 81.5631 13.08V19H78.9231ZM90.8739 13.82H97.5939V16.26H90.8739V13.82ZM88.0339 19L92.8739 5.38H95.9339L100.614 19H97.9739L94.0339 7.18H94.7939L90.6739 19H88.0339ZM105.572 19.18C104.572 19.18 103.779 18.92 103.192 18.4C102.619 17.8667 102.332 17.02 102.332 15.86V9.34L102.292 9.22L102.832 6.92H104.952V15.44C104.952 15.8667 105.052 16.18 105.252 16.38C105.465 16.5667 105.732 16.66 106.052 16.66C106.265 16.66 106.459 16.6467 106.632 16.62C106.805 16.58 106.959 16.54 107.092 16.5V18.94C106.879 19.02 106.652 19.08 106.412 19.12C106.172 19.16 105.892 19.18 105.572 19.18ZM100.812 11.64V9.22H107.092V11.64H100.812ZM111.567 19.1C111.127 19.1 110.721 19.0067 110.347 18.82C109.987 18.6333 109.694 18.3467 109.467 17.96C109.254 17.56 109.147 17.0467 109.147 16.42V5.38H111.747V15.5C111.747 15.9667 111.841 16.2733 112.027 16.42C112.214 16.5533 112.441 16.62 112.707 16.62V18.96C112.561 19.0133 112.381 19.0467 112.167 19.06C111.967 19.0867 111.767 19.1 111.567 19.1ZM117.284 19.28C116.564 19.28 115.931 19.1467 115.384 18.88C114.837 18.6 114.417 18.2133 114.124 17.72C113.831 17.2133 113.684 16.6267 113.684 15.96C113.684 15.2933 113.837 14.7133 114.144 14.22C114.464 13.7267 114.897 13.3467 115.444 13.08C115.991 12.8 116.611 12.66 117.304 12.66C118.251 12.66 119.017 12.88 119.604 13.32C120.204 13.7467 120.611 14.36 120.824 15.16L119.604 15V12.64C119.604 12.2667 119.471 11.9333 119.204 11.64C118.937 11.3467 118.504 11.2 117.904 11.2C117.531 11.2 117.117 11.2467 116.664 11.34C116.211 11.42 115.737 11.58 115.244 11.82L114.464 9.9C115.037 9.62 115.644 9.4 116.284 9.24C116.937 9.08 117.591 9 118.244 9C119.137 9 119.877 9.16 120.464 9.48C121.051 9.8 121.491 10.24 121.784 10.8C122.077 11.36 122.224 12 122.224 12.72V19H120.144L119.584 17.14L120.824 16.78C120.597 17.5667 120.177 18.18 119.564 18.62C118.964 19.06 118.204 19.28 117.284 19.28ZM118.004 17.28C118.484 17.28 118.871 17.16 119.164 16.92C119.457 16.68 119.604 16.36 119.604 15.96C119.604 15.5467 119.457 15.2267 119.164 15C118.871 14.76 118.484 14.64 118.004 14.64C117.524 14.64 117.137 14.76 116.844 15C116.551 15.2267 116.404 15.5467 116.404 15.96C116.404 16.36 116.551 16.68 116.844 16.92C117.137 17.16 117.524 17.28 118.004 17.28ZM127.704 19.26C126.957 19.26 126.244 19.1067 125.564 18.8C124.897 18.4933 124.304 17.96 123.784 17.2L125.384 15.8C125.811 16.28 126.217 16.6267 126.604 16.84C127.004 17.04 127.451 17.14 127.944 17.14C128.277 17.14 128.544 17.06 128.744 16.9C128.944 16.74 129.044 16.54 129.044 16.3C129.044 16.14 128.991 16 128.884 15.88C128.777 15.7467 128.577 15.62 128.284 15.5C128.004 15.38 127.591 15.2533 127.044 15.12C126.031 14.8533 125.271 14.4933 124.764 14.04C124.257 13.5733 124.004 12.92 124.004 12.08C124.004 11.5067 124.151 10.9867 124.444 10.52C124.737 10.04 125.157 9.66 125.704 9.38C126.264 9.1 126.924 8.96 127.684 8.96C128.577 8.96 129.337 9.13333 129.964 9.48C130.604 9.82667 131.117 10.2467 131.504 10.74L129.804 12.16C129.551 11.8933 129.224 11.66 128.824 11.46C128.424 11.26 127.957 11.16 127.424 11.16C127.131 11.16 126.871 11.2267 126.644 11.36C126.417 11.4933 126.304 11.6867 126.304 11.94C126.304 12.18 126.424 12.38 126.664 12.54C126.917 12.7 127.397 12.8667 128.104 13.04C129.304 13.32 130.164 13.7 130.684 14.18C131.204 14.66 131.464 15.3 131.464 16.1C131.464 16.74 131.297 17.3 130.964 17.78C130.631 18.2467 130.177 18.6133 129.604 18.88C129.044 19.1333 128.411 19.26 127.704 19.26ZM140.386 13.82H147.106V16.26H140.386V13.82ZM137.546 19L142.386 5.38H145.446L150.126 19H147.486L143.546 7.18H144.306L140.186 19H137.546ZM154.638 19.26C153.891 19.26 153.178 19.1067 152.498 18.8C151.831 18.4933 151.238 17.96 150.718 17.2L152.318 15.8C152.744 16.28 153.151 16.6267 153.538 16.84C153.938 17.04 154.384 17.14 154.878 17.14C155.211 17.14 155.478 17.06 155.678 16.9C155.878 16.74 155.978 16.54 155.978 16.3C155.978 16.14 155.924 16 155.818 15.88C155.711 15.7467 155.511 15.62 155.218 15.5C154.938 15.38 154.524 15.2533 153.978 15.12C152.964 14.8533 152.204 14.4933 151.698 14.04C151.191 13.5733 150.938 12.92 150.938 12.08C150.938 11.5067 151.084 10.9867 151.378 10.52C151.671 10.04 152.091 9.66 152.638 9.38C153.198 9.1 153.858 8.96 154.618 8.96C155.511 8.96 156.271 9.13333 156.898 9.48C157.538 9.82667 158.051 10.2467 158.438 10.74L156.738 12.16C156.484 11.8933 156.158 11.66 155.758 11.46C155.358 11.26 154.891 11.16 154.358 11.16C154.064 11.16 153.804 11.2267 153.578 11.36C153.351 11.4933 153.238 11.6867 153.238 11.94C153.238 12.18 153.358 12.38 153.598 12.54C153.851 12.7 154.331 12.8667 155.038 13.04C156.238 13.32 157.098 13.7 157.618 14.18C158.138 14.66 158.398 15.3 158.398 16.1C158.398 16.74 158.231 17.3 157.898 17.78C157.564 18.2467 157.111 18.6133 156.538 18.88C155.978 19.1333 155.344 19.26 154.638 19.26ZM164.345 19.2C163.372 19.2 162.519 18.9933 161.785 18.58C161.052 18.1533 160.485 17.56 160.085 16.8C159.685 16.04 159.485 15.1467 159.485 14.12C159.485 13.1067 159.685 12.22 160.085 11.46C160.485 10.6867 161.052 10.0867 161.785 9.66C162.519 9.22 163.372 9 164.345 9C165.332 9 166.185 9.22 166.905 9.66C167.639 10.1 168.205 10.7067 168.605 11.48C169.005 12.24 169.205 13.1133 169.205 14.1C169.205 14.2467 169.199 14.3933 169.185 14.54C169.185 14.6733 169.172 14.7867 169.145 14.88H161.625V12.92H167.165L166.765 13.86C166.765 13.0333 166.565 12.36 166.165 11.84C165.779 11.32 165.172 11.06 164.345 11.06C163.625 11.06 163.045 11.2867 162.605 11.74C162.165 12.18 161.945 12.7733 161.945 13.52V14.58C161.945 15.3667 162.165 15.9867 162.605 16.44C163.059 16.88 163.672 17.1 164.445 17.1C165.125 17.1 165.659 16.96 166.045 16.68C166.432 16.4 166.765 16.0533 167.045 15.64L168.865 16.68C168.425 17.4933 167.825 18.12 167.065 18.56C166.319 18.9867 165.412 19.2 164.345 19.2ZM176.688 9C177.354 9 177.888 9.11333 178.288 9.34C178.701 9.56667 179.008 9.87333 179.208 10.26C179.421 10.6467 179.561 11.0867 179.628 11.58C179.694 12.06 179.728 12.56 179.728 13.08V19H177.108V13.06C177.108 12.46 176.988 12.06 176.748 11.86C176.521 11.66 176.228 11.56 175.868 11.56C175.534 11.56 175.194 11.6267 174.848 11.76C174.501 11.88 174.174 12.06 173.868 12.3C173.574 12.5267 173.321 12.7867 173.108 13.08L172.768 11.72H173.428V19H170.808V9.22H172.768L173.308 11.1L172.468 11.06C172.814 10.66 173.208 10.3067 173.648 10C174.101 9.69333 174.581 9.45333 175.088 9.28C175.594 9.09333 176.128 9 176.688 9ZM181.882 22.9C181.536 22.9 181.256 22.8667 181.042 22.8C180.829 22.7467 180.689 22.7067 180.622 22.68V20.48C180.689 20.4933 180.769 20.5067 180.862 20.52C180.969 20.5467 181.096 20.56 181.242 20.56C181.496 20.56 181.689 20.4667 181.822 20.28C181.956 20.1067 182.022 19.8667 182.022 19.56V9.22H184.642V19.9C184.642 20.42 184.549 20.9067 184.362 21.36C184.176 21.8267 183.876 22.2 183.462 22.48C183.062 22.76 182.536 22.9 181.882 22.9ZM181.762 6.18C181.762 5.7 181.902 5.31333 182.182 5.02C182.476 4.71333 182.862 4.56 183.342 4.56C183.822 4.56 184.202 4.71333 184.482 5.02C184.776 5.31333 184.922 5.7 184.922 6.18C184.922 6.63333 184.776 7.00667 184.482 7.3C184.202 7.59333 183.822 7.74 183.342 7.74C182.862 7.74 182.476 7.59333 182.182 7.3C181.902 7.00667 181.762 6.63333 181.762 6.18ZM191.421 19.24C190.408 19.24 189.515 19.0267 188.741 18.6C187.981 18.16 187.388 17.56 186.961 16.8C186.535 16.0267 186.321 15.1333 186.321 14.12C186.321 13.1067 186.535 12.22 186.961 11.46C187.388 10.6867 187.981 10.0867 188.741 9.66C189.515 9.22 190.408 9 191.421 9C192.435 9 193.321 9.22 194.081 9.66C194.855 10.0867 195.455 10.6867 195.881 11.46C196.308 12.22 196.521 13.1067 196.521 14.12C196.521 15.1333 196.308 16.0267 195.881 16.8C195.455 17.56 194.855 18.16 194.081 18.6C193.321 19.0267 192.435 19.24 191.421 19.24ZM191.421 16.7C192.141 16.7 192.728 16.46 193.181 15.98C193.635 15.5 193.861 14.88 193.861 14.12C193.861 13.3467 193.635 12.72 193.181 12.24C192.728 11.76 192.141 11.52 191.421 11.52C190.701 11.52 190.115 11.76 189.661 12.24C189.221 12.7067 189.001 13.3267 189.001 14.1C189.001 14.8733 189.221 15.5 189.661 15.98C190.115 16.46 190.701 16.7 191.421 16.7Z" fill="#FFEEDA"/>
<path d="M319.883 98.115H324.923V99.945H319.883V98.115ZM317.753 102L321.383 91.785H323.678L327.188 102H325.208L322.253 93.135H322.823L319.733 102H317.753ZM332.651 94.5C333.151 94.5 333.551 94.585 333.851 94.755C334.161 94.925 334.391 95.155 334.541 95.445C334.701 95.735 334.806 96.065 334.856 96.435C334.906 96.795 334.931 97.17 334.931 97.56V102H332.966V97.545C332.966 97.095 332.876 96.795 332.696 96.645C332.526 96.495 332.306 96.42 332.036 96.42C331.786 96.42 331.531 96.47 331.271 96.57C331.011 96.66 330.766 96.795 330.536 96.975C330.316 97.145 330.126 97.34 329.966 97.56L329.711 96.54H330.206V102H328.241V94.665H329.711L330.116 96.075L329.486 96.045C329.746 95.745 330.041 95.48 330.371 95.25C330.711 95.02 331.071 94.84 331.451 94.71C331.831 94.57 332.231 94.5 332.651 94.5ZM339.399 102.18C338.729 102.18 338.139 102.015 337.629 101.685C337.119 101.355 336.724 100.9 336.444 100.32C336.164 99.74 336.024 99.075 336.024 98.325C336.024 97.565 336.164 96.9 336.444 96.33C336.734 95.75 337.134 95.3 337.644 94.98C338.154 94.66 338.739 94.5 339.399 94.5C340.049 94.5 340.614 94.65 341.094 94.95C341.574 95.25 341.949 95.685 342.219 96.255C342.489 96.825 342.624 97.515 342.624 98.325C342.624 99.105 342.489 99.785 342.219 100.365C341.949 100.935 341.569 101.38 341.079 101.7C340.599 102.02 340.039 102.18 339.399 102.18ZM339.744 100.365C340.254 100.365 340.669 100.18 340.989 99.81C341.309 99.43 341.469 98.94 341.469 98.34C341.469 97.73 341.309 97.24 340.989 96.87C340.669 96.49 340.254 96.3 339.744 96.3C339.244 96.3 338.829 96.49 338.499 96.87C338.179 97.24 338.019 97.725 338.019 98.325C338.019 98.925 338.179 99.415 338.499 99.795C338.829 100.175 339.244 100.365 339.744 100.365ZM341.874 102L341.379 100.26H341.514V96.585H341.379V91.785H343.344V102H341.874ZM353.62 102.18C352.57 102.18 351.655 101.955 350.875 101.505C350.105 101.045 349.505 100.42 349.075 99.63C348.655 98.83 348.445 97.92 348.445 96.9C348.445 96.13 348.57 95.425 348.82 94.785C349.08 94.135 349.44 93.575 349.9 93.105C350.37 92.635 350.92 92.27 351.55 92.01C352.18 91.75 352.87 91.62 353.62 91.62C354.81 91.62 355.785 91.875 356.545 92.385C357.305 92.895 357.9 93.605 358.33 94.515L356.5 95.175C356.13 94.575 355.71 94.15 355.24 93.9C354.77 93.65 354.23 93.525 353.62 93.525C353.01 93.525 352.465 93.67 351.985 93.96C351.515 94.24 351.14 94.635 350.86 95.145C350.59 95.645 350.455 96.23 350.455 96.9C350.455 97.56 350.59 98.145 350.86 98.655C351.14 99.165 351.515 99.565 351.985 99.855C352.465 100.135 353.01 100.275 353.62 100.275C354.23 100.275 354.77 100.15 355.24 99.9C355.71 99.65 356.13 99.225 356.5 98.625L358.33 99.285C357.9 100.195 357.305 100.905 356.545 101.415C355.785 101.925 354.81 102.18 353.62 102.18ZM360.988 97.815V95.94H365.158V97.815H360.988ZM360.943 93.645L361.573 92.895V100.815L360.868 100.125H366.013V102H359.608V91.785H366.013V93.645H360.943ZM367.063 96.9C367.063 96.13 367.193 95.425 367.453 94.785C367.713 94.135 368.078 93.575 368.548 93.105C369.018 92.635 369.573 92.27 370.213 92.01C370.863 91.75 371.573 91.62 372.343 91.62C373.103 91.62 373.803 91.75 374.443 92.01C375.083 92.27 375.638 92.635 376.108 93.105C376.578 93.575 376.943 94.135 377.203 94.785C377.463 95.425 377.593 96.13 377.593 96.9C377.593 97.66 377.463 98.365 377.203 99.015C376.943 99.655 376.578 100.215 376.108 100.695C375.638 101.165 375.083 101.53 374.443 101.79C373.803 102.05 373.103 102.18 372.343 102.18C371.573 102.18 370.863 102.05 370.213 101.79C369.573 101.53 369.018 101.165 368.548 100.695C368.078 100.215 367.713 99.655 367.453 99.015C367.193 98.365 367.063 97.66 367.063 96.9ZM369.073 96.9C369.073 97.56 369.213 98.145 369.493 98.655C369.773 99.155 370.158 99.545 370.648 99.825C371.148 100.105 371.713 100.245 372.343 100.245C372.973 100.245 373.528 100.105 374.008 99.825C374.498 99.545 374.883 99.155 375.163 98.655C375.443 98.145 375.583 97.56 375.583 96.9C375.583 96.23 375.443 95.645 375.163 95.145C374.883 94.635 374.498 94.24 374.008 93.96C373.528 93.68 372.973 93.54 372.343 93.54C371.713 93.54 371.148 93.685 370.648 93.975C370.158 94.255 369.773 94.645 369.493 95.145C369.213 95.645 369.073 96.23 369.073 96.9ZM386.08 102.18C385.32 102.18 384.65 102.02 384.07 101.7C383.5 101.37 383.055 100.92 382.735 100.35C382.415 99.77 382.255 99.1 382.255 98.34C382.255 97.58 382.415 96.915 382.735 96.345C383.055 95.765 383.5 95.315 384.07 94.995C384.65 94.665 385.32 94.5 386.08 94.5C386.84 94.5 387.505 94.665 388.075 94.995C388.655 95.315 389.105 95.765 389.425 96.345C389.745 96.915 389.905 97.58 389.905 98.34C389.905 99.1 389.745 99.77 389.425 100.35C389.105 100.92 388.655 101.37 388.075 101.7C387.505 102.02 386.84 102.18 386.08 102.18ZM386.08 100.275C386.62 100.275 387.06 100.095 387.4 99.735C387.74 99.375 387.91 98.91 387.91 98.34C387.91 97.76 387.74 97.29 387.4 96.93C387.06 96.57 386.62 96.39 386.08 96.39C385.54 96.39 385.1 96.57 384.76 96.93C384.43 97.28 384.265 97.745 384.265 98.325C384.265 98.905 384.43 99.375 384.76 99.735C385.1 100.095 385.54 100.275 386.08 100.275ZM391.447 102V94.11C391.447 93.57 391.542 93.115 391.732 92.745C391.932 92.365 392.207 92.08 392.557 91.89C392.907 91.7 393.322 91.605 393.802 91.605C394.042 91.605 394.257 91.62 394.447 91.65C394.637 91.68 394.792 91.71 394.912 91.74V93.54C394.812 93.52 394.707 93.5 394.597 93.48C394.497 93.46 394.377 93.45 394.237 93.45C393.987 93.45 393.787 93.525 393.637 93.675C393.487 93.815 393.412 94.05 393.412 94.38V102H391.447ZM394.747 96.63H390.412V94.83H394.747V96.63ZM401.27 98.115H406.31V99.945H401.27V98.115ZM399.14 102L402.77 91.785H405.065L408.575 102H406.595L403.64 93.135H404.21L401.12 102H399.14ZM409.728 102V94.11C409.728 93.57 409.823 93.115 410.013 92.745C410.213 92.365 410.488 92.08 410.838 91.89C411.188 91.7 411.603 91.605 412.083 91.605C412.323 91.605 412.538 91.62 412.728 91.65C412.918 91.68 413.073 91.71 413.193 91.74V93.54C413.093 93.52 412.988 93.5 412.878 93.48C412.778 93.46 412.658 93.45 412.518 93.45C412.268 93.45 412.068 93.525 411.918 93.675C411.768 93.815 411.693 94.05 411.693 94.38V102H409.728ZM413.028 96.63H408.693V94.83H413.028V96.63ZM417.244 102.135C416.494 102.135 415.899 101.94 415.459 101.55C415.029 101.15 414.814 100.515 414.814 99.645V94.755L414.784 94.665L415.189 92.94H416.779V99.33C416.779 99.65 416.854 99.885 417.004 100.035C417.164 100.175 417.364 100.245 417.604 100.245C417.764 100.245 417.909 100.235 418.039 100.215C418.169 100.185 418.284 100.155 418.384 100.125V101.955C418.224 102.015 418.054 102.06 417.874 102.09C417.694 102.12 417.484 102.135 417.244 102.135ZM413.674 96.48V94.665H418.384V96.48H413.674ZM423.019 102.15C422.289 102.15 421.649 101.995 421.099 101.685C420.549 101.365 420.124 100.92 419.824 100.35C419.524 99.78 419.374 99.11 419.374 98.34C419.374 97.58 419.524 96.915 419.824 96.345C420.124 95.765 420.549 95.315 421.099 94.995C421.649 94.665 422.289 94.5 423.019 94.5C423.759 94.5 424.399 94.665 424.939 94.995C425.489 95.325 425.914 95.78 426.214 96.36C426.514 96.93 426.664 97.585 426.664 98.325C426.664 98.435 426.659 98.545 426.649 98.655C426.649 98.755 426.639 98.84 426.619 98.91H420.979V97.44H425.134L424.834 98.145C424.834 97.525 424.684 97.02 424.384 96.63C424.094 96.24 423.639 96.045 423.019 96.045C422.479 96.045 422.044 96.215 421.714 96.555C421.384 96.885 421.219 97.33 421.219 97.89V98.685C421.219 99.275 421.384 99.74 421.714 100.08C422.054 100.41 422.514 100.575 423.094 100.575C423.604 100.575 424.004 100.47 424.294 100.26C424.584 100.05 424.834 99.79 425.044 99.48L426.409 100.26C426.079 100.87 425.629 101.34 425.059 101.67C424.499 101.99 423.819 102.15 423.019 102.15ZM429.335 94.665L429.83 96.69V102H427.865V94.665H429.335ZM429.425 97.695L429.065 97.53V96.03L429.2 95.865C429.31 95.685 429.475 95.49 429.695 95.28C429.925 95.07 430.185 94.89 430.475 94.74C430.775 94.58 431.085 94.5 431.405 94.5C431.565 94.5 431.71 94.51 431.84 94.53C431.97 94.55 432.07 94.585 432.14 94.635V96.42H431.66C431.01 96.42 430.51 96.525 430.16 96.735C429.81 96.935 429.565 97.255 429.425 97.695ZM434.651 98.31V98.055L437.711 94.665H439.946L436.541 98.475L436.451 97.68L440.006 102H437.696L434.651 98.31ZM433.271 91.785H435.221V102H433.271V91.785ZM442.757 102.21C442.217 102.21 441.742 102.11 441.332 101.91C440.922 101.7 440.607 101.41 440.387 101.04C440.167 100.66 440.057 100.22 440.057 99.72C440.057 99.22 440.172 98.785 440.402 98.415C440.642 98.045 440.967 97.76 441.377 97.56C441.787 97.35 442.252 97.245 442.772 97.245C443.482 97.245 444.057 97.41 444.497 97.74C444.947 98.06 445.252 98.52 445.412 99.12L444.497 99V97.23C444.497 96.95 444.397 96.7 444.197 96.48C443.997 96.26 443.672 96.15 443.222 96.15C442.942 96.15 442.632 96.185 442.292 96.255C441.952 96.315 441.597 96.435 441.227 96.615L440.642 95.175C441.072 94.965 441.527 94.8 442.007 94.68C442.497 94.56 442.987 94.5 443.477 94.5C444.147 94.5 444.702 94.62 445.142 94.86C445.582 95.1 445.912 95.43 446.132 95.85C446.352 96.27 446.462 96.75 446.462 97.29V102H444.902L444.482 100.605L445.412 100.335C445.242 100.925 444.927 101.385 444.467 101.715C444.017 102.045 443.447 102.21 442.757 102.21ZM443.297 100.71C443.657 100.71 443.947 100.62 444.167 100.44C444.387 100.26 444.497 100.02 444.497 99.72C444.497 99.41 444.387 99.17 444.167 99C443.947 98.82 443.657 98.73 443.297 98.73C442.937 98.73 442.647 98.82 442.427 99C442.207 99.17 442.097 99.41 442.097 99.72C442.097 100.02 442.207 100.26 442.427 100.44C442.647 100.62 442.937 100.71 443.297 100.71ZM450.046 102H448.081V94.665H450.046V102ZM447.871 92.385C447.871 92.025 447.976 91.735 448.186 91.515C448.406 91.285 448.696 91.17 449.056 91.17C449.416 91.17 449.701 91.285 449.911 91.515C450.131 91.735 450.241 92.025 450.241 92.385C450.241 92.725 450.131 93.005 449.911 93.225C449.701 93.445 449.416 93.555 449.056 93.555C448.696 93.555 448.406 93.445 448.186 93.225C447.976 93.005 447.871 92.725 447.871 92.385ZM453.227 94.665L453.722 96.69V102H451.757V94.665H453.227ZM453.317 97.695L452.957 97.53V96.03L453.092 95.865C453.202 95.685 453.367 95.49 453.587 95.28C453.817 95.07 454.077 94.89 454.367 94.74C454.667 94.58 454.977 94.5 455.297 94.5C455.457 94.5 455.602 94.51 455.732 94.53C455.862 94.55 455.962 94.585 456.032 94.635V96.42H455.552C454.902 96.42 454.402 96.525 454.052 96.735C453.702 96.935 453.457 97.255 453.317 97.695ZM460.171 102.18C459.411 102.18 458.741 102.02 458.161 101.7C457.591 101.37 457.146 100.92 456.826 100.35C456.506 99.77 456.346 99.1 456.346 98.34C456.346 97.58 456.506 96.915 456.826 96.345C457.146 95.765 457.591 95.315 458.161 94.995C458.741 94.665 459.411 94.5 460.171 94.5C460.931 94.5 461.596 94.665 462.166 94.995C462.746 95.315 463.196 95.765 463.516 96.345C463.836 96.915 463.996 97.58 463.996 98.34C463.996 99.1 463.836 99.77 463.516 100.35C463.196 100.92 462.746 101.37 462.166 101.7C461.596 102.02 460.931 102.18 460.171 102.18ZM460.171 100.275C460.711 100.275 461.151 100.095 461.491 99.735C461.831 99.375 462.001 98.91 462.001 98.34C462.001 97.76 461.831 97.29 461.491 96.93C461.151 96.57 460.711 96.39 460.171 96.39C459.631 96.39 459.191 96.57 458.851 96.93C458.521 97.28 458.356 97.745 458.356 98.325C458.356 98.905 458.521 99.375 458.851 99.735C459.191 100.095 459.631 100.275 460.171 100.275ZM467.725 102.195C467.165 102.195 466.63 102.08 466.12 101.85C465.62 101.62 465.175 101.22 464.785 100.65L465.985 99.6C466.305 99.96 466.61 100.22 466.9 100.38C467.2 100.53 467.535 100.605 467.905 100.605C468.155 100.605 468.355 100.545 468.505 100.425C468.655 100.305 468.73 100.155 468.73 99.975C468.73 99.855 468.69 99.75 468.61 99.66C468.53 99.56 468.38 99.465 468.16 99.375C467.95 99.285 467.64 99.19 467.23 99.09C466.47 98.89 465.9 98.62 465.52 98.28C465.14 97.93 464.95 97.44 464.95 96.81C464.95 96.38 465.06 95.99 465.28 95.64C465.5 95.28 465.815 94.995 466.225 94.785C466.645 94.575 467.14 94.47 467.71 94.47C468.38 94.47 468.95 94.6 469.42 94.86C469.9 95.12 470.285 95.435 470.575 95.805L469.3 96.87C469.11 96.67 468.865 96.495 468.565 96.345C468.265 96.195 467.915 96.12 467.515 96.12C467.295 96.12 467.1 96.17 466.93 96.27C466.76 96.37 466.675 96.515 466.675 96.705C466.675 96.885 466.765 97.035 466.945 97.155C467.135 97.275 467.495 97.4 468.025 97.53C468.925 97.74 469.57 98.025 469.96 98.385C470.35 98.745 470.545 99.225 470.545 99.825C470.545 100.305 470.42 100.725 470.17 101.085C469.92 101.435 469.58 101.71 469.15 101.91C468.73 102.1 468.255 102.195 467.725 102.195Z" fill="#FFEEDA"/>
<path d="M16.776 84L0.36 34.968H12.384L25.776 76.008H20.736L34.272 34.968H45.936L29.52 84H16.776ZM61.5999 84H49.8639V48.72H61.5999V84ZM48.9999 37.56C48.9999 35.496 49.6239 33.864 50.8719 32.664C52.1199 31.416 53.7519 30.792 55.7679 30.792C57.8319 30.792 59.4639 31.416 60.6639 32.664C61.8639 33.864 62.4639 35.496 62.4639 37.56C62.4639 39.528 61.8639 41.136 60.6639 42.384C59.4639 43.584 57.8319 44.184 55.7679 44.184C53.7519 44.184 52.1199 43.584 50.8719 42.384C49.6239 41.136 48.9999 39.528 48.9999 37.56ZM82.0294 85.152C79.1014 85.152 76.3654 84.624 73.8214 83.568C71.3254 82.464 68.9734 80.568 66.7654 77.88L72.9574 71.472C74.6374 73.104 76.2694 74.28 77.8534 75C79.4854 75.72 81.1654 76.08 82.8934 76.08C83.7574 76.08 84.4774 75.912 85.0534 75.576C85.6294 75.192 85.9174 74.736 85.9174 74.208C85.9174 73.728 85.7254 73.32 85.3414 72.984C85.0054 72.648 84.2854 72.312 83.1814 71.976C82.1254 71.64 80.5654 71.208 78.5014 70.68C74.7094 69.72 71.9254 68.352 70.1494 66.576C68.3734 64.752 67.4854 62.376 67.4854 59.448C67.4854 57.288 68.0614 55.32 69.2134 53.544C70.3654 51.72 72.0214 50.28 74.1814 49.224C76.3414 48.12 78.8854 47.568 81.8134 47.568C85.3174 47.568 88.2934 48.216 90.7414 49.512C93.1894 50.808 95.2294 52.368 96.8614 54.192L90.0214 60.312C88.8694 59.304 87.5014 58.488 85.9174 57.864C84.3814 57.24 82.7014 56.928 80.8774 56.928C79.9174 56.928 79.1254 57.096 78.5014 57.432C77.8774 57.72 77.5654 58.152 77.5654 58.728C77.5654 59.256 77.9734 59.736 78.7894 60.168C79.6534 60.552 81.4054 61.056 84.0454 61.68C88.4134 62.736 91.5814 64.2 93.5494 66.072C95.5174 67.896 96.5014 70.368 96.5014 73.488C96.5014 75.792 95.8774 77.832 94.6294 79.608C93.4294 81.336 91.7254 82.704 89.5174 83.712C87.3574 84.672 84.8614 85.152 82.0294 85.152ZM113.499 84.936C110.907 84.936 108.771 84.552 107.091 83.784C105.459 83.016 104.187 81.984 103.275 80.688C102.363 79.344 101.715 77.808 101.331 76.08C100.995 74.304 100.827 72.408 100.827 70.392V48.72H112.491V69.096C112.491 70.872 112.827 72.072 113.499 72.696C114.219 73.272 115.131 73.56 116.235 73.56C117.099 73.56 117.939 73.416 118.755 73.128C119.619 72.84 120.459 72.408 121.275 71.832C122.139 71.256 122.979 70.512 123.795 69.6L126.243 75.36H122.643V48.72H134.379V84H125.739L123.363 76.728L127.611 77.232C126.459 78.528 125.139 79.776 123.651 80.976C122.163 82.128 120.555 83.088 118.827 83.856C117.147 84.576 115.371 84.936 113.499 84.936ZM151.784 84.936C149.288 84.936 147.08 84.456 145.16 83.496C143.24 82.488 141.728 81.096 140.624 79.32C139.568 77.496 139.04 75.432 139.04 73.128C139.04 70.632 139.616 68.52 140.768 66.792C141.968 65.016 143.528 63.672 145.448 62.76C147.416 61.8 149.576 61.32 151.928 61.32C155.432 61.32 158.288 62.136 160.496 63.768C162.704 65.352 164.144 67.704 164.816 70.824L160.064 69.744V61.752C160.064 60.552 159.632 59.52 158.768 58.656C157.904 57.792 156.56 57.36 154.736 57.36C153.44 57.36 151.952 57.528 150.272 57.864C148.592 58.2 146.816 58.824 144.944 59.736L141.632 51.456C143.744 50.4 146.072 49.536 148.616 48.864C151.16 48.144 153.8 47.784 156.536 47.784C159.848 47.784 162.632 48.384 164.888 49.584C167.192 50.784 168.92 52.488 170.072 54.696C171.224 56.856 171.8 59.424 171.8 62.4V84H162.008L159.776 77.016L164.816 75.432C164.096 78.36 162.656 80.688 160.496 82.416C158.384 84.096 155.48 84.936 151.784 84.936ZM155.744 77.016C157.088 77.016 158.168 76.656 158.984 75.936C159.8 75.216 160.208 74.28 160.208 73.128C160.208 72.024 159.8 71.112 158.984 70.392C158.168 69.672 157.088 69.312 155.744 69.312C154.304 69.312 153.176 69.672 152.36 70.392C151.592 71.112 151.208 72.024 151.208 73.128C151.208 74.28 151.592 75.216 152.36 75.936C153.176 76.656 154.304 77.016 155.744 77.016ZM188.847 84.36C186.927 84.36 185.127 84 183.447 83.28C181.767 82.512 180.399 81.288 179.343 79.608C178.335 77.928 177.831 75.696 177.831 72.912V34.968H189.423V68.808C189.423 70.632 189.711 71.808 190.287 72.336C190.911 72.816 191.751 73.056 192.807 73.056V84.072C192.375 84.168 191.751 84.24 190.935 84.288C190.167 84.336 189.471 84.36 188.847 84.36ZM216.789 84V34.968H234.285C239.469 34.968 243.909 35.952 247.605 37.92C251.301 39.84 254.133 42.624 256.101 46.272C258.069 49.92 259.053 54.312 259.053 59.448C259.053 64.632 258.045 69.048 256.029 72.696C254.061 76.344 251.229 79.152 247.533 81.12C243.837 83.04 239.397 84 234.213 84H216.789ZM228.453 77.52L223.629 72.696H233.421C236.205 72.696 238.605 72.264 240.621 71.4C242.685 70.488 244.269 69.048 245.373 67.08C246.525 65.112 247.101 62.568 247.101 59.448C247.101 56.376 246.549 53.88 245.445 51.96C244.341 49.992 242.757 48.552 240.693 47.64C238.677 46.728 236.277 46.272 233.493 46.272H223.125L228.453 43.032V77.52ZM275.561 84H263.825V48.72H275.561V84ZM262.961 37.56C262.961 35.496 263.585 33.864 264.833 32.664C266.081 31.416 267.713 30.792 269.729 30.792C271.793 30.792 273.425 31.416 274.625 32.664C275.825 33.864 276.425 35.496 276.425 37.56C276.425 39.528 275.825 41.136 274.625 42.384C273.425 43.584 271.793 44.184 269.729 44.184C267.713 44.184 266.081 43.584 264.833 42.384C263.585 41.136 262.961 39.528 262.961 37.56ZM291.166 48.72L294.19 58.584V84H282.526V48.72H291.166ZM291.454 65.424L289.582 64.632V55.416L290.302 54.624C290.878 53.76 291.718 52.8 292.822 51.744C293.974 50.688 295.27 49.776 296.71 49.008C298.198 48.192 299.734 47.784 301.318 47.784C302.086 47.784 302.782 47.856 303.406 48C304.03 48.096 304.51 48.264 304.846 48.504V59.16H302.47C299.494 59.16 297.07 59.664 295.198 60.672C293.374 61.632 292.126 63.216 291.454 65.424ZM324.097 84.648C320.545 84.648 317.425 83.904 314.737 82.416C312.097 80.928 310.033 78.816 308.545 76.08C307.057 73.344 306.313 70.104 306.313 66.36C306.313 62.76 307.057 59.568 308.545 56.784C310.033 54 312.097 51.816 314.737 50.232C317.425 48.6 320.545 47.784 324.097 47.784C327.793 47.784 330.961 48.624 333.601 50.304C336.241 51.984 338.281 54.216 339.721 57C341.161 59.736 341.881 62.808 341.881 66.216C341.881 66.984 341.857 67.68 341.809 68.304C341.761 68.928 341.689 69.432 341.593 69.816H315.025V61.896H332.593L331.585 64.488C331.585 62.232 330.985 60.384 329.785 58.944C328.585 57.504 326.737 56.784 324.241 56.784C321.937 56.784 320.113 57.456 318.769 58.8C317.425 60.144 316.753 61.944 316.753 64.2V68.16C316.753 70.608 317.473 72.504 318.913 73.848C320.353 75.144 322.369 75.792 324.961 75.792C327.025 75.792 328.657 75.408 329.857 74.64C331.105 73.824 332.137 72.792 332.953 71.544L340.729 75.72C339.241 78.456 337.057 80.64 334.177 82.272C331.297 83.856 327.937 84.648 324.097 84.648ZM362.778 84.936C359.178 84.936 356.01 84.144 353.274 82.56C350.586 80.976 348.474 78.768 346.938 75.936C345.402 73.104 344.634 69.888 344.634 66.288C344.634 62.736 345.402 59.568 346.938 56.784C348.474 54 350.586 51.816 353.274 50.232C356.01 48.6 359.178 47.784 362.778 47.784C366.858 47.784 370.362 48.768 373.29 50.736C376.218 52.704 378.306 55.344 379.554 58.656L369.114 63.408C368.49 62.064 367.698 61.032 366.738 60.312C365.778 59.544 364.506 59.16 362.922 59.16C361.05 59.16 359.466 59.808 358.17 61.104C356.922 62.4 356.298 64.128 356.298 66.288C356.298 68.544 356.922 70.32 358.17 71.616C359.466 72.864 361.05 73.488 362.922 73.488C364.506 73.488 365.778 73.128 366.738 72.408C367.698 71.688 368.49 70.68 369.114 69.384L379.554 73.992C378.306 77.304 376.194 79.968 373.218 81.984C370.29 83.952 366.81 84.936 362.778 84.936ZM400.199 84.576C396.023 84.576 392.735 83.592 390.335 81.624C387.983 79.656 386.807 76.392 386.807 71.832V49.152L386.663 48.72L389.111 40.152H398.471V68.664C398.471 70.392 398.855 71.616 399.623 72.336C400.439 73.056 401.495 73.416 402.791 73.416C403.511 73.416 404.183 73.344 404.807 73.2C405.479 73.056 406.031 72.912 406.463 72.768V83.712C405.551 84 404.591 84.216 403.583 84.36C402.575 84.504 401.447 84.576 400.199 84.576ZM381.335 59.52V48.72H406.463V59.52H381.335ZM429.236 84.936C425.54 84.936 422.3 84.144 419.516 82.56C416.732 80.976 414.548 78.792 412.964 76.008C411.38 73.224 410.588 70.032 410.588 66.432C410.588 62.784 411.38 59.568 412.964 56.784C414.548 54 416.732 51.816 419.516 50.232C422.3 48.6 425.54 47.784 429.236 47.784C432.98 47.784 436.244 48.6 439.028 50.232C441.86 51.816 444.044 54 445.58 56.784C447.164 59.568 447.956 62.784 447.956 66.432C447.956 70.032 447.164 73.224 445.58 76.008C444.044 78.792 441.86 80.976 439.028 82.56C436.244 84.144 432.98 84.936 429.236 84.936ZM429.236 73.56C431.252 73.56 432.908 72.912 434.204 71.616C435.5 70.272 436.148 68.52 436.148 66.36C436.148 64.2 435.5 62.472 434.204 61.176C432.908 59.832 431.252 59.16 429.236 59.16C427.268 59.16 425.636 59.832 424.34 61.176C423.044 62.472 422.396 64.2 422.396 66.36C422.396 68.472 423.044 70.2 424.34 71.544C425.636 72.888 427.268 73.56 429.236 73.56ZM461.182 48.72L464.206 58.584V84H452.542V48.72H461.182ZM461.47 65.424L459.598 64.632V55.416L460.318 54.624C460.894 53.76 461.734 52.8 462.838 51.744C463.99 50.688 465.286 49.776 466.726 49.008C468.214 48.192 469.75 47.784 471.334 47.784C472.102 47.784 472.798 47.856 473.422 48C474.046 48.096 474.526 48.264 474.862 48.504V59.16H472.486C469.51 59.16 467.086 59.664 465.214 60.672C463.39 61.632 462.142 63.216 461.47 65.424Z" fill="url(#paint0_linear_806_278)"/>
<defs>
<linearGradient id="paint0_linear_806_278" x1="0" y1="60" x2="259.5" y2="60" gradientUnits="userSpaceOnUse">
<stop stop-color="#FFF700"/>
<stop offset="1" stop-color="#FFA100"/>
</linearGradient>
</defs>
</svg>
