<svg width="318" height="92" viewBox="0 0 318 92" fill="none" xmlns="http://www.w3.org/2000/svg">
<path d="M7.76 15V4.104H9.856V15H7.76ZM1.088 15V4.104H3.184V15H1.088ZM2.448 10.664V8.664H8.448V10.664H2.448ZM15.4651 15.192C14.6545 15.192 13.9398 15.0213 13.3211 14.68C12.7131 14.328 12.2385 13.848 11.8971 13.24C11.5558 12.6213 11.3851 11.9067 11.3851 11.096C11.3851 10.2853 11.5558 9.576 11.8971 8.968C12.2385 8.34933 12.7131 7.86933 13.3211 7.528C13.9398 7.176 14.6545 7 15.4651 7C16.2758 7 16.9851 7.176 17.5931 7.528C18.2118 7.86933 18.6918 8.34933 19.0331 8.968C19.3745 9.576 19.5451 10.2853 19.5451 11.096C19.5451 11.9067 19.3745 12.6213 19.0331 13.24C18.6918 13.848 18.2118 14.328 17.5931 14.68C16.9851 15.0213 16.2758 15.192 15.4651 15.192ZM15.4651 13.16C16.0411 13.16 16.5105 12.968 16.8731 12.584C17.2358 12.2 17.4171 11.704 17.4171 11.096C17.4171 10.4773 17.2358 9.976 16.8731 9.592C16.5105 9.208 16.0411 9.016 15.4651 9.016C14.8891 9.016 14.4198 9.208 14.0571 9.592C13.7051 9.96533 13.5291 10.4613 13.5291 11.08C13.5291 11.6987 13.7051 12.2 14.0571 12.584C14.4198 12.968 14.8891 13.16 15.4651 13.16ZM22.707 15.08C22.355 15.08 22.0297 15.0053 21.731 14.856C21.443 14.7067 21.2083 14.4773 21.027 14.168C20.8563 13.848 20.771 13.4373 20.771 12.936V4.104H22.851V12.2C22.851 12.5733 22.9257 12.8187 23.075 12.936C23.2243 13.0427 23.4057 13.096 23.619 13.096V14.968C23.5017 15.0107 23.3577 15.0373 23.187 15.048C23.027 15.0693 22.867 15.08 22.707 15.08ZM27.2804 15.224C26.7044 15.224 26.1977 15.1173 25.7604 14.904C25.323 14.68 24.987 14.3707 24.7524 13.976C24.5177 13.5707 24.4004 13.1013 24.4004 12.568C24.4004 12.0347 24.523 11.5707 24.7684 11.176C25.0244 10.7813 25.371 10.4773 25.8084 10.264C26.2457 10.04 26.7417 9.928 27.2964 9.928C28.0537 9.928 28.667 10.104 29.1364 10.456C29.6164 10.7973 29.9417 11.288 30.1124 11.928L29.1364 11.8V9.912C29.1364 9.61333 29.0297 9.34667 28.8164 9.112C28.603 8.87733 28.2564 8.76 27.7764 8.76C27.4777 8.76 27.147 8.79733 26.7844 8.872C26.4217 8.936 26.043 9.064 25.6484 9.256L25.0244 7.72C25.483 7.496 25.9684 7.32 26.4804 7.192C27.003 7.064 27.5257 7 28.0484 7C28.763 7 29.355 7.128 29.8244 7.384C30.2937 7.64 30.6457 7.992 30.8804 8.44C31.115 8.888 31.2324 9.4 31.2324 9.976V15H29.5684L29.1204 13.512L30.1124 13.224C29.931 13.8533 29.595 14.344 29.1044 14.696C28.6244 15.048 28.0164 15.224 27.2804 15.224ZM27.8564 13.624C28.2404 13.624 28.5497 13.528 28.7844 13.336C29.019 13.144 29.1364 12.888 29.1364 12.568C29.1364 12.2373 29.019 11.9813 28.7844 11.8C28.5497 11.608 28.2404 11.512 27.8564 11.512C27.4724 11.512 27.163 11.608 26.9284 11.8C26.6937 11.9813 26.5764 12.2373 26.5764 12.568C26.5764 12.888 26.6937 13.144 26.9284 13.336C27.163 13.528 27.4724 13.624 27.8564 13.624ZM35.7935 13.88C35.7935 14.488 35.6015 15.1013 35.2175 15.72C34.8442 16.3493 34.2522 16.952 33.4415 17.528L32.5455 16.696C32.9188 16.3547 33.1962 15.9973 33.3775 15.624C33.5588 15.2613 33.6495 14.9413 33.6495 14.664C33.6495 14.2693 33.5482 13.9547 33.3455 13.72C33.1428 13.4853 32.8975 13.2933 32.6095 13.144C32.7162 12.856 32.8495 12.632 33.0095 12.472C33.1802 12.312 33.3668 12.2 33.5695 12.136C33.7722 12.0613 33.9855 12.024 34.2095 12.024C34.4762 12.024 34.7322 12.0987 34.9775 12.248C35.2228 12.3973 35.4202 12.6107 35.5695 12.888C35.7188 13.1653 35.7935 13.496 35.7935 13.88ZM44.2414 15.208C43.644 15.208 43.0734 15.0853 42.5294 14.84C41.996 14.5947 41.5214 14.168 41.1054 13.56L42.3854 12.44C42.7267 12.824 43.052 13.1013 43.3614 13.272C43.6814 13.432 44.0387 13.512 44.4334 13.512C44.7 13.512 44.9134 13.448 45.0734 13.32C45.2334 13.192 45.3134 13.032 45.3134 12.84C45.3134 12.712 45.2707 12.6 45.1854 12.504C45.1 12.3973 44.94 12.296 44.7054 12.2C44.4814 12.104 44.1507 12.0027 43.7134 11.896C42.9027 11.6827 42.2947 11.3947 41.8894 11.032C41.484 10.6587 41.2814 10.136 41.2814 9.464C41.2814 9.00533 41.3987 8.58933 41.6334 8.216C41.868 7.832 42.204 7.528 42.6414 7.304C43.0894 7.08 43.6174 6.968 44.2254 6.968C44.94 6.968 45.548 7.10667 46.0494 7.384C46.5614 7.66133 46.972 7.99733 47.2814 8.392L45.9214 9.528C45.7187 9.31467 45.4574 9.128 45.1374 8.968C44.8174 8.808 44.444 8.728 44.0174 8.728C43.7827 8.728 43.5747 8.78133 43.3934 8.888C43.212 8.99467 43.1214 9.14933 43.1214 9.352C43.1214 9.544 43.2174 9.704 43.4094 9.832C43.612 9.96 43.996 10.0933 44.5614 10.232C45.5214 10.456 46.2094 10.76 46.6254 11.144C47.0414 11.528 47.2494 12.04 47.2494 12.68C47.2494 13.192 47.116 13.64 46.8494 14.024C46.5827 14.3973 46.22 14.6907 45.7614 14.904C45.3134 15.1067 44.8067 15.208 44.2414 15.208ZM52.1995 15.192C51.3888 15.192 50.6742 15.0213 50.0555 14.68C49.4475 14.328 48.9728 13.848 48.6315 13.24C48.2902 12.6213 48.1195 11.9067 48.1195 11.096C48.1195 10.2853 48.2902 9.576 48.6315 8.968C48.9728 8.34933 49.4475 7.86933 50.0555 7.528C50.6742 7.176 51.3888 7 52.1995 7C53.0102 7 53.7195 7.176 54.3275 7.528C54.9462 7.86933 55.4262 8.34933 55.7675 8.968C56.1088 9.576 56.2795 10.2853 56.2795 11.096C56.2795 11.9067 56.1088 12.6213 55.7675 13.24C55.4262 13.848 54.9462 14.328 54.3275 14.68C53.7195 15.0213 53.0102 15.192 52.1995 15.192ZM52.1995 13.16C52.7755 13.16 53.2448 12.968 53.6075 12.584C53.9702 12.2 54.1515 11.704 54.1515 11.096C54.1515 10.4773 53.9702 9.976 53.6075 9.592C53.2448 9.208 52.7755 9.016 52.1995 9.016C51.6235 9.016 51.1542 9.208 50.7915 9.592C50.4395 9.96533 50.2635 10.4613 50.2635 11.08C50.2635 11.6987 50.4395 12.2 50.7915 12.584C51.1542 12.968 51.6235 13.16 52.1995 13.16ZM59.6085 14.28L56.4885 7.176H58.6325L61.5285 13.784L59.6085 14.28ZM57.8165 18.04L62.6005 7.176H64.7445L59.9605 18.04H57.8165ZM71.5116 10.856H76.8876V12.808H71.5116V10.856ZM69.2396 15L73.1116 4.104H75.5596L79.3036 15H77.1916L74.0396 5.544H74.6476L71.3516 15H69.2396ZM83.2701 15.144C82.4701 15.144 81.8355 14.936 81.3661 14.52C80.9075 14.0933 80.6781 13.416 80.6781 12.488V7.272L80.6461 7.176L81.0781 5.336H82.7741V12.152C82.7741 12.4933 82.8541 12.744 83.0141 12.904C83.1848 13.0533 83.3981 13.128 83.6541 13.128C83.8248 13.128 83.9795 13.1173 84.1181 13.096C84.2568 13.064 84.3795 13.032 84.4861 13V14.952C84.3155 15.016 84.1341 15.064 83.9421 15.096C83.7501 15.128 83.5261 15.144 83.2701 15.144ZM79.4621 9.112V7.176H84.4861V9.112H79.4621ZM88.0664 15.08C87.7144 15.08 87.389 15.0053 87.0904 14.856C86.8024 14.7067 86.5677 14.4773 86.3864 14.168C86.2157 13.848 86.1304 13.4373 86.1304 12.936V4.104H88.2104V12.2C88.2104 12.5733 88.285 12.8187 88.4344 12.936C88.5837 13.0427 88.765 13.096 88.9784 13.096V14.968C88.861 15.0107 88.717 15.0373 88.5464 15.048C88.3864 15.0693 88.2264 15.08 88.0664 15.08ZM92.6398 15.224C92.0638 15.224 91.5571 15.1173 91.1198 14.904C90.6824 14.68 90.3464 14.3707 90.1118 13.976C89.8771 13.5707 89.7598 13.1013 89.7598 12.568C89.7598 12.0347 89.8824 11.5707 90.1278 11.176C90.3838 10.7813 90.7304 10.4773 91.1678 10.264C91.6051 10.04 92.1011 9.928 92.6558 9.928C93.4131 9.928 94.0264 10.104 94.4958 10.456C94.9758 10.7973 95.3011 11.288 95.4718 11.928L94.4958 11.8V9.912C94.4958 9.61333 94.3891 9.34667 94.1758 9.112C93.9624 8.87733 93.6158 8.76 93.1358 8.76C92.8371 8.76 92.5064 8.79733 92.1438 8.872C91.7811 8.936 91.4024 9.064 91.0078 9.256L90.3838 7.72C90.8424 7.496 91.3278 7.32 91.8398 7.192C92.3624 7.064 92.8851 7 93.4078 7C94.1224 7 94.7144 7.128 95.1838 7.384C95.6531 7.64 96.0051 7.992 96.2398 8.44C96.4744 8.888 96.5918 9.4 96.5918 9.976V15H94.9278L94.4798 13.512L95.4718 13.224C95.2904 13.8533 94.9544 14.344 94.4638 14.696C93.9838 15.048 93.3758 15.224 92.6398 15.224ZM93.2158 13.624C93.5998 13.624 93.9091 13.528 94.1438 13.336C94.3784 13.144 94.4958 12.888 94.4958 12.568C94.4958 12.2373 94.3784 11.9813 94.1438 11.8C93.9091 11.608 93.5998 11.512 93.2158 11.512C92.8318 11.512 92.5224 11.608 92.2878 11.8C92.0531 11.9813 91.9358 12.2373 91.9358 12.568C91.9358 12.888 92.0531 13.144 92.2878 13.336C92.5224 13.528 92.8318 13.624 93.2158 13.624ZM100.976 15.208C100.378 15.208 99.8078 15.0853 99.2638 14.84C98.7304 14.5947 98.2558 14.168 97.8398 13.56L99.1198 12.44C99.4611 12.824 99.7864 13.1013 100.096 13.272C100.416 13.432 100.773 13.512 101.168 13.512C101.434 13.512 101.648 13.448 101.808 13.32C101.968 13.192 102.048 13.032 102.048 12.84C102.048 12.712 102.005 12.6 101.92 12.504C101.834 12.3973 101.674 12.296 101.44 12.2C101.216 12.104 100.885 12.0027 100.448 11.896C99.6371 11.6827 99.0291 11.3947 98.6238 11.032C98.2184 10.6587 98.0158 10.136 98.0158 9.464C98.0158 9.00533 98.1331 8.58933 98.3678 8.216C98.6024 7.832 98.9384 7.528 99.3758 7.304C99.8238 7.08 100.352 6.968 100.96 6.968C101.674 6.968 102.282 7.10667 102.784 7.384C103.296 7.66133 103.706 7.99733 104.016 8.392L102.656 9.528C102.453 9.31467 102.192 9.128 101.872 8.968C101.552 8.808 101.178 8.728 100.752 8.728C100.517 8.728 100.309 8.78133 100.128 8.888C99.9464 8.99467 99.8558 9.14933 99.8558 9.352C99.8558 9.544 99.9518 9.704 100.144 9.832C100.346 9.96 100.73 10.0933 101.296 10.232C102.256 10.456 102.944 10.76 103.36 11.144C103.776 11.528 103.984 12.04 103.984 12.68C103.984 13.192 103.85 13.64 103.584 14.024C103.317 14.3973 102.954 14.6907 102.496 14.904C102.048 15.1067 101.541 15.208 100.976 15.208ZM111.121 10.856H116.497V12.808H111.121V10.856ZM108.849 15L112.721 4.104H115.169L118.913 15H116.801L113.649 5.544H114.257L110.961 15H108.849ZM122.523 15.208C121.925 15.208 121.355 15.0853 120.811 14.84C120.277 14.5947 119.803 14.168 119.387 13.56L120.667 12.44C121.008 12.824 121.333 13.1013 121.643 13.272C121.963 13.432 122.32 13.512 122.715 13.512C122.981 13.512 123.195 13.448 123.355 13.32C123.515 13.192 123.595 13.032 123.595 12.84C123.595 12.712 123.552 12.6 123.467 12.504C123.381 12.3973 123.221 12.296 122.987 12.2C122.763 12.104 122.432 12.0027 121.995 11.896C121.184 11.6827 120.576 11.3947 120.171 11.032C119.765 10.6587 119.563 10.136 119.563 9.464C119.563 9.00533 119.68 8.58933 119.915 8.216C120.149 7.832 120.485 7.528 120.923 7.304C121.371 7.08 121.899 6.968 122.507 6.968C123.221 6.968 123.829 7.10667 124.331 7.384C124.843 7.66133 125.253 7.99733 125.563 8.392L124.203 9.528C124 9.31467 123.739 9.128 123.419 8.968C123.099 8.808 122.725 8.728 122.299 8.728C122.064 8.728 121.856 8.78133 121.675 8.888C121.493 8.99467 121.403 9.14933 121.403 9.352C121.403 9.544 121.499 9.704 121.691 9.832C121.893 9.96 122.277 10.0933 122.843 10.232C123.803 10.456 124.491 10.76 124.907 11.144C125.323 11.528 125.531 12.04 125.531 12.68C125.531 13.192 125.397 13.64 125.131 14.024C124.864 14.3973 124.501 14.6907 124.043 14.904C123.595 15.1067 123.088 15.208 122.523 15.208ZM130.289 15.16C129.51 15.16 128.827 14.9947 128.241 14.664C127.654 14.3227 127.201 13.848 126.881 13.24C126.561 12.632 126.401 11.9173 126.401 11.096C126.401 10.2853 126.561 9.576 126.881 8.968C127.201 8.34933 127.654 7.86933 128.241 7.528C128.827 7.176 129.51 7 130.289 7C131.078 7 131.761 7.176 132.337 7.528C132.923 7.88 133.377 8.36533 133.697 8.984C134.017 9.592 134.177 10.2907 134.177 11.08C134.177 11.1973 134.171 11.3147 134.161 11.432C134.161 11.5387 134.15 11.6293 134.129 11.704H128.113V10.136H132.545L132.225 10.888C132.225 10.2267 132.065 9.688 131.745 9.272C131.435 8.856 130.95 8.648 130.289 8.648C129.713 8.648 129.249 8.82933 128.897 9.192C128.545 9.544 128.369 10.0187 128.369 10.616V11.464C128.369 12.0933 128.545 12.5893 128.897 12.952C129.259 13.304 129.75 13.48 130.369 13.48C130.913 13.48 131.339 13.368 131.649 13.144C131.958 12.92 132.225 12.6427 132.449 12.312L133.905 13.144C133.553 13.7947 133.073 14.296 132.465 14.648C131.867 14.9893 131.142 15.16 130.289 15.16ZM140.163 7C140.696 7 141.123 7.09067 141.443 7.272C141.773 7.45333 142.019 7.69867 142.179 8.008C142.349 8.31733 142.461 8.66933 142.515 9.064C142.568 9.448 142.595 9.848 142.595 10.264V15H140.499V10.248C140.499 9.768 140.403 9.448 140.211 9.288C140.029 9.128 139.795 9.048 139.507 9.048C139.24 9.048 138.968 9.10133 138.691 9.208C138.413 9.304 138.152 9.448 137.907 9.64C137.672 9.82133 137.469 10.0293 137.299 10.264L137.027 9.176H137.555V15H135.459V7.176H137.027L137.459 8.68L136.787 8.648C137.064 8.328 137.379 8.04533 137.731 7.8C138.093 7.55467 138.477 7.36267 138.883 7.224C139.288 7.07467 139.715 7 140.163 7ZM144.318 18.12C144.041 18.12 143.817 18.0933 143.646 18.04C143.476 17.9973 143.364 17.9653 143.31 17.944V16.184C143.364 16.1947 143.428 16.2053 143.502 16.216C143.588 16.2373 143.689 16.248 143.806 16.248C144.009 16.248 144.164 16.1733 144.27 16.024C144.377 15.8853 144.43 15.6933 144.43 15.448V7.176H146.526V15.72C146.526 16.136 146.452 16.5253 146.302 16.888C146.153 17.2613 145.913 17.56 145.582 17.784C145.262 18.008 144.841 18.12 144.318 18.12ZM144.222 4.744C144.222 4.36 144.334 4.05067 144.558 3.816C144.793 3.57067 145.102 3.448 145.486 3.448C145.87 3.448 146.174 3.57067 146.398 3.816C146.633 4.05067 146.75 4.36 146.75 4.744C146.75 5.10667 146.633 5.40533 146.398 5.64C146.174 5.87467 145.87 5.992 145.486 5.992C145.102 5.992 144.793 5.87467 144.558 5.64C144.334 5.40533 144.222 5.10667 144.222 4.744ZM151.95 15.192C151.139 15.192 150.424 15.0213 149.806 14.68C149.198 14.328 148.723 13.848 148.382 13.24C148.04 12.6213 147.87 11.9067 147.87 11.096C147.87 10.2853 148.04 9.576 148.382 8.968C148.723 8.34933 149.198 7.86933 149.806 7.528C150.424 7.176 151.139 7 151.95 7C152.76 7 153.47 7.176 154.078 7.528C154.696 7.86933 155.176 8.34933 155.517 8.968C155.859 9.576 156.03 10.2853 156.03 11.096C156.03 11.9067 155.859 12.6213 155.517 13.24C155.176 13.848 154.696 14.328 154.078 14.68C153.47 15.0213 152.76 15.192 151.95 15.192ZM151.95 13.16C152.526 13.16 152.995 12.968 153.358 12.584C153.72 12.2 153.902 11.704 153.902 11.096C153.902 10.4773 153.72 9.976 153.358 9.592C152.995 9.208 152.526 9.016 151.95 9.016C151.374 9.016 150.904 9.208 150.542 9.592C150.19 9.96533 150.014 10.4613 150.014 11.08C150.014 11.6987 150.19 12.2 150.542 12.584C150.904 12.968 151.374 13.16 151.95 13.16Z" fill="#FFEEDA"/>
<path d="M208.936 85.256H208.12L210.352 80.828H212.068L209.164 86.384L209.308 85.376V89H207.736V85.376L207.856 86.384L204.976 80.828H206.716L208.936 85.256ZM219.623 89.144C218.783 89.144 218.051 88.964 217.427 88.604C216.811 88.236 216.331 87.736 215.987 87.104C215.651 86.464 215.483 85.736 215.483 84.92C215.483 84.304 215.583 83.74 215.783 83.228C215.991 82.708 216.279 82.26 216.647 81.884C217.023 81.508 217.463 81.216 217.967 81.008C218.471 80.8 219.023 80.696 219.623 80.696C220.575 80.696 221.355 80.9 221.963 81.308C222.571 81.716 223.047 82.284 223.391 83.012L221.927 83.54C221.631 83.06 221.295 82.72 220.919 82.52C220.543 82.32 220.111 82.22 219.623 82.22C219.135 82.22 218.699 82.336 218.315 82.568C217.939 82.792 217.639 83.108 217.415 83.516C217.199 83.916 217.091 84.384 217.091 84.92C217.091 85.448 217.199 85.916 217.415 86.324C217.639 86.732 217.939 87.052 218.315 87.284C218.699 87.508 219.135 87.62 219.623 87.62C220.111 87.62 220.543 87.52 220.919 87.32C221.295 87.12 221.631 86.78 221.927 86.3L223.391 86.828C223.047 87.556 222.571 88.124 221.963 88.532C221.355 88.94 220.575 89.144 219.623 89.144ZM225.518 85.652V84.152H228.854V85.652H225.518ZM225.482 82.316L225.986 81.716V88.052L225.422 87.5H229.538V89H224.414V80.828H229.538V82.316H225.482ZM230.378 84.92C230.378 84.304 230.482 83.74 230.69 83.228C230.898 82.708 231.19 82.26 231.566 81.884C231.942 81.508 232.386 81.216 232.898 81.008C233.418 80.8 233.986 80.696 234.602 80.696C235.21 80.696 235.77 80.8 236.282 81.008C236.794 81.216 237.238 81.508 237.614 81.884C237.99 82.26 238.282 82.708 238.49 83.228C238.698 83.74 238.802 84.304 238.802 84.92C238.802 85.528 238.698 86.092 238.49 86.612C238.282 87.124 237.99 87.572 237.614 87.956C237.238 88.332 236.794 88.624 236.282 88.832C235.77 89.04 235.21 89.144 234.602 89.144C233.986 89.144 233.418 89.04 232.898 88.832C232.386 88.624 231.942 88.332 231.566 87.956C231.19 87.572 230.898 87.124 230.69 86.612C230.482 86.092 230.378 85.528 230.378 84.92ZM231.986 84.92C231.986 85.448 232.098 85.916 232.322 86.324C232.546 86.724 232.854 87.036 233.246 87.26C233.646 87.484 234.098 87.596 234.602 87.596C235.106 87.596 235.55 87.484 235.934 87.26C236.326 87.036 236.634 86.724 236.858 86.324C237.082 85.916 237.194 85.448 237.194 84.92C237.194 84.384 237.082 83.916 236.858 83.516C236.634 83.108 236.326 82.792 235.934 82.568C235.55 82.344 235.106 82.232 234.602 82.232C234.098 82.232 233.646 82.348 233.246 82.58C232.854 82.804 232.546 83.116 232.322 83.516C232.098 83.916 231.986 84.384 231.986 84.92ZM245.231 89.144C244.695 89.144 244.223 89.012 243.815 88.748C243.407 88.484 243.091 88.12 242.867 87.656C242.643 87.192 242.531 86.66 242.531 86.06C242.531 85.452 242.643 84.92 242.867 84.464C243.099 84 243.419 83.64 243.827 83.384C244.235 83.128 244.703 83 245.231 83C245.751 83 246.203 83.12 246.587 83.36C246.971 83.6 247.271 83.948 247.487 84.404C247.703 84.86 247.811 85.412 247.811 86.06C247.811 86.684 247.703 87.228 247.487 87.692C247.271 88.148 246.967 88.504 246.575 88.76C246.191 89.016 245.743 89.144 245.231 89.144ZM245.507 87.692C245.915 87.692 246.247 87.544 246.503 87.248C246.759 86.944 246.887 86.552 246.887 86.072C246.887 85.584 246.759 85.192 246.503 84.896C246.247 84.592 245.915 84.44 245.507 84.44C245.107 84.44 244.775 84.592 244.511 84.896C244.255 85.192 244.127 85.58 244.127 86.06C244.127 86.54 244.255 86.932 244.511 87.236C244.775 87.54 245.107 87.692 245.507 87.692ZM247.211 89L246.815 87.608H246.923V84.668H246.815V80.828H248.387V89H247.211ZM252.22 89.12C251.636 89.12 251.124 88.996 250.684 88.748C250.244 88.492 249.904 88.136 249.664 87.68C249.424 87.224 249.304 86.688 249.304 86.072C249.304 85.464 249.424 84.932 249.664 84.476C249.904 84.012 250.244 83.652 250.684 83.396C251.124 83.132 251.636 83 252.22 83C252.812 83 253.324 83.132 253.756 83.396C254.196 83.66 254.536 84.024 254.776 84.488C255.016 84.944 255.136 85.468 255.136 86.06C255.136 86.148 255.132 86.236 255.124 86.324C255.124 86.404 255.116 86.472 255.1 86.528H250.588V85.352H253.912L253.672 85.916C253.672 85.42 253.552 85.016 253.312 84.704C253.08 84.392 252.716 84.236 252.22 84.236C251.788 84.236 251.44 84.372 251.176 84.644C250.912 84.908 250.78 85.264 250.78 85.712V86.348C250.78 86.82 250.912 87.192 251.176 87.464C251.448 87.728 251.816 87.86 252.28 87.86C252.688 87.86 253.008 87.776 253.24 87.608C253.472 87.44 253.672 87.232 253.84 86.984L254.932 87.608C254.668 88.096 254.308 88.472 253.852 88.736C253.404 88.992 252.86 89.12 252.22 89.12ZM260.415 85.892H264.447V87.356H260.415V85.892ZM258.711 89L261.615 80.828H263.451L266.259 89H264.675L262.311 81.908H262.767L260.295 89H258.711ZM267.182 89V82.688C267.182 82.256 267.258 81.892 267.41 81.596C267.57 81.292 267.79 81.064 268.07 80.912C268.35 80.76 268.682 80.684 269.066 80.684C269.258 80.684 269.43 80.696 269.582 80.72C269.734 80.744 269.858 80.768 269.954 80.792V82.232C269.874 82.216 269.79 82.2 269.702 82.184C269.622 82.168 269.526 82.16 269.414 82.16C269.214 82.16 269.054 82.22 268.934 82.34C268.814 82.452 268.754 82.64 268.754 82.904V89H267.182ZM269.822 84.704H266.354V83.264H269.822V84.704ZM273.195 89.108C272.595 89.108 272.119 88.952 271.767 88.64C271.423 88.32 271.251 87.812 271.251 87.116V83.204L271.227 83.132L271.551 81.752H272.823V86.864C272.823 87.12 272.883 87.308 273.003 87.428C273.131 87.54 273.291 87.596 273.483 87.596C273.611 87.596 273.727 87.588 273.831 87.572C273.935 87.548 274.027 87.524 274.107 87.5V88.964C273.979 89.012 273.843 89.048 273.699 89.072C273.555 89.096 273.387 89.108 273.195 89.108ZM270.339 84.584V83.132H274.107V84.584H270.339ZM277.814 89.12C277.23 89.12 276.718 88.996 276.278 88.748C275.838 88.492 275.498 88.136 275.258 87.68C275.018 87.224 274.898 86.688 274.898 86.072C274.898 85.464 275.018 84.932 275.258 84.476C275.498 84.012 275.838 83.652 276.278 83.396C276.718 83.132 277.23 83 277.814 83C278.406 83 278.918 83.132 279.35 83.396C279.79 83.66 280.13 84.024 280.37 84.488C280.61 84.944 280.73 85.468 280.73 86.06C280.73 86.148 280.726 86.236 280.718 86.324C280.718 86.404 280.71 86.472 280.694 86.528H276.182V85.352H279.506L279.266 85.916C279.266 85.42 279.146 85.016 278.906 84.704C278.674 84.392 278.31 84.236 277.814 84.236C277.382 84.236 277.034 84.372 276.77 84.644C276.506 84.908 276.374 85.264 276.374 85.712V86.348C276.374 86.82 276.506 87.192 276.77 87.464C277.042 87.728 277.41 87.86 277.874 87.86C278.282 87.86 278.602 87.776 278.834 87.608C279.066 87.44 279.266 87.232 279.434 86.984L280.526 87.608C280.262 88.096 279.902 88.472 279.446 88.736C278.998 88.992 278.454 89.12 277.814 89.12ZM282.868 83.132L283.264 84.752V89H281.692V83.132H282.868ZM282.94 85.556L282.652 85.424V84.224L282.76 84.092C282.848 83.948 282.98 83.792 283.156 83.624C283.34 83.456 283.548 83.312 283.78 83.192C284.02 83.064 284.268 83 284.524 83C284.652 83 284.768 83.008 284.872 83.024C284.976 83.04 285.056 83.068 285.112 83.108V84.536H284.728C284.208 84.536 283.808 84.62 283.528 84.788C283.248 84.948 283.052 85.204 282.94 85.556ZM287.12 86.048V85.844L289.568 83.132H291.356L288.632 86.18L288.56 85.544L291.404 89H289.556L287.12 86.048ZM286.016 80.828H287.576V89H286.016V80.828ZM293.605 89.168C293.173 89.168 292.793 89.088 292.465 88.928C292.137 88.76 291.885 88.528 291.709 88.232C291.533 87.928 291.445 87.576 291.445 87.176C291.445 86.776 291.537 86.428 291.721 86.132C291.913 85.836 292.173 85.608 292.501 85.448C292.829 85.28 293.201 85.196 293.617 85.196C294.185 85.196 294.645 85.328 294.997 85.592C295.357 85.848 295.601 86.216 295.729 86.696L294.997 86.6V85.184C294.997 84.96 294.917 84.76 294.757 84.584C294.597 84.408 294.337 84.32 293.977 84.32C293.753 84.32 293.505 84.348 293.233 84.404C292.961 84.452 292.677 84.548 292.381 84.692L291.913 83.54C292.257 83.372 292.621 83.24 293.005 83.144C293.397 83.048 293.789 83 294.181 83C294.717 83 295.161 83.096 295.513 83.288C295.865 83.48 296.129 83.744 296.305 84.08C296.481 84.416 296.569 84.8 296.569 85.232V89H295.321L294.985 87.884L295.729 87.668C295.593 88.14 295.341 88.508 294.973 88.772C294.613 89.036 294.157 89.168 293.605 89.168ZM294.037 87.968C294.325 87.968 294.557 87.896 294.733 87.752C294.909 87.608 294.997 87.416 294.997 87.176C294.997 86.928 294.909 86.736 294.733 86.6C294.557 86.456 294.325 86.384 294.037 86.384C293.749 86.384 293.517 86.456 293.341 86.6C293.165 86.736 293.077 86.928 293.077 87.176C293.077 87.416 293.165 87.608 293.341 87.752C293.517 87.896 293.749 87.968 294.037 87.968ZM299.436 89H297.864V83.132H299.436V89ZM297.696 81.308C297.696 81.02 297.78 80.788 297.948 80.612C298.124 80.428 298.356 80.336 298.644 80.336C298.932 80.336 299.16 80.428 299.328 80.612C299.504 80.788 299.592 81.02 299.592 81.308C299.592 81.58 299.504 81.804 299.328 81.98C299.16 82.156 298.932 82.244 298.644 82.244C298.356 82.244 298.124 82.156 297.948 81.98C297.78 81.804 297.696 81.58 297.696 81.308ZM301.981 83.132L302.377 84.752V89H300.805V83.132H301.981ZM302.053 85.556L301.765 85.424V84.224L301.873 84.092C301.961 83.948 302.093 83.792 302.269 83.624C302.453 83.456 302.661 83.312 302.893 83.192C303.133 83.064 303.381 83 303.637 83C303.765 83 303.881 83.008 303.985 83.024C304.089 83.04 304.169 83.068 304.225 83.108V84.536H303.841C303.321 84.536 302.921 84.62 302.641 84.788C302.361 84.948 302.165 85.204 302.053 85.556ZM307.536 89.144C306.928 89.144 306.392 89.016 305.928 88.76C305.472 88.496 305.116 88.136 304.86 87.68C304.604 87.216 304.476 86.68 304.476 86.072C304.476 85.464 304.604 84.932 304.86 84.476C305.116 84.012 305.472 83.652 305.928 83.396C306.392 83.132 306.928 83 307.536 83C308.144 83 308.676 83.132 309.132 83.396C309.596 83.652 309.956 84.012 310.212 84.476C310.468 84.932 310.596 85.464 310.596 86.072C310.596 86.68 310.468 87.216 310.212 87.68C309.956 88.136 309.596 88.496 309.132 88.76C308.676 89.016 308.144 89.144 307.536 89.144ZM307.536 87.62C307.968 87.62 308.32 87.476 308.592 87.188C308.864 86.9 309 86.528 309 86.072C309 85.608 308.864 85.232 308.592 84.944C308.32 84.656 307.968 84.512 307.536 84.512C307.104 84.512 306.752 84.656 306.48 84.944C306.216 85.224 306.084 85.596 306.084 86.06C306.084 86.524 306.216 86.9 306.48 87.188C306.752 87.476 307.104 87.62 307.536 87.62ZM313.579 89.156C313.131 89.156 312.703 89.064 312.295 88.88C311.895 88.696 311.539 88.376 311.227 87.92L312.187 87.08C312.443 87.368 312.687 87.576 312.919 87.704C313.159 87.824 313.427 87.884 313.723 87.884C313.923 87.884 314.083 87.836 314.203 87.74C314.323 87.644 314.383 87.524 314.383 87.38C314.383 87.284 314.351 87.2 314.287 87.128C314.223 87.048 314.103 86.972 313.927 86.9C313.759 86.828 313.511 86.752 313.183 86.672C312.575 86.512 312.119 86.296 311.815 86.024C311.511 85.744 311.359 85.352 311.359 84.848C311.359 84.504 311.447 84.192 311.623 83.912C311.799 83.624 312.051 83.396 312.379 83.228C312.715 83.06 313.111 82.976 313.567 82.976C314.103 82.976 314.559 83.08 314.935 83.288C315.319 83.496 315.627 83.748 315.859 84.044L314.839 84.896C314.687 84.736 314.491 84.596 314.251 84.476C314.011 84.356 313.731 84.296 313.411 84.296C313.235 84.296 313.079 84.336 312.943 84.416C312.807 84.496 312.739 84.612 312.739 84.764C312.739 84.908 312.811 85.028 312.955 85.124C313.107 85.22 313.395 85.32 313.819 85.424C314.539 85.592 315.055 85.82 315.367 86.108C315.679 86.396 315.835 86.78 315.835 87.26C315.835 87.644 315.735 87.98 315.535 88.268C315.335 88.548 315.063 88.768 314.719 88.928C314.383 89.08 314.003 89.156 313.579 89.156Z" fill="#FFEEDA"/>
<path d="M2.448 65V32.312H14.112C17.568 32.312 20.528 32.968 22.992 34.28C25.456 35.56 27.344 37.416 28.656 39.848C29.968 42.28 30.624 45.208 30.624 48.632C30.624 52.088 29.952 55.032 28.608 57.464C27.296 59.896 25.408 61.768 22.944 63.08C20.48 64.36 17.52 65 14.064 65H2.448ZM10.224 60.68L7.008 57.464H13.536C15.392 57.464 16.992 57.176 18.336 56.6C19.712 55.992 20.768 55.032 21.504 53.72C22.272 52.408 22.656 50.712 22.656 48.632C22.656 46.584 22.288 44.92 21.552 43.64C20.816 42.328 19.76 41.368 18.384 40.76C17.04 40.152 15.44 39.848 13.584 39.848H6.672L10.224 37.688V60.68ZM41.6291 65H33.8051V41.48H41.6291V65ZM33.2291 34.04C33.2291 32.664 33.6451 31.576 34.4771 30.776C35.3091 29.944 36.3971 29.528 37.7411 29.528C39.1171 29.528 40.2051 29.944 41.0051 30.776C41.8051 31.576 42.2051 32.664 42.2051 34.04C42.2051 35.352 41.8051 36.424 41.0051 37.256C40.2051 38.056 39.1171 38.456 37.7411 38.456C36.3971 38.456 35.3091 38.056 34.4771 37.256C33.6451 36.424 33.2291 35.352 33.2291 34.04ZM52.0328 41.48L54.0488 48.056V65H46.2728V41.48H52.0328ZM52.2248 52.616L50.9768 52.088V45.944L51.4568 45.416C51.8408 44.84 52.4008 44.2 53.1368 43.496C53.9048 42.792 54.7688 42.184 55.7288 41.672C56.7208 41.128 57.7448 40.856 58.8008 40.856C59.3128 40.856 59.7768 40.904 60.1928 41C60.6088 41.064 60.9288 41.176 61.1528 41.336V48.44H59.5688C57.5848 48.44 55.9688 48.776 54.7208 49.448C53.5048 50.088 52.6728 51.144 52.2248 52.616ZM73.9868 65.432C71.6188 65.432 69.5388 64.936 67.7468 63.944C65.9868 62.952 64.6108 61.544 63.6188 59.72C62.6268 57.896 62.1308 55.736 62.1308 53.24C62.1308 50.84 62.6268 48.712 63.6188 46.856C64.6108 45 65.9868 43.544 67.7468 42.488C69.5388 41.4 71.6188 40.856 73.9868 40.856C76.4508 40.856 78.5628 41.416 80.3228 42.536C82.0828 43.656 83.4428 45.144 84.4028 47C85.3628 48.824 85.8428 50.872 85.8428 53.144C85.8428 53.656 85.8268 54.12 85.7948 54.536C85.7628 54.952 85.7148 55.288 85.6508 55.544H67.9388V50.264H79.6508L78.9788 51.992C78.9788 50.488 78.5788 49.256 77.7788 48.296C76.9788 47.336 75.7468 46.856 74.0828 46.856C72.5468 46.856 71.3308 47.304 70.4348 48.2C69.5388 49.096 69.0908 50.296 69.0908 51.8V54.44C69.0908 56.072 69.5708 57.336 70.5308 58.232C71.4908 59.096 72.8348 59.528 74.5628 59.528C75.9388 59.528 77.0268 59.272 77.8268 58.76C78.6588 58.216 79.3468 57.528 79.8908 56.696L85.0748 59.48C84.0828 61.304 82.6268 62.76 80.7068 63.848C78.7868 64.904 76.5468 65.432 73.9868 65.432ZM99.7736 65.624C97.3736 65.624 95.2616 65.096 93.4376 64.04C91.6456 62.984 90.2376 61.512 89.2136 59.624C88.1896 57.736 87.6776 55.592 87.6776 53.192C87.6776 50.824 88.1896 48.712 89.2136 46.856C90.2376 45 91.6456 43.544 93.4376 42.488C95.2616 41.4 97.3736 40.856 99.7736 40.856C102.494 40.856 104.83 41.512 106.782 42.824C108.734 44.136 110.126 45.896 110.958 48.104L103.998 51.272C103.582 50.376 103.054 49.688 102.414 49.208C101.774 48.696 100.926 48.44 99.8696 48.44C98.6216 48.44 97.5656 48.872 96.7016 49.736C95.8696 50.6 95.4536 51.752 95.4536 53.192C95.4536 54.696 95.8696 55.88 96.7016 56.744C97.5656 57.576 98.6216 57.992 99.8696 57.992C100.926 57.992 101.774 57.752 102.414 57.272C103.054 56.792 103.582 56.12 103.998 55.256L110.958 58.328C110.126 60.536 108.718 62.312 106.734 63.656C104.782 64.968 102.462 65.624 99.7736 65.624ZM124.721 65.384C121.937 65.384 119.745 64.728 118.145 63.416C116.577 62.104 115.793 59.928 115.793 56.888V41.768L115.697 41.48L117.329 35.768H123.569V54.776C123.569 55.928 123.825 56.744 124.337 57.224C124.881 57.704 125.585 57.944 126.449 57.944C126.929 57.944 127.377 57.896 127.793 57.8C128.241 57.704 128.609 57.608 128.897 57.512V64.808C128.289 65 127.649 65.144 126.977 65.24C126.305 65.336 125.553 65.384 124.721 65.384ZM112.145 48.68V41.48H128.897V48.68H112.145ZM144.08 65.624C141.616 65.624 139.456 65.096 137.6 64.04C135.744 62.984 134.288 61.528 133.232 59.672C132.176 57.816 131.648 55.688 131.648 53.288C131.648 50.856 132.176 48.712 133.232 46.856C134.288 45 135.744 43.544 137.6 42.488C139.456 41.4 141.616 40.856 144.08 40.856C146.576 40.856 148.752 41.4 150.608 42.488C152.496 43.544 153.952 45 154.976 46.856C156.032 48.712 156.56 50.856 156.56 53.288C156.56 55.688 156.032 57.816 154.976 59.672C153.952 61.528 152.496 62.984 150.608 64.04C148.752 65.096 146.576 65.624 144.08 65.624ZM144.08 58.04C145.424 58.04 146.528 57.608 147.392 56.744C148.256 55.848 148.688 54.68 148.688 53.24C148.688 51.8 148.256 50.648 147.392 49.784C146.528 48.888 145.424 48.44 144.08 48.44C142.768 48.44 141.68 48.888 140.816 49.784C139.952 50.648 139.52 51.8 139.52 53.24C139.52 54.648 139.952 55.8 140.816 56.696C141.68 57.592 142.768 58.04 144.08 58.04ZM165.377 41.48L167.393 48.056V65H159.617V41.48H165.377ZM165.569 52.616L164.321 52.088V45.944L164.801 45.416C165.185 44.84 165.745 44.2 166.481 43.496C167.249 42.792 168.113 42.184 169.073 41.672C170.065 41.128 171.089 40.856 172.145 40.856C172.657 40.856 173.121 40.904 173.537 41C173.953 41.064 174.273 41.176 174.497 41.336V48.44H172.913C170.929 48.44 169.313 48.776 168.065 49.448C166.849 50.088 166.017 51.144 165.569 52.616Z" fill="url(#paint0_linear_810_279)"/>
<path d="M198.965 65L188.021 32.312H196.037L204.965 59.672H201.605L210.629 32.312H218.405L207.461 65H198.965ZM228.848 65H221.024V41.48H228.848V65ZM220.448 34.04C220.448 32.664 220.864 31.576 221.696 30.776C222.528 29.944 223.616 29.528 224.96 29.528C226.336 29.528 227.424 29.944 228.224 30.776C229.024 31.576 229.424 32.664 229.424 34.04C229.424 35.352 229.024 36.424 228.224 37.256C227.424 38.056 226.336 38.456 224.96 38.456C223.616 38.456 222.528 38.056 221.696 37.256C220.864 36.424 220.448 35.352 220.448 34.04ZM242.468 65.768C240.516 65.768 238.692 65.416 236.996 64.712C235.332 63.976 233.764 62.712 232.292 60.92L236.42 56.648C237.54 57.736 238.628 58.52 239.684 59C240.772 59.48 241.892 59.72 243.044 59.72C243.62 59.72 244.1 59.608 244.484 59.384C244.868 59.128 245.06 58.824 245.06 58.472C245.06 58.152 244.932 57.88 244.676 57.656C244.452 57.432 243.972 57.208 243.236 56.984C242.532 56.76 241.492 56.472 240.116 56.12C237.588 55.48 235.732 54.568 234.548 53.384C233.363 52.168 232.771 50.584 232.771 48.632C232.771 47.192 233.156 45.88 233.924 44.696C234.692 43.48 235.796 42.52 237.236 41.816C238.676 41.08 240.372 40.712 242.324 40.712C244.66 40.712 246.644 41.144 248.276 42.008C249.908 42.872 251.268 43.912 252.356 45.128L247.796 49.208C247.028 48.536 246.116 47.992 245.06 47.576C244.036 47.16 242.916 46.952 241.7 46.952C241.06 46.952 240.532 47.064 240.116 47.288C239.7 47.48 239.492 47.768 239.492 48.152C239.492 48.504 239.764 48.824 240.308 49.112C240.884 49.368 242.052 49.704 243.812 50.12C246.724 50.824 248.836 51.8 250.148 53.048C251.46 54.264 252.116 55.912 252.116 57.992C252.116 59.528 251.7 60.888 250.868 62.072C250.068 63.224 248.932 64.136 247.46 64.808C246.02 65.448 244.356 65.768 242.468 65.768ZM263.447 65.624C261.719 65.624 260.295 65.368 259.175 64.856C258.087 64.344 257.239 63.656 256.631 62.792C256.023 61.896 255.591 60.872 255.335 59.72C255.111 58.536 254.999 57.272 254.999 55.928V41.48H262.775V55.064C262.775 56.248 262.999 57.048 263.447 57.464C263.927 57.848 264.535 58.04 265.271 58.04C265.847 58.04 266.407 57.944 266.951 57.752C267.527 57.56 268.087 57.272 268.631 56.888C269.207 56.504 269.767 56.008 270.311 55.4L271.943 59.24H269.543V41.48H277.367V65H271.607L270.023 60.152L272.855 60.488C272.087 61.352 271.207 62.184 270.215 62.984C269.223 63.752 268.151 64.392 266.999 64.904C265.879 65.384 264.695 65.624 263.447 65.624ZM288.971 65.624C287.307 65.624 285.835 65.304 284.555 64.664C283.275 63.992 282.267 63.064 281.531 61.88C280.827 60.664 280.475 59.288 280.475 57.752C280.475 56.088 280.859 54.68 281.627 53.528C282.427 52.344 283.467 51.448 284.747 50.84C286.059 50.2 287.499 49.88 289.067 49.88C291.403 49.88 293.307 50.424 294.779 51.512C296.251 52.568 297.211 54.136 297.659 56.216L294.491 55.496V50.168C294.491 49.368 294.203 48.68 293.627 48.104C293.051 47.528 292.155 47.24 290.939 47.24C290.075 47.24 289.083 47.352 287.963 47.576C286.843 47.8 285.659 48.216 284.411 48.824L282.203 43.304C283.611 42.6 285.163 42.024 286.859 41.576C288.555 41.096 290.315 40.856 292.139 40.856C294.347 40.856 296.203 41.256 297.707 42.056C299.243 42.856 300.395 43.992 301.163 45.464C301.931 46.904 302.315 48.616 302.315 50.6V65H295.787L294.299 60.344L297.659 59.288C297.179 61.24 296.219 62.792 294.779 63.944C293.371 65.064 291.435 65.624 288.971 65.624ZM291.611 60.344C292.507 60.344 293.227 60.104 293.771 59.624C294.315 59.144 294.587 58.52 294.587 57.752C294.587 57.016 294.315 56.408 293.771 55.928C293.227 55.448 292.507 55.208 291.611 55.208C290.651 55.208 289.899 55.448 289.355 55.928C288.843 56.408 288.587 57.016 288.587 57.752C288.587 58.52 288.843 59.144 289.355 59.624C289.899 60.104 290.651 60.344 291.611 60.344ZM313.679 65.24C312.399 65.24 311.199 65 310.079 64.52C308.959 64.008 308.047 63.192 307.343 62.072C306.671 60.952 306.335 59.464 306.335 57.608V32.312H314.063V54.872C314.063 56.088 314.255 56.872 314.639 57.224C315.055 57.544 315.615 57.704 316.319 57.704V65.048C316.031 65.112 315.615 65.16 315.071 65.192C314.559 65.224 314.095 65.24 313.679 65.24Z" fill="url(#paint1_linear_810_279)"/>
<defs>
<linearGradient id="paint0_linear_810_279" x1="2.33117e-08" y1="32" x2="124.334" y2="62.2565" gradientUnits="userSpaceOnUse">
<stop stop-color="#FFF600"/>
<stop offset="1" stop-color="#FFA100"/>
</linearGradient>
<linearGradient id="paint1_linear_810_279" x1="136.081" y1="37" x2="298.238" y2="59.3828" gradientUnits="userSpaceOnUse">
<stop stop-color="#FFF700"/>
<stop offset="1" stop-color="#FFA200"/>
</linearGradient>
</defs>
</svg>
