<svg width="274" height="76" viewBox="0 0 274 76" fill="none" xmlns="http://www.w3.org/2000/svg">
<path d="M7.275 14V3.785H9.24V14H7.275ZM1.02 14V3.785H2.985V14H1.02ZM2.295 9.935V8.06H7.92V9.935H2.295ZM13.2707 14.21C12.7307 14.21 12.2557 14.11 11.8457 13.91C11.4357 13.7 11.1207 13.41 10.9007 13.04C10.6807 12.66 10.5707 12.22 10.5707 11.72C10.5707 11.22 10.6857 10.785 10.9157 10.415C11.1557 10.045 11.4807 9.76 11.8907 9.56C12.3007 9.35 12.7657 9.245 13.2857 9.245C13.9957 9.245 14.5707 9.41 15.0107 9.74C15.4607 10.06 15.7657 10.52 15.9257 11.12L15.0107 11V9.23C15.0107 8.95 14.9107 8.7 14.7107 8.48C14.5107 8.26 14.1857 8.15 13.7357 8.15C13.4557 8.15 13.1457 8.185 12.8057 8.255C12.4657 8.315 12.1107 8.435 11.7407 8.615L11.1557 7.175C11.5857 6.965 12.0407 6.8 12.5207 6.68C13.0107 6.56 13.5007 6.5 13.9907 6.5C14.6607 6.5 15.2157 6.62 15.6557 6.86C16.0957 7.1 16.4257 7.43 16.6457 7.85C16.8657 8.27 16.9757 8.75 16.9757 9.29V14H15.4157L14.9957 12.605L15.9257 12.335C15.7557 12.925 15.4407 13.385 14.9807 13.715C14.5307 14.045 13.9607 14.21 13.2707 14.21ZM13.8107 12.71C14.1707 12.71 14.4607 12.62 14.6807 12.44C14.9007 12.26 15.0107 12.02 15.0107 11.72C15.0107 11.41 14.9007 11.17 14.6807 11C14.4607 10.82 14.1707 10.73 13.8107 10.73C13.4507 10.73 13.1607 10.82 12.9407 11C12.7207 11.17 12.6107 11.41 12.6107 11.72C12.6107 12.02 12.7207 12.26 12.9407 12.44C13.1607 12.62 13.4507 12.71 13.8107 12.71ZM22.5096 14.18C21.8696 14.18 21.3046 14.02 20.8146 13.7C20.3346 13.38 19.9596 12.935 19.6896 12.365C19.4196 11.785 19.2846 11.105 19.2846 10.325C19.2846 9.515 19.4146 8.825 19.6746 8.255C19.9446 7.685 20.3196 7.25 20.7996 6.95C21.2796 6.65 21.8446 6.5 22.4946 6.5C23.1646 6.5 23.7546 6.66 24.2646 6.98C24.7746 7.3 25.1696 7.75 25.4496 8.33C25.7396 8.9 25.8846 9.565 25.8846 10.325C25.8846 11.075 25.7396 11.74 25.4496 12.32C25.1696 12.9 24.7746 13.355 24.2646 13.685C23.7646 14.015 23.1796 14.18 22.5096 14.18ZM18.5646 14V3.785H20.5296V8.585H20.3796V12.26H20.5296L20.0346 14H18.5646ZM22.1646 12.365C22.6646 12.365 23.0746 12.175 23.3946 11.795C23.7246 11.415 23.8896 10.925 23.8896 10.325C23.8896 9.725 23.7246 9.24 23.3946 8.87C23.0746 8.49 22.6646 8.3 22.1646 8.3C21.6646 8.3 21.2496 8.49 20.9196 8.87C20.5896 9.24 20.4246 9.73 20.4246 10.34C20.4246 10.94 20.5896 11.43 20.9196 11.81C21.2496 12.18 21.6646 12.365 22.1646 12.365ZM28.8464 14.075C28.5164 14.075 28.2114 14.005 27.9314 13.865C27.6614 13.725 27.4414 13.51 27.2714 13.22C27.1114 12.92 27.0314 12.535 27.0314 12.065V3.785H28.9814V11.375C28.9814 11.725 29.0514 11.955 29.1914 12.065C29.3314 12.165 29.5014 12.215 29.7014 12.215V13.97C29.5914 14.01 29.4564 14.035 29.2964 14.045C29.1464 14.065 28.9964 14.075 28.8464 14.075ZM34.1818 14.15C33.4518 14.15 32.8118 13.995 32.2618 13.685C31.7118 13.365 31.2868 12.92 30.9868 12.35C30.6868 11.78 30.5368 11.11 30.5368 10.34C30.5368 9.58 30.6868 8.915 30.9868 8.345C31.2868 7.765 31.7118 7.315 32.2618 6.995C32.8118 6.665 33.4518 6.5 34.1818 6.5C34.9218 6.5 35.5618 6.665 36.1018 6.995C36.6518 7.325 37.0768 7.78 37.3768 8.36C37.6768 8.93 37.8268 9.585 37.8268 10.325C37.8268 10.435 37.8218 10.545 37.8118 10.655C37.8118 10.755 37.8018 10.84 37.7818 10.91H32.1418V9.44H36.2968L35.9968 10.145C35.9968 9.525 35.8468 9.02 35.5468 8.63C35.2568 8.24 34.8018 8.045 34.1818 8.045C33.6418 8.045 33.2068 8.215 32.8768 8.555C32.5468 8.885 32.3818 9.33 32.3818 9.89V10.685C32.3818 11.275 32.5468 11.74 32.8768 12.08C33.2168 12.41 33.6768 12.575 34.2568 12.575C34.7668 12.575 35.1668 12.47 35.4568 12.26C35.7468 12.05 35.9968 11.79 36.2068 11.48L37.5718 12.26C37.2418 12.87 36.7918 13.34 36.2218 13.67C35.6618 13.99 34.9818 14.15 34.1818 14.15ZM39.0285 14V6.665H40.4985L40.9035 8.075L40.2735 8.045C40.5335 7.745 40.8185 7.48 41.1285 7.25C41.4385 7.02 41.7735 6.84 42.1335 6.71C42.5035 6.57 42.8885 6.5 43.2885 6.5C43.7885 6.5 44.1885 6.585 44.4885 6.755C44.7885 6.925 45.0085 7.155 45.1485 7.445C45.2985 7.735 45.3985 8.065 45.4485 8.435C45.5085 8.795 45.5385 9.17 45.5385 9.56V14H43.5735V9.545C43.5735 9.095 43.4835 8.795 43.3035 8.645C43.1235 8.495 42.9085 8.42 42.6585 8.42C42.2985 8.42 41.9485 8.53 41.6085 8.75C41.2685 8.96 40.9835 9.23 40.7535 9.56L40.4985 8.54H40.9935V14H39.0285ZM48.1035 14V9.545C48.1035 9.095 48.0135 8.795 47.8335 8.645C47.6635 8.495 47.4535 8.42 47.2035 8.42C46.8435 8.42 46.4935 8.53 46.1535 8.75C45.8135 8.96 45.5285 9.23 45.2985 9.56L44.8035 8.045C45.0635 7.745 45.3485 7.48 45.6585 7.25C45.9785 7.02 46.3185 6.84 46.6785 6.71C47.0485 6.57 47.4335 6.5 47.8335 6.5C48.3235 6.5 48.7185 6.585 49.0185 6.755C49.3185 6.925 49.5435 7.155 49.6935 7.445C49.8435 7.735 49.9435 8.065 49.9935 8.435C50.0535 8.795 50.0835 9.17 50.0835 9.56V14H48.1035ZM54.9868 14.18C54.2268 14.18 53.5568 14.02 52.9768 13.7C52.4068 13.37 51.9618 12.92 51.6418 12.35C51.3218 11.77 51.1618 11.1 51.1618 10.34C51.1618 9.58 51.3218 8.915 51.6418 8.345C51.9618 7.765 52.4068 7.315 52.9768 6.995C53.5568 6.665 54.2268 6.5 54.9868 6.5C55.7468 6.5 56.4118 6.665 56.9818 6.995C57.5618 7.315 58.0118 7.765 58.3318 8.345C58.6518 8.915 58.8118 9.58 58.8118 10.34C58.8118 11.1 58.6518 11.77 58.3318 12.35C58.0118 12.92 57.5618 13.37 56.9818 13.7C56.4118 14.02 55.7468 14.18 54.9868 14.18ZM54.9868 12.275C55.5268 12.275 55.9668 12.095 56.3068 11.735C56.6468 11.375 56.8168 10.91 56.8168 10.34C56.8168 9.76 56.6468 9.29 56.3068 8.93C55.9668 8.57 55.5268 8.39 54.9868 8.39C54.4468 8.39 54.0068 8.57 53.6668 8.93C53.3368 9.28 53.1718 9.745 53.1718 10.325C53.1718 10.905 53.3368 11.375 53.6668 11.735C54.0068 12.095 54.4468 12.275 54.9868 12.275ZM62.5407 14.195C61.9807 14.195 61.4457 14.08 60.9357 13.85C60.4357 13.62 59.9907 13.22 59.6007 12.65L60.8007 11.6C61.1207 11.96 61.4257 12.22 61.7157 12.38C62.0157 12.53 62.3507 12.605 62.7207 12.605C62.9707 12.605 63.1707 12.545 63.3207 12.425C63.4707 12.305 63.5457 12.155 63.5457 11.975C63.5457 11.855 63.5057 11.75 63.4257 11.66C63.3457 11.56 63.1957 11.465 62.9757 11.375C62.7657 11.285 62.4557 11.19 62.0457 11.09C61.2857 10.89 60.7157 10.62 60.3357 10.28C59.9557 9.93 59.7657 9.44 59.7657 8.81C59.7657 8.38 59.8757 7.99 60.0957 7.64C60.3157 7.28 60.6307 6.995 61.0407 6.785C61.4607 6.575 61.9557 6.47 62.5257 6.47C63.1957 6.47 63.7657 6.6 64.2357 6.86C64.7157 7.12 65.1007 7.435 65.3907 7.805L64.1157 8.87C63.9257 8.67 63.6807 8.495 63.3807 8.345C63.0807 8.195 62.7307 8.12 62.3307 8.12C62.1107 8.12 61.9157 8.17 61.7457 8.27C61.5757 8.37 61.4907 8.515 61.4907 8.705C61.4907 8.885 61.5807 9.035 61.7607 9.155C61.9507 9.275 62.3107 9.4 62.8407 9.53C63.7407 9.74 64.3857 10.025 64.7757 10.385C65.1657 10.745 65.3607 11.225 65.3607 11.825C65.3607 12.305 65.2357 12.725 64.9857 13.085C64.7357 13.435 64.3957 13.71 63.9657 13.91C63.5457 14.1 63.0707 14.195 62.5407 14.195ZM73.4919 14.18C72.8219 14.18 72.2319 14.015 71.7219 13.685C71.2119 13.355 70.8169 12.9 70.5369 12.32C70.2569 11.74 70.1169 11.075 70.1169 10.325C70.1169 9.565 70.2569 8.9 70.5369 8.33C70.8269 7.75 71.2269 7.3 71.7369 6.98C72.2469 6.66 72.8319 6.5 73.4919 6.5C74.1419 6.5 74.7069 6.65 75.1869 6.95C75.6669 7.25 76.0419 7.685 76.3119 8.255C76.5819 8.825 76.7169 9.515 76.7169 10.325C76.7169 11.105 76.5819 11.785 76.3119 12.365C76.0419 12.935 75.6619 13.38 75.1719 13.7C74.6919 14.02 74.1319 14.18 73.4919 14.18ZM73.8369 12.365C74.3469 12.365 74.7619 12.18 75.0819 11.81C75.4019 11.43 75.5619 10.94 75.5619 10.34C75.5619 9.73 75.4019 9.24 75.0819 8.87C74.7619 8.49 74.3469 8.3 73.8369 8.3C73.3369 8.3 72.9219 8.49 72.5919 8.87C72.2719 9.24 72.1119 9.725 72.1119 10.325C72.1119 10.925 72.2719 11.415 72.5919 11.795C72.9219 12.175 73.3369 12.365 73.8369 12.365ZM75.9669 14L75.4719 12.26H75.6069V8.585H75.4719V3.785H77.4369V14H75.9669ZM82.2287 14.15C81.4987 14.15 80.8587 13.995 80.3087 13.685C79.7587 13.365 79.3337 12.92 79.0337 12.35C78.7337 11.78 78.5837 11.11 78.5837 10.34C78.5837 9.58 78.7337 8.915 79.0337 8.345C79.3337 7.765 79.7587 7.315 80.3087 6.995C80.8587 6.665 81.4987 6.5 82.2287 6.5C82.9687 6.5 83.6087 6.665 84.1487 6.995C84.6987 7.325 85.1237 7.78 85.4237 8.36C85.7237 8.93 85.8737 9.585 85.8737 10.325C85.8737 10.435 85.8687 10.545 85.8587 10.655C85.8587 10.755 85.8487 10.84 85.8287 10.91H80.1887V9.44H84.3437L84.0437 10.145C84.0437 9.525 83.8937 9.02 83.5937 8.63C83.3037 8.24 82.8487 8.045 82.2287 8.045C81.6887 8.045 81.2537 8.215 80.9237 8.555C80.5937 8.885 80.4287 9.33 80.4287 9.89V10.685C80.4287 11.275 80.5937 11.74 80.9237 12.08C81.2637 12.41 81.7237 12.575 82.3037 12.575C82.8137 12.575 83.2137 12.47 83.5037 12.26C83.7937 12.05 84.0437 11.79 84.2537 11.48L85.6187 12.26C85.2887 12.87 84.8387 13.34 84.2687 13.67C83.7087 13.99 83.0287 14.15 82.2287 14.15ZM94.0618 14.135C93.3118 14.135 92.7168 13.94 92.2768 13.55C91.8468 13.15 91.6318 12.515 91.6318 11.645V6.755L91.6018 6.665L92.0068 4.94H93.5968V11.33C93.5968 11.65 93.6718 11.885 93.8218 12.035C93.9818 12.175 94.1818 12.245 94.4218 12.245C94.5818 12.245 94.7268 12.235 94.8568 12.215C94.9868 12.185 95.1018 12.155 95.2018 12.125V13.955C95.0418 14.015 94.8718 14.06 94.6918 14.09C94.5118 14.12 94.3018 14.135 94.0618 14.135ZM90.4918 8.48V6.665H95.2018V8.48H90.4918ZM99.1733 14.18C98.6233 14.18 98.1833 14.095 97.8533 13.925C97.5233 13.755 97.2683 13.53 97.0883 13.25C96.9183 12.96 96.8033 12.63 96.7433 12.26C96.6833 11.89 96.6533 11.505 96.6533 11.105V6.665H98.6183V11.12C98.6183 11.57 98.7133 11.87 98.9033 12.02C99.1033 12.17 99.3383 12.245 99.6083 12.245C99.8583 12.245 100.108 12.2 100.358 12.11C100.608 12.02 100.843 11.89 101.063 11.72C101.293 11.54 101.483 11.335 101.633 11.105L101.873 12.14H101.393V6.665H103.358V14H101.888L101.483 12.605L102.113 12.62C101.863 12.91 101.578 13.175 101.258 13.415C100.948 13.655 100.613 13.845 100.253 13.985C99.9033 14.115 99.5433 14.18 99.1733 14.18ZM110.671 9.14H112.591C113.171 9.14 113.631 8.99 113.971 8.69C114.311 8.39 114.481 7.965 114.481 7.415C114.481 6.835 114.311 6.4 113.971 6.11C113.641 5.81 113.186 5.66 112.606 5.66H110.656L111.076 5.225V14H109.111V3.785H112.786C113.536 3.785 114.186 3.94 114.736 4.25C115.286 4.55 115.716 4.97 116.026 5.51C116.336 6.05 116.491 6.685 116.491 7.415C116.491 8.135 116.336 8.77 116.026 9.32C115.716 9.86 115.281 10.28 114.721 10.58C114.171 10.88 113.526 11.03 112.786 11.03H110.671V9.14ZM119.043 6.665L119.538 8.69V14H117.573V6.665H119.043ZM119.133 9.695L118.773 9.53V8.03L118.908 7.865C119.018 7.685 119.183 7.49 119.403 7.28C119.633 7.07 119.893 6.89 120.183 6.74C120.483 6.58 120.793 6.5 121.113 6.5C121.273 6.5 121.418 6.51 121.548 6.53C121.678 6.55 121.778 6.585 121.848 6.635V8.42H121.368C120.718 8.42 120.218 8.525 119.868 8.735C119.518 8.935 119.273 9.255 119.133 9.695ZM125.808 14.15C125.078 14.15 124.438 13.995 123.888 13.685C123.338 13.365 122.913 12.92 122.613 12.35C122.313 11.78 122.163 11.11 122.163 10.34C122.163 9.58 122.313 8.915 122.613 8.345C122.913 7.765 123.338 7.315 123.888 6.995C124.438 6.665 125.078 6.5 125.808 6.5C126.548 6.5 127.188 6.665 127.728 6.995C128.278 7.325 128.703 7.78 129.003 8.36C129.303 8.93 129.453 9.585 129.453 10.325C129.453 10.435 129.448 10.545 129.438 10.655C129.438 10.755 129.428 10.84 129.408 10.91H123.768V9.44H127.923L127.623 10.145C127.623 9.525 127.473 9.02 127.173 8.63C126.883 8.24 126.428 8.045 125.808 8.045C125.268 8.045 124.833 8.215 124.503 8.555C124.173 8.885 124.008 9.33 124.008 9.89V10.685C124.008 11.275 124.173 11.74 124.503 12.08C124.843 12.41 125.303 12.575 125.883 12.575C126.393 12.575 126.793 12.47 127.083 12.26C127.373 12.05 127.623 11.79 127.833 11.48L129.198 12.26C128.868 12.87 128.418 13.34 127.848 13.67C127.288 13.99 126.608 14.15 125.808 14.15ZM133.132 14.195C132.572 14.195 132.037 14.08 131.527 13.85C131.027 13.62 130.582 13.22 130.192 12.65L131.392 11.6C131.712 11.96 132.017 12.22 132.307 12.38C132.607 12.53 132.942 12.605 133.312 12.605C133.562 12.605 133.762 12.545 133.912 12.425C134.062 12.305 134.137 12.155 134.137 11.975C134.137 11.855 134.097 11.75 134.017 11.66C133.937 11.56 133.787 11.465 133.567 11.375C133.357 11.285 133.047 11.19 132.637 11.09C131.877 10.89 131.307 10.62 130.927 10.28C130.547 9.93 130.357 9.44 130.357 8.81C130.357 8.38 130.467 7.99 130.687 7.64C130.907 7.28 131.222 6.995 131.632 6.785C132.052 6.575 132.547 6.47 133.117 6.47C133.787 6.47 134.357 6.6 134.827 6.86C135.307 7.12 135.692 7.435 135.982 7.805L134.707 8.87C134.517 8.67 134.272 8.495 133.972 8.345C133.672 8.195 133.322 8.12 132.922 8.12C132.702 8.12 132.507 8.17 132.337 8.27C132.167 8.37 132.082 8.515 132.082 8.705C132.082 8.885 132.172 9.035 132.352 9.155C132.542 9.275 132.902 9.4 133.432 9.53C134.332 9.74 134.977 10.025 135.367 10.385C135.757 10.745 135.952 11.225 135.952 11.825C135.952 12.305 135.827 12.725 135.577 13.085C135.327 13.435 134.987 13.71 134.557 13.91C134.137 14.1 133.662 14.195 133.132 14.195ZM140.412 14.15C139.682 14.15 139.042 13.995 138.492 13.685C137.942 13.365 137.517 12.92 137.217 12.35C136.917 11.78 136.767 11.11 136.767 10.34C136.767 9.58 136.917 8.915 137.217 8.345C137.517 7.765 137.942 7.315 138.492 6.995C139.042 6.665 139.682 6.5 140.412 6.5C141.152 6.5 141.792 6.665 142.332 6.995C142.882 7.325 143.307 7.78 143.607 8.36C143.907 8.93 144.057 9.585 144.057 10.325C144.057 10.435 144.052 10.545 144.042 10.655C144.042 10.755 144.032 10.84 144.012 10.91H138.372V9.44H142.527L142.227 10.145C142.227 9.525 142.077 9.02 141.777 8.63C141.487 8.24 141.032 8.045 140.412 8.045C139.872 8.045 139.437 8.215 139.107 8.555C138.777 8.885 138.612 9.33 138.612 9.89V10.685C138.612 11.275 138.777 11.74 139.107 12.08C139.447 12.41 139.907 12.575 140.487 12.575C140.997 12.575 141.397 12.47 141.687 12.26C141.977 12.05 142.227 11.79 142.437 11.48L143.802 12.26C143.472 12.87 143.022 13.34 142.452 13.67C141.892 13.99 141.212 14.15 140.412 14.15ZM149.669 6.5C150.169 6.5 150.569 6.585 150.869 6.755C151.179 6.925 151.409 7.155 151.559 7.445C151.719 7.735 151.824 8.065 151.874 8.435C151.924 8.795 151.949 9.17 151.949 9.56V14H149.984V9.545C149.984 9.095 149.894 8.795 149.714 8.645C149.544 8.495 149.324 8.42 149.054 8.42C148.804 8.42 148.549 8.47 148.289 8.57C148.029 8.66 147.784 8.795 147.554 8.975C147.334 9.145 147.144 9.34 146.984 9.56L146.729 8.54H147.224V14H145.259V6.665H146.729L147.134 8.075L146.504 8.045C146.764 7.745 147.059 7.48 147.389 7.25C147.729 7.02 148.089 6.84 148.469 6.71C148.849 6.57 149.249 6.5 149.669 6.5ZM156.762 14.18C156.012 14.18 155.357 14.015 154.797 13.685C154.237 13.355 153.802 12.9 153.492 12.32C153.192 11.74 153.042 11.075 153.042 10.325C153.042 9.585 153.192 8.925 153.492 8.345C153.802 7.765 154.237 7.315 154.797 6.995C155.357 6.665 156.012 6.5 156.762 6.5C157.542 6.5 158.227 6.7 158.817 7.1C159.417 7.49 159.847 8.02 160.107 8.69L158.307 9.47C158.157 9.13 157.952 8.865 157.692 8.675C157.442 8.485 157.127 8.39 156.747 8.39C156.257 8.39 155.847 8.565 155.517 8.915C155.187 9.255 155.022 9.725 155.022 10.325C155.022 10.935 155.187 11.41 155.517 11.75C155.847 12.09 156.257 12.26 156.747 12.26C157.127 12.26 157.442 12.17 157.692 11.99C157.952 11.8 158.157 11.535 158.307 11.195L160.107 11.975C159.847 12.635 159.417 13.17 158.817 13.58C158.217 13.98 157.532 14.18 156.762 14.18ZM163.118 14H161.153V6.665H163.118V14ZM160.943 4.385C160.943 4.025 161.048 3.735 161.258 3.515C161.478 3.285 161.768 3.17 162.128 3.17C162.488 3.17 162.773 3.285 162.983 3.515C163.203 3.735 163.313 4.025 163.313 4.385C163.313 4.725 163.203 5.005 162.983 5.225C162.773 5.445 162.488 5.555 162.128 5.555C161.768 5.555 161.478 5.445 161.258 5.225C161.048 5.005 160.943 4.725 160.943 4.385ZM167.035 14.21C166.495 14.21 166.02 14.11 165.61 13.91C165.2 13.7 164.885 13.41 164.665 13.04C164.445 12.66 164.335 12.22 164.335 11.72C164.335 11.22 164.45 10.785 164.68 10.415C164.92 10.045 165.245 9.76 165.655 9.56C166.065 9.35 166.53 9.245 167.05 9.245C167.76 9.245 168.335 9.41 168.775 9.74C169.225 10.06 169.53 10.52 169.69 11.12L168.775 11V9.23C168.775 8.95 168.675 8.7 168.475 8.48C168.275 8.26 167.95 8.15 167.5 8.15C167.22 8.15 166.91 8.185 166.57 8.255C166.23 8.315 165.875 8.435 165.505 8.615L164.92 7.175C165.35 6.965 165.805 6.8 166.285 6.68C166.775 6.56 167.265 6.5 167.755 6.5C168.425 6.5 168.98 6.62 169.42 6.86C169.86 7.1 170.19 7.43 170.41 7.85C170.63 8.27 170.74 8.75 170.74 9.29V14H169.18L168.76 12.605L169.69 12.335C169.52 12.925 169.205 13.385 168.745 13.715C168.295 14.045 167.725 14.21 167.035 14.21ZM167.575 12.71C167.935 12.71 168.225 12.62 168.445 12.44C168.665 12.26 168.775 12.02 168.775 11.72C168.775 11.41 168.665 11.17 168.445 11C168.225 10.82 167.935 10.73 167.575 10.73C167.215 10.73 166.925 10.82 166.705 11C166.485 11.17 166.375 11.41 166.375 11.72C166.375 12.02 166.485 12.26 166.705 12.44C166.925 12.62 167.215 12.71 167.575 12.71ZM173.559 14.12C173.309 14.12 173.074 14.06 172.854 13.94C172.644 13.81 172.474 13.64 172.344 13.43C172.214 13.21 172.149 12.975 172.149 12.725C172.149 12.455 172.214 12.215 172.344 12.005C172.474 11.795 172.644 11.63 172.854 11.51C173.074 11.38 173.309 11.315 173.559 11.315C173.829 11.315 174.069 11.38 174.279 11.51C174.489 11.63 174.659 11.795 174.789 12.005C174.919 12.215 174.984 12.455 174.984 12.725C174.984 12.975 174.919 13.21 174.789 13.43C174.659 13.64 174.489 13.81 174.279 13.94C174.069 14.06 173.829 14.12 173.559 14.12Z" fill="#FFF8DA"/>
<path d="M17.5513 63.624C14.1273 63.624 11.1673 62.904 8.67125 61.464C6.17525 60.024 4.25525 58.04 2.91125 55.512C1.56725 52.952 0.89525 50.008 0.89525 46.68C0.89525 44.184 1.29525 41.912 2.09525 39.864C2.89525 37.784 4.03125 35.992 5.50325 34.488C6.97525 32.952 8.73525 31.784 10.7833 30.984C12.8313 30.152 15.0873 29.736 17.5513 29.736C21.3913 29.736 24.5753 30.6 27.1033 32.328C29.6313 34.024 31.5033 36.504 32.7193 39.768L25.7593 42.6C24.8313 40.808 23.7113 39.48 22.3993 38.616C21.0873 37.72 19.4713 37.272 17.5513 37.272C15.8553 37.272 14.3513 37.656 13.0393 38.424C11.7273 39.192 10.6873 40.28 9.91925 41.688C9.18325 43.096 8.81525 44.76 8.81525 46.68C8.81525 48.6 9.18325 50.264 9.91925 51.672C10.6873 53.08 11.7273 54.168 13.0393 54.936C14.3513 55.672 15.8553 56.04 17.5513 56.04C19.4713 56.04 21.0873 55.608 22.3993 54.744C23.7113 53.88 24.8313 52.552 25.7593 50.76L32.7193 53.592C31.5033 56.856 29.6313 59.352 27.1033 61.08C24.5753 62.776 21.3913 63.624 17.5513 63.624ZM46.517 63.624C44.053 63.624 41.893 63.096 40.037 62.04C38.181 60.984 36.725 59.528 35.669 57.672C34.613 55.816 34.085 53.688 34.085 51.288C34.085 48.856 34.613 46.712 35.669 44.856C36.725 43 38.181 41.544 40.037 40.488C41.893 39.4 44.053 38.856 46.517 38.856C49.013 38.856 51.189 39.4 53.045 40.488C54.933 41.544 56.389 43 57.413 44.856C58.469 46.712 58.997 48.856 58.997 51.288C58.997 53.688 58.469 55.816 57.413 57.672C56.389 59.528 54.933 60.984 53.045 62.04C51.189 63.096 49.013 63.624 46.517 63.624ZM46.517 56.04C47.861 56.04 48.965 55.608 49.829 54.744C50.693 53.848 51.125 52.68 51.125 51.24C51.125 49.8 50.693 48.648 49.829 47.784C48.965 46.888 47.861 46.44 46.517 46.44C45.205 46.44 44.117 46.888 43.253 47.784C42.389 48.648 41.957 49.8 41.957 51.24C41.957 52.648 42.389 53.8 43.253 54.696C44.117 55.592 45.205 56.04 46.517 56.04ZM76.838 38.856C78.406 38.856 79.686 39.128 80.678 39.672C81.67 40.216 82.438 40.952 82.982 41.88C83.526 42.776 83.894 43.8 84.086 44.952C84.31 46.104 84.422 47.304 84.422 48.552V63H76.646V49.464C76.646 48.248 76.454 47.448 76.07 47.064C75.686 46.68 75.126 46.488 74.39 46.488C73.846 46.488 73.27 46.6 72.662 46.824C72.054 47.016 71.446 47.32 70.838 47.736C70.262 48.12 69.686 48.584 69.11 49.128L67.43 45.24H69.83V63H62.054V39.48H67.814L69.35 44.328L66.518 44.04C67.318 43.144 68.246 42.312 69.302 41.544C70.39 40.744 71.558 40.104 72.806 39.624C74.086 39.112 75.43 38.856 76.838 38.856ZM99.7213 63.384C96.9373 63.384 94.7453 62.728 93.1453 61.416C91.5773 60.104 90.7933 57.928 90.7933 54.888V39.768L90.6973 39.48L92.3293 33.768H98.5693V52.776C98.5693 53.928 98.8253 54.744 99.3373 55.224C99.8813 55.704 100.585 55.944 101.449 55.944C101.929 55.944 102.377 55.896 102.793 55.8C103.241 55.704 103.609 55.608 103.897 55.512V62.808C103.289 63 102.649 63.144 101.977 63.24C101.305 63.336 100.553 63.384 99.7213 63.384ZM87.1453 46.68V39.48H103.897V46.68H87.1453ZM115.142 63.624C113.478 63.624 112.006 63.304 110.726 62.664C109.446 61.992 108.438 61.064 107.702 59.88C106.998 58.664 106.646 57.288 106.646 55.752C106.646 54.088 107.03 52.68 107.798 51.528C108.598 50.344 109.638 49.448 110.918 48.84C112.23 48.2 113.67 47.88 115.238 47.88C117.574 47.88 119.478 48.424 120.95 49.512C122.422 50.568 123.382 52.136 123.83 54.216L120.662 53.496V48.168C120.662 47.368 120.374 46.68 119.798 46.104C119.222 45.528 118.326 45.24 117.11 45.24C116.246 45.24 115.254 45.352 114.134 45.576C113.014 45.8 111.83 46.216 110.582 46.824L108.374 41.304C109.782 40.6 111.334 40.024 113.03 39.576C114.726 39.096 116.486 38.856 118.31 38.856C120.518 38.856 122.374 39.256 123.878 40.056C125.414 40.856 126.566 41.992 127.334 43.464C128.102 44.904 128.486 46.616 128.486 48.6V63H121.958L120.47 58.344L123.83 57.288C123.35 59.24 122.39 60.792 120.95 61.944C119.542 63.064 117.606 63.624 115.142 63.624ZM117.782 58.344C118.678 58.344 119.398 58.104 119.942 57.624C120.486 57.144 120.758 56.52 120.758 55.752C120.758 55.016 120.486 54.408 119.942 53.928C119.398 53.448 118.678 53.208 117.782 53.208C116.822 53.208 116.07 53.448 115.526 53.928C115.014 54.408 114.758 55.016 114.758 55.752C114.758 56.52 115.014 57.144 115.526 57.624C116.07 58.104 116.822 58.344 117.782 58.344ZM143.352 63.624C140.952 63.624 138.84 63.096 137.016 62.04C135.224 60.984 133.816 59.512 132.792 57.624C131.768 55.736 131.256 53.592 131.256 51.192C131.256 48.824 131.768 46.712 132.792 44.856C133.816 43 135.224 41.544 137.016 40.488C138.84 39.4 140.952 38.856 143.352 38.856C146.072 38.856 148.408 39.512 150.36 40.824C152.312 42.136 153.704 43.896 154.536 46.104L147.576 49.272C147.16 48.376 146.632 47.688 145.992 47.208C145.352 46.696 144.504 46.44 143.448 46.44C142.2 46.44 141.144 46.872 140.28 47.736C139.448 48.6 139.032 49.752 139.032 51.192C139.032 52.696 139.448 53.88 140.28 54.744C141.144 55.576 142.2 55.992 143.448 55.992C144.504 55.992 145.352 55.752 145.992 55.272C146.632 54.792 147.16 54.12 147.576 53.256L154.536 56.328C153.704 58.536 152.296 60.312 150.312 61.656C148.36 62.968 146.04 63.624 143.352 63.624ZM168.299 63.384C165.515 63.384 163.323 62.728 161.723 61.416C160.155 60.104 159.371 57.928 159.371 54.888V39.768L159.275 39.48L160.907 33.768H167.147V52.776C167.147 53.928 167.403 54.744 167.915 55.224C168.459 55.704 169.163 55.944 170.027 55.944C170.507 55.944 170.955 55.896 171.371 55.8C171.819 55.704 172.187 55.608 172.475 55.512V62.808C171.867 63 171.227 63.144 170.555 63.24C169.883 63.336 169.131 63.384 168.299 63.384ZM155.723 46.68V39.48H172.475V46.68H155.723ZM183.721 63.624C182.057 63.624 180.585 63.304 179.305 62.664C178.025 61.992 177.017 61.064 176.281 59.88C175.577 58.664 175.225 57.288 175.225 55.752C175.225 54.088 175.609 52.68 176.377 51.528C177.177 50.344 178.217 49.448 179.497 48.84C180.809 48.2 182.249 47.88 183.817 47.88C186.153 47.88 188.057 48.424 189.529 49.512C191.001 50.568 191.961 52.136 192.409 54.216L189.241 53.496V48.168C189.241 47.368 188.953 46.68 188.377 46.104C187.801 45.528 186.905 45.24 185.689 45.24C184.825 45.24 183.833 45.352 182.713 45.576C181.593 45.8 180.409 46.216 179.161 46.824L176.953 41.304C178.361 40.6 179.913 40.024 181.609 39.576C183.305 39.096 185.065 38.856 186.889 38.856C189.097 38.856 190.953 39.256 192.457 40.056C193.993 40.856 195.145 41.992 195.913 43.464C196.681 44.904 197.065 46.616 197.065 48.6V63H190.537L189.049 58.344L192.409 57.288C191.929 59.24 190.969 60.792 189.529 61.944C188.121 63.064 186.185 63.624 183.721 63.624ZM186.361 58.344C187.257 58.344 187.977 58.104 188.521 57.624C189.065 57.144 189.337 56.52 189.337 55.752C189.337 55.016 189.065 54.408 188.521 53.928C187.977 53.448 187.257 53.208 186.361 53.208C185.401 53.208 184.649 53.448 184.105 53.928C183.593 54.408 183.337 55.016 183.337 55.752C183.337 56.52 183.593 57.144 184.105 57.624C184.649 58.104 185.401 58.344 186.361 58.344ZM216.01 38.856C217.578 38.856 218.858 39.128 219.85 39.672C220.842 40.216 221.61 40.952 222.154 41.88C222.698 42.776 223.066 43.8 223.258 44.952C223.482 46.104 223.594 47.304 223.594 48.552V63H215.818V49.464C215.818 48.248 215.626 47.448 215.242 47.064C214.858 46.68 214.298 46.488 213.562 46.488C213.018 46.488 212.442 46.6 211.834 46.824C211.226 47.016 210.618 47.32 210.01 47.736C209.434 48.12 208.858 48.584 208.282 49.128L206.602 45.24H209.002V63H201.226V39.48H206.986L208.522 44.328L205.69 44.04C206.49 43.144 207.418 42.312 208.474 41.544C209.562 40.744 210.73 40.104 211.978 39.624C213.258 39.112 214.602 38.856 216.01 38.856ZM238.658 63.624C236.194 63.624 234.034 63.096 232.178 62.04C230.322 60.984 228.866 59.528 227.81 57.672C226.754 55.816 226.226 53.688 226.226 51.288C226.226 48.856 226.754 46.712 227.81 44.856C228.866 43 230.322 41.544 232.178 40.488C234.034 39.4 236.194 38.856 238.658 38.856C241.154 38.856 243.33 39.4 245.186 40.488C247.074 41.544 248.53 43 249.554 44.856C250.61 46.712 251.138 48.856 251.138 51.288C251.138 53.688 250.61 55.816 249.554 57.672C248.53 59.528 247.074 60.984 245.186 62.04C243.33 63.096 241.154 63.624 238.658 63.624ZM238.658 56.04C240.002 56.04 241.106 55.608 241.97 54.744C242.834 53.848 243.266 52.68 243.266 51.24C243.266 49.8 242.834 48.648 241.97 47.784C241.106 46.888 240.002 46.44 238.658 46.44C237.346 46.44 236.258 46.888 235.394 47.784C234.53 48.648 234.098 49.8 234.098 51.24C234.098 52.648 234.53 53.8 235.394 54.696C236.258 55.592 237.346 56.04 238.658 56.04ZM263.311 63.768C261.359 63.768 259.535 63.416 257.839 62.712C256.175 61.976 254.607 60.712 253.135 58.92L257.263 54.648C258.383 55.736 259.471 56.52 260.527 57C261.615 57.48 262.735 57.72 263.887 57.72C264.463 57.72 264.943 57.608 265.327 57.384C265.711 57.128 265.903 56.824 265.903 56.472C265.903 56.152 265.775 55.88 265.519 55.656C265.295 55.432 264.815 55.208 264.079 54.984C263.375 54.76 262.335 54.472 260.959 54.12C258.431 53.48 256.575 52.568 255.391 51.384C254.207 50.168 253.615 48.584 253.615 46.632C253.615 45.192 253.999 43.88 254.767 42.696C255.535 41.48 256.639 40.52 258.079 39.816C259.519 39.08 261.215 38.712 263.167 38.712C265.503 38.712 267.487 39.144 269.119 40.008C270.751 40.872 272.111 41.912 273.199 43.128L268.639 47.208C267.871 46.536 266.959 45.992 265.903 45.576C264.879 45.16 263.759 44.952 262.543 44.952C261.903 44.952 261.375 45.064 260.959 45.288C260.543 45.48 260.335 45.768 260.335 46.152C260.335 46.504 260.607 46.824 261.151 47.112C261.727 47.368 262.895 47.704 264.655 48.12C267.567 48.824 269.679 49.8 270.991 51.048C272.303 52.264 272.959 53.912 272.959 55.992C272.959 57.528 272.543 58.888 271.711 60.072C270.911 61.224 269.775 62.136 268.303 62.808C266.863 63.448 265.199 63.768 263.311 63.768Z" fill="url(#paint0_linear_875_365)"/>
<defs>
<linearGradient id="paint0_linear_875_365" x1="0" y1="47" x2="274" y2="47" gradientUnits="userSpaceOnUse">
<stop stop-color="#FFF700"/>
<stop offset="1" stop-color="#FFA100"/>
</linearGradient>
</defs>
</svg>
