<svg width="477" height="106" viewBox="0 0 477 106" fill="none" xmlns="http://www.w3.org/2000/svg">
<path d="M9.7 19V5.38H12.32V19H9.7ZM1.36 19V5.38H3.98V19H1.36ZM3.06 13.58V11.08H10.56V13.58H3.06ZM19.3314 19.24C18.3181 19.24 17.4247 19.0267 16.6514 18.6C15.8914 18.16 15.2981 17.56 14.8714 16.8C14.4447 16.0267 14.2314 15.1333 14.2314 14.12C14.2314 13.1067 14.4447 12.22 14.8714 11.46C15.2981 10.6867 15.8914 10.0867 16.6514 9.66C17.4247 9.22 18.3181 9 19.3314 9C20.3447 9 21.2314 9.22 21.9914 9.66C22.7647 10.0867 23.3647 10.6867 23.7914 11.46C24.2181 12.22 24.4314 13.1067 24.4314 14.12C24.4314 15.1333 24.2181 16.0267 23.7914 16.8C23.3647 17.56 22.7647 18.16 21.9914 18.6C21.2314 19.0267 20.3447 19.24 19.3314 19.24ZM19.3314 16.7C20.0514 16.7 20.6381 16.46 21.0914 15.98C21.5447 15.5 21.7714 14.88 21.7714 14.12C21.7714 13.3467 21.5447 12.72 21.0914 12.24C20.6381 11.76 20.0514 11.52 19.3314 11.52C18.6114 11.52 18.0247 11.76 17.5714 12.24C17.1314 12.7067 16.9114 13.3267 16.9114 14.1C16.9114 14.8733 17.1314 15.5 17.5714 15.98C18.0247 16.46 18.6114 16.7 19.3314 16.7ZM28.3838 19.1C27.9438 19.1 27.5371 19.0067 27.1638 18.82C26.8038 18.6333 26.5104 18.3467 26.2838 17.96C26.0704 17.56 25.9638 17.0467 25.9638 16.42V5.38H28.5638V15.5C28.5638 15.9667 28.6571 16.2733 28.8438 16.42C29.0304 16.5533 29.2571 16.62 29.5238 16.62V18.96C29.3771 19.0133 29.1971 19.0467 28.9838 19.06C28.7838 19.0867 28.5838 19.1 28.3838 19.1ZM34.1005 19.28C33.3805 19.28 32.7471 19.1467 32.2005 18.88C31.6538 18.6 31.2338 18.2133 30.9405 17.72C30.6471 17.2133 30.5005 16.6267 30.5005 15.96C30.5005 15.2933 30.6538 14.7133 30.9605 14.22C31.2805 13.7267 31.7138 13.3467 32.2605 13.08C32.8071 12.8 33.4271 12.66 34.1205 12.66C35.0671 12.66 35.8338 12.88 36.4205 13.32C37.0205 13.7467 37.4271 14.36 37.6405 15.16L36.4205 15V12.64C36.4205 12.2667 36.2871 11.9333 36.0205 11.64C35.7538 11.3467 35.3205 11.2 34.7205 11.2C34.3471 11.2 33.9338 11.2467 33.4805 11.34C33.0271 11.42 32.5538 11.58 32.0605 11.82L31.2805 9.9C31.8538 9.62 32.4605 9.4 33.1005 9.24C33.7538 9.08 34.4071 9 35.0605 9C35.9538 9 36.6938 9.16 37.2805 9.48C37.8671 9.8 38.3071 10.24 38.6005 10.8C38.8938 11.36 39.0405 12 39.0405 12.72V19H36.9605L36.4005 17.14L37.6405 16.78C37.4138 17.5667 36.9938 18.18 36.3805 18.62C35.7805 19.06 35.0205 19.28 34.1005 19.28ZM34.8205 17.28C35.3005 17.28 35.6871 17.16 35.9805 16.92C36.2738 16.68 36.4205 16.36 36.4205 15.96C36.4205 15.5467 36.2738 15.2267 35.9805 15C35.6871 14.76 35.3005 14.64 34.8205 14.64C34.3405 14.64 33.9538 14.76 33.6605 15C33.3671 15.2267 33.2205 15.5467 33.2205 15.96C33.2205 16.36 33.3671 16.68 33.6605 16.92C33.9538 17.16 34.3405 17.28 34.8205 17.28ZM44.7419 17.6C44.7419 18.36 44.5019 19.1267 44.0219 19.9C43.5552 20.6867 42.8152 21.44 41.8019 22.16L40.6819 21.12C41.1485 20.6933 41.4952 20.2467 41.7219 19.78C41.9485 19.3267 42.0619 18.9267 42.0619 18.58C42.0619 18.0867 41.9352 17.6933 41.6819 17.4C41.4285 17.1067 41.1219 16.8667 40.7619 16.68C40.8952 16.32 41.0619 16.04 41.2619 15.84C41.4752 15.64 41.7085 15.5 41.9619 15.42C42.2152 15.3267 42.4819 15.28 42.7619 15.28C43.0952 15.28 43.4152 15.3733 43.7219 15.56C44.0285 15.7467 44.2752 16.0133 44.4619 16.36C44.6485 16.7067 44.7419 17.12 44.7419 17.6ZM55.3017 19.26C54.5551 19.26 53.8417 19.1067 53.1617 18.8C52.4951 18.4933 51.9017 17.96 51.3817 17.2L52.9817 15.8C53.4084 16.28 53.8151 16.6267 54.2017 16.84C54.6017 17.04 55.0484 17.14 55.5417 17.14C55.8751 17.14 56.1417 17.06 56.3417 16.9C56.5417 16.74 56.6417 16.54 56.6417 16.3C56.6417 16.14 56.5884 16 56.4817 15.88C56.3751 15.7467 56.1751 15.62 55.8817 15.5C55.6017 15.38 55.1884 15.2533 54.6417 15.12C53.6284 14.8533 52.8684 14.4933 52.3617 14.04C51.8551 13.5733 51.6017 12.92 51.6017 12.08C51.6017 11.5067 51.7484 10.9867 52.0417 10.52C52.3351 10.04 52.7551 9.66 53.3017 9.38C53.8617 9.1 54.5217 8.96 55.2817 8.96C56.1751 8.96 56.9351 9.13333 57.5617 9.48C58.2017 9.82667 58.7151 10.2467 59.1017 10.74L57.4017 12.16C57.1484 11.8933 56.8217 11.66 56.4217 11.46C56.0217 11.26 55.5551 11.16 55.0217 11.16C54.7284 11.16 54.4684 11.2267 54.2417 11.36C54.0151 11.4933 53.9017 11.6867 53.9017 11.94C53.9017 12.18 54.0217 12.38 54.2617 12.54C54.5151 12.7 54.9951 12.8667 55.7017 13.04C56.9017 13.32 57.7617 13.7 58.2817 14.18C58.8017 14.66 59.0617 15.3 59.0617 16.1C59.0617 16.74 58.8951 17.3 58.5617 17.78C58.2284 18.2467 57.7751 18.6133 57.2017 18.88C56.6417 19.1333 56.0084 19.26 55.3017 19.26ZM65.2494 19.24C64.236 19.24 63.3427 19.0267 62.5694 18.6C61.8094 18.16 61.216 17.56 60.7894 16.8C60.3627 16.0267 60.1494 15.1333 60.1494 14.12C60.1494 13.1067 60.3627 12.22 60.7894 11.46C61.216 10.6867 61.8094 10.0867 62.5694 9.66C63.3427 9.22 64.236 9 65.2494 9C66.2627 9 67.1494 9.22 67.9094 9.66C68.6827 10.0867 69.2827 10.6867 69.7094 11.46C70.136 12.22 70.3494 13.1067 70.3494 14.12C70.3494 15.1333 70.136 16.0267 69.7094 16.8C69.2827 17.56 68.6827 18.16 67.9094 18.6C67.1494 19.0267 66.2627 19.24 65.2494 19.24ZM65.2494 16.7C65.9694 16.7 66.556 16.46 67.0094 15.98C67.4627 15.5 67.6894 14.88 67.6894 14.12C67.6894 13.3467 67.4627 12.72 67.0094 12.24C66.556 11.76 65.9694 11.52 65.2494 11.52C64.5294 11.52 63.9427 11.76 63.4894 12.24C63.0494 12.7067 62.8294 13.3267 62.8294 14.1C62.8294 14.8733 63.0494 15.5 63.4894 15.98C63.9427 16.46 64.5294 16.7 65.2494 16.7ZM74.5106 18.1L70.6106 9.22H73.2906L76.9106 17.48L74.5106 18.1ZM72.2706 22.8L78.2506 9.22H80.9306L74.9506 22.8H72.2706ZM89.3895 13.82H96.1095V16.26H89.3895V13.82ZM86.5495 19L91.3895 5.38H94.4495L99.1295 19H96.4895L92.5495 7.18H93.3095L89.1895 19H86.5495ZM104.088 19.18C103.088 19.18 102.294 18.92 101.708 18.4C101.134 17.8667 100.848 17.02 100.848 15.86V9.34L100.808 9.22L101.348 6.92H103.468V15.44C103.468 15.8667 103.568 16.18 103.768 16.38C103.981 16.5667 104.248 16.66 104.568 16.66C104.781 16.66 104.974 16.6467 105.148 16.62C105.321 16.58 105.474 16.54 105.608 16.5V18.94C105.394 19.02 105.168 19.08 104.928 19.12C104.688 19.16 104.408 19.18 104.088 19.18ZM99.3277 11.64V9.22H105.608V11.64H99.3277ZM110.083 19.1C109.643 19.1 109.236 19.0067 108.863 18.82C108.503 18.6333 108.21 18.3467 107.983 17.96C107.77 17.56 107.663 17.0467 107.663 16.42V5.38H110.263V15.5C110.263 15.9667 110.356 16.2733 110.543 16.42C110.73 16.5533 110.956 16.62 111.223 16.62V18.96C111.076 19.0133 110.896 19.0467 110.683 19.06C110.483 19.0867 110.283 19.1 110.083 19.1ZM115.8 19.28C115.08 19.28 114.446 19.1467 113.9 18.88C113.353 18.6 112.933 18.2133 112.64 17.72C112.346 17.2133 112.2 16.6267 112.2 15.96C112.2 15.2933 112.353 14.7133 112.66 14.22C112.98 13.7267 113.413 13.3467 113.96 13.08C114.506 12.8 115.126 12.66 115.82 12.66C116.766 12.66 117.533 12.88 118.12 13.32C118.72 13.7467 119.126 14.36 119.34 15.16L118.12 15V12.64C118.12 12.2667 117.986 11.9333 117.72 11.64C117.453 11.3467 117.02 11.2 116.42 11.2C116.046 11.2 115.633 11.2467 115.18 11.34C114.726 11.42 114.253 11.58 113.76 11.82L112.98 9.9C113.553 9.62 114.16 9.4 114.8 9.24C115.453 9.08 116.106 9 116.76 9C117.653 9 118.393 9.16 118.98 9.48C119.566 9.8 120.006 10.24 120.3 10.8C120.593 11.36 120.74 12 120.74 12.72V19H118.66L118.1 17.14L119.34 16.78C119.113 17.5667 118.693 18.18 118.08 18.62C117.48 19.06 116.72 19.28 115.8 19.28ZM116.52 17.28C117 17.28 117.386 17.16 117.68 16.92C117.973 16.68 118.12 16.36 118.12 15.96C118.12 15.5467 117.973 15.2267 117.68 15C117.386 14.76 117 14.64 116.52 14.64C116.04 14.64 115.653 14.76 115.36 15C115.066 15.2267 114.92 15.5467 114.92 15.96C114.92 16.36 115.066 16.68 115.36 16.92C115.653 17.16 116.04 17.28 116.52 17.28ZM126.22 19.26C125.473 19.26 124.76 19.1067 124.08 18.8C123.413 18.4933 122.82 17.96 122.3 17.2L123.9 15.8C124.326 16.28 124.733 16.6267 125.12 16.84C125.52 17.04 125.966 17.14 126.46 17.14C126.793 17.14 127.06 17.06 127.26 16.9C127.46 16.74 127.56 16.54 127.56 16.3C127.56 16.14 127.506 16 127.4 15.88C127.293 15.7467 127.093 15.62 126.8 15.5C126.52 15.38 126.106 15.2533 125.56 15.12C124.546 14.8533 123.786 14.4933 123.28 14.04C122.773 13.5733 122.52 12.92 122.52 12.08C122.52 11.5067 122.666 10.9867 122.96 10.52C123.253 10.04 123.673 9.66 124.22 9.38C124.78 9.1 125.44 8.96 126.2 8.96C127.093 8.96 127.853 9.13333 128.48 9.48C129.12 9.82667 129.633 10.2467 130.02 10.74L128.32 12.16C128.066 11.8933 127.74 11.66 127.34 11.46C126.94 11.26 126.473 11.16 125.94 11.16C125.646 11.16 125.386 11.2267 125.16 11.36C124.933 11.4933 124.82 11.6867 124.82 11.94C124.82 12.18 124.94 12.38 125.18 12.54C125.433 12.7 125.913 12.8667 126.62 13.04C127.82 13.32 128.68 13.7 129.2 14.18C129.72 14.66 129.98 15.3 129.98 16.1C129.98 16.74 129.813 17.3 129.48 17.78C129.146 18.2467 128.693 18.6133 128.12 18.88C127.56 19.1333 126.926 19.26 126.22 19.26ZM138.901 13.82H145.621V16.26H138.901V13.82ZM136.061 19L140.901 5.38H143.961L148.641 19H146.001L142.061 7.18H142.821L138.701 19H136.061ZM153.153 19.26C152.407 19.26 151.693 19.1067 151.013 18.8C150.347 18.4933 149.753 17.96 149.233 17.2L150.833 15.8C151.26 16.28 151.667 16.6267 152.053 16.84C152.453 17.04 152.9 17.14 153.393 17.14C153.727 17.14 153.993 17.06 154.193 16.9C154.393 16.74 154.493 16.54 154.493 16.3C154.493 16.14 154.44 16 154.333 15.88C154.227 15.7467 154.027 15.62 153.733 15.5C153.453 15.38 153.04 15.2533 152.493 15.12C151.48 14.8533 150.72 14.4933 150.213 14.04C149.707 13.5733 149.453 12.92 149.453 12.08C149.453 11.5067 149.6 10.9867 149.893 10.52C150.187 10.04 150.607 9.66 151.153 9.38C151.713 9.1 152.373 8.96 153.133 8.96C154.027 8.96 154.787 9.13333 155.413 9.48C156.053 9.82667 156.567 10.2467 156.953 10.74L155.253 12.16C155 11.8933 154.673 11.66 154.273 11.46C153.873 11.26 153.407 11.16 152.873 11.16C152.58 11.16 152.32 11.2267 152.093 11.36C151.867 11.4933 151.753 11.6867 151.753 11.94C151.753 12.18 151.873 12.38 152.113 12.54C152.367 12.7 152.847 12.8667 153.553 13.04C154.753 13.32 155.613 13.7 156.133 14.18C156.653 14.66 156.913 15.3 156.913 16.1C156.913 16.74 156.747 17.3 156.413 17.78C156.08 18.2467 155.627 18.6133 155.053 18.88C154.493 19.1333 153.86 19.26 153.153 19.26ZM162.861 19.2C161.888 19.2 161.034 18.9933 160.301 18.58C159.568 18.1533 159.001 17.56 158.601 16.8C158.201 16.04 158.001 15.1467 158.001 14.12C158.001 13.1067 158.201 12.22 158.601 11.46C159.001 10.6867 159.568 10.0867 160.301 9.66C161.034 9.22 161.888 9 162.861 9C163.848 9 164.701 9.22 165.421 9.66C166.154 10.1 166.721 10.7067 167.121 11.48C167.521 12.24 167.721 13.1133 167.721 14.1C167.721 14.2467 167.714 14.3933 167.701 14.54C167.701 14.6733 167.688 14.7867 167.661 14.88H160.141V12.92H165.681L165.281 13.86C165.281 13.0333 165.081 12.36 164.681 11.84C164.294 11.32 163.688 11.06 162.861 11.06C162.141 11.06 161.561 11.2867 161.121 11.74C160.681 12.18 160.461 12.7733 160.461 13.52V14.58C160.461 15.3667 160.681 15.9867 161.121 16.44C161.574 16.88 162.188 17.1 162.961 17.1C163.641 17.1 164.174 16.96 164.561 16.68C164.948 16.4 165.281 16.0533 165.561 15.64L167.381 16.68C166.941 17.4933 166.341 18.12 165.581 18.56C164.834 18.9867 163.928 19.2 162.861 19.2ZM175.203 9C175.87 9 176.403 9.11333 176.803 9.34C177.216 9.56667 177.523 9.87333 177.723 10.26C177.936 10.6467 178.076 11.0867 178.143 11.58C178.21 12.06 178.243 12.56 178.243 13.08V19H175.623V13.06C175.623 12.46 175.503 12.06 175.263 11.86C175.036 11.66 174.743 11.56 174.383 11.56C174.05 11.56 173.71 11.6267 173.363 11.76C173.016 11.88 172.69 12.06 172.383 12.3C172.09 12.5267 171.836 12.7867 171.623 13.08L171.283 11.72H171.943V19H169.323V9.22H171.283L171.823 11.1L170.983 11.06C171.33 10.66 171.723 10.3067 172.163 10C172.616 9.69333 173.096 9.45333 173.603 9.28C174.11 9.09333 174.643 9 175.203 9ZM180.398 22.9C180.051 22.9 179.771 22.8667 179.558 22.8C179.344 22.7467 179.204 22.7067 179.138 22.68V20.48C179.204 20.4933 179.284 20.5067 179.378 20.52C179.484 20.5467 179.611 20.56 179.758 20.56C180.011 20.56 180.204 20.4667 180.338 20.28C180.471 20.1067 180.538 19.8667 180.538 19.56V9.22H183.158V19.9C183.158 20.42 183.064 20.9067 182.878 21.36C182.691 21.8267 182.391 22.2 181.978 22.48C181.578 22.76 181.051 22.9 180.398 22.9ZM180.278 6.18C180.278 5.7 180.418 5.31333 180.698 5.02C180.991 4.71333 181.378 4.56 181.858 4.56C182.338 4.56 182.718 4.71333 182.998 5.02C183.291 5.31333 183.438 5.7 183.438 6.18C183.438 6.63333 183.291 7.00667 182.998 7.3C182.718 7.59333 182.338 7.74 181.858 7.74C181.378 7.74 180.991 7.59333 180.698 7.3C180.418 7.00667 180.278 6.63333 180.278 6.18ZM189.937 19.24C188.924 19.24 188.03 19.0267 187.257 18.6C186.497 18.16 185.904 17.56 185.477 16.8C185.05 16.0267 184.837 15.1333 184.837 14.12C184.837 13.1067 185.05 12.22 185.477 11.46C185.904 10.6867 186.497 10.0867 187.257 9.66C188.03 9.22 188.924 9 189.937 9C190.95 9 191.837 9.22 192.597 9.66C193.37 10.0867 193.97 10.6867 194.397 11.46C194.824 12.22 195.037 13.1067 195.037 14.12C195.037 15.1333 194.824 16.0267 194.397 16.8C193.97 17.56 193.37 18.16 192.597 18.6C191.837 19.0267 190.95 19.24 189.937 19.24ZM189.937 16.7C190.657 16.7 191.244 16.46 191.697 15.98C192.15 15.5 192.377 14.88 192.377 14.12C192.377 13.3467 192.15 12.72 191.697 12.24C191.244 11.76 190.657 11.52 189.937 11.52C189.217 11.52 188.63 11.76 188.177 12.24C187.737 12.7067 187.517 13.3267 187.517 14.1C187.517 14.8733 187.737 15.5 188.177 15.98C188.63 16.46 189.217 16.7 189.937 16.7Z" fill="#FFEEDA"/>
<path d="M336.921 97.32H335.901L338.691 91.785H340.836L337.206 98.73L337.386 97.47V102H335.421V97.47L335.571 98.73L331.971 91.785H334.146L336.921 97.32ZM350.28 102.18C349.23 102.18 348.315 101.955 347.535 101.505C346.765 101.045 346.165 100.42 345.735 99.63C345.315 98.83 345.105 97.92 345.105 96.9C345.105 96.13 345.23 95.425 345.48 94.785C345.74 94.135 346.1 93.575 346.56 93.105C347.03 92.635 347.58 92.27 348.21 92.01C348.84 91.75 349.53 91.62 350.28 91.62C351.47 91.62 352.445 91.875 353.205 92.385C353.965 92.895 354.56 93.605 354.99 94.515L353.16 95.175C352.79 94.575 352.37 94.15 351.9 93.9C351.43 93.65 350.89 93.525 350.28 93.525C349.67 93.525 349.125 93.67 348.645 93.96C348.175 94.24 347.8 94.635 347.52 95.145C347.25 95.645 347.115 96.23 347.115 96.9C347.115 97.56 347.25 98.145 347.52 98.655C347.8 99.165 348.175 99.565 348.645 99.855C349.125 100.135 349.67 100.275 350.28 100.275C350.89 100.275 351.43 100.15 351.9 99.9C352.37 99.65 352.79 99.225 353.16 98.625L354.99 99.285C354.56 100.195 353.965 100.905 353.205 101.415C352.445 101.925 351.47 102.18 350.28 102.18ZM357.648 97.815V95.94H361.818V97.815H357.648ZM357.603 93.645L358.233 92.895V100.815L357.528 100.125H362.673V102H356.268V91.785H362.673V93.645H357.603ZM363.723 96.9C363.723 96.13 363.853 95.425 364.113 94.785C364.373 94.135 364.738 93.575 365.208 93.105C365.678 92.635 366.233 92.27 366.873 92.01C367.523 91.75 368.233 91.62 369.003 91.62C369.763 91.62 370.463 91.75 371.103 92.01C371.743 92.27 372.298 92.635 372.768 93.105C373.238 93.575 373.603 94.135 373.863 94.785C374.123 95.425 374.253 96.13 374.253 96.9C374.253 97.66 374.123 98.365 373.863 99.015C373.603 99.655 373.238 100.215 372.768 100.695C372.298 101.165 371.743 101.53 371.103 101.79C370.463 102.05 369.763 102.18 369.003 102.18C368.233 102.18 367.523 102.05 366.873 101.79C366.233 101.53 365.678 101.165 365.208 100.695C364.738 100.215 364.373 99.655 364.113 99.015C363.853 98.365 363.723 97.66 363.723 96.9ZM365.733 96.9C365.733 97.56 365.873 98.145 366.153 98.655C366.433 99.155 366.818 99.545 367.308 99.825C367.808 100.105 368.373 100.245 369.003 100.245C369.633 100.245 370.188 100.105 370.668 99.825C371.158 99.545 371.543 99.155 371.823 98.655C372.103 98.145 372.243 97.56 372.243 96.9C372.243 96.23 372.103 95.645 371.823 95.145C371.543 94.635 371.158 94.24 370.668 93.96C370.188 93.68 369.633 93.54 369.003 93.54C368.373 93.54 367.808 93.685 367.308 93.975C366.818 94.255 366.433 94.645 366.153 95.145C365.873 95.645 365.733 96.23 365.733 96.9ZM382.29 102.18C381.62 102.18 381.03 102.015 380.52 101.685C380.01 101.355 379.615 100.9 379.335 100.32C379.055 99.74 378.915 99.075 378.915 98.325C378.915 97.565 379.055 96.9 379.335 96.33C379.625 95.75 380.025 95.3 380.535 94.98C381.045 94.66 381.63 94.5 382.29 94.5C382.94 94.5 383.505 94.65 383.985 94.95C384.465 95.25 384.84 95.685 385.11 96.255C385.38 96.825 385.515 97.515 385.515 98.325C385.515 99.105 385.38 99.785 385.11 100.365C384.84 100.935 384.46 101.38 383.97 101.7C383.49 102.02 382.93 102.18 382.29 102.18ZM382.635 100.365C383.145 100.365 383.56 100.18 383.88 99.81C384.2 99.43 384.36 98.94 384.36 98.34C384.36 97.73 384.2 97.24 383.88 96.87C383.56 96.49 383.145 96.3 382.635 96.3C382.135 96.3 381.72 96.49 381.39 96.87C381.07 97.24 380.91 97.725 380.91 98.325C380.91 98.925 381.07 99.415 381.39 99.795C381.72 100.175 382.135 100.365 382.635 100.365ZM384.765 102L384.27 100.26H384.405V96.585H384.27V91.785H386.235V102H384.765ZM391.027 102.15C390.297 102.15 389.657 101.995 389.107 101.685C388.557 101.365 388.132 100.92 387.832 100.35C387.532 99.78 387.382 99.11 387.382 98.34C387.382 97.58 387.532 96.915 387.832 96.345C388.132 95.765 388.557 95.315 389.107 94.995C389.657 94.665 390.297 94.5 391.027 94.5C391.767 94.5 392.407 94.665 392.947 94.995C393.497 95.325 393.922 95.78 394.222 96.36C394.522 96.93 394.672 97.585 394.672 98.325C394.672 98.435 394.667 98.545 394.657 98.655C394.657 98.755 394.647 98.84 394.627 98.91H388.987V97.44H393.142L392.842 98.145C392.842 97.525 392.692 97.02 392.392 96.63C392.102 96.24 391.647 96.045 391.027 96.045C390.487 96.045 390.052 96.215 389.722 96.555C389.392 96.885 389.227 97.33 389.227 97.89V98.685C389.227 99.275 389.392 99.74 389.722 100.08C390.062 100.41 390.522 100.575 391.102 100.575C391.612 100.575 392.012 100.47 392.302 100.26C392.592 100.05 392.842 99.79 393.052 99.48L394.417 100.26C394.087 100.87 393.637 101.34 393.067 101.67C392.507 101.99 391.827 102.15 391.027 102.15ZM401.27 98.115H406.31V99.945H401.27V98.115ZM399.14 102L402.77 91.785H405.065L408.575 102H406.595L403.64 93.135H404.21L401.12 102H399.14ZM409.728 102V94.11C409.728 93.57 409.823 93.115 410.013 92.745C410.213 92.365 410.488 92.08 410.838 91.89C411.188 91.7 411.603 91.605 412.083 91.605C412.323 91.605 412.538 91.62 412.728 91.65C412.918 91.68 413.073 91.71 413.193 91.74V93.54C413.093 93.52 412.988 93.5 412.878 93.48C412.778 93.46 412.658 93.45 412.518 93.45C412.268 93.45 412.068 93.525 411.918 93.675C411.768 93.815 411.693 94.05 411.693 94.38V102H409.728ZM413.028 96.63H408.693V94.83H413.028V96.63ZM417.244 102.135C416.494 102.135 415.899 101.94 415.459 101.55C415.029 101.15 414.814 100.515 414.814 99.645V94.755L414.784 94.665L415.189 92.94H416.779V99.33C416.779 99.65 416.854 99.885 417.004 100.035C417.164 100.175 417.364 100.245 417.604 100.245C417.764 100.245 417.909 100.235 418.039 100.215C418.169 100.185 418.284 100.155 418.384 100.125V101.955C418.224 102.015 418.054 102.06 417.874 102.09C417.694 102.12 417.484 102.135 417.244 102.135ZM413.674 96.48V94.665H418.384V96.48H413.674ZM423.019 102.15C422.289 102.15 421.649 101.995 421.099 101.685C420.549 101.365 420.124 100.92 419.824 100.35C419.524 99.78 419.374 99.11 419.374 98.34C419.374 97.58 419.524 96.915 419.824 96.345C420.124 95.765 420.549 95.315 421.099 94.995C421.649 94.665 422.289 94.5 423.019 94.5C423.759 94.5 424.399 94.665 424.939 94.995C425.489 95.325 425.914 95.78 426.214 96.36C426.514 96.93 426.664 97.585 426.664 98.325C426.664 98.435 426.659 98.545 426.649 98.655C426.649 98.755 426.639 98.84 426.619 98.91H420.979V97.44H425.134L424.834 98.145C424.834 97.525 424.684 97.02 424.384 96.63C424.094 96.24 423.639 96.045 423.019 96.045C422.479 96.045 422.044 96.215 421.714 96.555C421.384 96.885 421.219 97.33 421.219 97.89V98.685C421.219 99.275 421.384 99.74 421.714 100.08C422.054 100.41 422.514 100.575 423.094 100.575C423.604 100.575 424.004 100.47 424.294 100.26C424.584 100.05 424.834 99.79 425.044 99.48L426.409 100.26C426.079 100.87 425.629 101.34 425.059 101.67C424.499 101.99 423.819 102.15 423.019 102.15ZM429.335 94.665L429.83 96.69V102H427.865V94.665H429.335ZM429.425 97.695L429.065 97.53V96.03L429.2 95.865C429.31 95.685 429.475 95.49 429.695 95.28C429.925 95.07 430.185 94.89 430.475 94.74C430.775 94.58 431.085 94.5 431.405 94.5C431.565 94.5 431.71 94.51 431.84 94.53C431.97 94.55 432.07 94.585 432.14 94.635V96.42H431.66C431.01 96.42 430.51 96.525 430.16 96.735C429.81 96.935 429.565 97.255 429.425 97.695ZM434.651 98.31V98.055L437.711 94.665H439.946L436.541 98.475L436.451 97.68L440.006 102H437.696L434.651 98.31ZM433.271 91.785H435.221V102H433.271V91.785ZM442.757 102.21C442.217 102.21 441.742 102.11 441.332 101.91C440.922 101.7 440.607 101.41 440.387 101.04C440.167 100.66 440.057 100.22 440.057 99.72C440.057 99.22 440.172 98.785 440.402 98.415C440.642 98.045 440.967 97.76 441.377 97.56C441.787 97.35 442.252 97.245 442.772 97.245C443.482 97.245 444.057 97.41 444.497 97.74C444.947 98.06 445.252 98.52 445.412 99.12L444.497 99V97.23C444.497 96.95 444.397 96.7 444.197 96.48C443.997 96.26 443.672 96.15 443.222 96.15C442.942 96.15 442.632 96.185 442.292 96.255C441.952 96.315 441.597 96.435 441.227 96.615L440.642 95.175C441.072 94.965 441.527 94.8 442.007 94.68C442.497 94.56 442.987 94.5 443.477 94.5C444.147 94.5 444.702 94.62 445.142 94.86C445.582 95.1 445.912 95.43 446.132 95.85C446.352 96.27 446.462 96.75 446.462 97.29V102H444.902L444.482 100.605L445.412 100.335C445.242 100.925 444.927 101.385 444.467 101.715C444.017 102.045 443.447 102.21 442.757 102.21ZM443.297 100.71C443.657 100.71 443.947 100.62 444.167 100.44C444.387 100.26 444.497 100.02 444.497 99.72C444.497 99.41 444.387 99.17 444.167 99C443.947 98.82 443.657 98.73 443.297 98.73C442.937 98.73 442.647 98.82 442.427 99C442.207 99.17 442.097 99.41 442.097 99.72C442.097 100.02 442.207 100.26 442.427 100.44C442.647 100.62 442.937 100.71 443.297 100.71ZM450.046 102H448.081V94.665H450.046V102ZM447.871 92.385C447.871 92.025 447.976 91.735 448.186 91.515C448.406 91.285 448.696 91.17 449.056 91.17C449.416 91.17 449.701 91.285 449.911 91.515C450.131 91.735 450.241 92.025 450.241 92.385C450.241 92.725 450.131 93.005 449.911 93.225C449.701 93.445 449.416 93.555 449.056 93.555C448.696 93.555 448.406 93.445 448.186 93.225C447.976 93.005 447.871 92.725 447.871 92.385ZM453.227 94.665L453.722 96.69V102H451.757V94.665H453.227ZM453.317 97.695L452.957 97.53V96.03L453.092 95.865C453.202 95.685 453.367 95.49 453.587 95.28C453.817 95.07 454.077 94.89 454.367 94.74C454.667 94.58 454.977 94.5 455.297 94.5C455.457 94.5 455.602 94.51 455.732 94.53C455.862 94.55 455.962 94.585 456.032 94.635V96.42H455.552C454.902 96.42 454.402 96.525 454.052 96.735C453.702 96.935 453.457 97.255 453.317 97.695ZM460.171 102.18C459.411 102.18 458.741 102.02 458.161 101.7C457.591 101.37 457.146 100.92 456.826 100.35C456.506 99.77 456.346 99.1 456.346 98.34C456.346 97.58 456.506 96.915 456.826 96.345C457.146 95.765 457.591 95.315 458.161 94.995C458.741 94.665 459.411 94.5 460.171 94.5C460.931 94.5 461.596 94.665 462.166 94.995C462.746 95.315 463.196 95.765 463.516 96.345C463.836 96.915 463.996 97.58 463.996 98.34C463.996 99.1 463.836 99.77 463.516 100.35C463.196 100.92 462.746 101.37 462.166 101.7C461.596 102.02 460.931 102.18 460.171 102.18ZM460.171 100.275C460.711 100.275 461.151 100.095 461.491 99.735C461.831 99.375 462.001 98.91 462.001 98.34C462.001 97.76 461.831 97.29 461.491 96.93C461.151 96.57 460.711 96.39 460.171 96.39C459.631 96.39 459.191 96.57 458.851 96.93C458.521 97.28 458.356 97.745 458.356 98.325C458.356 98.905 458.521 99.375 458.851 99.735C459.191 100.095 459.631 100.275 460.171 100.275ZM467.725 102.195C467.165 102.195 466.63 102.08 466.12 101.85C465.62 101.62 465.175 101.22 464.785 100.65L465.985 99.6C466.305 99.96 466.61 100.22 466.9 100.38C467.2 100.53 467.535 100.605 467.905 100.605C468.155 100.605 468.355 100.545 468.505 100.425C468.655 100.305 468.73 100.155 468.73 99.975C468.73 99.855 468.69 99.75 468.61 99.66C468.53 99.56 468.38 99.465 468.16 99.375C467.95 99.285 467.64 99.19 467.23 99.09C466.47 98.89 465.9 98.62 465.52 98.28C465.14 97.93 464.95 97.44 464.95 96.81C464.95 96.38 465.06 95.99 465.28 95.64C465.5 95.28 465.815 94.995 466.225 94.785C466.645 94.575 467.14 94.47 467.71 94.47C468.38 94.47 468.95 94.6 469.42 94.86C469.9 95.12 470.285 95.435 470.575 95.805L469.3 96.87C469.11 96.67 468.865 96.495 468.565 96.345C468.265 96.195 467.915 96.12 467.515 96.12C467.295 96.12 467.1 96.17 466.93 96.27C466.76 96.37 466.675 96.515 466.675 96.705C466.675 96.885 466.765 97.035 466.945 97.155C467.135 97.275 467.495 97.4 468.025 97.53C468.925 97.74 469.57 98.025 469.96 98.385C470.35 98.745 470.545 99.225 470.545 99.825C470.545 100.305 470.42 100.725 470.17 101.085C469.92 101.435 469.58 101.71 469.15 101.91C468.73 102.1 468.255 102.195 467.725 102.195Z" fill="#FFEEDA"/>
<path d="M3.672 84V34.968H21.168C26.352 34.968 30.792 35.952 34.488 37.92C38.184 39.84 41.016 42.624 42.984 46.272C44.952 49.92 45.936 54.312 45.936 59.448C45.936 64.632 44.928 69.048 42.912 72.696C40.944 76.344 38.112 79.152 34.416 81.12C30.72 83.04 26.28 84 21.096 84H3.672ZM15.336 77.52L10.512 72.696H20.304C23.088 72.696 25.488 72.264 27.504 71.4C29.568 70.488 31.152 69.048 32.256 67.08C33.408 65.112 33.984 62.568 33.984 59.448C33.984 56.376 33.432 53.88 32.328 51.96C31.224 49.992 29.64 48.552 27.576 47.64C25.56 46.728 23.16 46.272 20.376 46.272H10.008L15.336 43.032V77.52ZM62.4437 84H50.7077V48.72H62.4437V84ZM49.8437 37.56C49.8437 35.496 50.4677 33.864 51.7157 32.664C52.9637 31.416 54.5957 30.792 56.6117 30.792C58.6757 30.792 60.3077 31.416 61.5077 32.664C62.7077 33.864 63.3077 35.496 63.3077 37.56C63.3077 39.528 62.7077 41.136 61.5077 42.384C60.3077 43.584 58.6757 44.184 56.6117 44.184C54.5957 44.184 52.9637 43.584 51.7157 42.384C50.4677 41.136 49.8437 39.528 49.8437 37.56ZM78.0491 48.72L81.0731 58.584V84H69.4091V48.72H78.0491ZM78.3371 65.424L76.4651 64.632V55.416L77.1851 54.624C77.7611 53.76 78.6011 52.8 79.7051 51.744C80.8571 50.688 82.1531 49.776 83.5931 49.008C85.0811 48.192 86.6171 47.784 88.2011 47.784C88.9691 47.784 89.6651 47.856 90.2891 48C90.9131 48.096 91.3931 48.264 91.7291 48.504V59.16H89.3531C86.3771 59.16 83.9531 59.664 82.0811 60.672C80.2571 61.632 79.0091 63.216 78.3371 65.424ZM110.98 84.648C107.428 84.648 104.308 83.904 101.62 82.416C98.9801 80.928 96.9161 78.816 95.4281 76.08C93.9401 73.344 93.1961 70.104 93.1961 66.36C93.1961 62.76 93.9401 59.568 95.4281 56.784C96.9161 54 98.9801 51.816 101.62 50.232C104.308 48.6 107.428 47.784 110.98 47.784C114.676 47.784 117.844 48.624 120.484 50.304C123.124 51.984 125.164 54.216 126.604 57C128.044 59.736 128.764 62.808 128.764 66.216C128.764 66.984 128.74 67.68 128.692 68.304C128.644 68.928 128.572 69.432 128.476 69.816H101.908V61.896H119.476L118.468 64.488C118.468 62.232 117.868 60.384 116.668 58.944C115.468 57.504 113.62 56.784 111.124 56.784C108.82 56.784 106.996 57.456 105.652 58.8C104.308 60.144 103.636 61.944 103.636 64.2V68.16C103.636 70.608 104.356 72.504 105.796 73.848C107.236 75.144 109.252 75.792 111.844 75.792C113.908 75.792 115.54 75.408 116.74 74.64C117.988 73.824 119.02 72.792 119.836 71.544L127.612 75.72C126.124 78.456 123.94 80.64 121.06 82.272C118.18 83.856 114.82 84.648 110.98 84.648ZM149.66 84.936C146.06 84.936 142.892 84.144 140.156 82.56C137.468 80.976 135.356 78.768 133.82 75.936C132.284 73.104 131.516 69.888 131.516 66.288C131.516 62.736 132.284 59.568 133.82 56.784C135.356 54 137.468 51.816 140.156 50.232C142.892 48.6 146.06 47.784 149.66 47.784C153.74 47.784 157.244 48.768 160.172 50.736C163.1 52.704 165.188 55.344 166.436 58.656L155.996 63.408C155.372 62.064 154.58 61.032 153.62 60.312C152.66 59.544 151.388 59.16 149.804 59.16C147.932 59.16 146.348 59.808 145.052 61.104C143.804 62.4 143.18 64.128 143.18 66.288C143.18 68.544 143.804 70.32 145.052 71.616C146.348 72.864 147.932 73.488 149.804 73.488C151.388 73.488 152.66 73.128 153.62 72.408C154.58 71.688 155.372 70.68 155.996 69.384L166.436 73.992C165.188 77.304 163.076 79.968 160.1 81.984C157.172 83.952 153.692 84.936 149.66 84.936ZM187.082 84.576C182.906 84.576 179.618 83.592 177.218 81.624C174.866 79.656 173.69 76.392 173.69 71.832V49.152L173.546 48.72L175.994 40.152H185.354V68.664C185.354 70.392 185.738 71.616 186.506 72.336C187.322 73.056 188.378 73.416 189.674 73.416C190.394 73.416 191.066 73.344 191.69 73.2C192.362 73.056 192.914 72.912 193.346 72.768V83.712C192.434 84 191.474 84.216 190.466 84.36C189.458 84.504 188.33 84.576 187.082 84.576ZM168.218 59.52V48.72H193.346V59.52H168.218ZM216.119 84.936C212.423 84.936 209.183 84.144 206.399 82.56C203.615 80.976 201.431 78.792 199.847 76.008C198.263 73.224 197.471 70.032 197.471 66.432C197.471 62.784 198.263 59.568 199.847 56.784C201.431 54 203.615 51.816 206.399 50.232C209.183 48.6 212.423 47.784 216.119 47.784C219.863 47.784 223.127 48.6 225.911 50.232C228.743 51.816 230.927 54 232.463 56.784C234.047 59.568 234.839 62.784 234.839 66.432C234.839 70.032 234.047 73.224 232.463 76.008C230.927 78.792 228.743 80.976 225.911 82.56C223.127 84.144 219.863 84.936 216.119 84.936ZM216.119 73.56C218.135 73.56 219.791 72.912 221.087 71.616C222.383 70.272 223.031 68.52 223.031 66.36C223.031 64.2 222.383 62.472 221.087 61.176C219.791 59.832 218.135 59.16 216.119 59.16C214.151 59.16 212.519 59.832 211.223 61.176C209.927 62.472 209.279 64.2 209.279 66.36C209.279 68.472 209.927 70.2 211.223 71.544C212.519 72.888 214.151 73.56 216.119 73.56ZM248.065 48.72L251.089 58.584V84H239.425V48.72H248.065ZM248.353 65.424L246.481 64.632V55.416L247.201 54.624C247.777 53.76 248.617 52.8 249.721 51.744C250.873 50.688 252.169 49.776 253.609 49.008C255.097 48.192 256.633 47.784 258.217 47.784C258.985 47.784 259.681 47.856 260.305 48C260.929 48.096 261.409 48.264 261.745 48.504V59.16H259.369C256.393 59.16 253.969 59.664 252.097 60.672C250.273 61.632 249.025 63.216 248.353 65.424Z" fill="url(#paint0_linear_806_278)"/>
<path d="M298.448 84L282.032 34.968H294.056L307.448 76.008H302.408L315.944 34.968H327.608L311.192 84H298.448ZM343.272 84H331.536V48.72H343.272V84ZM330.672 37.56C330.672 35.496 331.296 33.864 332.544 32.664C333.792 31.416 335.424 30.792 337.44 30.792C339.504 30.792 341.136 31.416 342.336 32.664C343.536 33.864 344.136 35.496 344.136 37.56C344.136 39.528 343.536 41.136 342.336 42.384C341.136 43.584 339.504 44.184 337.44 44.184C335.424 44.184 333.792 43.584 332.544 42.384C331.296 41.136 330.672 39.528 330.672 37.56ZM363.701 85.152C360.773 85.152 358.037 84.624 355.493 83.568C352.997 82.464 350.645 80.568 348.437 77.88L354.629 71.472C356.309 73.104 357.941 74.28 359.525 75C361.157 75.72 362.837 76.08 364.565 76.08C365.429 76.08 366.149 75.912 366.725 75.576C367.301 75.192 367.589 74.736 367.589 74.208C367.589 73.728 367.397 73.32 367.013 72.984C366.677 72.648 365.957 72.312 364.853 71.976C363.797 71.64 362.237 71.208 360.173 70.68C356.381 69.72 353.597 68.352 351.821 66.576C350.045 64.752 349.157 62.376 349.157 59.448C349.157 57.288 349.733 55.32 350.885 53.544C352.037 51.72 353.693 50.28 355.853 49.224C358.013 48.12 360.557 47.568 363.485 47.568C366.989 47.568 369.965 48.216 372.413 49.512C374.861 50.808 376.901 52.368 378.533 54.192L371.693 60.312C370.541 59.304 369.173 58.488 367.589 57.864C366.053 57.24 364.373 56.928 362.549 56.928C361.589 56.928 360.797 57.096 360.173 57.432C359.549 57.72 359.237 58.152 359.237 58.728C359.237 59.256 359.645 59.736 360.461 60.168C361.325 60.552 363.077 61.056 365.717 61.68C370.085 62.736 373.253 64.2 375.221 66.072C377.189 67.896 378.173 70.368 378.173 73.488C378.173 75.792 377.549 77.832 376.301 79.608C375.101 81.336 373.397 82.704 371.189 83.712C369.029 84.672 366.533 85.152 363.701 85.152ZM395.171 84.936C392.579 84.936 390.443 84.552 388.763 83.784C387.131 83.016 385.859 81.984 384.947 80.688C384.035 79.344 383.387 77.808 383.003 76.08C382.667 74.304 382.499 72.408 382.499 70.392V48.72H394.163V69.096C394.163 70.872 394.499 72.072 395.171 72.696C395.891 73.272 396.803 73.56 397.907 73.56C398.771 73.56 399.611 73.416 400.427 73.128C401.291 72.84 402.131 72.408 402.947 71.832C403.811 71.256 404.651 70.512 405.467 69.6L407.915 75.36H404.315V48.72H416.051V84H407.411L405.035 76.728L409.283 77.232C408.131 78.528 406.811 79.776 405.323 80.976C403.835 82.128 402.227 83.088 400.499 83.856C398.819 84.576 397.043 84.936 395.171 84.936ZM433.456 84.936C430.96 84.936 428.752 84.456 426.832 83.496C424.912 82.488 423.4 81.096 422.296 79.32C421.24 77.496 420.712 75.432 420.712 73.128C420.712 70.632 421.288 68.52 422.44 66.792C423.64 65.016 425.2 63.672 427.12 62.76C429.088 61.8 431.248 61.32 433.6 61.32C437.104 61.32 439.96 62.136 442.168 63.768C444.376 65.352 445.816 67.704 446.488 70.824L441.736 69.744V61.752C441.736 60.552 441.304 59.52 440.44 58.656C439.576 57.792 438.232 57.36 436.408 57.36C435.112 57.36 433.624 57.528 431.944 57.864C430.264 58.2 428.488 58.824 426.616 59.736L423.304 51.456C425.416 50.4 427.744 49.536 430.288 48.864C432.832 48.144 435.472 47.784 438.208 47.784C441.52 47.784 444.304 48.384 446.56 49.584C448.864 50.784 450.592 52.488 451.744 54.696C452.896 56.856 453.472 59.424 453.472 62.4V84H443.68L441.448 77.016L446.488 75.432C445.768 78.36 444.328 80.688 442.168 82.416C440.056 84.096 437.152 84.936 433.456 84.936ZM437.416 77.016C438.76 77.016 439.84 76.656 440.656 75.936C441.472 75.216 441.88 74.28 441.88 73.128C441.88 72.024 441.472 71.112 440.656 70.392C439.84 69.672 438.76 69.312 437.416 69.312C435.976 69.312 434.848 69.672 434.032 70.392C433.264 71.112 432.88 72.024 432.88 73.128C432.88 74.28 433.264 75.216 434.032 75.936C434.848 76.656 435.976 77.016 437.416 77.016ZM470.519 84.36C468.599 84.36 466.799 84 465.119 83.28C463.439 82.512 462.071 81.288 461.015 79.608C460.007 77.928 459.503 75.696 459.503 72.912V34.968H471.095V68.808C471.095 70.632 471.383 71.808 471.959 72.336C472.583 72.816 473.423 73.056 474.479 73.056V84.072C474.047 84.168 473.423 84.24 472.607 84.288C471.839 84.336 471.143 84.36 470.519 84.36Z" fill="url(#paint1_linear_806_278)"/>
<defs>
<linearGradient id="paint0_linear_806_278" x1="0" y1="60" x2="259.5" y2="60" gradientUnits="userSpaceOnUse">
<stop stop-color="#FFF700"/>
<stop offset="1" stop-color="#FFA100"/>
</linearGradient>
<linearGradient id="paint1_linear_806_278" x1="0" y1="60" x2="477" y2="60" gradientUnits="userSpaceOnUse">
<stop offset="0.57669" stop-color="#FFF600"/>
<stop offset="1" stop-color="#FFA100"/>
</linearGradient>
</defs>
</svg>
