<svg width="446" height="103" viewBox="0 0 446 103" fill="none" xmlns="http://www.w3.org/2000/svg">
<path d="M9.7 19V5.38H12.32V19H9.7ZM1.36 19V5.38H3.98V19H1.36ZM3.06 13.58V11.08H10.56V13.58H3.06ZM17.6942 19.28C16.9742 19.28 16.3409 19.1467 15.7942 18.88C15.2476 18.6 14.8276 18.2133 14.5342 17.72C14.2409 17.2133 14.0942 16.6267 14.0942 15.96C14.0942 15.2933 14.2476 14.7133 14.5542 14.22C14.8742 13.7267 15.3076 13.3467 15.8542 13.08C16.4009 12.8 17.0209 12.66 17.7142 12.66C18.6609 12.66 19.4276 12.88 20.0142 13.32C20.6142 13.7467 21.0209 14.36 21.2342 15.16L20.0142 15V12.64C20.0142 12.2667 19.8809 11.9333 19.6142 11.64C19.3476 11.3467 18.9142 11.2 18.3142 11.2C17.9409 11.2 17.5276 11.2467 17.0742 11.34C16.6209 11.42 16.1476 11.58 15.6542 11.82L14.8742 9.9C15.4476 9.62 16.0542 9.4 16.6942 9.24C17.3476 9.08 18.0009 9 18.6542 9C19.5476 9 20.2876 9.16 20.8742 9.48C21.4609 9.8 21.9009 10.24 22.1942 10.8C22.4876 11.36 22.6342 12 22.6342 12.72V19H20.5542L19.9942 17.14L21.2342 16.78C21.0076 17.5667 20.5876 18.18 19.9742 18.62C19.3742 19.06 18.6142 19.28 17.6942 19.28ZM18.4142 17.28C18.8942 17.28 19.2809 17.16 19.5742 16.92C19.8676 16.68 20.0142 16.36 20.0142 15.96C20.0142 15.5467 19.8676 15.2267 19.5742 15C19.2809 14.76 18.8942 14.64 18.4142 14.64C17.9342 14.64 17.5476 14.76 17.2542 15C16.9609 15.2267 16.8142 15.5467 16.8142 15.96C16.8142 16.36 16.9609 16.68 17.2542 16.92C17.5476 17.16 17.9342 17.28 18.4142 17.28ZM30.0128 19.24C29.1595 19.24 28.4061 19.0267 27.7528 18.6C27.1128 18.1733 26.6128 17.58 26.2528 16.82C25.8928 16.0467 25.7128 15.14 25.7128 14.1C25.7128 13.02 25.8861 12.1 26.2328 11.34C26.5928 10.58 27.0928 10 27.7328 9.6C28.3728 9.2 29.1261 9 29.9928 9C30.8861 9 31.6728 9.21333 32.3528 9.64C33.0328 10.0667 33.5595 10.6667 33.9328 11.44C34.3195 12.2 34.5128 13.0867 34.5128 14.1C34.5128 15.1 34.3195 15.9867 33.9328 16.76C33.5595 17.5333 33.0328 18.14 32.3528 18.58C31.6861 19.02 30.9061 19.24 30.0128 19.24ZM24.7528 19V5.38H27.3728V11.78H27.1728V16.68H27.3728L26.7128 19H24.7528ZM29.5528 16.82C30.2195 16.82 30.7661 16.5667 31.1928 16.06C31.6328 15.5533 31.8528 14.9 31.8528 14.1C31.8528 13.3 31.6328 12.6533 31.1928 12.16C30.7661 11.6533 30.2195 11.4 29.5528 11.4C28.8861 11.4 28.3328 11.6533 27.8928 12.16C27.4528 12.6533 27.2328 13.3067 27.2328 14.12C27.2328 14.92 27.4528 15.5733 27.8928 16.08C28.3328 16.5733 28.8861 16.82 29.5528 16.82ZM38.4619 19.1C38.0219 19.1 37.6152 19.0067 37.2419 18.82C36.8819 18.6333 36.5885 18.3467 36.3619 17.96C36.1485 17.56 36.0419 17.0467 36.0419 16.42V5.38H38.6419V15.5C38.6419 15.9667 38.7352 16.2733 38.9219 16.42C39.1085 16.5533 39.3352 16.62 39.6019 16.62V18.96C39.4552 19.0133 39.2752 19.0467 39.0619 19.06C38.8619 19.0867 38.6619 19.1 38.4619 19.1ZM45.5758 19.2C44.6024 19.2 43.7491 18.9933 43.0158 18.58C42.2824 18.1533 41.7158 17.56 41.3158 16.8C40.9158 16.04 40.7158 15.1467 40.7158 14.12C40.7158 13.1067 40.9158 12.22 41.3158 11.46C41.7158 10.6867 42.2824 10.0867 43.0158 9.66C43.7491 9.22 44.6024 9 45.5758 9C46.5624 9 47.4158 9.22 48.1358 9.66C48.8691 10.1 49.4358 10.7067 49.8358 11.48C50.2358 12.24 50.4358 13.1133 50.4358 14.1C50.4358 14.2467 50.4291 14.3933 50.4158 14.54C50.4158 14.6733 50.4024 14.7867 50.3758 14.88H42.8558V12.92H48.3958L47.9958 13.86C47.9958 13.0333 47.7958 12.36 47.3958 11.84C47.0091 11.32 46.4024 11.06 45.5758 11.06C44.8558 11.06 44.2758 11.2867 43.8358 11.74C43.3958 12.18 43.1758 12.7733 43.1758 13.52V14.58C43.1758 15.3667 43.3958 15.9867 43.8358 16.44C44.2891 16.88 44.9024 17.1 45.6758 17.1C46.3558 17.1 46.8891 16.96 47.2758 16.68C47.6624 16.4 47.9958 16.0533 48.2758 15.64L50.0958 16.68C49.6558 17.4933 49.0558 18.12 48.2958 18.56C47.5491 18.9867 46.6424 19.2 45.5758 19.2ZM52.038 19V9.22H53.998L54.538 11.1L53.698 11.06C54.0446 10.66 54.4246 10.3067 54.838 10C55.2513 9.69333 55.698 9.45333 56.178 9.28C56.6713 9.09333 57.1846 9 57.718 9C58.3846 9 58.918 9.11333 59.318 9.34C59.718 9.56667 60.0113 9.87333 60.198 10.26C60.398 10.6467 60.5313 11.0867 60.598 11.58C60.678 12.06 60.718 12.56 60.718 13.08V19H58.098V13.06C58.098 12.46 57.978 12.06 57.738 11.86C57.498 11.66 57.2113 11.56 56.878 11.56C56.398 11.56 55.9313 11.7067 55.478 12C55.0246 12.28 54.6446 12.64 54.338 13.08L53.998 11.72H54.658V19H52.038ZM64.138 19V13.06C64.138 12.46 64.018 12.06 63.778 11.86C63.5513 11.66 63.2713 11.56 62.938 11.56C62.458 11.56 61.9913 11.7067 61.538 12C61.0846 12.28 60.7046 12.64 60.398 13.08L59.738 11.06C60.0846 10.66 60.4646 10.3067 60.878 10C61.3046 9.69333 61.758 9.45333 62.238 9.28C62.7313 9.09333 63.2446 9 63.778 9C64.4313 9 64.958 9.11333 65.358 9.34C65.758 9.56667 66.058 9.87333 66.258 10.26C66.458 10.6467 66.5913 11.0867 66.658 11.58C66.738 12.06 66.778 12.56 66.778 13.08V19H64.138ZM73.3158 19.24C72.3024 19.24 71.4091 19.0267 70.6358 18.6C69.8758 18.16 69.2824 17.56 68.8558 16.8C68.4291 16.0267 68.2158 15.1333 68.2158 14.12C68.2158 13.1067 68.4291 12.22 68.8558 11.46C69.2824 10.6867 69.8758 10.0867 70.6358 9.66C71.4091 9.22 72.3024 9 73.3158 9C74.3291 9 75.2158 9.22 75.9758 9.66C76.7491 10.0867 77.3491 10.6867 77.7758 11.46C78.2024 12.22 78.4158 13.1067 78.4158 14.12C78.4158 15.1333 78.2024 16.0267 77.7758 16.8C77.3491 17.56 76.7491 18.16 75.9758 18.6C75.2158 19.0267 74.3291 19.24 73.3158 19.24ZM73.3158 16.7C74.0358 16.7 74.6224 16.46 75.0758 15.98C75.5291 15.5 75.7558 14.88 75.7558 14.12C75.7558 13.3467 75.5291 12.72 75.0758 12.24C74.6224 11.76 74.0358 11.52 73.3158 11.52C72.5958 11.52 72.0091 11.76 71.5558 12.24C71.1158 12.7067 70.8958 13.3267 70.8958 14.1C70.8958 14.8733 71.1158 15.5 71.5558 15.98C72.0091 16.46 72.5958 16.7 73.3158 16.7ZM83.3877 19.26C82.641 19.26 81.9277 19.1067 81.2477 18.8C80.581 18.4933 79.9877 17.96 79.4677 17.2L81.0677 15.8C81.4943 16.28 81.901 16.6267 82.2877 16.84C82.6877 17.04 83.1343 17.14 83.6277 17.14C83.961 17.14 84.2277 17.06 84.4277 16.9C84.6277 16.74 84.7277 16.54 84.7277 16.3C84.7277 16.14 84.6743 16 84.5677 15.88C84.461 15.7467 84.261 15.62 83.9677 15.5C83.6877 15.38 83.2743 15.2533 82.7277 15.12C81.7143 14.8533 80.9543 14.4933 80.4477 14.04C79.941 13.5733 79.6877 12.92 79.6877 12.08C79.6877 11.5067 79.8343 10.9867 80.1277 10.52C80.421 10.04 80.841 9.66 81.3877 9.38C81.9477 9.1 82.6077 8.96 83.3677 8.96C84.261 8.96 85.021 9.13333 85.6477 9.48C86.2877 9.82667 86.801 10.2467 87.1877 10.74L85.4877 12.16C85.2343 11.8933 84.9077 11.66 84.5077 11.46C84.1077 11.26 83.641 11.16 83.1077 11.16C82.8143 11.16 82.5543 11.2267 82.3277 11.36C82.101 11.4933 81.9877 11.6867 81.9877 11.94C81.9877 12.18 82.1077 12.38 82.3477 12.54C82.601 12.7 83.081 12.8667 83.7877 13.04C84.9877 13.32 85.8477 13.7 86.3677 14.18C86.8877 14.66 87.1477 15.3 87.1477 16.1C87.1477 16.74 86.981 17.3 86.6477 17.78C86.3143 18.2467 85.861 18.6133 85.2877 18.88C84.7277 19.1333 84.0943 19.26 83.3877 19.26ZM97.9892 19.24C97.0959 19.24 96.3092 19.02 95.6292 18.58C94.9492 18.14 94.4226 17.5333 94.0492 16.76C93.6759 15.9867 93.4892 15.1 93.4892 14.1C93.4892 13.0867 93.6759 12.2 94.0492 11.44C94.4359 10.6667 94.9692 10.0667 95.6492 9.64C96.3292 9.21333 97.1092 9 97.9892 9C98.8559 9 99.6092 9.2 100.249 9.6C100.889 10 101.389 10.58 101.749 11.34C102.109 12.1 102.289 13.02 102.289 14.1C102.289 15.14 102.109 16.0467 101.749 16.82C101.389 17.58 100.883 18.1733 100.229 18.6C99.5892 19.0267 98.8426 19.24 97.9892 19.24ZM98.4492 16.82C99.1292 16.82 99.6826 16.5733 100.109 16.08C100.536 15.5733 100.749 14.92 100.749 14.12C100.749 13.3067 100.536 12.6533 100.109 12.16C99.6826 11.6533 99.1292 11.4 98.4492 11.4C97.7826 11.4 97.2292 11.6533 96.7892 12.16C96.3626 12.6533 96.1492 13.3 96.1492 14.1C96.1492 14.9 96.3626 15.5533 96.7892 16.06C97.2292 16.5667 97.7826 16.82 98.4492 16.82ZM101.289 19L100.629 16.68H100.809V11.78H100.629V5.38H103.249V19H101.289ZM109.638 19.2C108.665 19.2 107.812 18.9933 107.078 18.58C106.345 18.1533 105.778 17.56 105.378 16.8C104.978 16.04 104.778 15.1467 104.778 14.12C104.778 13.1067 104.978 12.22 105.378 11.46C105.778 10.6867 106.345 10.0867 107.078 9.66C107.812 9.22 108.665 9 109.638 9C110.625 9 111.478 9.22 112.198 9.66C112.932 10.1 113.498 10.7067 113.898 11.48C114.298 12.24 114.498 13.1133 114.498 14.1C114.498 14.2467 114.492 14.3933 114.478 14.54C114.478 14.6733 114.465 14.7867 114.438 14.88H106.918V12.92H112.458L112.058 13.86C112.058 13.0333 111.858 12.36 111.458 11.84C111.072 11.32 110.465 11.06 109.638 11.06C108.918 11.06 108.338 11.2867 107.898 11.74C107.458 12.18 107.238 12.7733 107.238 13.52V14.58C107.238 15.3667 107.458 15.9867 107.898 16.44C108.352 16.88 108.965 17.1 109.738 17.1C110.418 17.1 110.952 16.96 111.338 16.68C111.725 16.4 112.058 16.0533 112.338 15.64L114.158 16.68C113.718 17.4933 113.118 18.12 112.358 18.56C111.612 18.9867 110.705 19.2 109.638 19.2ZM125.416 19.18C124.416 19.18 123.622 18.92 123.036 18.4C122.462 17.8667 122.176 17.02 122.176 15.86V9.34L122.136 9.22L122.676 6.92H124.796V15.44C124.796 15.8667 124.896 16.18 125.096 16.38C125.309 16.5667 125.576 16.66 125.896 16.66C126.109 16.66 126.302 16.6467 126.476 16.62C126.649 16.58 126.802 16.54 126.936 16.5V18.94C126.722 19.02 126.496 19.08 126.256 19.12C126.016 19.16 125.736 19.18 125.416 19.18ZM120.656 11.64V9.22H126.936V11.64H120.656ZM132.231 19.24C131.498 19.24 130.911 19.1267 130.471 18.9C130.031 18.6733 129.691 18.3733 129.451 18C129.224 17.6133 129.071 17.1733 128.991 16.68C128.911 16.1867 128.871 15.6733 128.871 15.14V9.22H131.491V15.16C131.491 15.76 131.618 16.16 131.871 16.36C132.138 16.56 132.451 16.66 132.811 16.66C133.144 16.66 133.478 16.6 133.811 16.48C134.144 16.36 134.458 16.1867 134.751 15.96C135.058 15.72 135.311 15.4467 135.511 15.14L135.831 16.52H135.191V9.22H137.811V19H135.851L135.311 17.14L136.151 17.16C135.818 17.5467 135.438 17.9 135.011 18.22C134.598 18.54 134.151 18.7933 133.671 18.98C133.204 19.1533 132.724 19.24 132.231 19.24ZM147.561 12.52H150.121C150.894 12.52 151.508 12.32 151.961 11.92C152.414 11.52 152.641 10.9533 152.641 10.22C152.641 9.44667 152.414 8.86667 151.961 8.48C151.521 8.08 150.914 7.88 150.141 7.88H147.541L148.101 7.3V19H145.481V5.38H150.381C151.381 5.38 152.248 5.58667 152.981 6C153.714 6.4 154.288 6.96 154.701 7.68C155.114 8.4 155.321 9.24667 155.321 10.22C155.321 11.18 155.114 12.0267 154.701 12.76C154.288 13.48 153.708 14.04 152.961 14.44C152.228 14.84 151.368 15.04 150.381 15.04H147.561V12.52ZM158.725 9.22L159.385 11.92V19H156.765V9.22H158.725ZM158.845 13.26L158.365 13.04V11.04L158.545 10.82C158.691 10.58 158.911 10.32 159.205 10.04C159.511 9.76 159.858 9.52 160.245 9.32C160.645 9.10667 161.058 9 161.485 9C161.698 9 161.891 9.01333 162.065 9.04C162.238 9.06667 162.371 9.11333 162.465 9.18V11.56H161.825C160.958 11.56 160.291 11.7 159.825 11.98C159.358 12.2467 159.031 12.6733 158.845 13.26ZM167.744 19.2C166.77 19.2 165.917 18.9933 165.184 18.58C164.45 18.1533 163.884 17.56 163.484 16.8C163.084 16.04 162.884 15.1467 162.884 14.12C162.884 13.1067 163.084 12.22 163.484 11.46C163.884 10.6867 164.45 10.0867 165.184 9.66C165.917 9.22 166.77 9 167.744 9C168.73 9 169.584 9.22 170.304 9.66C171.037 10.1 171.604 10.7067 172.004 11.48C172.404 12.24 172.604 13.1133 172.604 14.1C172.604 14.2467 172.597 14.3933 172.584 14.54C172.584 14.6733 172.57 14.7867 172.544 14.88H165.024V12.92H170.564L170.164 13.86C170.164 13.0333 169.964 12.36 169.564 11.84C169.177 11.32 168.57 11.06 167.744 11.06C167.024 11.06 166.444 11.2867 166.004 11.74C165.564 12.18 165.344 12.7733 165.344 13.52V14.58C165.344 15.3667 165.564 15.9867 166.004 16.44C166.457 16.88 167.07 17.1 167.844 17.1C168.524 17.1 169.057 16.96 169.444 16.68C169.83 16.4 170.164 16.0533 170.444 15.64L172.264 16.68C171.824 17.4933 171.224 18.12 170.464 18.56C169.717 18.9867 168.81 19.2 167.744 19.2ZM177.509 19.26C176.762 19.26 176.049 19.1067 175.369 18.8C174.702 18.4933 174.109 17.96 173.589 17.2L175.189 15.8C175.615 16.28 176.022 16.6267 176.409 16.84C176.809 17.04 177.255 17.14 177.749 17.14C178.082 17.14 178.349 17.06 178.549 16.9C178.749 16.74 178.849 16.54 178.849 16.3C178.849 16.14 178.795 16 178.689 15.88C178.582 15.7467 178.382 15.62 178.089 15.5C177.809 15.38 177.395 15.2533 176.849 15.12C175.835 14.8533 175.075 14.4933 174.569 14.04C174.062 13.5733 173.809 12.92 173.809 12.08C173.809 11.5067 173.955 10.9867 174.249 10.52C174.542 10.04 174.962 9.66 175.509 9.38C176.069 9.1 176.729 8.96 177.489 8.96C178.382 8.96 179.142 9.13333 179.769 9.48C180.409 9.82667 180.922 10.2467 181.309 10.74L179.609 12.16C179.355 11.8933 179.029 11.66 178.629 11.46C178.229 11.26 177.762 11.16 177.229 11.16C176.935 11.16 176.675 11.2267 176.449 11.36C176.222 11.4933 176.109 11.6867 176.109 11.94C176.109 12.18 176.229 12.38 176.469 12.54C176.722 12.7 177.202 12.8667 177.909 13.04C179.109 13.32 179.969 13.7 180.489 14.18C181.009 14.66 181.269 15.3 181.269 16.1C181.269 16.74 181.102 17.3 180.769 17.78C180.435 18.2467 179.982 18.6133 179.409 18.88C178.849 19.1333 178.215 19.26 177.509 19.26ZM187.216 19.2C186.243 19.2 185.39 18.9933 184.656 18.58C183.923 18.1533 183.356 17.56 182.956 16.8C182.556 16.04 182.356 15.1467 182.356 14.12C182.356 13.1067 182.556 12.22 182.956 11.46C183.356 10.6867 183.923 10.0867 184.656 9.66C185.39 9.22 186.243 9 187.216 9C188.203 9 189.056 9.22 189.776 9.66C190.51 10.1 191.076 10.7067 191.476 11.48C191.876 12.24 192.076 13.1133 192.076 14.1C192.076 14.2467 192.07 14.3933 192.056 14.54C192.056 14.6733 192.043 14.7867 192.016 14.88H184.496V12.92H190.036L189.636 13.86C189.636 13.0333 189.436 12.36 189.036 11.84C188.65 11.32 188.043 11.06 187.216 11.06C186.496 11.06 185.916 11.2867 185.476 11.74C185.036 12.18 184.816 12.7733 184.816 13.52V14.58C184.816 15.3667 185.036 15.9867 185.476 16.44C185.93 16.88 186.543 17.1 187.316 17.1C187.996 17.1 188.53 16.96 188.916 16.68C189.303 16.4 189.636 16.0533 189.916 15.64L191.736 16.68C191.296 17.4933 190.696 18.12 189.936 18.56C189.19 18.9867 188.283 19.2 187.216 19.2ZM199.559 9C200.225 9 200.759 9.11333 201.159 9.34C201.572 9.56667 201.879 9.87333 202.079 10.26C202.292 10.6467 202.432 11.0867 202.499 11.58C202.565 12.06 202.599 12.56 202.599 13.08V19H199.979V13.06C199.979 12.46 199.859 12.06 199.619 11.86C199.392 11.66 199.099 11.56 198.739 11.56C198.405 11.56 198.065 11.6267 197.719 11.76C197.372 11.88 197.045 12.06 196.739 12.3C196.445 12.5267 196.192 12.7867 195.979 13.08L195.639 11.72H196.299V19H193.679V9.22H195.639L196.179 11.1L195.339 11.06C195.685 10.66 196.079 10.3067 196.519 10C196.972 9.69333 197.452 9.45333 197.959 9.28C198.465 9.09333 198.999 9 199.559 9ZM209.016 19.24C208.016 19.24 207.142 19.02 206.396 18.58C205.649 18.14 205.069 17.5333 204.656 16.76C204.256 15.9867 204.056 15.1 204.056 14.1C204.056 13.1133 204.256 12.2333 204.656 11.46C205.069 10.6867 205.649 10.0867 206.396 9.66C207.142 9.22 208.016 9 209.016 9C210.056 9 210.969 9.26667 211.756 9.8C212.556 10.32 213.129 11.0267 213.476 11.92L211.076 12.96C210.876 12.5067 210.602 12.1533 210.256 11.9C209.922 11.6467 209.502 11.52 208.996 11.52C208.342 11.52 207.796 11.7533 207.356 12.22C206.916 12.6733 206.696 13.3 206.696 14.1C206.696 14.9133 206.916 15.5467 207.356 16C207.796 16.4533 208.342 16.68 208.996 16.68C209.502 16.68 209.922 16.56 210.256 16.32C210.602 16.0667 210.876 15.7133 211.076 15.26L213.476 16.3C213.129 17.18 212.556 17.8933 211.756 18.44C210.956 18.9733 210.042 19.24 209.016 19.24ZM217.491 19H214.871V9.22H217.491V19ZM214.591 6.18C214.591 5.7 214.731 5.31333 215.011 5.02C215.304 4.71333 215.691 4.56 216.171 4.56C216.651 4.56 217.031 4.71333 217.311 5.02C217.604 5.31333 217.751 5.7 217.751 6.18C217.751 6.63333 217.604 7.00667 217.311 7.3C217.031 7.59333 216.651 7.74 216.171 7.74C215.691 7.74 215.304 7.59333 215.011 7.3C214.731 7.00667 214.591 6.63333 214.591 6.18ZM222.714 19.28C221.994 19.28 221.36 19.1467 220.814 18.88C220.267 18.6 219.847 18.2133 219.554 17.72C219.26 17.2133 219.114 16.6267 219.114 15.96C219.114 15.2933 219.267 14.7133 219.574 14.22C219.894 13.7267 220.327 13.3467 220.874 13.08C221.42 12.8 222.04 12.66 222.734 12.66C223.68 12.66 224.447 12.88 225.034 13.32C225.634 13.7467 226.04 14.36 226.254 15.16L225.034 15V12.64C225.034 12.2667 224.9 11.9333 224.634 11.64C224.367 11.3467 223.934 11.2 223.334 11.2C222.96 11.2 222.547 11.2467 222.094 11.34C221.64 11.42 221.167 11.58 220.674 11.82L219.894 9.9C220.467 9.62 221.074 9.4 221.714 9.24C222.367 9.08 223.02 9 223.674 9C224.567 9 225.307 9.16 225.894 9.48C226.48 9.8 226.92 10.24 227.214 10.8C227.507 11.36 227.654 12 227.654 12.72V19H225.574L225.014 17.14L226.254 16.78C226.027 17.5667 225.607 18.18 224.994 18.62C224.394 19.06 223.634 19.28 222.714 19.28ZM223.434 17.28C223.914 17.28 224.3 17.16 224.594 16.92C224.887 16.68 225.034 16.36 225.034 15.96C225.034 15.5467 224.887 15.2267 224.594 15C224.3 14.76 223.914 14.64 223.434 14.64C222.954 14.64 222.567 14.76 222.274 15C221.98 15.2267 221.834 15.5467 221.834 15.96C221.834 16.36 221.98 16.68 222.274 16.92C222.567 17.16 222.954 17.28 223.434 17.28ZM231.412 19.16C231.079 19.16 230.766 19.08 230.472 18.92C230.192 18.7467 229.966 18.52 229.792 18.24C229.619 17.9467 229.532 17.6333 229.532 17.3C229.532 16.94 229.619 16.62 229.792 16.34C229.966 16.06 230.192 15.84 230.472 15.68C230.766 15.5067 231.079 15.42 231.412 15.42C231.772 15.42 232.092 15.5067 232.372 15.68C232.652 15.84 232.879 16.06 233.052 16.34C233.226 16.62 233.312 16.94 233.312 17.3C233.312 17.6333 233.226 17.9467 233.052 18.24C232.879 18.52 232.652 18.7467 232.372 18.92C232.092 19.08 231.772 19.16 231.412 19.16Z" fill="#FFF8DA"/>
<path d="M26.28 84.936C21.144 84.936 16.704 83.856 12.96 81.696C9.216 79.536 6.336 76.56 4.32 72.768C2.304 68.928 1.296 64.512 1.296 59.52C1.296 55.776 1.896 52.368 3.096 49.296C4.296 46.176 6 43.488 8.208 41.232C10.416 38.928 13.056 37.176 16.128 35.976C19.2 34.728 22.584 34.104 26.28 34.104C32.04 34.104 36.816 35.4 40.608 37.992C44.4 40.536 47.208 44.256 49.032 49.152L38.592 53.4C37.2 50.712 35.52 48.72 33.552 47.424C31.584 46.08 29.16 45.408 26.28 45.408C23.736 45.408 21.48 45.984 19.512 47.136C17.544 48.288 15.984 49.92 14.832 52.032C13.728 54.144 13.176 56.64 13.176 59.52C13.176 62.4 13.728 64.896 14.832 67.008C15.984 69.12 17.544 70.752 19.512 71.904C21.48 73.008 23.736 73.56 26.28 73.56C29.16 73.56 31.584 72.912 33.552 71.616C35.52 70.32 37.2 68.328 38.592 65.64L49.032 69.888C47.208 74.784 44.4 78.528 40.608 81.12C36.816 83.664 32.04 84.936 26.28 84.936ZM69.7286 84.936C66.0326 84.936 62.7926 84.144 60.0086 82.56C57.2246 80.976 55.0406 78.792 53.4566 76.008C51.8726 73.224 51.0806 70.032 51.0806 66.432C51.0806 62.784 51.8726 59.568 53.4566 56.784C55.0406 54 57.2246 51.816 60.0086 50.232C62.7926 48.6 66.0326 47.784 69.7286 47.784C73.4726 47.784 76.7366 48.6 79.5206 50.232C82.3526 51.816 84.5366 54 86.0726 56.784C87.6566 59.568 88.4486 62.784 88.4486 66.432C88.4486 70.032 87.6566 73.224 86.0726 76.008C84.5366 78.792 82.3526 80.976 79.5206 82.56C76.7366 84.144 73.4726 84.936 69.7286 84.936ZM69.7286 73.56C71.7446 73.56 73.4006 72.912 74.6966 71.616C75.9926 70.272 76.6406 68.52 76.6406 66.36C76.6406 64.2 75.9926 62.472 74.6966 61.176C73.4006 59.832 71.7446 59.16 69.7286 59.16C67.7606 59.16 66.1286 59.832 64.8326 61.176C63.5366 62.472 62.8886 64.2 62.8886 66.36C62.8886 68.472 63.5366 70.2 64.8326 71.544C66.1286 72.888 67.7606 73.56 69.7286 73.56ZM115.21 47.784C117.562 47.784 119.482 48.192 120.97 49.008C122.458 49.824 123.61 50.928 124.426 52.32C125.242 53.664 125.794 55.2 126.082 56.928C126.418 58.656 126.586 60.456 126.586 62.328V84H114.922V63.696C114.922 61.872 114.634 60.672 114.058 60.096C113.482 59.52 112.642 59.232 111.538 59.232C110.722 59.232 109.858 59.4 108.946 59.736C108.034 60.024 107.122 60.48 106.21 61.104C105.346 61.68 104.482 62.376 103.618 63.192L101.098 57.36H104.698V84H93.0341V48.72H101.674L103.978 55.992L99.7301 55.56C100.93 54.216 102.322 52.968 103.906 51.816C105.538 50.616 107.29 49.656 109.162 48.936C111.082 48.168 113.098 47.784 115.21 47.784ZM149.535 84.576C145.359 84.576 142.071 83.592 139.671 81.624C137.319 79.656 136.143 76.392 136.143 71.832V49.152L135.999 48.72L138.447 40.152H147.807V68.664C147.807 70.392 148.191 71.616 148.959 72.336C149.775 73.056 150.831 73.416 152.127 73.416C152.847 73.416 153.519 73.344 154.143 73.2C154.815 73.056 155.367 72.912 155.799 72.768V83.712C154.887 84 153.927 84.216 152.919 84.36C151.911 84.504 150.783 84.576 149.535 84.576ZM130.671 59.52V48.72H155.799V59.52H130.671ZM172.667 84.936C170.171 84.936 167.963 84.456 166.043 83.496C164.123 82.488 162.611 81.096 161.507 79.32C160.451 77.496 159.923 75.432 159.923 73.128C159.923 70.632 160.499 68.52 161.651 66.792C162.851 65.016 164.411 63.672 166.331 62.76C168.299 61.8 170.459 61.32 172.811 61.32C176.315 61.32 179.171 62.136 181.379 63.768C183.587 65.352 185.027 67.704 185.699 70.824L180.947 69.744V61.752C180.947 60.552 180.515 59.52 179.651 58.656C178.787 57.792 177.443 57.36 175.619 57.36C174.323 57.36 172.835 57.528 171.155 57.864C169.475 58.2 167.699 58.824 165.827 59.736L162.515 51.456C164.627 50.4 166.955 49.536 169.499 48.864C172.043 48.144 174.683 47.784 177.419 47.784C180.731 47.784 183.515 48.384 185.771 49.584C188.075 50.784 189.803 52.488 190.955 54.696C192.107 56.856 192.683 59.424 192.683 62.4V84H182.891L180.659 77.016L185.699 75.432C184.979 78.36 183.539 80.688 181.379 82.416C179.267 84.096 176.363 84.936 172.667 84.936ZM176.627 77.016C177.971 77.016 179.051 76.656 179.867 75.936C180.683 75.216 181.091 74.28 181.091 73.128C181.091 72.024 180.683 71.112 179.867 70.392C179.051 69.672 177.971 69.312 176.627 69.312C175.187 69.312 174.059 69.672 173.243 70.392C172.475 71.112 172.091 72.024 172.091 73.128C172.091 74.28 172.475 75.216 173.243 75.936C174.059 76.656 175.187 77.016 176.627 77.016ZM177.275 44.688L171.803 39.072L183.467 28.344L189.011 33.888L177.275 44.688ZM214.981 84.936C211.381 84.936 208.213 84.144 205.477 82.56C202.789 80.976 200.677 78.768 199.141 75.936C197.605 73.104 196.837 69.888 196.837 66.288C196.837 62.736 197.605 59.568 199.141 56.784C200.677 54 202.789 51.816 205.477 50.232C208.213 48.6 211.381 47.784 214.981 47.784C219.061 47.784 222.565 48.768 225.493 50.736C228.421 52.704 230.509 55.344 231.757 58.656L221.317 63.408C220.693 62.064 219.901 61.032 218.941 60.312C217.981 59.544 216.709 59.16 215.125 59.16C213.253 59.16 211.669 59.808 210.373 61.104C209.125 62.4 208.501 64.128 208.501 66.288C208.501 68.544 209.125 70.32 210.373 71.616C211.669 72.864 213.253 73.488 215.125 73.488C216.709 73.488 217.981 73.128 218.941 72.408C219.901 71.688 220.693 70.68 221.317 69.384L231.757 73.992C230.509 77.304 228.397 79.968 225.421 81.984C222.493 83.952 219.013 84.936 214.981 84.936ZM252.402 84.576C248.226 84.576 244.938 83.592 242.538 81.624C240.186 79.656 239.01 76.392 239.01 71.832V49.152L238.866 48.72L241.314 40.152H250.674V68.664C250.674 70.392 251.058 71.616 251.826 72.336C252.642 73.056 253.698 73.416 254.994 73.416C255.714 73.416 256.386 73.344 257.01 73.2C257.682 73.056 258.234 72.912 258.666 72.768V83.712C257.754 84 256.794 84.216 255.786 84.36C254.778 84.504 253.65 84.576 252.402 84.576ZM233.538 59.52V48.72H258.666V59.52H233.538ZM275.534 84.936C273.038 84.936 270.83 84.456 268.91 83.496C266.99 82.488 265.478 81.096 264.374 79.32C263.318 77.496 262.79 75.432 262.79 73.128C262.79 70.632 263.366 68.52 264.518 66.792C265.718 65.016 267.278 63.672 269.198 62.76C271.166 61.8 273.326 61.32 275.678 61.32C279.182 61.32 282.038 62.136 284.246 63.768C286.454 65.352 287.894 67.704 288.566 70.824L283.814 69.744V61.752C283.814 60.552 283.382 59.52 282.518 58.656C281.654 57.792 280.31 57.36 278.486 57.36C277.19 57.36 275.702 57.528 274.022 57.864C272.342 58.2 270.566 58.824 268.694 59.736L265.382 51.456C267.494 50.4 269.822 49.536 272.366 48.864C274.91 48.144 277.55 47.784 280.286 47.784C283.598 47.784 286.382 48.384 288.638 49.584C290.942 50.784 292.67 52.488 293.822 54.696C294.974 56.856 295.55 59.424 295.55 62.4V84H285.758L283.526 77.016L288.566 75.432C287.846 78.36 286.406 80.688 284.246 82.416C282.134 84.096 279.23 84.936 275.534 84.936ZM279.494 77.016C280.838 77.016 281.918 76.656 282.734 75.936C283.55 75.216 283.958 74.28 283.958 73.128C283.958 72.024 283.55 71.112 282.734 70.392C281.918 69.672 280.838 69.312 279.494 69.312C278.054 69.312 276.926 69.672 276.11 70.392C275.342 71.112 274.958 72.024 274.958 73.128C274.958 74.28 275.342 75.216 276.11 75.936C276.926 76.656 278.054 77.016 279.494 77.016ZM323.968 47.784C326.32 47.784 328.24 48.192 329.728 49.008C331.216 49.824 332.368 50.928 333.184 52.32C334 53.664 334.552 55.2 334.84 56.928C335.176 58.656 335.344 60.456 335.344 62.328V84H323.68V63.696C323.68 61.872 323.392 60.672 322.816 60.096C322.24 59.52 321.4 59.232 320.296 59.232C319.48 59.232 318.616 59.4 317.704 59.736C316.792 60.024 315.88 60.48 314.968 61.104C314.104 61.68 313.24 62.376 312.376 63.192L309.856 57.36H313.456V84H301.792V48.72H310.432L312.736 55.992L308.488 55.56C309.688 54.216 311.08 52.968 312.664 51.816C314.296 50.616 316.048 49.656 317.92 48.936C319.84 48.168 321.856 47.784 323.968 47.784ZM357.94 84.936C354.244 84.936 351.004 84.144 348.22 82.56C345.436 80.976 343.252 78.792 341.668 76.008C340.084 73.224 339.292 70.032 339.292 66.432C339.292 62.784 340.084 59.568 341.668 56.784C343.252 54 345.436 51.816 348.22 50.232C351.004 48.6 354.244 47.784 357.94 47.784C361.684 47.784 364.948 48.6 367.732 50.232C370.564 51.816 372.748 54 374.284 56.784C375.868 59.568 376.66 62.784 376.66 66.432C376.66 70.032 375.868 73.224 374.284 76.008C372.748 78.792 370.564 80.976 367.732 82.56C364.948 84.144 361.684 84.936 357.94 84.936ZM357.94 73.56C359.956 73.56 361.612 72.912 362.908 71.616C364.204 70.272 364.852 68.52 364.852 66.36C364.852 64.2 364.204 62.472 362.908 61.176C361.612 59.832 359.956 59.16 357.94 59.16C355.972 59.16 354.34 59.832 353.044 61.176C351.748 62.472 351.1 64.2 351.1 66.36C351.1 68.472 351.748 70.2 353.044 71.544C354.34 72.888 355.972 73.56 357.94 73.56ZM394.92 85.152C391.992 85.152 389.256 84.624 386.712 83.568C384.216 82.464 381.864 80.568 379.656 77.88L385.848 71.472C387.528 73.104 389.16 74.28 390.744 75C392.376 75.72 394.056 76.08 395.784 76.08C396.648 76.08 397.368 75.912 397.944 75.576C398.52 75.192 398.808 74.736 398.808 74.208C398.808 73.728 398.616 73.32 398.232 72.984C397.896 72.648 397.176 72.312 396.072 71.976C395.016 71.64 393.456 71.208 391.392 70.68C387.6 69.72 384.816 68.352 383.04 66.576C381.264 64.752 380.376 62.376 380.376 59.448C380.376 57.288 380.952 55.32 382.104 53.544C383.256 51.72 384.912 50.28 387.072 49.224C389.232 48.12 391.776 47.568 394.704 47.568C398.208 47.568 401.184 48.216 403.632 49.512C406.08 50.808 408.12 52.368 409.752 54.192L402.912 60.312C401.76 59.304 400.392 58.488 398.808 57.864C397.272 57.24 395.592 56.928 393.768 56.928C392.808 56.928 392.016 57.096 391.392 57.432C390.768 57.72 390.456 58.152 390.456 58.728C390.456 59.256 390.864 59.736 391.68 60.168C392.544 60.552 394.296 61.056 396.936 61.68C401.304 62.736 404.472 64.2 406.44 66.072C408.408 67.896 409.392 70.368 409.392 73.488C409.392 75.792 408.768 77.832 407.52 79.608C406.32 81.336 404.616 82.704 402.408 83.712C400.248 84.672 397.752 85.152 394.92 85.152Z" fill="url(#paint0_linear_875_364)"/>
<defs>
<linearGradient id="paint0_linear_875_364" x1="0" y1="27.75" x2="337.962" y2="77.5492" gradientUnits="userSpaceOnUse">
<stop stop-color="#FFF700"/>
<stop offset="1" stop-color="#FFA200"/>
</linearGradient>
</defs>
</svg>
