<svg width="140" height="12" viewBox="0 0 140 12" fill="none" xmlns="http://www.w3.org/2000/svg">
<path d="M5.92098 6.32H4.90098L7.69098 0.784999H9.83598L6.20598 7.73L6.38598 6.47V11H4.42098V6.47L4.57098 7.73L0.970977 0.784999H3.14598L5.92098 6.32ZM19.2801 11.18C18.2301 11.18 17.3151 10.955 16.5351 10.505C15.7651 10.045 15.1651 9.42 14.7351 8.63C14.3151 7.83 14.1051 6.92 14.1051 5.9C14.1051 5.13 14.2301 4.425 14.4801 3.785C14.7401 3.135 15.1001 2.575 15.5601 2.105C16.0301 1.635 16.5801 1.27 17.2101 1.01C17.8401 0.75 18.5301 0.62 19.2801 0.62C20.4701 0.62 21.4451 0.875 22.2051 1.385C22.9651 1.895 23.5601 2.605 23.9901 3.515L22.1601 4.175C21.7901 3.575 21.3701 3.15 20.9001 2.9C20.4301 2.65 19.8901 2.525 19.2801 2.525C18.6701 2.525 18.1251 2.67 17.6451 2.96C17.1751 3.24 16.8001 3.635 16.5201 4.145C16.2501 4.645 16.1151 5.23 16.1151 5.9C16.1151 6.56 16.2501 7.145 16.5201 7.655C16.8001 8.165 17.1751 8.565 17.6451 8.855C18.1251 9.135 18.6701 9.275 19.2801 9.275C19.8901 9.275 20.4301 9.15 20.9001 8.9C21.3701 8.65 21.7901 8.225 22.1601 7.625L23.9901 8.285C23.5601 9.195 22.9651 9.905 22.2051 10.415C21.4451 10.925 20.4701 11.18 19.2801 11.18ZM26.648 6.815V4.94H30.818V6.815H26.648ZM26.603 2.645L27.233 1.895V9.815L26.528 9.125H31.673V11H25.268V0.784999H31.673V2.645H26.603ZM32.7233 5.9C32.7233 5.13 32.8533 4.425 33.1133 3.785C33.3733 3.135 33.7383 2.575 34.2083 2.105C34.6783 1.635 35.2333 1.27 35.8733 1.01C36.5233 0.75 37.2333 0.62 38.0033 0.62C38.7633 0.62 39.4633 0.75 40.1033 1.01C40.7433 1.27 41.2983 1.635 41.7683 2.105C42.2383 2.575 42.6033 3.135 42.8633 3.785C43.1233 4.425 43.2533 5.13 43.2533 5.9C43.2533 6.66 43.1233 7.365 42.8633 8.015C42.6033 8.655 42.2383 9.215 41.7683 9.695C41.2983 10.165 40.7433 10.53 40.1033 10.79C39.4633 11.05 38.7633 11.18 38.0033 11.18C37.2333 11.18 36.5233 11.05 35.8733 10.79C35.2333 10.53 34.6783 10.165 34.2083 9.695C33.7383 9.215 33.3733 8.655 33.1133 8.015C32.8533 7.365 32.7233 6.66 32.7233 5.9ZM34.7333 5.9C34.7333 6.56 34.8733 7.145 35.1533 7.655C35.4333 8.155 35.8183 8.545 36.3083 8.825C36.8083 9.105 37.3733 9.245 38.0033 9.245C38.6333 9.245 39.1883 9.105 39.6683 8.825C40.1583 8.545 40.5433 8.155 40.8233 7.655C41.1033 7.145 41.2433 6.56 41.2433 5.9C41.2433 5.23 41.1033 4.645 40.8233 4.145C40.5433 3.635 40.1583 3.24 39.6683 2.96C39.1883 2.68 38.6333 2.54 38.0033 2.54C37.3733 2.54 36.8083 2.685 36.3083 2.975C35.8183 3.255 35.4333 3.645 35.1533 4.145C34.8733 4.645 34.7333 5.23 34.7333 5.9ZM51.2898 11.18C50.6198 11.18 50.0298 11.015 49.5198 10.685C49.0098 10.355 48.6148 9.9 48.3348 9.32C48.0548 8.74 47.9148 8.075 47.9148 7.325C47.9148 6.565 48.0548 5.9 48.3348 5.33C48.6248 4.75 49.0248 4.3 49.5348 3.98C50.0448 3.66 50.6298 3.5 51.2898 3.5C51.9398 3.5 52.5048 3.65 52.9848 3.95C53.4648 4.25 53.8398 4.685 54.1098 5.255C54.3798 5.825 54.5148 6.515 54.5148 7.325C54.5148 8.105 54.3798 8.785 54.1098 9.365C53.8398 9.935 53.4598 10.38 52.9698 10.7C52.4898 11.02 51.9298 11.18 51.2898 11.18ZM51.6348 9.365C52.1448 9.365 52.5598 9.18 52.8798 8.81C53.1998 8.43 53.3598 7.94 53.3598 7.34C53.3598 6.73 53.1998 6.24 52.8798 5.87C52.5598 5.49 52.1448 5.3 51.6348 5.3C51.1348 5.3 50.7198 5.49 50.3898 5.87C50.0698 6.24 49.9098 6.725 49.9098 7.325C49.9098 7.925 50.0698 8.415 50.3898 8.795C50.7198 9.175 51.1348 9.365 51.6348 9.365ZM53.7648 11L53.2698 9.26H53.4048V5.585H53.2698V0.784999H55.2348V11H53.7648ZM60.0266 11.15C59.2966 11.15 58.6566 10.995 58.1066 10.685C57.5566 10.365 57.1316 9.92 56.8316 9.35C56.5316 8.78 56.3816 8.11 56.3816 7.34C56.3816 6.58 56.5316 5.915 56.8316 5.345C57.1316 4.765 57.5566 4.315 58.1066 3.995C58.6566 3.665 59.2966 3.5 60.0266 3.5C60.7666 3.5 61.4066 3.665 61.9466 3.995C62.4966 4.325 62.9216 4.78 63.2216 5.36C63.5216 5.93 63.6716 6.585 63.6716 7.325C63.6716 7.435 63.6666 7.545 63.6566 7.655C63.6566 7.755 63.6466 7.84 63.6266 7.91H57.9866V6.44H62.1416L61.8416 7.145C61.8416 6.525 61.6916 6.02 61.3916 5.63C61.1016 5.24 60.6466 5.045 60.0266 5.045C59.4866 5.045 59.0516 5.215 58.7216 5.555C58.3916 5.885 58.2266 6.33 58.2266 6.89V7.685C58.2266 8.275 58.3916 8.74 58.7216 9.08C59.0616 9.41 59.5216 9.575 60.1016 9.575C60.6116 9.575 61.0116 9.47 61.3016 9.26C61.5916 9.05 61.8416 8.79 62.0516 8.48L63.4166 9.26C63.0866 9.87 62.6366 10.34 62.0666 10.67C61.5066 10.99 60.8266 11.15 60.0266 11.15ZM70.2697 7.115H75.3097V8.945H70.2697V7.115ZM68.1397 11L71.7697 0.784999H74.0647L77.5747 11H75.5947L72.6397 2.135H73.2097L70.1197 11H68.1397ZM78.7283 11V3.11C78.7283 2.57 78.8233 2.115 79.0133 1.745C79.2133 1.365 79.4883 1.08 79.8383 0.89C80.1883 0.7 80.6033 0.605 81.0833 0.605C81.3233 0.605 81.5383 0.62 81.7283 0.649999C81.9183 0.679999 82.0733 0.71 82.1933 0.74V2.54C82.0933 2.52 81.9883 2.5 81.8783 2.48C81.7783 2.46 81.6583 2.45 81.5183 2.45C81.2683 2.45 81.0683 2.525 80.9183 2.675C80.7683 2.815 80.6933 3.05 80.6933 3.38V11H78.7283ZM82.0283 5.63H77.6933V3.83H82.0283V5.63ZM86.2445 11.135C85.4945 11.135 84.8995 10.94 84.4595 10.55C84.0295 10.15 83.8145 9.515 83.8145 8.645V3.755L83.7845 3.665L84.1895 1.94H85.7795V8.33C85.7795 8.65 85.8545 8.885 86.0045 9.035C86.1645 9.175 86.3645 9.245 86.6045 9.245C86.7645 9.245 86.9095 9.235 87.0395 9.215C87.1695 9.185 87.2845 9.155 87.3845 9.125V10.955C87.2245 11.015 87.0545 11.06 86.8745 11.09C86.6945 11.12 86.4845 11.135 86.2445 11.135ZM82.6745 5.48V3.665H87.3845V5.48H82.6745ZM92.0188 11.15C91.2888 11.15 90.6488 10.995 90.0988 10.685C89.5488 10.365 89.1238 9.92 88.8238 9.35C88.5238 8.78 88.3738 8.11 88.3738 7.34C88.3738 6.58 88.5238 5.915 88.8238 5.345C89.1238 4.765 89.5488 4.315 90.0988 3.995C90.6488 3.665 91.2888 3.5 92.0188 3.5C92.7588 3.5 93.3988 3.665 93.9388 3.995C94.4888 4.325 94.9138 4.78 95.2138 5.36C95.5138 5.93 95.6638 6.585 95.6638 7.325C95.6638 7.435 95.6588 7.545 95.6488 7.655C95.6488 7.755 95.6388 7.84 95.6188 7.91H89.9788V6.44H94.1338L93.8338 7.145C93.8338 6.525 93.6838 6.02 93.3838 5.63C93.0938 5.24 92.6388 5.045 92.0188 5.045C91.4788 5.045 91.0438 5.215 90.7138 5.555C90.3838 5.885 90.2188 6.33 90.2188 6.89V7.685C90.2188 8.275 90.3838 8.74 90.7138 9.08C91.0538 9.41 91.5138 9.575 92.0938 9.575C92.6038 9.575 93.0038 9.47 93.2938 9.26C93.5838 9.05 93.8338 8.79 94.0438 8.48L95.4088 9.26C95.0788 9.87 94.6288 10.34 94.0588 10.67C93.4988 10.99 92.8188 11.15 92.0188 11.15ZM98.3354 3.665L98.8304 5.69V11H96.8654V3.665H98.3354ZM98.4254 6.695L98.0654 6.53V5.03L98.2004 4.865C98.3104 4.685 98.4754 4.49 98.6954 4.28C98.9254 4.07 99.1854 3.89 99.4754 3.74C99.7754 3.58 100.085 3.5 100.405 3.5C100.565 3.5 100.71 3.51 100.84 3.53C100.97 3.55 101.07 3.585 101.14 3.635V5.42H100.66C100.01 5.42 99.5104 5.525 99.1604 5.735C98.8104 5.935 98.5654 6.255 98.4254 6.695ZM103.651 7.31V7.055L106.711 3.665H108.946L105.541 7.475L105.451 6.68L109.006 11H106.696L103.651 7.31ZM102.271 0.784999H104.221V11H102.271V0.784999ZM111.757 11.21C111.217 11.21 110.742 11.11 110.332 10.91C109.922 10.7 109.607 10.41 109.387 10.04C109.167 9.66 109.057 9.22 109.057 8.72C109.057 8.22 109.172 7.785 109.402 7.415C109.642 7.045 109.967 6.76 110.377 6.56C110.787 6.35 111.252 6.245 111.772 6.245C112.482 6.245 113.057 6.41 113.497 6.74C113.947 7.06 114.252 7.52 114.412 8.12L113.497 8V6.23C113.497 5.95 113.397 5.7 113.197 5.48C112.997 5.26 112.672 5.15 112.222 5.15C111.942 5.15 111.632 5.185 111.292 5.255C110.952 5.315 110.597 5.435 110.227 5.615L109.642 4.175C110.072 3.965 110.527 3.8 111.007 3.68C111.497 3.56 111.987 3.5 112.477 3.5C113.147 3.5 113.702 3.62 114.142 3.86C114.582 4.1 114.912 4.43 115.132 4.85C115.352 5.27 115.462 5.75 115.462 6.29V11H113.902L113.482 9.605L114.412 9.335C114.242 9.925 113.927 10.385 113.467 10.715C113.017 11.045 112.447 11.21 111.757 11.21ZM112.297 9.71C112.657 9.71 112.947 9.62 113.167 9.44C113.387 9.26 113.497 9.02 113.497 8.72C113.497 8.41 113.387 8.17 113.167 8C112.947 7.82 112.657 7.73 112.297 7.73C111.937 7.73 111.647 7.82 111.427 8C111.207 8.17 111.097 8.41 111.097 8.72C111.097 9.02 111.207 9.26 111.427 9.44C111.647 9.62 111.937 9.71 112.297 9.71ZM119.046 11H117.081V3.665H119.046V11ZM116.871 1.385C116.871 1.025 116.976 0.734999 117.186 0.514999C117.406 0.284999 117.696 0.169999 118.056 0.169999C118.416 0.169999 118.701 0.284999 118.911 0.514999C119.131 0.734999 119.241 1.025 119.241 1.385C119.241 1.725 119.131 2.005 118.911 2.225C118.701 2.445 118.416 2.555 118.056 2.555C117.696 2.555 117.406 2.445 117.186 2.225C116.976 2.005 116.871 1.725 116.871 1.385ZM122.227 3.665L122.722 5.69V11H120.757V3.665H122.227ZM122.317 6.695L121.957 6.53V5.03L122.092 4.865C122.202 4.685 122.367 4.49 122.587 4.28C122.817 4.07 123.077 3.89 123.367 3.74C123.667 3.58 123.977 3.5 124.297 3.5C124.457 3.5 124.602 3.51 124.732 3.53C124.862 3.55 124.962 3.585 125.032 3.635V5.42H124.552C123.902 5.42 123.402 5.525 123.052 5.735C122.702 5.935 122.457 6.255 122.317 6.695ZM129.171 11.18C128.411 11.18 127.741 11.02 127.161 10.7C126.591 10.37 126.146 9.92 125.826 9.35C125.506 8.77 125.346 8.1 125.346 7.34C125.346 6.58 125.506 5.915 125.826 5.345C126.146 4.765 126.591 4.315 127.161 3.995C127.741 3.665 128.411 3.5 129.171 3.5C129.931 3.5 130.596 3.665 131.166 3.995C131.746 4.315 132.196 4.765 132.516 5.345C132.836 5.915 132.996 6.58 132.996 7.34C132.996 8.1 132.836 8.77 132.516 9.35C132.196 9.92 131.746 10.37 131.166 10.7C130.596 11.02 129.931 11.18 129.171 11.18ZM129.171 9.275C129.711 9.275 130.151 9.095 130.491 8.735C130.831 8.375 131.001 7.91 131.001 7.34C131.001 6.76 130.831 6.29 130.491 5.93C130.151 5.57 129.711 5.39 129.171 5.39C128.631 5.39 128.191 5.57 127.851 5.93C127.521 6.28 127.356 6.745 127.356 7.325C127.356 7.905 127.521 8.375 127.851 8.735C128.191 9.095 128.631 9.275 129.171 9.275ZM136.725 11.195C136.165 11.195 135.63 11.08 135.12 10.85C134.62 10.62 134.175 10.22 133.785 9.65L134.985 8.6C135.305 8.96 135.61 9.22 135.9 9.38C136.2 9.53 136.535 9.605 136.905 9.605C137.155 9.605 137.355 9.545 137.505 9.425C137.655 9.305 137.73 9.155 137.73 8.975C137.73 8.855 137.69 8.75 137.61 8.66C137.53 8.56 137.38 8.465 137.16 8.375C136.95 8.285 136.64 8.19 136.23 8.09C135.47 7.89 134.9 7.62 134.52 7.28C134.14 6.93 133.95 6.44 133.95 5.81C133.95 5.38 134.06 4.99 134.28 4.64C134.5 4.28 134.815 3.995 135.225 3.785C135.645 3.575 136.14 3.47 136.71 3.47C137.38 3.47 137.95 3.6 138.42 3.86C138.9 4.12 139.285 4.435 139.575 4.805L138.3 5.87C138.11 5.67 137.865 5.495 137.565 5.345C137.265 5.195 136.915 5.12 136.515 5.12C136.295 5.12 136.1 5.17 135.93 5.27C135.76 5.37 135.675 5.515 135.675 5.705C135.675 5.885 135.765 6.035 135.945 6.155C136.135 6.275 136.495 6.4 137.025 6.53C137.925 6.74 138.57 7.025 138.96 7.385C139.35 7.745 139.545 8.225 139.545 8.825C139.545 9.305 139.42 9.725 139.17 10.085C138.92 10.435 138.58 10.71 138.15 10.91C137.73 11.1 137.255 11.195 136.725 11.195Z" fill="#FFF8DA"/>
</svg>
